<svg xmlns="http://www.w3.org/2000/svg" xmlns:xlink="http://www.w3.org/1999/xlink" viewBox="0 0 16 16"><defs><style>.cls-1{fill:none;}.cls-2{isolation:isolate;}.cls-3{clip-path:url(#clip-path);}.cls-4,.cls-8,.cls-9{fill:#69768b;}.cls-4{opacity:0.4;mix-blend-mode:multiply;}.cls-5{fill:#f3f9fe;}.cls-6{fill:#444546;}.cls-7{fill:#e84d3d;}.cls-8{font-size:6.06px;}.cls-8,.cls-9{font-family:OpenSans-Extrabold, Open Sans;font-weight:700;}.cls-9{font-size:3px;}</style><clipPath id="clip-path" transform="translate(0 0)"><rect class="cls-1" width="16" height="16"/></clipPath></defs><title>IX_Calendar</title><g class="cls-2"><g id="Layer_2" data-name="Layer 2"><g id="Layer_1-2" data-name="Layer 1"><g class="cls-3"><path class="cls-4" d="M1,1H16a0,0,0,0,1,0,0V12.5A3.5,3.5,0,0,1,12.5,16H1a0,0,0,0,1,0,0V1A0,0,0,0,1,1,1Z"/><path class="cls-5" d="M.5,14.5V.5h14v11a3,3,0,0,1-3,3Z" transform="translate(0 0)"/><path class="cls-6" d="M14,1V11.5A2.5,2.5,0,0,1,11.5,14H1V1H14m1-1H0V15H11.5A3.5,3.5,0,0,0,15,11.5V0Z" transform="translate(0 0)"/><rect class="cls-7" x="0.5" y="0.5" width="14" height="3.61"/><path class="cls-6" d="M14,1V3.61H1V1H14m1-1H0V4.61H15V0Z" transform="translate(0 0)"/><text class="cls-8" transform="translate(3.95 9.91)">12</text><text class="cls-9" transform="translate(3.93 13.13)">MAR</text><path class="cls-5" d="M12.18,14.42a6,6,0,0,0,.05-2.23,6,6,0,0,0,1,.07,7.13,7.13,0,0,0,1.24-.11A3,3,0,0,1,12.18,14.42Z" transform="translate(0 0)"/><path class="cls-6" d="M13.67,12.75a2.67,2.67,0,0,1-.88.89,6.55,6.55,0,0,0,0-.89h.87M15,11.5a6.32,6.32,0,0,1-1.81.26,5.2,5.2,0,0,1-1.69-.26,5.29,5.29,0,0,1,0,3.5A3.5,3.5,0,0,0,15,11.5Z" transform="translate(0 0)"/></g></g></g></g></svg>