<svg xmlns="http://www.w3.org/2000/svg" xmlns:xlink="http://www.w3.org/1999/xlink" viewBox="0 0 16 16"><defs><style>.cls-1{fill:none;}.cls-2{isolation:isolate;}.cls-3{clip-path:url(#clip-path);}.cls-4,.cls-6{fill:#69768b;}.cls-4,.cls-5{opacity:0.4;mix-blend-mode:multiply;}.cls-7{fill:#e84d3d;}</style><clipPath id="clip-path" transform="translate(-0.13 0)"><rect class="cls-1" width="16" height="16"/></clipPath></defs><title>IX_Cross</title><g class="cls-2"><g id="Layer_2" data-name="Layer 2"><g id="Layer_1-2" data-name="Layer 1"><g class="cls-3"><path class="cls-4" d="M8.63,1a7.5,7.5,0,1,0,7.5,7.5A7.5,7.5,0,0,0,8.63,1Zm0,14a6.5,6.5,0,1,1,6.5-6.5A6.5,6.5,0,0,1,8.63,15Z" transform="translate(-0.13 0)"/><g class="cls-5"><rect class="cls-6" x="4.63" y="7.5" width="8" height="2" rx="1" ry="1" transform="translate(20.61 8.41) rotate(135)"/></g><g class="cls-5"><rect class="cls-6" x="4.63" y="7.5" width="8" height="2" rx="1" ry="1" transform="translate(8.41 -3.61) rotate(45)"/></g><path class="cls-7" d="M7.63,0a7.5,7.5,0,1,0,7.5,7.5A7.5,7.5,0,0,0,7.63,0Zm0,14a6.5,6.5,0,1,1,6.5-6.5A6.5,6.5,0,0,1,7.63,14Z" transform="translate(-0.13 0)"/><rect class="cls-7" x="3.63" y="6.5" width="8" height="2" rx="1" ry="1" transform="translate(18.2 7.41) rotate(135)"/><rect class="cls-7" x="3.63" y="6.5" width="8" height="2" rx="1" ry="1" transform="translate(7.41 -3.2) rotate(45)"/></g></g></g></g></svg>