<svg xmlns="http://www.w3.org/2000/svg" xmlns:xlink="http://www.w3.org/1999/xlink" viewBox="0 0 13 16"><defs><style>.cls-1{fill:none;}.cls-2{isolation:isolate;}.cls-3{clip-path:url(#clip-path);}.cls-4{fill:#69768b;}.cls-4,.cls-8{opacity:0.4;}.cls-10,.cls-12,.cls-14,.cls-15,.cls-4,.cls-7{mix-blend-mode:multiply;}.cls-5{fill:#444546;}.cls-6,.cls-7{fill:#b4bbc5;}.cls-8{fill:#eef2f6;}.cls-11,.cls-13,.cls-8{mix-blend-mode:screen;}.cls-11,.cls-9{fill:#efc519;}.cls-10{fill:#eb802d;}.cls-10,.cls-11{opacity:0.2;}.cls-12{fill:#9e5220;}.cls-14{fill:#fff;}</style><clipPath id="clip-path" transform="translate(-2)"><rect class="cls-1" width="16" height="16"/></clipPath></defs><title>IX_Lock</title><g class="cls-2"><g id="Layer_2" data-name="Layer 2"><g id="Layer_1-2" data-name="Layer 1"><g class="cls-3"><path class="cls-4" d="M14,7.5V5.71A4.86,4.86,0,0,0,9,1,4.86,4.86,0,0,0,4,5.71V7.5H3V16H15V7.5ZM9,4.86a.94.94,0,0,1,1,.85V7.5H8V5.71A.94.94,0,0,1,9,4.86Z" transform="translate(-2)"/><path class="cls-5" d="M2.5,14.5V7h1V4.71A4.37,4.37,0,0,1,8,.5a4.37,4.37,0,0,1,4.5,4.21V7h1v7.5ZM9.5,7V4.71A1.43,1.43,0,0,0,8,3.36,1.43,1.43,0,0,0,6.5,4.71V7Z" transform="translate(-2)"/><path class="cls-5" d="M8,1a3.86,3.86,0,0,1,4,3.71V7.5h1V14H3V7.5H4V4.71A3.86,3.86,0,0,1,8,1M6,7.5h4V4.71A1.93,1.93,0,0,0,8,2.86,1.93,1.93,0,0,0,6,4.71V7.5M8,0A4.86,4.86,0,0,0,3,4.71V6.5H2V15H14V6.5H13V4.71A4.86,4.86,0,0,0,8,0ZM7,6.5V4.71a.94.94,0,0,1,1-.85.94.94,0,0,1,1,.85V6.5Z" transform="translate(-2)"/><path class="cls-6" d="M12,4.71A3.86,3.86,0,0,0,8,1,3.86,3.86,0,0,0,4,4.71V8.43H6V4.71A1.93,1.93,0,0,1,8,2.86a1.93,1.93,0,0,1,2,1.85V8.43h2Z" transform="translate(-2)"/><path class="cls-7" d="M8,1a4.23,4.23,0,0,0-.5.05A3.81,3.81,0,0,1,11,4.71V8.43h1V4.71A3.86,3.86,0,0,0,8,1Z" transform="translate(-2)"/><path class="cls-8" d="M6,4.71A1.93,1.93,0,0,1,8,2.86a1.93,1.93,0,0,1,2,1.85V8.43h.67V4.71A2.26,2.26,0,0,0,8.33,2.55,2.25,2.25,0,0,0,6,4.71Z" transform="translate(-2)"/><path class="cls-8" d="M8,1a4.23,4.23,0,0,1,.5.05A3.81,3.81,0,0,0,5,4.71V8.43H4V4.71A3.86,3.86,0,0,1,8,1Z" transform="translate(-2)"/><path class="cls-7" d="M10,4.71A1.93,1.93,0,0,0,8,2.86,1.93,1.93,0,0,0,6,4.71V8.43H5.33V4.71A2.26,2.26,0,0,1,7.67,2.55,2.25,2.25,0,0,1,10,4.71Z" transform="translate(-2)"/><rect class="cls-9" x="1" y="7.5" width="10" height="6.5"/><rect class="cls-10" x="7" y="7.5" width="4" height="6.5"/><rect class="cls-10" x="9" y="7.5" width="2" height="6.5"/><rect class="cls-11" x="1" y="7.5" width="4" height="6.5"/><rect class="cls-11" x="1" y="7.5" width="2" height="6.5"/><path class="cls-12" d="M9.46,12.9l-.81-1.73a1.16,1.16,0,0,0,.61-1A1.21,1.21,0,0,0,8,9a1.21,1.21,0,0,0-1.26,1.17,1.16,1.16,0,0,0,.61,1L6.54,12.9Z" transform="translate(-2)"/><g class="cls-13"><path class="cls-14" d="M7,10.87a.81.81,0,0,0,.16.16v0A1.09,1.09,0,0,1,7,10.87Z" transform="translate(-2)"/><path class="cls-14" d="M8.65,11.17a1.16,1.16,0,0,0,.61-1,1.11,1.11,0,0,0-.45-.88,1.15,1.15,0,0,1,.28.71,1.18,1.18,0,0,1-.61,1l.8,1.73H6.62l-.08.17H9.46Z" transform="translate(-2)"/></g><g class="cls-15"><path class="cls-12" d="M7.3,11.13a1.09,1.09,0,0,1-.23-.65A1.22,1.22,0,0,1,8.33,9.3,1.32,1.32,0,0,1,9,9.51,1.29,1.29,0,0,0,8,9a1.21,1.21,0,0,0-1.26,1.17A1.13,1.13,0,0,0,7.3,11.13Z" transform="translate(-2)"/><path class="cls-12" d="M7.68,11.47a1.3,1.3,0,0,1-.34-.28l-.8,1.71H7Z" transform="translate(-2)"/></g></g></g></g></g></svg>