<svg xmlns="http://www.w3.org/2000/svg" xmlns:xlink="http://www.w3.org/1999/xlink" viewBox="0 0" preserveAspectRatio="xMinYMid"><defs><style>.cls-1{fill:none;}.cls-2{isolation:isolate;}.cls-3{clip-path:url(#clip-path);}.cls-4{fill:#69768b;opacity:0.4;mix-blend-mode:multiply;}.cls-5{fill:#fff;}.cls-6{fill:#424142;}.cls-7{fill:#f4f5f6;}</style><clipPath id="clip-path" transform="translate(-2)"><rect id="SVGID" class="cls-1" width="16" height="16"/></clipPath></defs><title>IX_ProjectIcon</title><g class="cls-2"><g id="Layer_2" data-name="Layer 2"><g id="Layer_1-2" data-name="Layer 1"><g class="cls-3"><g id="_Group_" data-name="&lt;Group&gt;"><polygon class="cls-4" points="12 5.11 7.74 1 1 1 1 16 12 16 12 5.11"/><g id="_Group_2" data-name="&lt;Group&gt;"><polygon class="cls-5" points="0.5 14.5 0.5 0.5 6.54 0.5 10.5 4.32 10.5 14.5 0.5 14.5"/><path class="cls-6" d="M8.34,1,12,4.53V14H3V1H8.34m.4-1H2V15H13V4.11L8.74,0Z" transform="translate(-2)"/></g><polygon class="cls-7" points="1 9.93 1 14 10 14 10 7.09 1 9.93"/><g id="_Group_3" data-name="&lt;Group&gt;"><path class="cls-6" d="M9,1.72,11.28,4H9V1.72M8.7,0H8V5h5V4.31L8.7,0Z" transform="translate(-2)"/></g><polygon id="_Path_" data-name="&lt;Path&gt;" class="cls-4" points="7 5 7 6.31 11.02 5 7 5"/></g></g></g></g></g></svg>