<svg xmlns="http://www.w3.org/2000/svg" xmlns:xlink="http://www.w3.org/1999/xlink" viewBox="0 0 16 16"><defs><style>.cls-1{fill:none;}.cls-2{isolation:isolate;}.cls-3{clip-path:url(#clip-path);}.cls-4{fill:#69768b;mix-blend-mode:multiply;}.cls-4,.cls-7{opacity:0.4;}.cls-5{fill:#3b97d3;}.cls-6{fill:#444546;}.cls-7{fill:#eef2f6;mix-blend-mode:screen;}</style><clipPath id="clip-path"><rect class="cls-1" width="16" height="16"/></clipPath></defs><title>IX_Rerun</title><g class="cls-2"><g id="Layer_2" data-name="Layer 2"><g id="Layer_1-2" data-name="Layer 1"><g class="cls-3"><path class="cls-4" d="M15,1a1,1,0,0,0-.71.29L13,2.55A7.36,7.36,0,0,0,8.5,1a7.5,7.5,0,0,0,0,15,7.43,7.43,0,0,0,5.3-2.2,1,1,0,0,0,0-1.41L12.39,11a1,1,0,0,0-.71-.29A1,1,0,0,0,11,11,3.44,3.44,0,0,1,8.5,12a3.5,3.5,0,0,1,0-7,3.38,3.38,0,0,1,1.65.43l-.86.86a1,1,0,0,0-.21,1.09A1,1,0,0,0,10,8h5a1,1,0,0,0,1-1V2a1,1,0,0,0-.62-.92A.84.84,0,0,0,15,1Z"/><path class="cls-5" d="M14,6V1L12.09,2.91a6.49,6.49,0,1,0,0,9.19l-1.42-1.42a4.51,4.51,0,1,1,0-6.35L9,6Z"/><path class="cls-5" d="M7.5,14.5a7,7,0,0,1,0-14,6.92,6.92,0,0,1,4.57,1.72L13.65.65A.47.47,0,0,1,14,.5a.43.43,0,0,1,.19,0A.5.5,0,0,1,14.5,1V6a.5.5,0,0,1-.5.5H9a.5.5,0,0,1-.46-.31.47.47,0,0,1,.11-.54L9.94,4.36A3.88,3.88,0,0,0,7.5,3.5a4,4,0,1,0,2.83,6.83.49.49,0,0,1,.35-.15.51.51,0,0,1,.36.15l1.41,1.41a.51.51,0,0,1,0,.71A7,7,0,0,1,7.5,14.5Z"/><path class="cls-6" d="M14,1V6H9l1.67-1.67a4.49,4.49,0,1,0,0,6.35L12.1,12.1a6.51,6.51,0,1,1,0-9.19L14,1m0-1a1,1,0,0,0-.71.29L12,1.55A7.36,7.36,0,0,0,7.5,0a7.5,7.5,0,0,0,0,15,7.43,7.43,0,0,0,5.3-2.2,1,1,0,0,0,0-1.41L11.39,10a1,1,0,0,0-.71-.29A1,1,0,0,0,10,10,3.44,3.44,0,0,1,7.5,11a3.5,3.5,0,0,1,0-7,3.38,3.38,0,0,1,1.65.43l-.86.86a1,1,0,0,0-.21,1.09A1,1,0,0,0,9,7h5a1,1,0,0,0,1-1V1a1,1,0,0,0-.62-.92A.84.84,0,0,0,14,0Z"/><path class="cls-7" d="M12.1,2.9A6.5,6.5,0,1,0,7.5,14h.25a6,6,0,1,1,4-10.7l.41.35.34-.34L14,1.76V1Z"/><polygon class="cls-7" points="9 6 10.66 4.33 11 4.76 9.76 6 9 6"/></g></g></g></g></svg>