<?xml version="1.0" encoding="utf-8"?>
<!-- Generator: Adobe Illustrator 22.0.1, SVG Export Plug-In . SVG Version: 6.00 Build 0)  -->
<svg version="1.1" id="Layer_1" xmlns="http://www.w3.org/2000/svg" xmlns:xlink="http://www.w3.org/1999/xlink" x="0px" y="0px"
	 viewBox="0 0 16 16" style="enable-background:new 0 0 16 16;" xml:space="preserve">
<style type="text/css">
	.st0{clip-path:url(#SVGID_2_);}
	.st1{opacity:0.4;fill:#69768B;enable-background:new    ;}
	.st2{fill:#FFFFFF;}
	.st3{fill:#424142;}
	.st4{fill:#F4F5F6;}
	.st5{fill:#444546;}
	.st6{fill:none;stroke:#E84D3D;stroke-linecap:round;stroke-linejoin:round;}
	.st7{fill:#FFFFFF;stroke:#444546;stroke-linecap:round;stroke-linejoin:round;}
</style>
<title>IX_Recent</title>
<g>
	<g id="Layer_2_1_">
		<g id="Layer_1-2">
			<g>
				<defs>
					<rect id="SVGID_1_" width="16" height="16"/>
				</defs>
				<clipPath id="SVGID_2_">
					<use xlink:href="#SVGID_1_"  style="overflow:visible;"/>
				</clipPath>
				<g class="st0">
					<g id="_Group_">
						<path class="st1" d="M16,11c0-1.8-0.9-3.4-2.4-4.3V5L9.4,0.9H2.9V16h10.7v-0.7C15.1,14.4,16,12.8,16,11z"/>
						<g id="_Group_2">
							<polygon class="st2" points="2.5,14.6 2.5,0.5 8.3,0.5 12.2,4.3 12.2,14.6 							"/>
							<path class="st3" d="M8.1,1l3.6,3.6v9.6H3V1H8.1 M8.6,0H2v15.1h10.7v-11L8.6,0z"/>
						</g>
						<g id="_Group_3">
							<path class="st3" d="M9,1.8l1.9,1.9H9V1.8 M8.7,0H8v4.7h4.7V4L8.7,0L8.7,0z"/>
						</g>
						<polygon id="_Path_" class="st1" points="8.7,4.7 8.7,6 12.7,4.7 						"/>
						<polygon class="st4" points="3,10 3,14.1 11.7,14.1 11.7,7.2 						"/>
					</g>
					<circle class="st2" cx="10" cy="10" r="4.5"/>
					<path class="st5" d="M10,6c2.2,0,4,1.8,4,4s-1.8,4-4,4s-4-1.8-4-4S7.8,6,10,6 M10,5c-2.8,0-5,2.2-5,5s2.2,5,5,5s5-2.2,5-5
						S12.8,5,10,5z"/>
					<line class="st6" x1="10" y1="10" x2="7.9" y2="7.9"/>
					<polyline class="st7" points="10,7 10,10 13,10 					"/>
				</g>
			</g>
		</g>
	</g>
</g>
</svg>
