<?xml version="1.0" encoding="utf-8"?>
<!-- Generator: Adobe Illustrator 22.0.1, SVG Export Plug-In . SVG Version: 6.00 Build 0)  -->
<svg version="1.1" id="Layer_1" xmlns="http://www.w3.org/2000/svg" xmlns:xlink="http://www.w3.org/1999/xlink" x="0px" y="0px"
	 viewBox="0 0" style="enable-background:new 0 0 16 16;" xml:space="preserve">
<style type="text/css">
	.st0{clip-path:url(#SVGID_2_);}
	.st1{opacity:0.4;fill:#69768B;enable-background:new    ;}
	.st2{fill:#FFFFFF;}
	.st3{fill:#424142;}
	.st4{fill:#F4F5F6;}
	.st5{fill:#3B97D3;}
	.st6{fill:#444546;}
	.st7{opacity:0.4;fill:#EEF2F6;enable-background:new    ;}
</style>
<title>Infiniti X Manage Icons</title>
<g>
	<g id="Layer_1_1_">
		<g>
			<defs>
				<rect id="SVGID_1_" width="16" height="16"/>
			</defs>
			<clipPath id="SVGID_2_">
				<use xlink:href="#SVGID_1_"  style="overflow:visible;"/>
			</clipPath>
			<g class="st0">
				<g id="_Group_">
					<path class="st1" d="M15.4,6.3c-0.1-0.1-0.2-0.1-0.4-0.1c-0.3,0-0.5,0.1-0.7,0.3L13.8,7h-0.1V5L9.6,0.9H3V16h10.7v-0.8
						c0.3-0.2,0.6-0.4,0.9-0.7c0.4-0.4,0.4-1,0-1.4l-0.8-0.9l0,0v-1.1H15c0.6,0,1-0.4,1-1v-3C16,6.8,15.8,6.4,15.4,6.3z"/>
					<g id="_Group_2">
						<polygon class="st2" points="2.5,14.6 2.5,0.5 8.3,0.5 12.2,4.3 12.2,14.6 						"/>
						<path class="st3" d="M8.1,1l3.6,3.6v9.6H3V1H8.1 M8.6,0H2v15.1h10.7v-11L8.6,0z"/>
					</g>
					<g id="_Group_3">
						<path class="st3" d="M9,1.8l1.9,1.9H9V1.8 M8.7,0H8v4.7h4.7V4L8.7,0z"/>
					</g>
					<polygon id="_Path_" class="st1" points="8.7,4.7 8.7,6 12.7,4.7 					"/>
					<polygon class="st4" points="3,10 3,14.1 11.7,14.1 11.7,7.2 					"/>
				</g>
				<path class="st1" d="M11.1,10.6c0.2,0.4,0.5,0.6,0.9,0.6h0.7V6.5c-0.5-0.2-1-0.3-1.6-0.3c-2.7,0-4.9,2.2-4.9,4.9
					c0,1.6,0.8,3.1,2.1,4h4.4v-3c-0.1,0-0.3,0.1-0.4,0.2c-0.7,0.7-1.7,0.7-2.4,0s-0.7-1.7,0-2.4c0.3-0.3,0.8-0.5,1.2-0.5h0.3
					l-0.1,0.1C11,9.8,10.9,10.2,11.1,10.6z"/>
				<path class="st5" d="M14,9.2v-3l-1.1,1.2c-0.7-0.7-1.7-1.2-2.8-1.2c-2.2,0-3.9,1.8-3.9,3.9c0,2.2,1.8,3.9,3.9,3.9
					c1,0,2-0.4,2.8-1.1L12,12c-1,1.1-2.8,1.1-3.8,0s-1.1-2.8,0-3.8s2.8-1.1,3.8,0c0,0,0,0,0,0l-1,1H14z"/>
				<path class="st5" d="M10.1,14.5c-2.4,0-4.4-2-4.4-4.4s2-4.4,4.4-4.4c1,0,2,0.3,2.8,1l0.8-0.8c0.1-0.1,0.2-0.2,0.4-0.2
					c0.1,0,0.1,0,0.2,0c0.2,0.1,0.3,0.3,0.3,0.5v3c0,0.3-0.2,0.5-0.5,0.5h-3c-0.2,0-0.4-0.1-0.5-0.3c-0.1-0.2,0-0.4,0.1-0.5l0.6-0.6
					c-0.3-0.2-0.7-0.3-1.1-0.3c-1.2,0-2.2,1-2.2,2.2s1,2.2,2.2,2.2c0.6,0,1.1-0.2,1.5-0.6c0.2-0.2,0.5-0.2,0.7,0c0,0,0,0,0,0
					l0.9,0.8c0.2,0.2,0.2,0.5,0,0.7c0,0,0,0,0,0C12.4,14,11.3,14.5,10.1,14.5z"/>
				<path class="st6" d="M14,6.2v3h-3l1-1c-0.5-0.5-1.2-0.8-1.9-0.8c-1.5,0-2.7,1.2-2.7,2.7c0,1.5,1.2,2.7,2.7,2.7
					c0.7,0,1.4-0.3,1.9-0.8l0.9,0.9c-1.5,1.5-4,1.5-5.5,0s-1.5-4,0-5.5c0.7-0.7,1.7-1.2,2.8-1.1c1,0,2,0.4,2.8,1.2L14,6.2 M14,5.2
					c-0.3,0-0.5,0.1-0.7,0.3L12.8,6c-0.8-0.5-1.7-0.8-2.7-0.8c-2.7,0-4.9,2.2-4.9,4.9S7.4,15,10.1,15c1.3,0,2.5-0.5,3.5-1.4
					c0.4-0.4,0.4-1,0-1.4l-0.8-0.9c-0.4-0.4-1-0.4-1.4,0c0,0,0,0,0,0c-0.7,0.7-1.7,0.7-2.4,0s-0.7-1.7,0-2.4
					c0.3-0.3,0.8-0.5,1.2-0.5h0.3l-0.1,0.1C10,8.8,9.9,9.2,10.1,9.6c0.2,0.4,0.5,0.6,0.9,0.6h3c0.6,0,1-0.4,1-1v-3
					c0-0.4-0.2-0.8-0.6-0.9C14.3,5.2,14.1,5.2,14,5.2z"/>
				<path class="st7" d="M12.9,7.3c-1.5-1.5-4-1.5-5.5,0s-1.5,4,0,5.5c0.7,0.7,1.7,1.1,2.8,1.1h0.1c-2-0.1-3.5-1.8-3.5-3.7
					c0.1-2,1.8-3.5,3.7-3.5c0.8,0,1.5,0.3,2.1,0.8l0.2,0.2l0.2-0.2L14,6.7V6.2L12.9,7.3z"/>
				<polygon class="st7" points="11,9.2 12,8.2 12.2,8.5 11.5,9.2 				"/>
			</g>
		</g>
	</g>
</g>
</svg>
