<svg xmlns="http://www.w3.org/2000/svg" xmlns:xlink="http://www.w3.org/1999/xlink" viewBox="0 0 16 16"><defs><style>.cls-1{fill:none;}.cls-2{isolation:isolate;}.cls-3{clip-path:url(#clip-path);}.cls-4,.cls-6{opacity:0.4;mix-blend-mode:multiply;}.cls-5,.cls-6{fill:#69768b;}.cls-7{fill:#fff;}</style><clipPath id="clip-path" transform="translate(-0.13 0)"><rect class="cls-1" width="16" height="16"/></clipPath></defs><title>IX_Up</title><g class="cls-2"><g id="Layer_2" data-name="Layer 2"><g id="Layer_1-2" data-name="Layer 1"><g class="cls-3"><g class="cls-4"><path class="cls-5" d="M9,4l3.37,3.37a1,1,0,0,1,0,1.41h0a1,1,0,0,1-1.42,0L7.54,5.38Z" transform="translate(-0.13 0)"/><path class="cls-5" d="M9,4,5.59,7.33a1,1,0,0,0,0,1.41h0A1,1,0,0,0,7,8.74l3.37-3.36Z" transform="translate(-0.13 0)"/><path class="cls-5" d="M5.14,8.1h6.63a1,1,0,0,1,1,1v0a1,1,0,0,1-1,1H5.14a0,0,0,0,1,0,0v-2a0,0,0,0,1,0,0Z" transform="translate(17.93 0.14) rotate(90)"/></g><path class="cls-6" d="M8.63,1a7.5,7.5,0,1,0,7.5,7.5A7.5,7.5,0,0,0,8.63,1Zm0,14a6.5,6.5,0,1,1,6.5-6.5A6.5,6.5,0,0,1,8.63,15Z" transform="translate(-0.13 0)"/><path class="cls-7" d="M7.63,0a7.5,7.5,0,1,0,7.5,7.5A7.5,7.5,0,0,0,7.63,0Zm0,14a6.5,6.5,0,1,1,6.5-6.5A6.5,6.5,0,0,1,7.63,14Z" transform="translate(-0.13 0)"/><path class="cls-7" d="M8.1,3l3.36,3.36a1,1,0,0,1,0,1.41h0a1,1,0,0,1-1.41,0L6.69,4.44Z" transform="translate(-0.13 0)"/><path class="cls-7" d="M8.1,3,4.74,6.39a1,1,0,0,0,0,1.41h0a1,1,0,0,0,1.41,0L9.52,4.44Z" transform="translate(-0.13 0)"/><path class="cls-7" d="M4.28,7.16h6.63a1,1,0,0,1,1,1v0a1,1,0,0,1-1,1H4.28a0,0,0,0,1,0,0v-2A0,0,0,0,1,4.28,7.16Z" transform="translate(16.13 0.06) rotate(90)"/></g></g></g></g></svg>