<svg id="Layer_1" data-name="Layer 1" xmlns="http://www.w3.org/2000/svg" viewBox="0 0 200 68"><defs><style>.cls-1,.cls-5,.cls-6{fill:#fff;}.cls-1,.cls-4{opacity:0.6;}.cls-2{fill:#f38274;}.cls-3{fill:#ee3642;}.cls-6{fill-rule:evenodd;}</style></defs><title>IX</title><path class="cls-1" d="M113.73,22c.16-.28,0-.54-.28-.54h-.57a.8.8,0,0,0-.72.43L111,23.65l.83,1.28Zm.18,7.35-2-3.18L111,27.52l1.26,2a.76.76,0,0,0,.69.46h.66c.31,0,.48-.25.28-.56"/><path class="cls-1" d="M48,22a.49.49,0,0,1,.51-.52H49a.5.5,0,0,1,.52.52v7.41a.49.49,0,0,1-.52.51h-.48a.47.47,0,0,1-.51-.51Zm-.16-2.89a.92.92,0,0,1,1.84,0,.92.92,0,0,1-1.84,0"/><path class="cls-1" d="M51.17,22a.47.47,0,0,1,.49-.52h.25c.31,0,.53.13.56.44l.05.39a4,4,0,0,1,2.48-1,2.57,2.57,0,0,1,2.77,2.85v5.3a.49.49,0,0,1-.52.51h-.48a.47.47,0,0,1-.51-.51v-5c0-1.21-.38-1.82-1.53-1.82a3.28,3.28,0,0,0-2.05,1v5.89a.49.49,0,0,1-.52.51h-.48a.47.47,0,0,1-.51-.51Z"/><path class="cls-1" d="M59.78,22.63l-.85-.07c-.36,0-.51-.16-.51-.47v-.15c0-.31.2-.44.51-.44h.85V19.32a.5.5,0,0,1,.53-.52h.47a.49.49,0,0,1,.51.52V21.5H62.8a.45.45,0,0,1,.51.47v.2c0,.31-.2.46-.51.46H61.29v4.82c0,1,.53,1.39,1.23,1.39a6.37,6.37,0,0,0,.67,0c.31-.07.51,0,.57.33l.07.36a.48.48,0,0,1-.41.59,5.29,5.29,0,0,1-1,.08,2.4,2.4,0,0,1-2.67-2.53Z"/><path class="cls-1" d="M69.55,25v-.33a1.89,1.89,0,1,0-3.77,0V25Zm-5.28-.25a3.3,3.3,0,0,1,3.38-3.44,3.36,3.36,0,0,1,3.41,3.44v1a.35.35,0,0,1-.36.36H65.78v.62a1.92,1.92,0,0,0,2,2.13,7.16,7.16,0,0,0,2-.29c.33-.08.57,0,.66.33l.08.29a.5.5,0,0,1-.38.62,8.53,8.53,0,0,1-2.33.36,3.32,3.32,0,0,1-3.56-3.44Z"/><path class="cls-1" d="M72.35,18.56a.5.5,0,0,1,.53-.53h.47a.49.49,0,0,1,.51.53v9.69c0,.39.12.51.21.59a.41.41,0,0,1,.18.52l-.08.36a.45.45,0,0,1-.59.36,1.47,1.47,0,0,1-1.23-1.69Z"/><path class="cls-1" d="M75.93,18.56a.5.5,0,0,1,.53-.53h.47a.49.49,0,0,1,.51.53v9.69c0,.39.12.51.21.59a.42.42,0,0,1,.18.52l-.08.36a.45.45,0,0,1-.59.36,1.47,1.47,0,0,1-1.23-1.69Z"/><path class="cls-1" d="M84.06,25v-.33a1.89,1.89,0,1,0-3.77,0V25Zm-5.28-.25a3.3,3.3,0,0,1,3.38-3.44,3.36,3.36,0,0,1,3.41,3.44v1a.35.35,0,0,1-.36.36H80.29v.62a1.92,1.92,0,0,0,2,2.13,7.16,7.16,0,0,0,2-.29c.33-.08.57,0,.66.33l.08.29a.5.5,0,0,1-.38.62,8.53,8.53,0,0,1-2.33.36,3.32,3.32,0,0,1-3.56-3.44Z"/><path class="cls-1" d="M89.9,28.85a3.45,3.45,0,0,0,2-.92V23.55a3.35,3.35,0,0,0-2-1c-1.25,0-1.77.77-1.77,2.36v1.53c0,1.59.52,2.36,1.77,2.36m-3.3-4.13c0-2.16,1.16-3.43,3.07-3.43a3.57,3.57,0,0,1,2.25.92V18.56a.49.49,0,0,1,.51-.53h.48a.5.5,0,0,1,.52.53V29.44a.45.45,0,0,1-.47.51h-.31c-.31,0-.49-.08-.52-.39l0-.43a3.64,3.64,0,0,1-2.39,1c-1.9,0-3.07-1.28-3.07-3.41Z"/><path class="cls-1" d="M98.31,28.85c1.49,0,2-1,2-2.56V25.16c0-1.56-.51-2.56-2-2.56s-2,1-2,2.56v1.13c0,1.59.52,2.56,2,2.56M94.79,25c0-2.28,1.31-3.74,3.53-3.74s3.54,1.46,3.54,3.74v1.39c0,2.3-1.33,3.74-3.54,3.74s-3.53-1.44-3.53-3.74Z"/><path class="cls-2" d="M105.76,26.83,104,29.54a.73.73,0,0,1-.67.41h-.62c-.31,0-.46-.26-.28-.56l2.44-3.79-2.25-3.53c-.16-.28,0-.57.28-.57h.61a.8.8,0,0,1,.72.43l1.54,2.41.87,1.23Z"/><path class="cls-3" d="M109.56,26.83l-1.76,2.71a.73.73,0,0,1-.67.41h-.62c-.31,0-.46-.26-.28-.56l2.44-3.79-2.25-3.53c-.16-.28,0-.57.28-.57h.61a.8.8,0,0,1,.72.43l1.54,2.41.87,1.23Z"/><g class="cls-4"><rect class="cls-5" x="47.88" y="35.67" width="2.31" height="14.1"/><path class="cls-5" d="M62.55,35.67v7.38q0,.78.06,2.17t.08,1.62h-.06L55.73,35.67h-2.8V49.75h2V42.42q0-1.49-.13-3.28v-.63h.08l6.94,11.26h2.82V35.67Z"/><polygon class="cls-5" points="67.41 49.77 69.69 49.77 69.69 43.99 75 43.99 75 42.03 69.69 42.03 69.69 37.62 75.38 37.62 75.38 35.67 67.41 35.67 67.41 49.77"/><rect class="cls-5" x="76.93" y="35.67" width="2.31" height="14.1"/><path class="cls-5" d="M91.56,35.67v7.38q0,.78.11,2.17t.08,1.62h-.06L84.77,35.67H82V49.75h2V42.42q0-1.49-.13-3.28v-.63H84l6.94,11.26h2.82l0-14.1Z"/><rect class="cls-5" x="96.46" y="35.67" width="2.31" height="14.1"/><polygon class="cls-5" points="99.91 37.63 104.06 37.63 104.06 49.77 106.37 49.77 106.37 37.63 110.51 37.63 110.51 35.61 99.91 35.61 99.91 37.63"/><rect class="cls-5" x="111.69" y="35.67" width="2.31" height="14.1"/></g><path class="cls-5" d="M122.74,35.62h-3.45v14.1h1V43.89h2.18a6.24,6.24,0,0,0,3.93-1.09,3.75,3.75,0,0,0,1.39-3.14Q127.8,35.62,122.74,35.62Zm2.94,6.63a5.88,5.88,0,0,1-3.44.79H120.3l-.06-6.54h2.34a5.06,5.06,0,0,1,3.11.79,2.88,2.88,0,0,1,1,2.42A3,3,0,0,1,125.68,42.25Z"/><path class="cls-5" d="M137.68,41.87a3.81,3.81,0,0,0,.75-2.4,3.46,3.46,0,0,0-1.33-2.84,6.33,6.33,0,0,0-3.87-1h-3.36v14.1h1V43.58h3.51l3.67,6.14h1.17l-3.83-6.42A4.16,4.16,0,0,0,137.68,41.87Zm-4.12.86h-2.69l0-6.23h2.34a5.26,5.26,0,0,1,3.15.74,2.75,2.75,0,0,1,1,2.35,2.84,2.84,0,0,1-1,2.35A4.3,4.3,0,0,1,133.56,42.73Z"/><path class="cls-5" d="M150.82,37.37a5.76,5.76,0,0,0-4.62-1.94,5.83,5.83,0,0,0-4.63,1.9,7.77,7.77,0,0,0-1.69,5.3A7.91,7.91,0,0,0,141.56,48l.13.13a6.45,6.45,0,0,0,9.12-.13,7.88,7.88,0,0,0,1.68-5.31A7.88,7.88,0,0,0,150.82,37.37Zm-.75,10-.13.13a5.4,5.4,0,0,1-7.64-.13A7.22,7.22,0,0,1,141,42.65,7.08,7.08,0,0,1,142.32,38l.09-.09a5.42,5.42,0,0,1,7.67.09,7.15,7.15,0,0,1,1.35,4.67A7.23,7.23,0,0,1,150.08,47.33Z"/><path class="cls-5" d="M163.71,37.38a7,7,0,0,0-5.16-1.76h-3.81V49.7h3.38a7.52,7.52,0,0,0,5.47-1.82,7.18,7.18,0,0,0,1.86-5.37A7,7,0,0,0,163.71,37.38Zm.67,5.13v.07q0,6.27-6.31,6.27h-2.34V36.44h2.6a6.15,6.15,0,0,1,4.51,1.51A6.16,6.16,0,0,1,164.38,42.51Z"/><path class="cls-5" d="M177,44.83A3.86,3.86,0,0,1,172.81,49a3.93,3.93,0,0,1-4.26-4.31v-9.1h-1v9.1a4.76,4.76,0,0,0,5.2,5.21,5.39,5.39,0,0,0,3.92-1.37,5.06,5.06,0,0,0,1.41-3.85v-9.1h-1Z"/><path class="cls-5" d="M183.29,36.34a5.9,5.9,0,0,0-2.35,2.53,8.4,8.4,0,0,0-.82,3.79A7.8,7.8,0,0,0,181.83,48a5.94,5.94,0,0,0,4.68,1.92,10.64,10.64,0,0,0,3.49-.5v-.87a11.13,11.13,0,0,1-3.2.43,5.13,5.13,0,0,1-4.11-1.67,7,7,0,0,1-1.44-4.68A6.71,6.71,0,0,1,182.79,38a5.33,5.33,0,0,1,4.18-1.7,7.15,7.15,0,0,1,3.17.8l.39-.89a8.53,8.53,0,0,0-3.69-.77A6.92,6.92,0,0,0,183.29,36.34Z"/><polygon class="cls-5" points="199.91 36.53 199.91 35.62 192.2 35.62 192.2 49.72 199.91 49.72 199.91 48.84 193.18 48.84 193.18 42.77 199.52 42.77 199.52 41.86 193.18 41.86 193.18 36.53 199.91 36.53"/><g class="cls-4"><path class="cls-5" d="M115.56,22.72h-.2V21.67H115V21.5h.92v.17h-.36Z"/><path class="cls-5" d="M116.55,22.72l-.35-1h0q0,.23,0,.43v.59H116V21.5h.28l.34,1h0l.35-1h.28v1.22h-.19v-.61q0-.09,0-.24c0-.1,0-.16,0-.18h0l-.37,1Z"/></g><circle class="cls-3" cx="19.4" cy="34" r="19"/><path class="cls-6" d="M8.27,24.87v3.62H30.53V24.87Zm0,7.24v3.62H30.53V32.11Zm0,7.4v3.62H23.11V39.51Z"/></svg>