<svg id="Layer_1" data-name="Layer 1" xmlns="http://www.w3.org/2000/svg" xmlns:xlink="http://www.w3.org/1999/xlink" width="404" height="128" viewBox="0 0 404 128"><defs><style>.cls-1,.cls-2,.cls-7{fill:#fff;}.cls-1{opacity:0.6;}.cls-2{opacity:0.4;}.cls-3{fill:#e53b48;}.cls-4{fill:#f38274;}.cls-5{fill:url(#linear-gradient);}.cls-6{fill:#ee3642;}</style><linearGradient id="linear-gradient" x1="32.75" y1="27.23" x2="106.29" y2="100.77" gradientUnits="userSpaceOnUse"><stop offset="0" stop-color="#eeeeef"/><stop offset="1" stop-color="#d5d6d7"/></linearGradient></defs><title>IxInfinitiGOSiteLogo-Rev-Fancy</title><path class="cls-1" d="M141.23,63.1a4.17,4.17,0,0,1,8.33,0,4.17,4.17,0,0,1-8.33,0ZM142,76.19a2.21,2.21,0,0,1,2.31-2.39h2.15a2.27,2.27,0,0,1,2.39,2.39v33.62a2.21,2.21,0,0,1-2.39,2.3h-2.15a2.15,2.15,0,0,1-2.31-2.3Z"/><path class="cls-1" d="M156.93,76.19a2.16,2.16,0,0,1,2.23-2.39h1.12c1.41,0,2.37.6,2.52,2L163,77.6c3.64-3,7.36-4.76,11.23-4.76,8.25,0,12.56,5.06,12.56,12.94v24a2.2,2.2,0,0,1-2.37,2.3h-2.16a2.15,2.15,0,0,1-2.31-2.3V87.05c0-5.51-1.7-8.26-6.91-8.26-3.35,0-6.25,1.79-9.3,4.32v26.7a2.21,2.21,0,0,1-2.38,2.3h-2.15a2.15,2.15,0,0,1-2.31-2.3Z"/><path class="cls-1" d="M196.88,78.94l-3.87-.3c-1.33-.15-2.3-.82-2.3-2.23v-.59c0-1.42.89-2,2.3-2h3.87V70.09c0-8.25,5.06-12.94,14.43-12.94a35.11,35.11,0,0,1,8.11,1c1.41.37,2.31,1.26,1.94,2.75l-.3,1.34a2.1,2.1,0,0,1-2.76,1.7,31.18,31.18,0,0,0-6.76-.81c-5.29,0-7.81,2.08-7.81,7.43V73.8h6.09A2.11,2.11,0,0,1,212.21,76v.9c0,1.41-1,2.08-2.39,2.08h-6.09v30.87a2.15,2.15,0,0,1-2.31,2.3h-2.16a2.21,2.21,0,0,1-2.38-2.3Zm22.32-2.75a2.26,2.26,0,0,1,2.37-2.39h2.16A2.21,2.21,0,0,1,226,76.19v33.62a2.15,2.15,0,0,1-2.31,2.3h-2.16a2.2,2.2,0,0,1-2.37-2.3Z"/><path class="cls-1" d="M234.43,76.19a2.16,2.16,0,0,1,2.23-2.39h1.12c1.41,0,2.38.6,2.53,2l.22,1.78c3.64-3,7.36-4.76,11.23-4.76,8.26,0,12.57,5.06,12.57,12.94v24a2.21,2.21,0,0,1-2.38,2.3h-2.16a2.14,2.14,0,0,1-2.3-2.3V87.05c0-5.51-1.71-8.26-6.92-8.26-3.34,0-6.25,1.79-9.3,4.32v26.7a2.2,2.2,0,0,1-2.38,2.3h-2.15a2.15,2.15,0,0,1-2.31-2.3Z"/><path class="cls-1" d="M271.44,63.1a4.17,4.17,0,0,1,8.33,0,4.17,4.17,0,0,1-8.33,0Zm.74,13.09a2.22,2.22,0,0,1,2.31-2.39h2.15A2.27,2.27,0,0,1,279,76.19v33.62a2.21,2.21,0,0,1-2.39,2.3h-2.15a2.15,2.15,0,0,1-2.31-2.3Z"/><path class="cls-1" d="M289.78,78.94l-3.87-.3c-1.64-.22-2.3-.74-2.3-2.15v-.67c0-1.42.89-2,2.3-2h3.87V63.91a2.26,2.26,0,0,1,2.38-2.37h2.16a2.2,2.2,0,0,1,2.3,2.37V73.8h6.85a2,2,0,0,1,2.3,2.16v.9c0,1.41-.89,2.08-2.3,2.08h-6.85V100.8c0,4.62,2.38,6.32,5.58,6.32a28.86,28.86,0,0,0,3.05-.21c1.41-.3,2.31.14,2.6,1.48l.3,1.63a2.2,2.2,0,0,1-1.86,2.69,23.9,23.9,0,0,1-4.39.37c-7.51,0-12.12-4.24-12.12-11.46Z"/><path class="cls-1" d="M312.41,63.1a4.17,4.17,0,0,1,8.33,0,4.17,4.17,0,0,1-8.33,0Zm.74,13.09a2.22,2.22,0,0,1,2.31-2.39h2.15A2.27,2.27,0,0,1,320,76.19v33.62a2.21,2.21,0,0,1-2.39,2.3h-2.15a2.15,2.15,0,0,1-2.31-2.3Z"/><path class="cls-2" d="M319.89,25.67c.44-.75.08-1.46-.76-1.46h-1.56a2.19,2.19,0,0,0-2,1.15l-3,4.67,2.27,3.48Zm.48,19.94L314.85,37l-2.31,3.55L316,45.88a2,2,0,0,0,1.87,1.24h1.78c.84,0,1.29-.67.75-1.51"/><path class="cls-2" d="M324.11,26.54h-.37V24.62h-.65V24.3h1.67v.32h-.65Z"/><path class="cls-2" d="M325.92,26.54l-.65-1.87h0c0,.28,0,.54,0,.78v1.09H325V24.3h.52l.62,1.78h0l.63-1.78h.52v2.24h-.35V25.43c0-.11,0-.25,0-.43s0-.29,0-.32h0l-.67,1.86Z"/><path class="cls-2" d="M141.67,25.63a1.32,1.32,0,0,1,1.38-1.42h1.29a1.34,1.34,0,0,1,1.42,1.42V45.74a1.31,1.31,0,0,1-1.42,1.38h-1.29a1.29,1.29,0,0,1-1.38-1.38Zm-.44-7.83a2.49,2.49,0,0,1,5,0,2.49,2.49,0,0,1-5,0"/><path class="cls-2" d="M150.17,25.63a1.28,1.28,0,0,1,1.33-1.42h.67c.85,0,1.43.35,1.51,1.2l.14,1.07a10.77,10.77,0,0,1,6.72-2.85c4.94,0,7.52,3,7.52,7.74V45.74a1.32,1.32,0,0,1-1.43,1.38h-1.29A1.29,1.29,0,0,1,164,45.74V32.13c0-3.3-1-4.94-4.14-4.94-2,0-3.73,1.06-5.56,2.58v16a1.32,1.32,0,0,1-1.42,1.38h-1.29a1.28,1.28,0,0,1-1.38-1.38Z"/><path class="cls-2" d="M173.53,27.28l-2.32-.18c-1-.13-1.38-.45-1.38-1.29v-.4c0-.85.54-1.2,1.38-1.2h2.32V18.29A1.36,1.36,0,0,1,175,16.86h1.29a1.32,1.32,0,0,1,1.38,1.43v5.92h4.09a1.21,1.21,0,0,1,1.38,1.28V26c0,.84-.53,1.25-1.38,1.25h-4.09V40.36c0,2.76,1.43,3.78,3.34,3.78a17.63,17.63,0,0,0,1.82-.13c.85-.18,1.38.09,1.56.89l.18,1a1.31,1.31,0,0,1-1.11,1.6,14.44,14.44,0,0,1-2.63.22c-4.49,0-7.25-2.54-7.25-6.85Z"/><path class="cls-2" d="M200,33.64v-.89c0-2.62-1.33-5.56-5.12-5.56s-5.11,2.94-5.11,5.56v.89ZM185.7,33c0-4.89,3.34-9.34,9.17-9.34A9.11,9.11,0,0,1,204.12,33v2.72a1,1,0,0,1-1,1H189.8v1.7c0,2.53,1.11,5.78,5.51,5.78a19.33,19.33,0,0,0,5.39-.8c.89-.22,1.55,0,1.78.89l.22.8a1.36,1.36,0,0,1-1,1.69,23.33,23.33,0,0,1-6.33,1c-6.53,0-9.65-4.58-9.65-9.34Z"/><path class="cls-2" d="M207.64,16.24a1.36,1.36,0,0,1,1.42-1.43h1.29a1.32,1.32,0,0,1,1.38,1.43v26.3c0,1.07.31,1.38.58,1.6a1.13,1.13,0,0,1,.49,1.42l-.22,1a1.24,1.24,0,0,1-1.6,1c-1.47-.36-3.34-1.12-3.34-4.59Z"/><path class="cls-2" d="M217.34,16.24a1.36,1.36,0,0,1,1.43-1.43h1.29a1.32,1.32,0,0,1,1.38,1.43v26.3c0,1.07.31,1.38.57,1.6a1.13,1.13,0,0,1,.5,1.42l-.23,1a1.23,1.23,0,0,1-1.6,1c-1.47-.36-3.34-1.12-3.34-4.59Z"/><path class="cls-2" d="M239.41,33.64v-.89c0-2.62-1.34-5.56-5.12-5.56s-5.12,2.94-5.12,5.56v.89ZM225.08,33c0-4.89,3.34-9.34,9.16-9.34A9.11,9.11,0,0,1,243.5,33v2.72a1,1,0,0,1-1,1H229.17v1.7c0,2.53,1.11,5.78,5.52,5.78a19.18,19.18,0,0,0,5.38-.8c.89-.22,1.56,0,1.79.89l.22.8a1.37,1.37,0,0,1-1,1.69,23.33,23.33,0,0,1-6.33,1c-6.54,0-9.65-4.58-9.65-9.34Z"/><path class="cls-2" d="M255.25,44.14c2,0,3.82-1.2,5.47-2.49V29.77c-1.69-1.38-3.47-2.58-5.47-2.58-3.39,0-4.81,2.09-4.81,6.41v4.13c0,4.32,1.42,6.41,4.81,6.41M246.3,32.93c0-5.88,3.16-9.3,8.33-9.3a9.69,9.69,0,0,1,6.09,2.49V16.24a1.33,1.33,0,0,1,1.38-1.43h1.29a1.35,1.35,0,0,1,1.42,1.43v29.5a1.21,1.21,0,0,1-1.28,1.38h-.85c-.85,0-1.33-.22-1.42-1.06l-.14-1.16c-2.18,1.82-4.14,2.8-6.49,2.8-5.17,0-8.33-3.47-8.33-9.25Z"/><path class="cls-2" d="M278.06,44.14c4.05,0,5.43-2.62,5.43-6.94V34.13c0-4.23-1.38-6.94-5.43-6.94s-5.43,2.71-5.43,6.94V37.2c0,4.32,1.42,6.94,5.43,6.94m-9.57-10.37c0-6.18,3.56-10.14,9.57-10.14s9.61,4,9.61,10.14v3.79c0,6.23-3.6,10.14-9.61,10.14s-9.57-3.91-9.57-10.14Z"/><path class="cls-3" d="M298.26,38.67,293.49,46a2,2,0,0,1-1.82,1.11H290c-.85,0-1.25-.71-.76-1.51l6.63-10.28-6.1-9.57c-.44-.75-.08-1.55.76-1.55h1.65a2.17,2.17,0,0,1,1.95,1.15l4.19,6.54,2.36,3.34Z"/><path class="cls-4" d="M308.58,38.67,303.82,46A2,2,0,0,1,302,47.12H300.3c-.84,0-1.25-.71-.76-1.51l6.64-10.28-6.1-9.57c-.45-.75-.09-1.55.76-1.55h1.64a2.17,2.17,0,0,1,2,1.15l4.18,6.54L311,35.24Z"/><circle class="cls-5" cx="69.52" cy="64" r="52"/><path class="cls-6" d="M67.53,69.56,58.72,83.14a3.69,3.69,0,0,1-3.38,2.06H52.21c-1.56,0-2.3-1.32-1.4-2.79l12.27-19L51.8,45.68c-.83-1.39-.17-2.88,1.4-2.88h3a4,4,0,0,1,3.63,2.14L67.61,57,72,63.22Z"/><path class="cls-4" d="M86.63,69.56,77.82,83.14a3.69,3.69,0,0,1-3.38,2.06H71.31c-1.56,0-2.3-1.32-1.4-2.79l12.28-19L70.9,45.68c-.82-1.39-.16-2.88,1.4-2.88h3A4,4,0,0,1,79,44.94L86.71,57l4.36,6.18Z"/><path class="cls-7" d="M330.42,87.18c0-9.35,4.79-14.64,13.75-14.64a38.68,38.68,0,0,1,10,1.47.78.78,0,0,1,.62,1.07l-.22.84c-.11.45-.56.56-1.18.39A35.56,35.56,0,0,0,344.11,75C335,75,333,81.33,333,87.8V98.17c0,6.47,2,12.73,11.1,12.73a43.35,43.35,0,0,0,10.19-1.64V96.2a1,1,0,0,1,.9-1l.57-.11c.62-.11.9.22.9.73v14.48a1.24,1.24,0,0,1-1,1.12,42.49,42.49,0,0,1-11.48,1.92c-9,0-13.75-5.13-13.75-14.53Z"/><path class="cls-7" d="M363.7,88.14c0-9.46,5.41-15.6,14.31-15.6s14.31,6.14,14.31,15.6v9.52c0,9.74-5.41,15.66-14.31,15.66S363.7,107.4,363.7,97.66ZM378,110.9c8.84,0,11.72-6.48,11.72-13.8V88.71C389.73,81.44,386.85,75,378,75S366.3,81.44,366.3,88.71V97.1C366.3,104.42,369.17,110.9,378,110.9Z"/></svg>