<svg xmlns="http://www.w3.org/2000/svg" xmlns:xlink="http://www.w3.org/1999/xlink" viewBox="0 0 16 16"><defs><style>.cls-1{fill:none;}.cls-2{isolation:isolate;}.cls-3{clip-path:url(#clip-path);}.cls-4,.cls-6{fill:#69768b;}.cls-4,.cls-5{opacity:0.4;mix-blend-mode:multiply;}.cls-7{fill:#26b298;}</style><clipPath id="clip-path" transform="translate(-0.13 0)"><rect class="cls-1" width="16" height="16"/></clipPath></defs><title>IX_Tick</title><g class="cls-2"><g id="Layer_2" data-name="Layer 2"><g id="Layer_1-2" data-name="Layer 1"><g class="cls-3"><path class="cls-4" d="M8.63,1a7.5,7.5,0,1,0,7.5,7.5A7.5,7.5,0,0,0,8.63,1Zm0,14a6.5,6.5,0,1,1,6.5-6.5A6.5,6.5,0,0,1,8.63,15Z" transform="translate(-0.13 0)"/><g class="cls-5"><path class="cls-6" d="M5,8.56H9a0,0,0,0,1,0,0v2a0,0,0,0,1,0,0H5a1,1,0,0,1-1-1v0a1,1,0,0,1,1-1Z" transform="translate(8.54 -1.8) rotate(45)"/><path class="cls-6" d="M6.69,7.5h7a0,0,0,0,1,0,0v2a0,0,0,0,1,0,0h-7a1,1,0,0,1-1-1v0A1,1,0,0,1,6.69,7.5Z" transform="translate(22.42 7.66) rotate(135)"/></g><path class="cls-7" d="M7.63,0a7.5,7.5,0,1,0,7.5,7.5A7.5,7.5,0,0,0,7.63,0Zm0,14a6.5,6.5,0,1,1,6.5-6.5A6.5,6.5,0,0,1,7.63,14Z" transform="translate(-0.13 0)"/><path class="cls-7" d="M4,7.56H8a0,0,0,0,1,0,0v2a0,0,0,0,1,0,0H4a1,1,0,0,1-1-1v0a1,1,0,0,1,1-1Z" transform="translate(7.54 -1.39) rotate(45)"/><path class="cls-7" d="M5.69,6.5h7a0,0,0,0,1,0,0v2a0,0,0,0,1,0,0h-7a1,1,0,0,1-1-1v0a1,1,0,0,1,1-1Z" transform="translate(20.01 6.66) rotate(135)"/></g></g></g></g></svg>