<svg id="Layer_1" data-name="Layer 1" xmlns="http://www.w3.org/2000/svg" width="458.32" height="128" viewBox="0 0 458.32 128"><defs><style>.cls-1{fill:#e53b48;}.cls-2{fill:#fff;}.cls-3{fill:#707374;}.cls-4{fill:#f38274;}.cls-5{fill:#424142;}.cls-6{fill:#69768b;}</style></defs><title>IxInfinitiProduceLogo</title><circle class="cls-1" cx="69.14" cy="64" r="52"/><path class="cls-2" d="M63,38.64a3.27,3.27,0,0,1,3.52,3.42v3.2A3.35,3.35,0,0,1,63,48.77H44.2a3.26,3.26,0,0,1-3.41-3.51v-3.2a3.18,3.18,0,0,1,3.41-3.42Z"/><path class="cls-2" d="M94,38.64a3.27,3.27,0,0,1,3.52,3.42v3.2A3.35,3.35,0,0,1,94,48.77H75.2a3.26,3.26,0,0,1-3.41-3.51v-3.2a3.18,3.18,0,0,1,3.41-3.42Z"/><path class="cls-2" d="M63,58.93a3.27,3.27,0,0,1,3.52,3.42v3.2A3.35,3.35,0,0,1,63,69.07H44.2a3.26,3.26,0,0,1-3.41-3.52V62.36a3.19,3.19,0,0,1,3.41-3.43Z"/><path class="cls-2" d="M94,58.93a3.27,3.27,0,0,1,3.52,3.42v3.2A3.35,3.35,0,0,1,94,69.07H75.2a3.26,3.26,0,0,1-3.41-3.52V62.36a3.19,3.19,0,0,1,3.41-3.43Z"/><path class="cls-2" d="M94,79.23a3.27,3.27,0,0,1,3.52,3.42v3.19A3.35,3.35,0,0,1,94,89.36H44.2a3.26,3.26,0,0,1-3.41-3.52V82.65a3.18,3.18,0,0,1,3.41-3.42Z"/><path class="cls-3" d="M319.89,23.34c.44-.76.08-1.47-.76-1.47h-1.56a2.18,2.18,0,0,0-2,1.16l-3,4.67,2.27,3.47Zm.48,19.94-5.52-8.64-2.31,3.56L316,43.54a2.05,2.05,0,0,0,1.87,1.25h1.78c.84,0,1.29-.67.75-1.51"/><path class="cls-3" d="M141.67,23.3a1.33,1.33,0,0,1,1.38-1.43h1.29a1.35,1.35,0,0,1,1.42,1.43V43.41a1.32,1.32,0,0,1-1.42,1.38h-1.29a1.29,1.29,0,0,1-1.38-1.38Zm-.44-7.83a2.49,2.49,0,0,1,5,0,2.49,2.49,0,0,1-5,0"/><path class="cls-3" d="M150.17,23.3a1.29,1.29,0,0,1,1.33-1.43h.67c.85,0,1.43.36,1.51,1.2l.14,1.07a10.77,10.77,0,0,1,6.72-2.85c4.94,0,7.52,3,7.52,7.75V43.41a1.32,1.32,0,0,1-1.43,1.38h-1.29A1.29,1.29,0,0,1,164,43.41V29.79c0-3.29-1-4.93-4.14-4.93-2,0-3.73,1.06-5.56,2.58v16a1.32,1.32,0,0,1-1.42,1.38h-1.29a1.28,1.28,0,0,1-1.38-1.38Z"/><path class="cls-3" d="M173.53,24.94l-2.32-.18c-1-.13-1.38-.44-1.38-1.28v-.41c0-.84.54-1.2,1.38-1.2h2.32V16A1.35,1.35,0,0,1,175,14.53h1.29A1.32,1.32,0,0,1,177.62,16v5.92h4.09a1.22,1.22,0,0,1,1.38,1.29v.54c0,.84-.53,1.24-1.38,1.24h-4.09V38c0,2.76,1.43,3.78,3.34,3.78a17.63,17.63,0,0,0,1.82-.13c.85-.18,1.38.08,1.56.88l.18,1a1.32,1.32,0,0,1-1.11,1.61,14.44,14.44,0,0,1-2.63.22c-4.49,0-7.25-2.54-7.25-6.85Z"/><path class="cls-3" d="M200,31.31v-.89c0-2.63-1.33-5.56-5.12-5.56s-5.11,2.93-5.11,5.56v.89Zm-14.33-.67c0-4.9,3.34-9.34,9.17-9.34a9.11,9.11,0,0,1,9.25,9.34v2.71a1,1,0,0,1-1,1H189.8V36c0,2.54,1.11,5.79,5.51,5.79a19.71,19.71,0,0,0,5.39-.8c.89-.23,1.55,0,1.78.89l.22.8a1.37,1.37,0,0,1-1,1.69,23.33,23.33,0,0,1-6.33,1c-6.53,0-9.65-4.59-9.65-9.35Z"/><path class="cls-3" d="M207.64,13.91a1.36,1.36,0,0,1,1.42-1.43h1.29a1.32,1.32,0,0,1,1.38,1.43v26.3c0,1.06.31,1.38.58,1.6a1.12,1.12,0,0,1,.49,1.42l-.22,1a1.23,1.23,0,0,1-1.6,1c-1.47-.36-3.34-1.11-3.34-4.58Z"/><path class="cls-3" d="M217.34,13.91a1.36,1.36,0,0,1,1.43-1.43h1.29a1.32,1.32,0,0,1,1.38,1.43v26.3c0,1.06.31,1.38.57,1.6a1.12,1.12,0,0,1,.5,1.42l-.23,1a1.22,1.22,0,0,1-1.6,1c-1.47-.36-3.34-1.11-3.34-4.58Z"/><path class="cls-3" d="M239.41,31.31v-.89c0-2.63-1.34-5.56-5.12-5.56s-5.12,2.93-5.12,5.56v.89Zm-14.33-.67c0-4.9,3.34-9.34,9.16-9.34a9.11,9.11,0,0,1,9.26,9.34v2.71a1,1,0,0,1-1,1H229.17V36c0,2.54,1.11,5.79,5.52,5.79a19.56,19.56,0,0,0,5.38-.8c.89-.23,1.56,0,1.79.89l.22.8a1.37,1.37,0,0,1-1,1.69,23.33,23.33,0,0,1-6.33,1c-6.54,0-9.65-4.59-9.65-9.35Z"/><path class="cls-3" d="M255.25,41.81c2,0,3.82-1.2,5.47-2.49V27.44c-1.69-1.38-3.47-2.59-5.47-2.59-3.39,0-4.81,2.09-4.81,6.41V35.4c0,4.32,1.42,6.41,4.81,6.41m-8.94-11.22c0-5.87,3.15-9.29,8.32-9.29a9.69,9.69,0,0,1,6.09,2.49V13.91a1.33,1.33,0,0,1,1.38-1.43h1.29a1.35,1.35,0,0,1,1.42,1.43v29.5a1.22,1.22,0,0,1-1.28,1.38h-.85c-.85,0-1.33-.22-1.42-1.07l-.14-1.16c-2.18,1.83-4.14,2.81-6.49,2.81-5.17,0-8.32-3.47-8.32-9.26Z"/><path class="cls-3" d="M278.06,41.81c4.05,0,5.43-2.62,5.43-6.94V31.8c0-4.23-1.38-6.94-5.43-6.94s-5.43,2.71-5.43,6.94v3.07c0,4.32,1.42,6.94,5.43,6.94m-9.57-10.37c0-6.18,3.56-10.14,9.57-10.14s9.61,4,9.61,10.14v3.78c0,6.23-3.6,10.15-9.61,10.15s-9.57-3.92-9.57-10.15Z"/><path class="cls-1" d="M298.26,36.34l-4.77,7.34a2,2,0,0,1-1.82,1.11H290c-.85,0-1.25-.71-.76-1.51L295.85,33l-6.1-9.57c-.44-.75-.08-1.56.76-1.56h1.65A2.16,2.16,0,0,1,294.11,23l4.19,6.54,2.36,3.34Z"/><path class="cls-4" d="M308.58,36.34l-4.76,7.34A2,2,0,0,1,302,44.79H300.3c-.84,0-1.25-.71-.76-1.51L306.18,33l-6.1-9.57c-.45-.75-.09-1.56.76-1.56h1.64a2.17,2.17,0,0,1,2,1.16l4.18,6.54L311,32.91Z"/><path class="cls-5" d="M333.84,15.48a2.49,2.49,0,0,1,5,0,2.49,2.49,0,0,1-5,0Zm.44,7.83a1.32,1.32,0,0,1,1.39-1.42H337a1.35,1.35,0,0,1,1.43,1.42v20.1A1.33,1.33,0,0,1,337,44.79h-1.28a1.29,1.29,0,0,1-1.39-1.38Z"/><path class="cls-5" d="M343.23,23.31a1.28,1.28,0,0,1,1.33-1.42h.67c.84,0,1.42.35,1.51,1.2l.14,1.06a10.79,10.79,0,0,1,6.71-2.84c4.94,0,7.51,3,7.51,7.74V43.41a1.32,1.32,0,0,1-1.42,1.38h-1.29A1.29,1.29,0,0,1,357,43.41V29.8c0-3.29-1-4.93-4.13-4.93-2,0-3.74,1.07-5.56,2.58v16a1.32,1.32,0,0,1-1.42,1.38h-1.29a1.29,1.29,0,0,1-1.38-1.38Z"/><path class="cls-5" d="M367.12,25l-2.31-.17c-.8-.09-1.38-.49-1.38-1.34v-.35c0-.85.53-1.2,1.38-1.2h2.31V19.66c0-4.93,3-7.73,8.63-7.73a21.45,21.45,0,0,1,4.85.57c.84.23,1.37.76,1.15,1.65l-.18.8a1.25,1.25,0,0,1-1.64,1,18.78,18.78,0,0,0-4.05-.49c-3.16,0-4.67,1.25-4.67,4.45v2h3.65a1.25,1.25,0,0,1,1.42,1.29v.53c0,.84-.58,1.24-1.42,1.24h-3.65V43.41a1.29,1.29,0,0,1-1.38,1.38h-1.29a1.32,1.32,0,0,1-1.42-1.38Zm13.34-1.64a1.35,1.35,0,0,1,1.42-1.42h1.29a1.31,1.31,0,0,1,1.38,1.42v20.1a1.29,1.29,0,0,1-1.38,1.38h-1.29a1.32,1.32,0,0,1-1.42-1.38Z"/><path class="cls-5" d="M389.57,23.31a1.28,1.28,0,0,1,1.33-1.42h.67c.85,0,1.42.35,1.51,1.2l.13,1.06a10.86,10.86,0,0,1,6.72-2.84c4.94,0,7.52,3,7.52,7.74V43.41A1.33,1.33,0,0,1,406,44.79h-1.29a1.28,1.28,0,0,1-1.37-1.38V29.8c0-3.29-1-4.93-4.14-4.93-2,0-3.74,1.07-5.56,2.58v16a1.32,1.32,0,0,1-1.42,1.38H391a1.29,1.29,0,0,1-1.38-1.38Z"/><path class="cls-5" d="M411.7,15.48a2.49,2.49,0,0,1,5,0,2.49,2.49,0,0,1-5,0Zm.44,7.83a1.32,1.32,0,0,1,1.38-1.42h1.29a1.35,1.35,0,0,1,1.43,1.42v20.1a1.33,1.33,0,0,1-1.43,1.38h-1.29a1.29,1.29,0,0,1-1.38-1.38Z"/><path class="cls-5" d="M422.67,25l-2.32-.17c-1-.14-1.38-.45-1.38-1.29v-.4c0-.85.54-1.2,1.38-1.2h2.32V16a1.35,1.35,0,0,1,1.42-1.42h1.29A1.32,1.32,0,0,1,426.76,16v5.92h4.09a1.22,1.22,0,0,1,1.38,1.29v.53c0,.84-.54,1.24-1.38,1.24h-4.09V38c0,2.76,1.42,3.78,3.33,3.78a17.41,17.41,0,0,0,1.82-.13c.85-.18,1.39.09,1.56.88l.18,1a1.32,1.32,0,0,1-1.11,1.61,14.44,14.44,0,0,1-2.63.22c-4.49,0-7.24-2.54-7.24-6.85Z"/><path class="cls-5" d="M436.2,15.48a2.49,2.49,0,0,1,5,0,2.49,2.49,0,0,1-5,0Zm.44,7.83A1.32,1.32,0,0,1,438,21.89h1.29a1.34,1.34,0,0,1,1.42,1.42v20.1a1.32,1.32,0,0,1-1.42,1.38H438a1.29,1.29,0,0,1-1.38-1.38Z"/><path class="cls-6" d="M324.11,24.2h-.37V22.28h-.65V22h1.67v.31h-.65Z"/><path class="cls-6" d="M325.92,24.2l-.65-1.86h0c0,.28,0,.54,0,.78V24.2H325V22h.52l.62,1.78h0l.63-1.78h.52V24.2h-.35V23.1c0-.11,0-.26,0-.43s0-.29,0-.33h0l-.67,1.86Z"/><path d="M141.23,61.15A1.12,1.12,0,0,1,142.41,60h13.26C167,60,173,67.54,173,76.62s-6,16.57-17.28,16.57H144.78v20.67a1.12,1.12,0,0,1-1.18,1.19h-1.19a1.12,1.12,0,0,1-1.18-1.19Zm14.44,28.57c10.1,0,13.65-7,13.65-13.1,0-6.4-3.55-13.18-13.65-13.18H144.78V89.72Z"/><path d="M182.82,62.88a1.64,1.64,0,0,1,1.26-1.57,50.45,50.45,0,0,1,15.07-2.37c10.66,0,16.26,8,16.26,16.65,0,6.16-3.63,14.68-13.81,16.18l11.28,22c.32.63.08,1.26-.71,1.26h-1.34a1.93,1.93,0,0,1-1.66-1.11L197.81,92H186.37v21.86a1.13,1.13,0,0,1-1.19,1.19H184a1.12,1.12,0,0,1-1.18-1.19ZM198.2,88.69c9,0,13.58-6.63,13.58-13.1s-3.32-13.26-12.63-13.26a47,47,0,0,0-12.78,1.9V88.69Z"/><path d="M223.3,80.8c0-13.26,7.57-21.86,20-21.86s20,8.6,20,21.86V94.14c0,13.65-7.58,21.93-20,21.93s-20-8.28-20-21.93Zm20,31.88c12.39,0,16.42-9.07,16.42-19.33V81.59c0-10.18-4-19.26-16.42-19.26s-16.41,9.08-16.41,19.26V93.35C226.93,103.61,231,112.68,243.34,112.68Z"/><path d="M274.43,61.15A1.13,1.13,0,0,1,275.62,60h16.73c13,0,19.33,6,19.33,19.1V96c0,13.1-6.31,19.1-19.33,19.1H275.62a1.13,1.13,0,0,1-1.19-1.19Zm17.92,50.51c12.39,0,15.7-6.56,15.7-16.74V80c0-10.18-3.31-16.65-15.7-16.65H278v48.3Z"/><path d="M321.54,61.15A1.13,1.13,0,0,1,322.73,60h1.18a1.12,1.12,0,0,1,1.18,1.19V96.82c0,8.21,4.82,15.86,15.47,15.86s15.55-7.65,15.55-15.86V61.15A1.12,1.12,0,0,1,357.29,60h1.19a1.12,1.12,0,0,1,1.18,1.19V95.32c0,13.34-6.94,20.75-19.1,20.75-12,0-19-7.41-19-20.75Z"/><path d="M369.52,79.46c0-13.1,6.71-20.52,19.26-20.52a54.23,54.23,0,0,1,14,2.05,1.11,1.11,0,0,1,.87,1.5l-.24.95c-.24.86-.87,1-1.74.79a49.87,49.87,0,0,0-12.94-1.9c-12.78,0-15.55,8.92-15.55,18V94.69c0,9.07,2.77,18,15.55,18a51.72,51.72,0,0,0,12.86-1.81c.95-.24,1.58-.08,1.82.79l.24.86a1.13,1.13,0,0,1-.87,1.5,54.12,54.12,0,0,1-14,2c-12.55,0-19.26-7.34-19.26-20.51Z"/><path d="M412.37,73.06C412.37,65.17,417,60,427,60h12.71a1.12,1.12,0,0,1,1.18,1.19v1a1.12,1.12,0,0,1-1.18,1.19H427c-8.68,0-11.05,4.1-11.05,9.7v12h21.39a1.11,1.11,0,0,1,1.18,1.18v1a1.11,1.11,0,0,1-1.18,1.18H415.92V102c0,5.6,2.37,9.71,11.05,9.71h13a1.12,1.12,0,0,1,1.19,1.18v1a1.13,1.13,0,0,1-1.19,1.19H427c-9.94,0-14.6-5.29-14.6-13.1Z"/></svg>