<svg id="Layer_1" data-name="Layer 1" xmlns="http://www.w3.org/2000/svg" viewBox="0 0 400 130"><defs><style>.cls-1{fill:#69768b;}.cls-2{fill:#f38274;}.cls-3{fill:#ee3642;}.cls-4{fill:#231f20;}.cls-5{fill:#2d3e50;}.cls-6{fill:#e94d3d;}.cls-7{fill:#fff;fill-rule:evenodd;}</style></defs><title>IX</title><path class="cls-1" d="M278.29,28.29c.4-.68.08-1.33-.68-1.33H276.2a2,2,0,0,0-1.77,1l-2.72,4.21,2,3.14Zm.44,18-5-7.8-2.09,3.21,3.1,4.83a1.86,1.86,0,0,0,1.69,1.13H278c.76,0,1.17-.6.68-1.37"/><path class="cls-1" d="M117.37,28.25A1.19,1.19,0,0,1,118.62,27h1.17a1.22,1.22,0,0,1,1.28,1.28V46.41a1.19,1.19,0,0,1-1.28,1.25h-1.17a1.16,1.16,0,0,1-1.25-1.25Zm-.4-7.07a2.25,2.25,0,0,1,4.5,0,2.25,2.25,0,0,1-4.5,0"/><path class="cls-1" d="M125,28.25A1.16,1.16,0,0,1,126.25,27h.6c.76,0,1.29.32,1.37,1.08l.12,1a9.73,9.73,0,0,1,6.06-2.57c4.46,0,6.79,2.73,6.79,7v13a1.19,1.19,0,0,1-1.28,1.25h-1.17a1.16,1.16,0,0,1-1.25-1.25V34.12c0-3-.92-4.46-3.74-4.46-1.8,0-3.38,1-5,2.33V46.41a1.19,1.19,0,0,1-1.28,1.25h-1.17A1.16,1.16,0,0,1,125,46.41Z"/><path class="cls-1" d="M146.14,29.74l-2.09-.16c-.88-.12-1.25-.4-1.25-1.16V28c0-.76.48-1.08,1.25-1.08h2.09V21.62a1.22,1.22,0,0,1,1.29-1.29h1.16a1.19,1.19,0,0,1,1.25,1.29V27h3.7a1.1,1.1,0,0,1,1.25,1.16v.48c0,.76-.48,1.13-1.25,1.13h-3.7V41.55c0,2.49,1.29,3.41,3,3.41a15.66,15.66,0,0,0,1.65-.12c.76-.16,1.25.08,1.4.8l.16.88a1.18,1.18,0,0,1-1,1.45,13,13,0,0,1-2.37.2c-4.06,0-6.55-2.29-6.55-6.19Z"/><path class="cls-1" d="M170.07,35.48v-.8c0-2.37-1.2-5-4.62-5s-4.62,2.65-4.62,5v.8Zm-12.94-.6c0-4.42,3-8.44,8.28-8.44a8.23,8.23,0,0,1,8.36,8.44v2.45a.86.86,0,0,1-.88.88H160.83v1.53c0,2.29,1,5.22,5,5.22a17.54,17.54,0,0,0,4.86-.72c.8-.2,1.41,0,1.61.8l.2.72a1.23,1.23,0,0,1-.92,1.52,20.9,20.9,0,0,1-5.71.89c-5.9,0-8.72-4.14-8.72-8.44Z"/><path class="cls-1" d="M176.94,19.77a1.23,1.23,0,0,1,1.29-1.29h1.16a1.19,1.19,0,0,1,1.25,1.29V43.52c0,1,.28,1.25.52,1.45a1,1,0,0,1,.45,1.28l-.2.88A1.11,1.11,0,0,1,180,48c-1.33-.33-3-1-3-4.14Z"/><path class="cls-1" d="M185.7,19.77A1.23,1.23,0,0,1,187,18.48h1.16a1.19,1.19,0,0,1,1.25,1.29V43.52c0,1,.28,1.25.52,1.45a1,1,0,0,1,.45,1.28l-.2.88a1.11,1.11,0,0,1-1.45.89c-1.33-.33-3-1-3-4.14Z"/><path class="cls-1" d="M205.62,35.48v-.8c0-2.37-1.2-5-4.62-5s-4.62,2.65-4.62,5v.8Zm-12.94-.6c0-4.42,3-8.44,8.28-8.44a8.23,8.23,0,0,1,8.36,8.44v2.45a.86.86,0,0,1-.88.88H196.38v1.53c0,2.29,1,5.22,5,5.22a17.54,17.54,0,0,0,4.86-.72c.8-.2,1.41,0,1.61.8l.2.72a1.23,1.23,0,0,1-.92,1.52,20.9,20.9,0,0,1-5.71.89c-5.9,0-8.72-4.14-8.72-8.44Z"/><path class="cls-1" d="M219.93,45c1.81,0,3.46-1.09,4.94-2.25V32c-1.53-1.24-3.13-2.33-4.94-2.33-3.05,0-4.34,1.89-4.34,5.79v3.74c0,3.9,1.28,5.79,4.34,5.79m-8.07-10.13c0-5.3,2.85-8.4,7.51-8.4a8.75,8.75,0,0,1,5.5,2.25V19.77a1.19,1.19,0,0,1,1.25-1.29h1.17a1.22,1.22,0,0,1,1.28,1.29V46.41a1.1,1.1,0,0,1-1.16,1.25h-.77c-.76,0-1.2-.2-1.28-1l-.12-1c-2,1.65-3.74,2.53-5.87,2.53-4.66,0-7.51-3.13-7.51-8.36Z"/><path class="cls-1" d="M240.53,45c3.65,0,4.9-2.37,4.9-6.27V35.92c0-3.82-1.25-6.27-4.9-6.27s-4.9,2.45-4.9,6.27V38.7c0,3.9,1.28,6.27,4.9,6.27m-8.64-9.36c0-5.58,3.21-9.16,8.64-9.16s8.68,3.58,8.68,9.16V39c0,5.62-3.26,9.16-8.68,9.16s-8.64-3.54-8.64-9.16Z"/><path class="cls-2" d="M258.76,40l-4.3,6.63a1.79,1.79,0,0,1-1.65,1h-1.53c-.76,0-1.13-.64-.69-1.37l6-9.28-5.51-8.64c-.4-.68-.08-1.41.68-1.41h1.49A2,2,0,0,1,255,28l3.78,5.9,2.13,3Z"/><path class="cls-3" d="M268.08,40l-4.3,6.63a1.79,1.79,0,0,1-1.65,1h-1.53c-.76,0-1.13-.64-.69-1.37l6-9.28-5.51-8.64c-.4-.68-.08-1.41.68-1.41h1.49a2,2,0,0,1,1.77,1l3.78,5.9,2.13,3Z"/><rect class="cls-4" x="287.18" y="27.05" width="3.51" height="20.64"/><path class="cls-4" d="M309.52,27.05V37.86q0,1.14.09,3.18t.12,2.37h-.09L299.13,27.05h-4.26V47.66H298V36.93q0-2.18-.2-4.8v-.92h.12l10.56,16.48h4.3V27.05Z"/><polygon class="cls-4" points="316.91 47.69 320.39 47.69 320.39 39.24 328.47 39.24 328.47 36.37 320.39 36.37 320.39 29.91 329.04 29.91 329.04 27.05 316.91 27.05 316.91 47.69"/><rect class="cls-4" x="331.39" y="27.05" width="3.51" height="20.64"/><path class="cls-4" d="M353.67,27.05V37.86q0,1.14.17,3.18t.12,2.37h-.09L343.34,27.05h-4.26V47.66h3.09V36.93q0-2.18-.2-4.8v-.92h.12l10.56,16.48h4.29l-.06-20.64Z"/><rect class="cls-4" x="361.12" y="27.05" width="3.51" height="20.64"/><polygon class="cls-4" points="366.38 29.93 372.7 29.93 372.7 47.69 376.21 47.69 376.21 29.93 382.52 29.93 382.52 26.96 366.38 26.96 366.38 29.93"/><rect class="cls-4" x="384.3" y="27.05" width="3.51" height="20.64"/><path class="cls-5" d="M128.56,58.4H117v47.37h3.4V86.19h7.34a21,21,0,0,0,13.22-3.67A12.61,12.61,0,0,0,145.58,72Q145.58,58.4,128.56,58.4Zm9.89,22.29a19.74,19.74,0,0,1-11.55,2.65h-6.52l-.2-22H128A17,17,0,0,1,138.45,64a9.68,9.68,0,0,1,3.4,8.12A10,10,0,0,1,138.45,80.69Z"/><path class="cls-5" d="M178.75,79.4a12.81,12.81,0,0,0,2.51-8.05,11.62,11.62,0,0,0-4.48-9.55,21.27,21.27,0,0,0-13-3.4H152.48v47.37h3.4V85.14h11.79L180,105.76h3.94L171.07,84.19A14,14,0,0,0,178.75,79.4Zm-13.83,2.89h-9l-.07-20.93h7.85a17.67,17.67,0,0,1,10.57,2.48,9.24,9.24,0,0,1,3.4,7.88,9.55,9.55,0,0,1-3.4,7.88A14.44,14.44,0,0,1,164.92,82.28Z"/><path class="cls-5" d="M222.92,64.28a19.37,19.37,0,0,0-15.53-6.52,19.57,19.57,0,0,0-15.56,6.39,26.1,26.1,0,0,0-5.67,17.8,26.57,26.57,0,0,0,5.64,17.91l.44.44a21.68,21.68,0,0,0,30.65-.44A26.47,26.47,0,0,0,228.52,82,26.47,26.47,0,0,0,222.92,64.28ZM220.4,97.74l-.44.44a18.14,18.14,0,0,1-25.66-.44A24.26,24.26,0,0,1,189.76,82a23.79,23.79,0,0,1,4.59-15.73l.31-.31a18.21,18.21,0,0,1,25.75.31A24,24,0,0,1,224.92,82,24.29,24.29,0,0,1,220.4,97.74Z"/><path class="cls-5" d="M266.21,64.31a23.34,23.34,0,0,0-17.33-5.91H236.07v47.3h11.35a25.28,25.28,0,0,0,18.38-6.12,24.12,24.12,0,0,0,6.25-18A23.48,23.48,0,0,0,266.21,64.31Zm2.24,17.23v.24q0,21.07-21.2,21.07H239.4V61.15h8.73a20.66,20.66,0,0,1,15.15,5.06A20.69,20.69,0,0,1,268.45,81.54Z"/><path class="cls-5" d="M311,89.35a13,13,0,0,1-14.24,14.13A13.22,13.22,0,0,1,282.48,89V58.43h-3.4V89a16,16,0,0,0,17.46,17.5,18.11,18.11,0,0,0,13.18-4.59A17,17,0,0,0,314.45,89V58.4H311Z"/><path class="cls-5" d="M332,60.81a19.81,19.81,0,0,0-7.88,8.49A28.23,28.23,0,0,0,321.35,82a26.2,26.2,0,0,0,5.74,18,20,20,0,0,0,15.73,6.46,35.75,35.75,0,0,0,11.72-1.66v-2.92a37.37,37.37,0,0,1-10.74,1.46A17.23,17.23,0,0,1,330,97.78,23.38,23.38,0,0,1,325.19,82a22.53,22.53,0,0,1,5.13-15.63,17.91,17.91,0,0,1,14-5.71A24,24,0,0,1,355,63.39l1.33-3a28.64,28.64,0,0,0-12.4-2.58A23.24,23.24,0,0,0,332,60.81Z"/><polygon class="cls-5" points="387.81 61.45 387.81 58.4 361.92 58.4 361.92 105.76 387.81 105.76 387.81 102.81 365.22 102.81 365.22 82.42 386.52 82.42 386.52 79.36 365.22 79.36 365.22 61.45 387.81 61.45"/><path class="cls-1" d="M282.11,29.07h-.33V27.34h-.59v-.28h1.52v.28h-.59Z"/><path class="cls-1" d="M283.74,29.07l-.58-1.68h0c0,.25,0,.48,0,.7v1h-.3v-2h.46l.56,1.6h0l.58-1.6h.47v2h-.32v-1q0-.15,0-.39c0-.16,0-.26,0-.29h0L284,29.07Z"/><circle class="cls-6" cx="56.34" cy="67.36" r="44.16"/><path class="cls-7" d="M30.47,46.14v8.41H82.22V46.14Zm0,16.82v8.41H82.22V63Zm0,17.2v8.41H65V80.17Z"/></svg>