<svg id="Layer_1" data-name="Layer 1" xmlns="http://www.w3.org/2000/svg" viewBox="0 0 200 80"><defs><style>.cls-1{opacity:0.5;}.cls-2{fill:#2d3e50;}</style></defs><title>IX</title><g class="cls-1"><path class="cls-2" d="M20,0A20,20,0,1,0,40,20,20,20,0,0,0,20,0Zm0,37A17,17,0,1,1,37,20,17,17,0,0,1,20,37Z"/><path class="cls-2" d="M19.43,22.71l-4.3,6.63a1.79,1.79,0,0,1-1.65,1H12c-.76,0-1.13-.64-.69-1.37l6-9.28-5.51-8.64c-.4-.68-.08-1.41.68-1.41h1.49a2,2,0,0,1,1.77,1l3.78,5.9,2.13,3Z"/><path class="cls-2" d="M28.75,22.71l-4.3,6.63a1.79,1.79,0,0,1-1.65,1H21.28c-.76,0-1.13-.64-.69-1.37l6-9.28-5.51-8.64c-.4-.68-.08-1.41.68-1.41h1.49a2,2,0,0,1,1.77,1l3.78,5.9,2.13,3Z"/></g><g class="cls-1"><path class="cls-2" d="M60,0A20,20,0,1,1,40,20,20,20,0,0,1,60,0Zm0,37A17,17,0,1,0,43,20,17,17,0,0,0,60,37Z"/><path class="cls-2" d="M60.57,22.71l4.3,6.63a1.79,1.79,0,0,0,1.65,1H68c.76,0,1.13-.64.69-1.37l-6-9.28,5.51-8.64c.4-.68.08-1.41-.68-1.41H66.08a2,2,0,0,0-1.77,1l-3.78,5.9-2.13,3Z"/><path class="cls-2" d="M51.25,22.71l4.3,6.63a1.79,1.79,0,0,0,1.65,1h1.53c.76,0,1.13-.64.69-1.37l-6-9.28,5.51-8.64c.4-.68.08-1.41-.68-1.41H56.75a2,2,0,0,0-1.77,1l-3.78,5.9-2.13,3Z"/></g><g class="cls-1"><path class="cls-2" d="M120,20a20,20,0,1,0-20,20A20,20,0,0,0,120,20ZM83,20a17,17,0,1,1,17,17A17,17,0,0,1,83,20Z"/><path class="cls-2" d="M97.29,19.43l-6.63-4.3a1.79,1.79,0,0,1-1-1.65V12c0-.76.64-1.13,1.37-.69l9.28,6,8.64-5.51c.68-.4,1.41-.08,1.41.68v1.49a2,2,0,0,1-1,1.77l-5.9,3.78-3,2.13Z"/><path class="cls-2" d="M97.29,28.75l-6.63-4.3a1.79,1.79,0,0,1-1-1.65V21.28c0-.76.64-1.13,1.37-.69l9.28,6,8.64-5.51c.68-.4,1.41-.08,1.41.68v1.49a2,2,0,0,1-1,1.77l-5.9,3.78-3,2.13Z"/></g><g class="cls-1"><path class="cls-2" d="M160,20a20,20,0,1,0-20,20A20,20,0,0,0,160,20Zm-37,0a17,17,0,1,1,17,17A17,17,0,0,1,123,20Z"/><path class="cls-2" d="M144,8.89H132v23h17v-18Zm3,6h-4v-4h0Zm-13,15v-19h8v5h5v14Z"/><path class="cls-2" d="M137.76,18.65a6,6,0,1,0,8.49,0A6,6,0,0,0,137.76,18.65Zm7.07,7.07a4,4,0,1,1,0-5.66A4,4,0,0,1,144.83,25.72Z"/><rect class="cls-2" x="146.22" y="25.46" width="3.05" height="6.36" transform="translate(23.02 112.86) rotate(-45)"/><rect class="cls-2" x="146.22" y="25.46" width="3.05" height="6.36" transform="translate(23.02 112.86) rotate(-45)"/></g><g class="cls-1"><path class="cls-2" d="M200,20a20,20,0,1,0-20,20A20,20,0,0,0,200,20Zm-37,0a17,17,0,1,1,17,17A17,17,0,0,1,163,20Z"/><path class="cls-2" d="M191.63,28.45l-5.53-5.53a9.5,9.5,0,1,0-2.68,3l5.37,5.37Zm-19.07-4.93a7.5,7.5,0,1,1,10.61,0A7.5,7.5,0,0,1,172.56,23.52Z"/></g><path class="cls-2" d="M20,40A20,20,0,1,0,40,60,20,20,0,0,0,20,40Zm0,37A17,17,0,1,1,37,60,17,17,0,0,1,20,77Z"/><path class="cls-2" d="M19.43,62.71l-4.3,6.63a1.79,1.79,0,0,1-1.65,1H12c-.76,0-1.13-.64-.69-1.37l6-9.28-5.51-8.64c-.4-.68-.08-1.41.68-1.41h1.49a2,2,0,0,1,1.77,1l3.78,5.9,2.13,3Z"/><path class="cls-2" d="M28.75,62.71l-4.3,6.63a1.79,1.79,0,0,1-1.65,1H21.28c-.76,0-1.13-.64-.69-1.37l6-9.28-5.51-8.64c-.4-.68-.08-1.41.68-1.41h1.49a2,2,0,0,1,1.77,1l3.78,5.9,2.13,3Z"/><path class="cls-2" d="M60,40A20,20,0,1,1,40,60,20,20,0,0,1,60,40Zm0,37A17,17,0,1,0,43,60,17,17,0,0,0,60,77Z"/><path class="cls-2" d="M60.57,62.71l4.3,6.63a1.79,1.79,0,0,0,1.65,1H68c.76,0,1.13-.64.69-1.37l-6-9.28,5.51-8.64c.4-.68.08-1.41-.68-1.41H66.08a2,2,0,0,0-1.77,1l-3.78,5.9-2.13,3Z"/><path class="cls-2" d="M51.25,62.71l4.3,6.63a1.79,1.79,0,0,0,1.65,1h1.53c.76,0,1.13-.64.69-1.37l-6-9.28,5.51-8.64c.4-.68.08-1.41-.68-1.41H56.75a2,2,0,0,0-1.77,1l-3.78,5.9-2.13,3Z"/><path class="cls-2" d="M120,60a20,20,0,1,0-20,20A20,20,0,0,0,120,60ZM83,60a17,17,0,1,1,17,17A17,17,0,0,1,83,60Z"/><path class="cls-2" d="M97.29,59.43l-6.63-4.3a1.79,1.79,0,0,1-1-1.65V52c0-.76.64-1.13,1.37-.69l9.28,6,8.64-5.51c.68-.4,1.41-.08,1.41.68v1.49a2,2,0,0,1-1,1.77l-5.9,3.78-3,2.13Z"/><path class="cls-2" d="M97.29,68.75l-6.63-4.3a1.79,1.79,0,0,1-1-1.65V61.28c0-.76.64-1.13,1.37-.69l9.28,6,8.64-5.51c.68-.4,1.41-.08,1.41.68v1.49a2,2,0,0,1-1,1.77l-5.9,3.78-3,2.13Z"/><path class="cls-2" d="M160,60a20,20,0,1,0-20,20A20,20,0,0,0,160,60Zm-37,0a17,17,0,1,1,17,17A17,17,0,0,1,123,60Z"/><path class="cls-2" d="M144,48.89H132v23h17v-18Zm3,6h-4v-4h0Zm-13,15v-19h8v5h5v14Z"/><path class="cls-2" d="M137.76,58.65a6,6,0,1,0,8.49,0A6,6,0,0,0,137.76,58.65Zm7.07,7.07a4,4,0,1,1,0-5.66A4,4,0,0,1,144.83,65.72Z"/><rect class="cls-2" x="146.22" y="65.46" width="3.05" height="6.36" transform="translate(-5.26 124.58) rotate(-45)"/><rect class="cls-2" x="146.22" y="65.46" width="3.05" height="6.36" transform="translate(-5.26 124.58) rotate(-45)"/><path class="cls-2" d="M200,60a20,20,0,1,0-20,20A20,20,0,0,0,200,60Zm-37,0a17,17,0,1,1,17,17A17,17,0,0,1,163,60Z"/><path class="cls-2" d="M191.63,68.45l-5.53-5.53a9.5,9.5,0,1,0-2.68,3l5.37,5.37Zm-19.07-4.93a7.5,7.5,0,1,1,10.61,0A7.5,7.5,0,0,1,172.56,63.52Z"/></svg>