<svg id="Layer_1" data-name="Layer 1" xmlns="http://www.w3.org/2000/svg" width="554.67" height="128" viewBox="0 0 554.67 128"><defs><style>.cls-1{fill:#e53b48;}.cls-2,.cls-3,.cls-5,.cls-6{fill:#fff;}.cls-3{opacity:0.45;}.cls-4{fill:#f38274;}.cls-5{opacity:0.6;}.cls-6{opacity:0.4;}</style></defs><title>SVG - IxInfinitiProduceSiteLogo-Rev</title><circle class="cls-1" cx="69.14" cy="64" r="52"/><path class="cls-2" d="M63,38.64a3.27,3.27,0,0,1,3.52,3.42v3.2A3.35,3.35,0,0,1,63,48.77H44.2a3.26,3.26,0,0,1-3.41-3.51v-3.2a3.18,3.18,0,0,1,3.41-3.42Z"/><path class="cls-2" d="M94,38.64a3.27,3.27,0,0,1,3.52,3.42v3.2A3.35,3.35,0,0,1,94,48.77H75.2a3.26,3.26,0,0,1-3.41-3.51v-3.2a3.18,3.18,0,0,1,3.41-3.42Z"/><path class="cls-2" d="M63,58.93a3.27,3.27,0,0,1,3.52,3.42v3.2A3.35,3.35,0,0,1,63,69.07H44.2a3.26,3.26,0,0,1-3.41-3.52V62.36a3.19,3.19,0,0,1,3.41-3.43Z"/><path class="cls-2" d="M94,58.93a3.27,3.27,0,0,1,3.52,3.42v3.2A3.35,3.35,0,0,1,94,69.07H75.2a3.26,3.26,0,0,1-3.41-3.52V62.36a3.19,3.19,0,0,1,3.41-3.43Z"/><path class="cls-2" d="M94,79.23a3.27,3.27,0,0,1,3.52,3.42v3.19A3.35,3.35,0,0,1,94,89.36H44.2a3.26,3.26,0,0,1-3.41-3.52V82.65a3.18,3.18,0,0,1,3.41-3.42Z"/><path class="cls-3" d="M319.89,23.34c.44-.76.08-1.47-.76-1.47h-1.56a2.18,2.18,0,0,0-2,1.16l-3,4.67,2.27,3.47Zm.48,19.94-5.52-8.64-2.31,3.56L316,43.54a2.05,2.05,0,0,0,1.87,1.25h1.78c.84,0,1.29-.67.75-1.51"/><path class="cls-3" d="M141.67,23.3a1.33,1.33,0,0,1,1.38-1.43h1.29a1.35,1.35,0,0,1,1.42,1.43V43.41a1.32,1.32,0,0,1-1.42,1.38h-1.29a1.29,1.29,0,0,1-1.38-1.38Zm-.44-7.83a2.49,2.49,0,0,1,5,0,2.49,2.49,0,0,1-5,0"/><path class="cls-3" d="M150.17,23.3a1.29,1.29,0,0,1,1.33-1.43h.67c.85,0,1.43.36,1.51,1.2l.14,1.07a10.77,10.77,0,0,1,6.72-2.85c4.94,0,7.52,3,7.52,7.75V43.41a1.32,1.32,0,0,1-1.43,1.38h-1.29A1.29,1.29,0,0,1,164,43.41V29.79c0-3.29-1-4.93-4.14-4.93-2,0-3.73,1.06-5.56,2.58v16a1.32,1.32,0,0,1-1.42,1.38h-1.29a1.28,1.28,0,0,1-1.38-1.38Z"/><path class="cls-3" d="M173.53,24.94l-2.32-.18c-1-.13-1.38-.44-1.38-1.28v-.41c0-.84.54-1.2,1.38-1.2h2.32V16A1.35,1.35,0,0,1,175,14.53h1.29A1.32,1.32,0,0,1,177.62,16v5.92h4.09a1.22,1.22,0,0,1,1.38,1.29v.54c0,.84-.53,1.24-1.38,1.24h-4.09V38c0,2.76,1.43,3.78,3.34,3.78a17.63,17.63,0,0,0,1.82-.13c.85-.18,1.38.08,1.56.88l.18,1a1.32,1.32,0,0,1-1.11,1.61,14.44,14.44,0,0,1-2.63.22c-4.49,0-7.25-2.54-7.25-6.85Z"/><path class="cls-3" d="M200,31.31v-.89c0-2.63-1.33-5.56-5.12-5.56s-5.11,2.93-5.11,5.56v.89Zm-14.33-.67c0-4.9,3.34-9.34,9.17-9.34a9.11,9.11,0,0,1,9.25,9.34v2.71a1,1,0,0,1-1,1H189.8V36c0,2.54,1.11,5.79,5.51,5.79a19.71,19.71,0,0,0,5.39-.8c.89-.23,1.55,0,1.78.89l.22.8a1.37,1.37,0,0,1-1,1.69,23.33,23.33,0,0,1-6.33,1c-6.53,0-9.65-4.59-9.65-9.35Z"/><path class="cls-3" d="M207.64,13.91a1.36,1.36,0,0,1,1.42-1.43h1.29a1.32,1.32,0,0,1,1.38,1.43v26.3c0,1.06.31,1.38.58,1.6a1.12,1.12,0,0,1,.49,1.42l-.22,1a1.23,1.23,0,0,1-1.6,1c-1.47-.36-3.34-1.11-3.34-4.58Z"/><path class="cls-3" d="M217.34,13.91a1.36,1.36,0,0,1,1.43-1.43h1.29a1.32,1.32,0,0,1,1.38,1.43v26.3c0,1.06.31,1.38.57,1.6a1.12,1.12,0,0,1,.5,1.42l-.23,1a1.22,1.22,0,0,1-1.6,1c-1.47-.36-3.34-1.11-3.34-4.58Z"/><path class="cls-3" d="M239.41,31.31v-.89c0-2.63-1.34-5.56-5.12-5.56s-5.12,2.93-5.12,5.56v.89Zm-14.33-.67c0-4.9,3.34-9.34,9.16-9.34a9.11,9.11,0,0,1,9.26,9.34v2.71a1,1,0,0,1-1,1H229.17V36c0,2.54,1.11,5.79,5.52,5.79a19.56,19.56,0,0,0,5.38-.8c.89-.23,1.56,0,1.79.89l.22.8a1.37,1.37,0,0,1-1,1.69,23.33,23.33,0,0,1-6.33,1c-6.54,0-9.65-4.59-9.65-9.35Z"/><path class="cls-3" d="M255.25,41.81c2,0,3.82-1.2,5.47-2.49V27.44c-1.69-1.38-3.47-2.59-5.47-2.59-3.39,0-4.81,2.09-4.81,6.41V35.4c0,4.32,1.42,6.41,4.81,6.41m-8.94-11.22c0-5.87,3.15-9.29,8.32-9.29a9.69,9.69,0,0,1,6.09,2.49V13.91a1.33,1.33,0,0,1,1.38-1.43h1.29a1.35,1.35,0,0,1,1.42,1.43v29.5a1.22,1.22,0,0,1-1.28,1.38h-.85c-.85,0-1.33-.22-1.42-1.07l-.14-1.16c-2.18,1.83-4.14,2.81-6.49,2.81-5.17,0-8.32-3.47-8.32-9.26Z"/><path class="cls-3" d="M278.06,41.81c4.05,0,5.43-2.62,5.43-6.94V31.8c0-4.23-1.38-6.94-5.43-6.94s-5.43,2.71-5.43,6.94v3.07c0,4.32,1.42,6.94,5.43,6.94m-9.57-10.37c0-6.18,3.56-10.14,9.57-10.14s9.61,4,9.61,10.14v3.78c0,6.23-3.6,10.15-9.61,10.15s-9.57-3.92-9.57-10.15Z"/><path class="cls-1" d="M298.26,36.34l-4.77,7.34a2,2,0,0,1-1.82,1.11H290c-.85,0-1.25-.71-.76-1.51L295.85,33l-6.1-9.57c-.44-.75-.08-1.56.76-1.56h1.65A2.16,2.16,0,0,1,294.11,23l4.19,6.54,2.36,3.34Z"/><path class="cls-4" d="M308.58,36.34l-4.76,7.34A2,2,0,0,1,302,44.79H300.3c-.84,0-1.25-.71-.76-1.51L306.18,33l-6.1-9.57c-.45-.75-.09-1.56.76-1.56h1.64a2.17,2.17,0,0,1,2,1.16l4.18,6.54L311,32.91Z"/><path class="cls-5" d="M141.23,60.88a4.17,4.17,0,0,1,8.33,0,4.17,4.17,0,0,1-8.33,0ZM142,74a2.21,2.21,0,0,1,2.31-2.39h2.15A2.27,2.27,0,0,1,148.82,74v33.61a2.22,2.22,0,0,1-2.39,2.31h-2.15a2.15,2.15,0,0,1-2.31-2.31Z"/><path class="cls-5" d="M156.93,74a2.16,2.16,0,0,1,2.23-2.39h1.12c1.41,0,2.37.6,2.52,2l.23,1.78c3.64-3,7.36-4.76,11.23-4.76,8.25,0,12.56,5,12.56,12.94v24a2.2,2.2,0,0,1-2.37,2.31h-2.16a2.16,2.16,0,0,1-2.31-2.31V84.82c0-5.5-1.7-8.25-6.91-8.25-3.35,0-6.25,1.79-9.3,4.31v26.7a2.21,2.21,0,0,1-2.38,2.31h-2.15a2.15,2.15,0,0,1-2.31-2.31Z"/><path class="cls-5" d="M196.88,76.71,193,76.42c-1.33-.15-2.3-.82-2.3-2.24V73.6c0-1.42.89-2,2.3-2h3.87V67.87c0-8.26,5.06-12.94,14.43-12.94a35.71,35.71,0,0,1,8.11,1c1.41.37,2.31,1.27,1.94,2.76l-.3,1.33a2.11,2.11,0,0,1-2.76,1.71,31.18,31.18,0,0,0-6.76-.81c-5.29,0-7.81,2.08-7.81,7.43v3.27h6.09a2.11,2.11,0,0,1,2.39,2.16v.89c0,1.41-1,2.08-2.39,2.08h-6.09v30.87a2.16,2.16,0,0,1-2.31,2.31h-2.16a2.21,2.21,0,0,1-2.38-2.31ZM219.2,74a2.26,2.26,0,0,1,2.37-2.39h2.16A2.21,2.21,0,0,1,226,74v33.61a2.15,2.15,0,0,1-2.31,2.31h-2.16a2.2,2.2,0,0,1-2.37-2.31Z"/><path class="cls-5" d="M234.43,74a2.16,2.16,0,0,1,2.23-2.39h1.12c1.41,0,2.38.6,2.53,2l.22,1.78c3.64-3,7.36-4.76,11.23-4.76,8.26,0,12.57,5,12.57,12.94v24a2.21,2.21,0,0,1-2.38,2.31h-2.16a2.15,2.15,0,0,1-2.3-2.31V84.82c0-5.5-1.71-8.25-6.92-8.25-3.34,0-6.25,1.79-9.3,4.31v26.7a2.21,2.21,0,0,1-2.38,2.31h-2.15a2.15,2.15,0,0,1-2.31-2.31Z"/><path class="cls-5" d="M271.44,60.88a4.17,4.17,0,0,1,8.33,0,4.17,4.17,0,0,1-8.33,0ZM272.18,74a2.22,2.22,0,0,1,2.31-2.39h2.15A2.27,2.27,0,0,1,279,74v33.61a2.22,2.22,0,0,1-2.39,2.31h-2.15a2.16,2.16,0,0,1-2.31-2.31Z"/><path class="cls-5" d="M289.78,76.71l-3.87-.29c-1.64-.22-2.3-.75-2.3-2.16V73.6c0-1.42.89-2,2.3-2h3.87V61.69a2.26,2.26,0,0,1,2.38-2.37h2.16a2.2,2.2,0,0,1,2.3,2.37v9.89h6.85a2,2,0,0,1,2.3,2.16v.89c0,1.41-.89,2.08-2.3,2.08h-6.85V98.58c0,4.61,2.38,6.32,5.58,6.32a26,26,0,0,0,3.05-.22c1.41-.29,2.31.15,2.6,1.49l.3,1.63a2.19,2.19,0,0,1-1.86,2.68,23,23,0,0,1-4.39.37c-7.51,0-12.12-4.23-12.12-11.45Z"/><path class="cls-5" d="M312.41,60.88a4.17,4.17,0,0,1,8.33,0,4.17,4.17,0,0,1-8.33,0ZM313.15,74a2.22,2.22,0,0,1,2.31-2.39h2.15A2.27,2.27,0,0,1,320,74v33.61a2.22,2.22,0,0,1-2.39,2.31h-2.15a2.16,2.16,0,0,1-2.31-2.31Z"/><path class="cls-6" d="M324.11,24.2h-.37V22.28h-.65V22h1.67v.31h-.65Z"/><path class="cls-6" d="M325.92,24.2l-.65-1.86h0c0,.28,0,.54,0,.78V24.2H325V22h.52l.62,1.78h0l.63-1.78h.52V24.2h-.35V23.1c0-.11,0-.26,0-.43s0-.29,0-.33h0l-.67,1.86Z"/><path class="cls-2" d="M332.23,72.55a.78.78,0,0,1,.83-.83h9.3c7.91,0,12.12,5.31,12.12,11.68S350.27,95,342.36,95h-7.64v14.5a.78.78,0,0,1-.83.83h-.83a.78.78,0,0,1-.83-.83Zm10.13,20c7.08,0,9.57-4.87,9.57-9.19,0-4.48-2.49-9.25-9.57-9.25h-7.64V92.59Z"/><path class="cls-2" d="M361.4,73.77a1.17,1.17,0,0,1,.88-1.11A35.67,35.67,0,0,1,372.85,71c7.48,0,11.41,5.65,11.41,11.68,0,4.32-2.55,10.29-9.69,11.35l7.92,15.44c.22.44.05.88-.5.88h-.94a1.36,1.36,0,0,1-1.17-.77l-8-15.39h-8v15.33a.78.78,0,0,1-.83.83h-.83a.78.78,0,0,1-.83-.83Zm10.79,18.1c6.31,0,9.52-4.65,9.52-9.19s-2.32-9.3-8.86-9.3a33.17,33.17,0,0,0-9,1.33V91.87Z"/><path class="cls-2" d="M389.79,86.33C389.79,77,395.1,71,403.85,71s14.06,6,14.06,15.33v9.36c0,9.57-5.32,15.38-14.06,15.38s-14.06-5.81-14.06-15.38Zm14.06,22.36c8.69,0,11.51-6.36,11.51-13.56V86.89c0-7.14-2.82-13.51-11.51-13.51s-11.51,6.37-11.51,13.51v8.24C392.34,102.33,395.16,108.69,403.85,108.69Z"/><path class="cls-2" d="M425.66,72.55a.78.78,0,0,1,.83-.83h11.73c9.13,0,13.56,4.21,13.56,13.39V97c0,9.19-4.43,13.39-13.56,13.39H426.49a.78.78,0,0,1-.83-.83ZM438.22,108c8.69,0,11-4.59,11-11.73V85.78c0-7.14-2.33-11.68-11-11.68H428.15V108Z"/><path class="cls-2" d="M458.7,72.55a.78.78,0,0,1,.83-.83h.83a.78.78,0,0,1,.83.83v25c0,5.75,3.38,11.12,10.85,11.12s10.9-5.37,10.9-11.12v-25a.78.78,0,0,1,.83-.83h.83a.78.78,0,0,1,.83.83v24c0,9.35-4.87,14.55-13.39,14.55s-13.34-5.2-13.34-14.55Z"/><path class="cls-2" d="M492.35,85.39c0-9.19,4.7-14.39,13.51-14.39a38,38,0,0,1,9.79,1.44.77.77,0,0,1,.61,1l-.16.66c-.17.61-.61.72-1.22.56a35.12,35.12,0,0,0-9.08-1.33c-9,0-10.9,6.25-10.9,12.62V96.07c0,6.37,1.93,12.62,10.9,12.62a36,36,0,0,0,9-1.27c.67-.17,1.11,0,1.28.55l.16.61a.78.78,0,0,1-.61,1,37.82,37.82,0,0,1-9.79,1.44c-8.81,0-13.51-5.14-13.51-14.39Z"/><path class="cls-2" d="M522.4,80.91c0-5.54,3.21-9.19,10.24-9.19h8.92a.79.79,0,0,1,.83.83v.72a.79.79,0,0,1-.83.83h-8.92c-6.08,0-7.75,2.88-7.75,6.81v8.41h15a.79.79,0,0,1,.84.83v.72a.79.79,0,0,1-.84.83h-15v9.47c0,3.93,1.67,6.8,7.75,6.8h9.14a.79.79,0,0,1,.83.83v.72a.78.78,0,0,1-.83.83h-9.14c-7,0-10.24-3.7-10.24-9.18Z"/></svg>