<svg xmlns="http://www.w3.org/2000/svg" viewBox="0 0 16 16" enable-background="new 0 0 16 16"><g opacity=".15" fill="#8b9da5"><circle cx="8.8" cy="8.8" r="2.3"/><path d="m11.7 4.4l1.4 1.4.8-.8.9.9 1.2-4.4-4.4 1.2.9.9z"/><path d="m13.9 12.5l-.8-.8-1.4 1.4.8.8-.9.9 4.4 1.2-1.2-4.4z"/><path d="M4.7 1.5 1.5 4.7 5.9 5.9z"/><path d="m5.8 13.1l-1.4-1.4-.8.8-.9-.9-1.2 4.4 4.4-1.2-.9-.9z"/></g><circle cx="7.2" cy="7.2" r="2.3" fill="#444546"/><path fill="#26b298" d="m10.2 2.9l1.4 1.4.8-.8.9.9 1.2-4.4-4.4 1.2.9.9z"/><path fill="#3b97d3" d="m12.4 11l-.8-.8-1.4 1.4.8.8-.9.9 4.4 1.2-1.2-4.4z"/><path fill="#69768b" d="M3.2 0 0 3.2 4.4 4.4z"/><path fill="#e84d3d" d="m4.3 11.6l-1.4-1.4-.8.8-.9-.9-1.2 4.4 4.4-1.2-.9-.9z"/></svg>