<svg xmlns="http://www.w3.org/2000/svg" viewBox="0 0 32 32"><g style="isolation:isolate"><g id="Layer_1" data-name="Layer 1"><g id="_Group_" data-name="&lt;Group&gt;"><rect id="_Rectangle_" data-name="&lt;Rectangle&gt;" width="32" height="32" fill="none" opacity="0.1"/><g id="_Group_2" data-name="&lt;Group&gt;"><g id="_Group_3" data-name="&lt;Group&gt;"><circle id="_Path_" data-name="&lt;Path&gt;" cx="17.5" cy="17.5" r="4.53" fill="#2d3e50" opacity="0.6"/><polygon id="_Path_2" data-name="&lt;Path&gt;" points="23.34 8.84 26.16 11.66 27.8 10.03 29.63 11.86 32 3 23.14 5.37 24.97 7.2 23.34 8.84" fill="#2d3e50" opacity="0.6"/><polygon id="_Path_3" data-name="&lt;Path&gt;" points="27.8 24.97 26.16 23.34 23.34 26.16 24.97 27.8 23.14 29.63 32 32 29.63 23.14 27.8 24.97" fill="#2d3e50" opacity="0.6"/><polygon id="_Path_4" data-name="&lt;Path&gt;" points="9.49 3 3 9.49 11.86 11.86 9.49 3" fill="#2d3e50" opacity="0.6"/><polygon id="_Path_5" data-name="&lt;Path&gt;" points="11.66 26.16 8.84 23.34 7.2 24.97 5.37 23.14 3 32 11.86 29.63 10.03 27.8 11.66 26.16" fill="#2d3e50" opacity="0.6"/></g><g id="_Group_4" data-name="&lt;Group&gt;"><circle id="_Path_6" data-name="&lt;Path&gt;" cx="14.5" cy="14.5" r="4.53" fill="#fff"/><polygon id="_Path_7" data-name="&lt;Path&gt;" points="20.34 5.83 23.16 8.66 24.8 7.03 26.63 8.86 29 0 20.14 2.37 21.97 4.2 20.34 5.83" fill="#fff"/><polygon id="_Path_8" data-name="&lt;Path&gt;" points="24.8 21.97 23.16 20.34 20.34 23.16 21.97 24.8 20.14 26.63 29 29 26.63 20.14 24.8 21.97" fill="#fff"/><polygon id="_Path_9" data-name="&lt;Path&gt;" points="6.49 0 0 6.49 8.86 8.86 6.49 0" fill="#fff"/><polygon id="_Path_10" data-name="&lt;Path&gt;" points="8.66 23.16 5.83 20.34 4.2 21.97 2.37 20.14 0 29 8.86 26.63 7.03 24.8 8.66 23.16" fill="#fff"/></g></g></g></g></g></svg>
