<svg xmlns="http://www.w3.org/2000/svg" viewBox="0 0 16 16" enable-background="new 0 0 16 16"><g opacity=".15"><path d="m.9 2.3v12h3.2c0-.7.6-1.3 1.3-1.3.7 0 1.3.6 1.3 1.3h3.2c0-.7.6-1.3 1.3-1.3.7 0 1.3.6 1.3 1.3h3.5v-12h-15.1" fill="#8b9da5"/></g><path d="m12.3 13c-.2-.8-.9-1.4-1.8-1.4-.8 0-1.6.6-1.8 1.4h-2.2c-.2-.8-.9-1.4-1.8-1.4-.8 0-1.6.6-1.8 1.4h-1.9c-.3 0-.5-.2-.5-.5v-10c0-.3.3-.5.5-.5h13.2c.3 0 .5.2.5.5v10c0 .3-.2.5-.5.5h-1.9" fill="#f3dbbe"/><path d="m14.2 2.5v10h-1.6c-.4-.8-1.2-1.4-2.1-1.4-.9 0-1.7.6-2.1 1.4h-1.6c-.4-.8-1.2-1.4-2.1-1.4-.9 0-1.7.6-2.1 1.4h-1.6v-10h13.2m0-1h-13.2c-.6 0-1 .4-1 1v10c0 .6.4 1 1 1h2.3c0 0 0 0 0 0 0-.8.6-1.4 1.3-1.4.7 0 1.3.6 1.3 1.4h3.2c0 0 0 0 0 0 0-.8.6-1.4 1.3-1.4.7 0 1.3.6 1.3 1.4h2.3c.6 0 1-.4 1-1v-10c.2-.6-.2-1-.8-1z" fill="#444546"/><g opacity=".6"><path d="m2 9.4c0-.2 0-.3 0-.5 0 0 0-.1 0-.1.1-.1.1-.1.2-.1.2-.1.4-.2.6-.3.3-.1.6-.3.9-.5.1 0 .1-.1.1-.1.1-.1.2-.3.1-.4 0-.1 0-.2 0-.3-.1-.2-.1-.3-.2-.4 0-.1-.1-.1-.1-.2-.1-.1-.2-.2-.2-.4 0 0 0 0 0-.1 0-.1 0-.1.1-.1 0 0 .1-.1 0-.1 0-.2 0-.4 0-.6 0-.1 0-.2.1-.2 0 0 .1-.1.1-.1 0 0 .1-.1.1-.1 0 0 .1-.1.1-.1.2-.1.4-.2.7-.2.1 0 .3 0 .4.1 0 0 .1 0 .1 0 .2 0 .3.1.3.3 0 .1.1.3.1.4 0 .2.1.3 0 .5 0 .1 0 .2 0 .4 0 .1-.1.2-.2.3 0 0 0 .1-.1.1 0 .1-.1.2-.1.3 0 0 0 .1 0 .2 0 .1 0 .3 0 .4 0 .1 0 .2.1.2 0 .2.1.2.3.3.2.2.5.3.8.5.2.1.4.2.5.3 0 0 0 0 .1.1.1-.1.1 0 .1 0 0 .1 0 .3 0 .4 0 0 0 0 0 .1-1.7 0-3.4 0-5 0" fill="#444546"/></g><path opacity=".6" fill="#444546" d="m8.1 4.5h3v1h-3z"/><g opacity=".6"><path fill="#444546" d="m8.1 6.5h5v1h-5z"/></g><g opacity=".6"><path fill="#444546" d="m8.1 8.5h4v1h-4z"/></g></svg>