<svg xmlns="http://www.w3.org/2000/svg" viewBox="0 0 48 48" enable-background="new 0 0 48 48"><g opacity=".15"><path d="m2.4 12.6v25.2c0 1.1.9 2 2 2h6.1c.8 0 1.5-.5 1.8-1.3.6-1.5 2-2.5 3.7-2.5 1.7 0 3.1 1 3.7 2.5.3.8 1 1.3 1.8 1.3h6.6c.8 0 1.5-.5 1.8-1.3.6-1.5 2-2.5 3.7-2.5 1.7 0 3.1 1 3.7 2.5.3.8 1 1.3 1.8 1.3h6.9c1.1 0 2-.9 2-2v-25.2c0-1.1-.9-2-2-2h-41.6c-1.1 0-2 .9-2 2" fill="#8b9da5"/></g><path d="m0 10.2v25.2c0 1.1.9 2 2 2h8c0 0 0 0 0 0 0-2.2 1.8-4 4-4 2.2 0 4 1.8 4 4h9.6c0 0 0 0 0 0 0-2.2 1.8-4 4-4 2.2 0 4 1.8 4 4h8c1.1 0 2-.9 2-2v-25.2c0-1.1-.9-2-2-2h-41.6c-1.1 0-2 .9-2 2" fill="#fff"/><g fill="#9a9fa4"><path d="m20.7 13.8h13.6v2.4h-13.6z"/><path d="m20.7 19.2h20.9v2.4h-20.9z"/><path d="m20.7 24.6h17.6v2.4h-17.6z"/></g><g opacity=".15"><path d="m5 27.8c0-.4 0-.9 0-1.3 0-.1.1-.2.1-.2.2-.1.4-.3.6-.4.6-.2 1.1-.5 1.7-.7.9-.4 1.8-.7 2.6-1.2.2-.1.3-.2.4-.3.3-.3.5-.7.4-1.1 0-.3-.1-.6-.1-.9 0 0 0-.1 0-.1-.2-.3-.3-.5-.5-.8-.1-.2-.2-.4-.4-.5-.4-.2-.5-.6-.5-1 0-.1 0-.1 0-.2 0-.2 0-.3.2-.4.1-.1.2-.2.1-.4-.1-.5-.1-1.1-.1-1.6 0-.2.1-.4.3-.6.2-.1.2-.1.3-.2.1-.1.2-.2.4-.4.1-.1.2-.1.3-.2.6-.3 1.3-.5 2-.5.4 0 .8.1 1.1.3.1.1.3.1.4.1.5 0 .8.3.8.7.1.4.2.7.2 1.1.1.4.2.8.1 1.2 0 0 0 .1 0 .1.3.3.3.6.2.9-.1.3-.2.5-.5.7-.2.1-.3.3-.4.5-.1.2-.3.5-.4.7-.1.1-.1.3-.1.4-.1.4-.1.8-.1 1.1 0 .2.1.4.3.6.3.3.7.6 1.1.8.8.5 1.7.8 2.6 1.1.5.2 1.1.4 1.5.7.1 0 .1.1.2.1.1.1.2.2.2.4 0 .4 0 .7 0 1.1 0 0 0 .1 0 .1-4.9.3-10 .3-15 .3" fill="#8b9da5"/></g><path d="m4 26.8c0-.4 0-.9 0-1.3 0-.1.1-.2.1-.2.2-.1.4-.3.6-.4.6-.2 1.1-.5 1.7-.7.9-.4 1.8-.7 2.6-1.2.2-.1.3-.2.4-.3.3-.3.5-.7.4-1.1 0-.3-.1-.6-.1-.9 0 0 0-.1 0-.1-.2-.3-.3-.5-.5-.8-.1-.2-.2-.4-.4-.5-.4-.2-.5-.6-.5-1 0-.1 0-.1 0-.2 0-.2 0-.3.2-.4.1-.1.2-.2.1-.4-.1-.5-.1-1.1-.1-1.6 0-.2.1-.4.3-.6.2-.1.2-.1.3-.2.1-.1.2-.2.4-.4.1-.1.2-.1.3-.2.6-.3 1.3-.5 2-.5.4 0 .8.1 1.1.3.1.1.3.1.4.1.5 0 .8.3.8.7.1.4.2.7.2 1.1.1.4.2.8.1 1.2 0 0 0 .1 0 .1.3.3.3.6.2.9-.1.3-.2.5-.5.7-.2.1-.3.3-.4.5-.1.2-.3.5-.4.7-.1.1-.1.3-.1.4-.1.4-.1.8-.1 1.1 0 .2.1.4.3.6.3.3.7.6 1.1.8.8.5 1.7.8 2.6 1.1.5.2 1.1.4 1.5.7.1 0 .1.1.2.1.1.1.2.2.2.4 0 .4 0 .7 0 1.1 0 0 0 .1 0 .1-4.9.3-10 .3-15 .3" fill="#3b97d3"/></svg>