<svg xmlns="http://www.w3.org/2000/svg" xmlns:xlink="http://www.w3.org/1999/xlink" viewBox="0 0 32 32"><defs><clipPath id="clip-path"><rect id="_Clipping_Path_" data-name="&lt;Clipping Path&gt;" width="32" height="32" fill="none"/></clipPath></defs><g style="isolation:isolate"><g id="Layer_1" data-name="Layer 1"><g clip-path="url(#clip-path)"><path d="M24.1,16.95V9.58L17.42,3.11H6.84V27.56h9.79A9.38,9.38,0,0,0,19.46,29S18.39,30.81,17.53,31a5,5,0,0,0,4.24-1.46,12.89,12.89,0,0,0,1.35.09c4.9,0,8.87-2.84,8.87-6.35C32,20,28.54,17.3,24.1,16.95ZM17.26,5.62l4.3,4.17h-4.3Zm-3,17.63a4.8,4.8,0,0,0,.67,2.39H8.75V5h6.59v6.69h6.84v5.23C17.73,17.28,14.25,20,14.25,23.26Zm9.63,4.09a1,1,0,0,1-.75.27,1,1,0,0,1-.76-.26,1.16,1.16,0,0,1,0-1.48,1.07,1.07,0,0,1,.77-.25,1,1,0,0,1,.75.26,1.14,1.14,0,0,1,0,1.47Zm0-2.73H22.42l-.3-5.72h2Z" fill="#2d3e50" opacity="0.6"/><path d="M21.94,14.79V7.42L15.26.95H4.68V25.41h9.79a9.38,9.38,0,0,0,2.83,1.47s-1.07,1.78-1.93,1.94a5,5,0,0,0,4.24-1.46,12.89,12.89,0,0,0,1.35.09c4.9,0,8.87-2.84,8.87-6.35C29.84,17.83,26.38,15.14,21.94,14.79ZM15.1,3.47l4.3,4.17H15.1Zm-3,17.63a4.8,4.8,0,0,0,.67,2.39H6.6V2.87h6.59V9.56H20v5.23C15.57,15.13,12.1,17.82,12.1,21.1Zm9.63,4.09a1,1,0,0,1-.75.27,1,1,0,0,1-.76-.26,1.16,1.16,0,0,1,0-1.48,1.07,1.07,0,0,1,.77-.25,1,1,0,0,1,.75.26,1.14,1.14,0,0,1,0,1.47Zm0-2.73H20.27L20,16.74h2Z" fill="#fff"/><path d="M21.94,14.79V7.42L15.26.95H4.68V25.41h9.79a9.38,9.38,0,0,0,2.83,1.47s-1.07,1.78-1.93,1.94a5,5,0,0,0,4.24-1.46,12.89,12.89,0,0,0,1.35.09c4.9,0,8.87-2.84,8.87-6.35C29.84,17.83,26.38,15.14,21.94,14.79ZM15.1,3.47l4.3,4.17H15.1Zm-3,17.63a4.8,4.8,0,0,0,.67,2.39H6.6V2.87h6.59V9.56H20v5.23C15.57,15.13,12.1,17.82,12.1,21.1Zm9.63,4.09a1,1,0,0,1-.75.27,1,1,0,0,1-.76-.26,1.16,1.16,0,0,1,0-1.48,1.07,1.07,0,0,1,.77-.25,1,1,0,0,1,.75.26,1.14,1.14,0,0,1,0,1.47Zm0-2.73H20.27L20,16.74h2Z" fill="#fff"/></g></g></g></svg>
