<svg xmlns="http://www.w3.org/2000/svg" viewBox="0 0 48 48" enable-background="new 0 0 48 48"><g opacity=".15"><path d="m25.1 6.9c-12.6 0-22.9 7.3-22.9 16.4 0 6.6 5.5 12.3 13.4 14.9 0 0-2.8 4.6-5 5 3.7 1 9.7-1.8 10.9-3.7 0 0 1.8.2 3.5.2 12.6 0 22.9-7.3 22.9-16.4s-10.1-16.4-22.8-16.4" fill="#8b9da5"/></g><path d="M22.9,4.6C10.2,4.6,0,12,0,21c0,6.6,5.5,12.3,13.4,14.9c0,0-2.8,4.6-5,5
				c3.7,1,9.7-1.8,10.9-3.7c0,0,1.8,0.2,3.5,0.2c12.6,0,22.9-7.3,22.9-16.4S35.5,4.6,22.9,4.6z" fill="#26b298"/><path d="m20.2 29.7c0-.8.2-1.5.7-1.9s1.1-.6 2-.6c.8 0 1.5.2 1.9.7.5.4.7 1.1.7 1.9 0 .8-.2 1.4-.7 1.9-.5.5-1.1.7-1.9.7-.8 0-1.5-.2-2-.7-.5-.6-.7-1.2-.7-2m4.5-5.2h-3.7l-.7-14.7h5.2l-.8 14.7" fill="#fff"/></svg>