<svg xmlns="http://www.w3.org/2000/svg" viewBox="0 0 16 16" enable-background="new 0 0 16 16"><g opacity=".15"><path d="m8.4 2.3c-4.2 0-7.6 2.4-7.6 5.5 0 2.2 1.8 4.1 4.5 5 0 0-.9 1.5-1.7 1.7 1.2.3 3.2-.6 3.6-1.2 0 0 .6.1 1.2.1 4.2 0 7.6-2.4 7.6-5.5s-3.4-5.6-7.6-5.6" fill="#8b9da5"/></g><path d="m4.3 13.1c.3-.4.5-.7.6-.8l.3-.5-.6-.2c-2.5-.9-4.1-2.7-4.1-4.6 0-2.7 3.2-5 7.1-5s7.1 2.2 7.1 5-3.2 5-7.1 5c-.5 0-1.1-.1-1.1-.1h-.3l-.2.2c-.1.3-.9.7-1.7 1" fill="#8bd0c0"/><g fill="#444546"><path d="m7.6 2.5c3.6 0 6.6 2 6.6 4.5 0 2.4-3 4.5-6.6 4.5-.5 0-1-.1-1-.1l-.6-.1-.1.1-1.1-.4c-2.3-.7-3.8-2.3-3.8-4 0-2.4 3-4.5 6.6-4.5m0-1c-4.2 0-7.6 2.5-7.6 5.5 0 2.2 1.8 4.1 4.5 5 0 0-.9 1.5-1.7 1.7.2 0 .4.1.6.1 1.2 0 2.7-.8 3.1-1.3 0 0 .6.1 1.2.1 4.2 0 7.6-2.4 7.6-5.5-.1-3.1-3.5-5.6-7.7-5.6z"/><path d="m6.6 9.7c0-.3.1-.5.3-.6.1-.1.4-.2.7-.2.3 0 .6.1.7.2.2.1.3.3.3.6 0 .2-.1.4-.3.6-.2.1-.4.2-.7.2-.3 0-.6-.1-.7-.2-.2-.1-.3-.3-.3-.6m1.7-1.6h-1.4l-.3-4.6h2l-.3 4.6"/></g></svg>