<?xml version="1.0" encoding="utf-8"?>
<!-- Generator: Adobe Illustrator 20.0.0, SVG Export Plug-In . SVG Version: 6.00 Build 0)  -->
<svg version="1.1" id="Layer_1" xmlns="http://www.w3.org/2000/svg" xmlns:xlink="http://www.w3.org/1999/xlink" x="0px" y="0px"
	 viewBox="0 0 16 16" style="enable-background:new 0 0 16 16;" xml:space="preserve">
<style type="text/css">
	.st0{opacity:0.15;}
	.st1{fill:#8A9CA4;}
	.st2{fill:#E84D3C;}
	.st3{fill:#EFC419;}
	.st4{fill:#EA802D;}
	.st5{fill:url(#SVGID_1_);}
	.st6{fill:#444646;}
</style>
<g>
	<g class="st0">
		<ellipse class="st1" cx="14" cy="8.8" rx="2" ry="2"/>
		<path class="st1" d="M5.3,8.4c0-0.1,0-0.2-0.1-0.3l0.4-0.3C5.6,7.6,5.5,7.4,5.3,7.2L4.9,7.5L4.7,7.3L5,6.8
			C4.8,6.7,4.6,6.5,4.3,6.4L4.1,6.9L3.8,6.8V6.3c-0.3,0-0.5,0-0.8,0v0.5L2.9,6.9L2.6,6.4C2.4,6.5,2.1,6.7,1.9,6.8l0.3,0.5L2,7.5
			L1.5,7.2C1.4,7.4,1.3,7.6,1.2,7.9l0.4,0.3c0,0.1-0.1,0.2-0.1,0.3H1c0,0.3,0,0.5,0,0.8h0.5c0,0.1,0,0.2,0.1,0.3L1.1,9.7
			c0.1,0.2,0.2,0.5,0.4,0.7L2,10.1l0.2,0.2l-0.3,0.5c0.2,0.2,0.4,0.3,0.7,0.4l0.3-0.5l0.2,0.1v0.5c0.3,0,0.5,0,0.8,0v-0.5l0.3-0.1
			l0.3,0.5C4.6,11,4.8,10.9,5,10.7l-0.3-0.5l0.2-0.2l0.4,0.3c0.2-0.2,0.3-0.4,0.4-0.7L5.3,9.4c0-0.1,0-0.2,0.1-0.2h0.5
			c0-0.3,0-0.5,0-0.8L5.3,8.4z M3.5,9.7c-0.6,0-1-0.4-1.1-0.9c0-0.6,0.4-1,0.9-1.1s1,0.4,1.1,0.9c0,0,0,0,0,0.1
			C4.4,9.3,4,9.7,3.5,9.7C3.5,9.7,3.5,9.7,3.5,9.7z"/>
		<path class="st1" d="M12.1,1H16v4h-3.9V1z"/>
		<path class="st1" d="M14,12l-1.9,4H16L14,12"/>
		<path class="st1" d="M11.8,3.3l-2-1.1v0.6H7.8v5.6h-1v1h1v5.3h1.9v0.6l2-1.1l-2-1.1v0.6H8.7V9.5h1.1v0.6l2-1.1l-2-1.1v0.6H8.7V3.9
			h1.1v0.6L11.8,3.3"/>
	</g>
	<g>
		<ellipse class="st2" cx="13" cy="7.8" rx="2" ry="2"/>
		<path class="st3" d="M11.1,0H15v4h-3.9V0z"/>
		<path class="st4" d="M13,11l-1.9,4H15L13,11"/>
		<linearGradient id="SVGID_1_" gradientUnits="userSpaceOnUse" x1="5.87" y1="7.785" x2="10.76" y2="7.785">
			<stop  offset="5.376344e-03" style="stop-color:#97989B"/>
			<stop  offset="1" style="stop-color:#97989B"/>
		</linearGradient>
		<path class="st5" d="M10.8,2.3l-2-1.1v0.6H6.8v5.6h-1v1h1v5.3h1.9v0.6l2-1.1l-2-1.1v0.6H7.7V8.4h1.1v0.6l2-1.1l-2-1.1v0.6H7.7V2.9
			h1.1v0.6L10.8,2.3"/>
	</g>
</g>
<path id="XMLID_1_" class="st6" d="M4.3,7.4c0-0.1,0-0.2-0.1-0.3l0.5-0.3C4.6,6.6,4.5,6.4,4.4,6.2L3.9,6.5C3.8,6.4,3.8,6.3,3.7,6.3
	L4,5.8C3.8,5.7,3.6,5.5,3.3,5.4L3.1,5.9C3,5.9,2.9,5.8,2.8,5.8V5.3c-0.1,0-0.2,0-0.4,0c-0.1,0-0.3,0-0.4,0v0.5c-0.1,0-0.2,0-0.2,0.1
	L1.6,5.4C1.3,5.5,1.1,5.6,0.9,5.8l0.3,0.5C1.1,6.3,1.1,6.4,1,6.5L0.6,6.2C0.4,6.4,0.3,6.6,0.2,6.9l0.5,0.3c0,0.1-0.1,0.2-0.1,0.3H0
	c0,0.1,0,0.3,0,0.4S0,8,0,8.2h0.5c0,0.1,0,0.2,0.1,0.2L0.2,8.7c0.1,0.2,0.2,0.5,0.4,0.7L1,9.1c0.1,0.1,0.1,0.1,0.2,0.2L0.9,9.7
	c0.2,0.2,0.4,0.3,0.7,0.4l0.3-0.5c0.1,0,0.2,0,0.2,0.1v0.5c0.1,0,0.2,0,0.4,0c0.1,0,0.3,0,0.4,0V9.7c0.1,0,0.2,0,0.3-0.1l0.3,0.5
	C3.6,10,3.8,9.9,4,9.7L3.7,9.3c0.1-0.1,0.1-0.1,0.2-0.2l0.4,0.3c0.2-0.2,0.3-0.4,0.4-0.7L4.3,8.4c0-0.1,0-0.2,0.1-0.2h0.5
	c0-0.1,0-0.3,0-0.4s0-0.3,0-0.4H4.3z M2.5,8.7c-0.5,0-0.9-0.4-0.9-1s0.4-1,0.9-1c0.5,0,0.9,0.4,0.9,1S3,8.7,2.5,8.7z"/>
</svg>
