<svg xmlns="http://www.w3.org/2000/svg" viewBox="0 0 48 48" enable-background="new 0 0 48 48"><g fill="#8b9da5"><path d="m16.9 26.1c.1-.3.1-.7.1-1.1 0-.4 0-.7-.1-1.1h-1.5c0-.2-.1-.5-.2-.7l1.3-.7c-.3-.7-.6-1.3-1.1-1.9l-1.3.7c-.2-.2-.3-.3-.5-.5l.7-1.3c-.6-.5-1.2-.8-1.9-1.1l-.7 1.3c-.2-.1-.5-.1-.7-.2v-1.5c-.3.1-.6 0-1 0s-.7 0-1.1.1v1.5c-.2 0-.4.1-.7.2l-.7-1.3c-.7.3-1.3.6-1.9 1.1l.7 1.3c-.1.1-.3.3-.4.5l-1.3-.7c-.5.6-.8 1.2-1.1 1.9l1.3.7c-.1.2-.2.5-.2.7h-1.5c-.1.3-.1.7-.1 1 0 .4 0 .7.1 1.1h1.5c0 .2.1.5.2.7l-1.3.7c.3.7.6 1.3 1.1 1.9l1.3-.7c.1.2.3.3.5.5l-.7 1.3c.6.5 1.2.8 1.9 1.1l.7-1.3c.2.1.4.1.7.2v1.5c.3 0 .6 0 1 0s.7 0 1.1-.1v-1.5c.3 0 .5-.1.7-.2l.7 1.3c.7-.3 1.3-.6 1.9-1.1l-.7-1.3c.2-.2.3-.3.5-.5l1.3.7c.4-.6.8-1.2 1.1-1.9l-1.3-.7c.1-.2.1-.4.2-.7h1.4zm-6.9 1.6c-1.5 0-2.7-1.2-2.7-2.7 0-1.5 1.2-2.7 2.7-2.7s2.7 1.2 2.7 2.7c0 1.5-1.2 2.7-2.7 2.7" opacity=".15"/><path opacity=".15" d="m35 34.5h12v12h-12z"/><circle cx="41" cy="25" r="6" opacity=".15"/><path opacity=".15" d="m35 13.9l6-10.4 6 10.4z"/><path opacity=".15" d="m33 25l-5.7-3.2v1.7h-2.9v-13.3h2.9v1.8l5.7-3.3-5.7-3.3v1.8h-5.9v16.3h-2.2v3h2.2v15.5h5.9v1.8l5.7-3.3-5.7-3.3v1.8h-2.9v-12.5h2.9v1.8z"/></g><path d="m15.9 25.1c.1-.3.1-.7.1-1.1 0-.4 0-.7-.1-1.1h-1.5c0-.2-.1-.5-.2-.7l1.3-.7c-.3-.7-.6-1.3-1.1-1.9l-1.3.7c-.2-.2-.3-.3-.5-.5l.7-1.3c-.6-.5-1.2-.8-1.9-1.1l-.7 1.3c-.2-.1-.5-.1-.7-.2v-1.5c-.3.1-.6 0-1 0s-.7 0-1.1.1v1.5c-.2 0-.4.1-.7.2l-.7-1.3c-.7.3-1.3.6-1.9 1.1l.7 1.3c-.1.1-.3.3-.4.5l-1.3-.7c-.5.6-.8 1.2-1.1 1.9l1.3.7c-.1.2-.2.5-.2.7h-1.5c-.1.3-.1.7-.1 1 0 .4 0 .7.1 1.1h1.5c0 .2.1.5.2.7l-1.3.7c.3.7.6 1.3 1.1 1.9l1.3-.7c.1.2.3.3.5.5l-.7 1.3c.6.5 1.2.8 1.9 1.1l.7-1.3c.2.1.4.1.7.2v1.5c.3 0 .6 0 1 0s.7 0 1.1-.1v-1.5c.3 0 .5-.1.7-.2l.7 1.3c.7-.3 1.3-.6 1.9-1.1l-.7-1.3c.2-.2.3-.3.5-.5l1.3.7c.4-.6.8-1.2 1.1-1.9l-1.3-.7c.1-.2.1-.4.2-.7h1.4zm-6.9 1.6c-1.5 0-2.7-1.2-2.7-2.7 0-1.5 1.2-2.7 2.7-2.7s2.7 1.2 2.7 2.7c0 1.5-1.2 2.7-2.7 2.7" fill="#444546"/><g fill="#3b97d3"><path d="m34 33.5h12v12h-12z"/><circle cx="40" cy="24" r="6"/><path d="m34 12.9l6-10.4 6 10.4z"/></g><path fill="#8bd0c0" d="m32 24l-5.7-3.2v1.7h-2.9v-13.3h2.9v1.8l5.7-3.3-5.7-3.3v1.8h-5.9v16.3h-2.2v3h2.2v15.5h5.9v1.8l5.7-3.3-5.7-3.3v1.8h-2.9v-12.5h2.9v1.8z"/></svg>