<svg xmlns="http://www.w3.org/2000/svg" viewBox="0 0 32 32" enable-background="new 0 0 32 32"><g opacity=".2"><path d="M16.5,4C23.4,4,29,9.6,29,16.5S23.4,29,16.5,29S4,23.4,4,16.5S9.6,4,16.5,4 M16.5,1C7.9,1,1,7.9,1,16.5S7.9,32,16.5,32
				S32,25.1,32,16.5S25.1,1,16.5,1L16.5,1z"/><g fill="none" stroke="#000" stroke-width="3" stroke-miterlimit="10"><path d="m23 16.5h-13"/><path d="m17.1 9.4l-7.1 7.1 7.1 7.1"/></g></g><path d="M15.5,3C22.4,3,28,8.6,28,15.5S22.4,28,15.5,28S3,22.4,3,15.5S8.6,3,15.5,3 M15.5,0C6.9,0,0,6.9,0,15.5
				S6.9,31,15.5,31S31,24.1,31,15.5S24.1,0,15.5,0L15.5,0z" fill="#fff"/><g fill="none" stroke="#fff" stroke-width="3" stroke-miterlimit="10"><path d="m21.2 15h-12.4"/><path d="m15.6 8.1l-6.8 6.9 6.8 6.9"/></g></svg>