<svg xmlns="http://www.w3.org/2000/svg" viewBox="0 0 48 48" enable-background="new 0 0 48 48"><g opacity=".15" fill="#8b9da5"><path d="m1 1h1v47h-1z"/><path d="m3.1 1h1v47h-1z"/><path d="m45 1h1v47h-1z"/><path d="m47 1h1v47h-1z"/><path d="m7.3 1h2v41.6h-2z"/><path d="m19.4 1h2v41.6h-2z"/><path d="m22.9 1h2v41.6h-2z"/><path d="m27.5 1h1v41.6h-1z"/><path d="m40.3 1h1v41.6h-1z"/><path d="m35.8 1h2v41.6h-2z"/><path d="m11.4 1h5v41.6h-5z"/><path d="m29.8 1h5v41.6h-5z"/></g><g fill="#3b97d3"><path d="m0 0h1v47h-1z"/><path d="m2.1 0h1v47h-1z"/><path d="m44 0h1v47h-1z"/><path d="m46 0h1v47h-1z"/><path d="m6.3 0h2v41.6h-2z"/><path d="m18.4 0h2v41.6h-2z"/><path d="m21.9 0h2v41.6h-2z"/><path d="m26.5 0h1v41.6h-1z"/><path d="m39.3 0h1v41.6h-1z"/><path d="m34.8 0h2v41.6h-2z"/><path d="m10.4 0h5v41.6h-5z"/><path d="m28.7 0h5v41.6h-5z"/></g></svg>