<svg xmlns="http://www.w3.org/2000/svg" xmlns:xlink="http://www.w3.org/1999/xlink" viewBox="0 0 16 16" enable-background="new 0 0 16 16"><defs><path id="7" d="m0 0h16v16h-16z"/><clipPath id="0"><use xlink:href="#7"/></clipPath><linearGradient id="5" gradientUnits="userSpaceOnUse" x1="5" x2="7" xlink:href="#1"/><linearGradient id="4" gradientUnits="userSpaceOnUse" x1="8" x2="9" xlink:href="#1"/><linearGradient id="3" gradientUnits="userSpaceOnUse" x1="2" x2="3" xlink:href="#1"/><linearGradient id="2" gradientUnits="userSpaceOnUse" x1="0" x2="1" xlink:href="#1"/><linearGradient id="1" gradientUnits="userSpaceOnUse" x1="14" x2="15"><stop offset=".005" stop-color="#97999c"/><stop offset="1" stop-color="#97999c"/></linearGradient><linearGradient id="6" gradientUnits="userSpaceOnUse" x1="11" x2="13" xlink:href="#1"/></defs><g opacity=".15" clip-path="url(#0)" fill="#8b9da5"><path d="m15 1h1v15h-1z"/><path d="m1 1h1v15h-1z"/><path d="m3 1h1v14h-1z"/><path d="m9 1h1v14h-1z"/><path d="m6 1h2v14h-2z"/><path d="m12 1h2v14h-2z"/></g><g clip-path="url(#0)"><path fill="url(#1)" d="m14 0h1v15h-1z"/><path fill="url(#2)" d="m0 0h1v15h-1z"/><path fill="url(#3)" d="m2 0h1v14h-1z"/><path fill="url(#4)" d="m8 0h1v14h-1z"/><path fill="url(#5)" d="m5 0h2v14h-2z"/><path fill="url(#6)" d="m11 0h2v14h-2z"/></g></svg>