<svg xmlns="http://www.w3.org/2000/svg" viewBox="0 0 16 16" enable-background="new 0 0 16 16"><g fill="#8b9da5"><path opacity=".15" d="m1.9 14.4h2.9v-1h-1.6v-8.8h1.6v-1h-2.9z"/><path d="m9.5 6.8c-.9 0-1.6.3-2 1 0-.1 0-.3 0-.6s0-.6 0-.7v-2.3h-1.4v9.5h1.1l.3-.8h.1c.5.6 1.1.9 2 .9.8 0 1.5-.3 2-.9.5-.6.7-1.5.7-2.6 0-1.1-.2-2-.7-2.6s-1.2-.9-2.1-.9m.8 5.2c-.3.4-.6.6-1.2.6-.6 0-1-.2-1.3-.6-.3-.4-.4-1-.4-1.8v-.1c0-.8.1-1.4.4-1.7.4-.2.8-.4 1.4-.4 1 0 1.6.8 1.6 2.3-.1.7-.2 1.3-.5 1.7" opacity=".15"/><path opacity=".15" d="m13.1 3.6v1h1.6v8.8h-1.6v1h2.9v-10.8z"/></g><path d="M3.8,13.4H0.9V2.6h2.9v1.1H2.3v8.7h1.6V13.4z" fill="#009444"/><path d="m8.6 5.8c.8 0 1.5.3 2 .9s.7 1.5.7 2.6c0 1.1-.2 2-.7 2.6-.5.6-1.1.9-2 .9-.9 0-1.5-.3-2-.9h-.1l-.3.8h-1.1v-9.5h1.4v2.3c0 .2 0 .4 0 .7s0 .5 0 .6h.1c.4-.6 1.1-1 2-1m-.4 1.2c-.6 0-1 .2-1.2.5-.3.3-.4.9-.4 1.7v.1c0 .8.1 1.4.4 1.8s.7.6 1.3.6c.5 0 .9-.2 1.2-.6s.4-1 .4-1.7c-.1-1.6-.6-2.4-1.7-2.4" fill="#444546"/><path d="m12.2 12.4h1.6v-8.8h-1.6v-1h2.9v10.9h-2.9v-1.1" fill="#009444"/></svg>