<svg xmlns="http://www.w3.org/2000/svg" viewBox="0 0 16 16"><defs><style>.cls-1{isolation:isolate;}.cls-2{fill:none;}.cls-3{opacity:0.15;}.cls-4{fill:#8b9da5;}.cls-5{fill:#dbe0e4;}.cls-6{fill:#69768b;}.cls-7{fill:#fff;}.cls-8{fill:#2d3e50;}.cls-9{fill:#9a9fa4;opacity:0.3;mix-blend-mode:multiply;}</style></defs><title>icons</title><g class="cls-1"><g id="Layer_1" data-name="Layer 1"><g id="_Group_" data-name="&lt;Group&gt;"><rect id="_Rectangle_" data-name="&lt;Rectangle&gt;" class="cls-2" width="16" height="16"/><g id="_Group_2" data-name="&lt;Group&gt;" class="cls-3"><polygon class="cls-4" points="16 2.71 12.5 2.71 12.5 1 4.5 1 4.5 2.71 1 2.71 1 15 4.5 15 4.5 16 12.5 16 12.5 15 16 15 16 2.71"/></g><g id="_Group_3" data-name="&lt;Group&gt;"><g id="_Group_4" data-name="&lt;Group&gt;"><rect class="cls-5" x="0.5" y="1.5" width="14" height="12"/><path class="cls-6" d="M14,2V13H1V2H14m1-1H0V14H15V1h0Z"/></g></g><g id="_Group_5" data-name="&lt;Group&gt;"><rect class="cls-7" x="3.5" y="0.5" width="8" height="14"/><path class="cls-8" d="M11,1V14H4V1h7m1-1H3V15h9V0h0Z"/></g><rect id="_Rectangle_2" data-name="&lt;Rectangle&gt;" class="cls-9" x="6" y="7" width="13" height="1" transform="translate(20 -5) rotate(90)"/></g></g></g></svg>
