<?xml version="1.0" encoding="utf-8"?>
<!-- Generator: Adobe Illustrator 19.1.0, SVG Export Plug-In . SVG Version: 6.00 Build 0)  -->
<!DOCTYPE svg PUBLIC "-//W3C//DTD SVG 1.1//EN" "http://www.w3.org/Graphics/SVG/1.1/DTD/svg11.dtd">
<svg version="1.1" id="Layer_1" xmlns="http://www.w3.org/2000/svg" xmlns:xlink="http://www.w3.org/1999/xlink" x="0px" y="0px"
	 viewBox="0 0 48 48" style="enable-background:new 0 0 48 48;" xml:space="preserve">
<style type="text/css">
	.st0{clip-path:url(#XMLID_2_);}
	.st1{opacity:0.15;}
	.st2{fill:#8B9DA5;}
	.st3{fill:#FFFFFF;}
	.st4{fill:none;stroke:#3B97D3;stroke-width:2;stroke-miterlimit:10;}
	.st5{fill:none;stroke:#3B97D3;stroke-width:2;stroke-miterlimit:10;stroke-dasharray:2.4437,2.4437;}
	.st6{fill:none;stroke:#3B97D3;stroke-width:2;stroke-miterlimit:10;stroke-dasharray:2.2353,2.2353;}
	.st7{fill:none;stroke:#3B97D3;stroke-width:2;stroke-miterlimit:10;stroke-dasharray:2.3654,2.3654;}
	.st8{fill:none;stroke:#3B97D3;stroke-width:2;stroke-miterlimit:10;stroke-dasharray:2.2414,2.2414;}
	.st9{fill:#CEE4F3;}
	.st10{opacity:0.15;fill:#8B9DA5;}
	.st11{fill:none;stroke:#3B97D3;stroke-width:1.6;stroke-miterlimit:10;}
	.st12{fill:none;stroke:#3B97D3;stroke-width:1.6;stroke-miterlimit:10;stroke-dasharray:2.515,2.515;}
	.st13{fill:none;stroke:#3B97D3;stroke-width:1.6;stroke-miterlimit:10;stroke-dasharray:2.4472,2.4472;}
	.st14{fill:none;}
	.st15{fill:#9DCBE8;}
	.st16{opacity:0.25;fill:#9A9FA4;}
	.st17{opacity:0.1;fill:#9A9FA4;}
	.st18{fill:#E8F2FA;}
	.st19{fill:none;stroke:#3B97D3;stroke-width:1.6;stroke-miterlimit:10;stroke-dasharray:2.3975,2.3975;}
	.st20{fill:#9A9FA4;}
	.st21{fill:#3B97D3;}
	.st22{fill:#444546;}
	.st23{fill:#8BD0C0;}
	.st24{clip-path:url(#XMLID_3_);}
	.st25{fill:none;stroke:#3B97D3;stroke-width:1.6;stroke-miterlimit:10;stroke-dasharray:2.2309,2.2309;}
	.st26{fill:none;stroke:#3B97D3;stroke-width:1.6;stroke-miterlimit:10;stroke-dasharray:2.5827,2.5827;}
	.st27{fill:none;stroke:#3B97D3;stroke-width:1.6;stroke-miterlimit:10;stroke-dasharray:2.189,2.189;}
	.st28{fill:none;stroke:#3B97D3;stroke-width:1.6;stroke-miterlimit:10;stroke-dasharray:2.0281,2.0281;}
	.st29{clip-path:url(#XMLID_4_);}
	.st30{fill:#2D3E50;}
	.st31{fill:#69768B;}
	.st32{fill:#BFC3C8;}
	.st33{clip-path:url(#XMLID_5_);}
	.st34{fill:#BFC3C8;stroke:#FFFFFF;stroke-miterlimit:10;}
	.st35{fill:#444546;stroke:#FFFFFF;stroke-width:2;stroke-miterlimit:10;}
	.st36{fill:#26B298;}
	.st37{fill:none;stroke:#9A9FA4;stroke-width:0.891;stroke-miterlimit:10;}
	.st38{fill:#E84D3D;}
	.st39{fill:#FFFFFF;stroke:#9DCBE8;stroke-width:1.63;stroke-miterlimit:10;}
</style>
<g>
	<g class="st1">
		<path class="st2" d="M42.7,17H38v-3.8c0-2.8-2.3-5.2-5.1-5.2H7.1C4.3,8,2,10.3,2,13.2v15.7C2,31.7,4.3,34,7.1,34h2.3v6l6.1-6h1.5
			v0.6c0,2.4,1.9,4.4,4.2,4.4h14.6l5.1,5.1v-5.1h1.9c2.3,0,4.2-2,4.2-4.4V21.4C46.9,19,45,17,42.7,17z"/>
	</g>
	<g>
		<path class="st23" d="M20.1,16h21.6c2.3,0,4.2,2,4.2,4.4v13.2c0,2.4-1.9,4.4-4.2,4.4h-1.9V43l-5.1-5.1H20.1c-2.3,0-4.2-2-4.2-4.4
			V20.4C15.9,18,17.8,16,20.1,16z"/>
	</g>
	<g>
		<path class="st3" d="M9.2,32.2H6.1c-2.3,0-4.2-1.9-4.2-4.3V12.2c0-2.4,1.9-4.3,4.2-4.3h25.9c2.3,0,4.2,1.9,4.2,4.3v15.7
			c0,2.4-1.9,4.3-4.2,4.3H14.1L9.2,37V32.2z"/>
		<path class="st21" d="M31.9,8.7c1.9,0,3.4,1.6,3.4,3.5v15.7c0,1.9-1.5,3.5-3.4,3.5H14.4h-0.7l-0.5,0.5L10,35v-2v-1.7H8.4H6.1
			c-1.9,0-3.4-1.6-3.4-3.5V12.2c0-1.9,1.5-3.5,3.4-3.5H31.9 M31.9,7H6.1C3.3,7,1,9.3,1,12.2v15.7C1,30.7,3.3,33,6.1,33h2.3v6l6.1-6
			h17.5c2.8,0,5.1-2.3,5.1-5.2V12.2C37,9.3,34.7,7,31.9,7L31.9,7z"/>
	</g>
	<g>
		<circle class="st22" cx="11" cy="20" r="2.5"/>
		<circle class="st22" cx="19" cy="20" r="2.5"/>
		<circle class="st22" cx="27" cy="20" r="2.5"/>
	</g>
</g>
</svg>
