<svg xmlns="http://www.w3.org/2000/svg" viewBox="0 0 32 32"><g style="isolation:isolate"><g id="Layer_1" data-name="Layer 1"><g id="_Group_" data-name="&lt;Group&gt;"><g id="_Group_2" data-name="&lt;Group&gt;"><path id="_Path_" data-name="&lt;Path&gt;" d="M32,16.11,26.6,13v1.76H25.25a1.36,1.36,0,0,1-1.36-1.36V9.6a2,2,0,1,0-2.72,0v3.79a4.08,4.08,0,0,0,4.08,4.08H26.6v1.76Z" fill="#2d3e50" opacity="0.6"/><path id="_Path_2" data-name="&lt;Path&gt;" d="M14.51,8.08a2,2,0,1,0-3.4,1.52v8.32a1.36,1.36,0,0,1-1.36,1.36H8.4V17.52L3,20.64l5.4,3.12V22H9.75a4.08,4.08,0,0,0,4.08-4.08V9.6A2,2,0,0,0,14.51,8.08Z" fill="#2d3e50" opacity="0.6"/><path id="_Path_3" data-name="&lt;Path&gt;" d="M18.86,6.88a2,2,0,1,0-2.72,0V26.6H14.38L17.5,32l3.12-5.4H18.86Z" fill="#2d3e50" opacity="0.6"/></g><rect id="_Rectangle_" data-name="&lt;Rectangle&gt;" width="32" height="32" fill="none" opacity="0.6"/><g id="_Group_3" data-name="&lt;Group&gt;"><path id="_Path_4" data-name="&lt;Path&gt;" d="M29,13.11,23.6,10v1.76H22.25a1.36,1.36,0,0,1-1.36-1.36V6.6a2,2,0,1,0-2.72,0v3.79a4.08,4.08,0,0,0,4.08,4.08H23.6v1.76Z" fill="#fff"/><path id="_Path_5" data-name="&lt;Path&gt;" d="M11.51,5.08A2,2,0,1,0,8.11,6.6v8.32a1.36,1.36,0,0,1-1.36,1.36H5.4V14.52L0,17.64l5.4,3.12V19H6.75a4.08,4.08,0,0,0,4.08-4.08V6.6A2,2,0,0,0,11.51,5.08Z" fill="#fff"/><path id="_Path_6" data-name="&lt;Path&gt;" d="M15.86,3.88a2,2,0,1,0-2.72,0V23.6H11.38L14.5,29l3.12-5.4H15.86Z" fill="#fff"/></g></g></g></g></svg>
