<svg id="Layer_1" data-name="Layer 1" xmlns="http://www.w3.org/2000/svg" xmlns:xlink="http://www.w3.org/1999/xlink" viewBox="0 0 48 48"><defs><style>.cls-1{fill:none;}.cls-2{opacity:0.15;}.cls-3,.cls-9{fill:#8b9da5;}.cls-4{fill:#fff;}.cls-5{fill:#9dcbe8;}.cls-6{fill:#3b97d3;}.cls-7{fill:#444546;}.cls-8{fill:#9a9fa4;}.cls-9{opacity:0.15;isolation:isolate;}.cls-10{clip-path:url(#clip-path);}.cls-11{fill:#7dd3f7;}.cls-12{fill:#33b34a;}.cls-13{fill:#e8f2fa;}</style><clipPath id="clip-path"><rect class="cls-1" x="23.04" y="11.04" width="18.13" height="18.13"/></clipPath></defs><title>Desi9n Icons 48</title><g class="cls-2"><path class="cls-3" d="M45,9.6H27.18L20.1,3H5.4V6a3.23,3.23,0,0,0-3,3V45a3,3,0,0,0,3,3H39.6a3,3,0,0,0,3-2.1l2.87-9.34a2.8,2.8,0,0,0,2.53-3v-21A3,3,0,0,0,45,9.6Z"/></g><g id="_Group_" data-name="&lt;Group&gt;"><path class="cls-4" d="M15.6,12V6a3,3,0,0,0-3-3H3A3.23,3.23,0,0,0,0,6V42a3,3,0,0,0,3,3H37.2a3,3,0,0,0,3-3V16.8a3,3,0,0,0-3-3H17.1A1.68,1.68,0,0,1,15.6,12Z"/><path class="cls-5" d="M3,44.2A2.21,2.21,0,0,1,.8,42V6A2.45,2.45,0,0,1,3,3.8h9.3A2.49,2.49,0,0,1,14.8,6v6a2.48,2.48,0,0,0,2.3,2.6H37.2a2.21,2.21,0,0,1,2.2,2.2V42a2.21,2.21,0,0,1-2.2,2.2H3Z"/><path class="cls-6" d="M12.3,4.6A1.73,1.73,0,0,1,14,6v6a3.26,3.26,0,0,0,3.1,3.4H37.2a1.41,1.41,0,0,1,1.4,1.4V42a1.41,1.41,0,0,1-1.4,1.4H3A1.41,1.41,0,0,1,1.6,42V6A1.67,1.67,0,0,1,3,4.6h9.3m0-1.6H3A3.23,3.23,0,0,0,0,6V42a3,3,0,0,0,3,3H37.2a3,3,0,0,0,3-3V16.8a3,3,0,0,0-3-3H17.1A1.68,1.68,0,0,1,15.6,12V6a3.29,3.29,0,0,0-3.3-3h0Z"/></g><g id="_Group_2" data-name="&lt;Group&gt;"><g id="_Group_3" data-name="&lt;Group&gt;"><polygon class="cls-4" points="4.5 37.5 4.5 1.5 17.1 1.5 29.4 12.9 29.4 37.5 4.5 37.5"/><path class="cls-7" d="M17.07,1.6L29.3,13V37.4H4.6V1.6H17.07M17.7,0H3V39H30.9V12.3L17.7,0h0Z"/><g id="_Group_4" data-name="&lt;Group&gt;"><g id="_Group_5" data-name="&lt;Group&gt;"><g id="_Group_6" data-name="&lt;Group&gt;"><g id="_Group_7" data-name="&lt;Group&gt;" class="cls-2"><path id="_Compound_Path_" data-name="&lt;Compound Path&gt;" class="cls-3" d="M12.74,18h-1.4V10.63H8.82V9.43h6.45v1.2H12.74V18Z"/></g><g id="_Group_8" data-name="&lt;Group&gt;"><path id="_Compound_Path_2" data-name="&lt;Compound Path&gt;" class="cls-6" d="M11.52,16.79h-1.4V9.41H7.59V8.2H14v1.2H11.52v7.38Z"/></g><rect id="_Rectangle_" data-name="&lt;Rectangle&gt;" class="cls-8" x="16.06" y="8.2" width="10.65" height="1.22"/><rect id="_Rectangle_2" data-name="&lt;Rectangle&gt;" class="cls-8" x="16.06" y="10.65" width="10.65" height="1.22"/><rect id="_Rectangle_3" data-name="&lt;Rectangle&gt;" class="cls-8" x="16.06" y="13.09" width="10.65" height="1.22"/><rect id="_Rectangle_4" data-name="&lt;Rectangle&gt;" class="cls-8" x="16.06" y="15.54" width="10.65" height="1.22"/><rect id="_Rectangle_5" data-name="&lt;Rectangle&gt;" class="cls-8" x="7.59" y="17.98" width="19.12" height="1.22"/><rect id="_Rectangle_6" data-name="&lt;Rectangle&gt;" class="cls-8" x="7.59" y="20.43" width="12.66" height="1.22"/></g></g></g></g><polygon id="_Path_" data-name="&lt;Path&gt;" class="cls-9" points="17.14 14.53 17.14 18.73 27.6 14.53 17.14 14.53"/><path class="cls-7" d="M18.73,3.15l10.49,9.78H18.73V3.15M17.7,0H17.13V14.53H30.9V12.3L17.7,0h0Z"/></g><rect id="SVGID" class="cls-1" x="18" y="6" width="30" height="30"/><rect id="SVGID-2" data-name="SVGID" class="cls-1" x="18" y="6" width="30" height="30"/><g id="_Group_9" data-name="&lt;Group&gt;"><path class="cls-4" d="M21.6,32.8a2,2,0,0,1-2.2-2.2V9.6a2,2,0,0,1,2.2-2.2h21a2.21,2.21,0,0,1,2.2,2.2v21a2,2,0,0,1-2.2,2.2h-21Z"/><path class="cls-7" d="M42.6,8.2A1.41,1.41,0,0,1,44,9.6v21A1.25,1.25,0,0,1,42.6,32h-21a1.25,1.25,0,0,1-1.4-1.4V9.6a1.25,1.25,0,0,1,1.4-1.4h21m0-1.6h-21a2.83,2.83,0,0,0-3,3v21a2.83,2.83,0,0,0,3,3h21a2.83,2.83,0,0,0,3-3V9.6a3,3,0,0,0-3-3h0Z"/></g><g class="cls-10"><g id="_Group_10" data-name="&lt;Group&gt;"><g id="_Group_11" data-name="&lt;Group&gt;"><rect class="cls-11" x="23.04" y="11.04" width="18.13" height="18.13"/></g><path id="_Path_2" data-name="&lt;Path&gt;" class="cls-12" d="M41.16,18.29c-4.35,0-4,4.71-9.06,4.71S27.75,20.1,23,20.1v8.7H41.16V18.29Z"/><path id="_Path_3" data-name="&lt;Path&gt;" class="cls-12" d="M23,28.07c4.71,0,3.63-1.81,9.06-1.81,5.07,0,4.35-1.45,9.06-1.45v4.35H23V28.07Z"/></g><path id="_Path_4" data-name="&lt;Path&gt;" class="cls-4" d="M35.36,12.85a1.33,1.33,0,0,0-1.09.36,4.94,4.94,0,0,0-4.35-3.62,4.16,4.16,0,0,0-4,2.18A5.15,5.15,0,0,0,23.76,11c-2.17,0-3.62,1.81-3.62,4.35v0.72H38.26A3.2,3.2,0,0,0,35.36,12.85Z"/></g><g id="_Group_12" data-name="&lt;Group&gt;"><path class="cls-13" d="M3.9,44.2a2.34,2.34,0,0,1-1.78-.8,1.9,1.9,0,0,1-.44-1.52L6.5,26.22V26.1c0-.73.83-1.3,1.9-1.3H42a2.34,2.34,0,0,1,1.77.8,1.91,1.91,0,0,1,.44,1.52L39.44,42.66A2.2,2.2,0,0,1,37.2,44.2H3.9Z"/><path class="cls-6" d="M42,25.6a1.53,1.53,0,0,1,1.16.52,1.11,1.11,0,0,1,.27.83L38.67,42.43v0.08a1.41,1.41,0,0,1-1.45.89H3.9a1.53,1.53,0,0,1-1.16-.52A1.11,1.11,0,0,1,2.47,42L7.23,26.57l0.07-.23V26.1a1.07,1.07,0,0,1,1.1-.5H42M42,24H8.4c-1.5,0-2.7.9-2.7,2.1L0.9,41.7a2.92,2.92,0,0,0,3,3.3H37.2a3,3,0,0,0,3-2.1L45,27.3A2.92,2.92,0,0,0,42,24h0Z"/></g></svg>