<svg xmlns="http://www.w3.org/2000/svg" xmlns:xlink="http://www.w3.org/1999/xlink" viewBox="0 0 32 32"><defs><clipPath id="clip-path"><rect width="32" height="32" fill="none"/></clipPath></defs><g style="isolation:isolate"><g id="Layer_1" data-name="Layer 1"><g clip-path="url(#clip-path)"><g opacity="0.6"><path d="M13.67,8.81V6.94A1.94,1.94,0,0,0,11.74,5H5.93A1.94,1.94,0,0,0,4,6.94V8.81Z" fill="#2d3e50"/><path d="M30.13,15.38h-1v-2a1.93,1.93,0,0,0-1.92-1.76h-22A1.83,1.83,0,0,0,4,12.13V28.41l.62,1.39v0A1.86,1.86,0,0,0,6.35,31H27.22A1.89,1.89,0,0,0,29,29.48L32,17.74A1.92,1.92,0,0,0,30.13,15.38Z" fill="#2d3e50"/></g><path id="_Path_" data-name="&lt;Path&gt;" d="M23.22,27H2.35A1.92,1.92,0,0,1,.52,24.64L3.43,12.9a1.89,1.89,0,0,1,1.83-1.52H26.13A1.92,1.92,0,0,1,28,13.75L25,25.48A1.89,1.89,0,0,1,23.22,27Z" fill="#fff"/><path d="M1.49,12.45A3.91,3.91,0,0,1,5.26,9.38H25.13a1.93,1.93,0,0,0-1.92-1.76H10.64a1,1,0,0,1-1-1V2.94A1.94,1.94,0,0,0,7.74,1H1.93A1.94,1.94,0,0,0,0,2.94v15.5Z" fill="#fff"/></g></g></g></svg>
