<svg xmlns="http://www.w3.org/2000/svg" xmlns:xlink="http://www.w3.org/1999/xlink" viewBox="0 0 16 16" enable-background="new 0 0 16 16"><defs><path id="4" d="m0 0h16v16h-16z"/><path id="5" d="m6 2h10v10h-10z"/><clipPath id="3"><use xlink:href="#5"/></clipPath><clipPath id="1"><use xlink:href="#4"/></clipPath><linearGradient id="2" gradientUnits="userSpaceOnUse" x1="0" x2="15.31"><stop offset=".005" stop-color="#97999c"/><stop offset="1" stop-color="#97999c"/></linearGradient><pattern x="-252" y="140" width="15.3" height="15.3" patternUnits="userSpaceOnUse" id="0" viewBox="0 -15.3 15.3 15.3"><path fill="none" d="m0 0h15.3v-15.3h-15.3z"/><path fill="url(#2)" d="m15.3 0h-15.3v-15.3h15.3z"/></pattern></defs><g clip-path="url(#1)"><path d="m15.2 4.2h-7c-.6 0-1 .4-1 1v.4h-.5c-.3 0-.5-.3-.5-.6v-2c0-.6-.5-1-1-1h-3.1c-.6 0-1.1.5-1.1 1v2.5.6 8.9c0 .6.5 1 1 1h.2 11.2c.1 0 .3 0 .4-.1.1 0 .1-.1.1-.1.1 0 .1-.1.1-.1.1-.1.1-.1.2-.2 0 0 0 0 0-.1.1-.2.2-.3.2-.5l.5-1.8h.2c.6 0 1-.4 1-1v-7c.1-.5-.4-.9-.9-.9" fill="#8b9da5" opacity=".15"/><g><path d="m5.2 4v-2c0-.6-.5-1-1-1h-3.2c-.5 0-1 .5-1 1v2.5.6 8.9c0 .6.5 1 1 1h11.4c.6 0 1-.5 1-1v-8.4c0-.6-.5-1-1-1h-6.7c-.3 0-.5-.3-.5-.6" fill="#fff"/><path d="m4.1 2c.1 0 .1 0 0 0v2.1c0 .8.7 1.5 1.5 1.5h6.7c0 0 0 0 0 0v8.4c0 0 0 0 0 0h-11.3c0 0 0 0 0 0v-8.8-.6-2.6c0 0 0 0 0 0h3.1m0-1h-3.1c-.5 0-1 .5-1 1v2.5.6 8.9c0 .6.5 1 1 1h11.4c.6 0 1-.5 1-1v-8.4c0-.6-.5-1-1-1h-6.7c-.3 0-.5-.3-.5-.6v-2c0-.5-.5-1-1.1-1z" fill="url(#0)"/></g><g><g><path fill="#fff" d="m1.5 12.5v-12h4.2l4.1 3.8v8.2z"/><path d="M5.5,1l3.8,3.5V12H2V1H5.5 M5.9,0H1v13h9.3V4.1L5.9,0L5.9,0z" fill="#444546"/></g><g><path fill="#f6f8f9" d="m9.4 4.6h-4v-3.6z"/><path fill="#444546" d="m10.3 5.1h-5.4v-5.1h1v4.2h4.4z"/></g><path opacity=".15" fill="#8b9da5" d="m5.4 4.9v1.4l3.8-1.4z"/></g><g><g clip-path="url(#3)"><path d="m7.2 10.7c-.3 0-.5-.2-.5-.5v-7c0-.3.2-.5.5-.5h7c.3 0 .5.2.5.5v7c0 .3-.2.5-.5.5h-7" fill="#fff"/><path d="m14.2 3.2v7h-7v-7h7m0-1h-7c-.6 0-1 .4-1 1v7c0 .6.4 1 1 1h7c.6 0 1-.4 1-1v-7c0-.6-.5-1-1-1z" fill="#444546"/></g><g clip-path="url(#3)"><path fill="#7bd3f7" d="m8.2 4.2h5v5h-5z"/><g fill="#2db34a"><path d="m13.2 6.2c-1.2 0-1.1 1.3-2.5 1.3s-1.2-.8-2.5-.8v2.4h5v-2.9"/><path d="m8.2 8.9c1.3 0 1-.5 2.5-.5 1.4 0 1.2-.4 2.5-.4v1.1h-5v-.2"/></g></g><path d="m11.6 4.7c-.1 0-.2 0-.3.1-.2-.6-.7-1-1.2-1-.5 0-.9.2-1.1.6-.2-.1-.4-.2-.6-.2-.6 0-1 .5-1 1.2 0 .1 0 .2 0 .2h5c0-.5-.4-.9-.8-.9" fill="#fff" clip-path="url(#3)"/></g><g><path d="m12.4 15h-11.1c-.6 0-1.1-.5-1-1.1l1.6-5.2c0-.4.4-.7.9-.7h11.2c.6 0 1.1.5 1 1.1l-1.6 5.2c-.1.4-.5.7-1 .7" fill="#f3dbbe"/><path d="m13.9 9l-1.5 5c0 0 0 0 0 0h-11.1l1.5-5c0 0 0 0 0 0h11.1m.1-1h-11.2c-.5 0-.9.3-1 .7l-1.6 5.2c-.1.6.3 1.1 1 1.1h11.2c.5 0 .9-.3 1-.7l1.6-5.2c.1-.6-.4-1.1-1-1.1z" fill="url(#0)"/></g></g></svg>