<svg xmlns="http://www.w3.org/2000/svg" viewBox="0 0 16 16" enable-background="new 0 0 16 16"><g opacity=".8"><path d="m13.9 1c0 .2.1.4.1.5.1.4.1.7 0 1.1 0 .3-.1.5-.3.7-.7 1-1.4 2-2.1 3-.4.6-.8 1.2-1.3 1.8.8.7 1.3 1.5 1.4 2.5.1 0 .2 0 .3 0 1.4-.1 2.6.8 2.8 2.2.3 1.4-.7 2.8-2.1 3.1-1.5.3-2.8-.6-3.2-2 0-.2-.1-.4-.1-.5 0-.5 0-1.1 0-1.6 0-.8-.6-1.1-1.1-1.1-.6 0-1.1.4-1.1 1 0 .6 0 1.1 0 1.7 0 1.3-.9 2.4-2.1 2.6-1.4.3-2.8-.6-3.1-2-.3-1.5.6-2.9 2.1-3.2.3-.1.7-.1 1 0 0 0 0 0 .1 0 .1-1.1.7-1.8 1.4-2.5-.1-.5-.4-.8-.6-1.1-.9-1.3-1.8-2.5-2.7-3.8-.3-.4-.4-.9-.3-1.4 0-.3.1-.6.1-.9 0 0 0 0 0-.1 1.8 1.8 3.6 3.6 5.3 5.3 1.9-1.7 3.7-3.5 5.5-5.3m-1.7 13.6c.7 0 1.3-.6 1.3-1.4 0-.7-.6-1.3-1.3-1.3-.7 0-1.3.6-1.3 1.3 0 .8.6 1.4 1.3 1.4m-7.4 0c.7 0 1.3-.6 1.3-1.3 0-.7-.6-1.3-1.3-1.3-.7 0-1.3.6-1.3 1.3-.1.7.5 1.3 1.3 1.3m3.7-6.6c-.3 0-.5.2-.5.5 0 .3.2.5.5.5.3 0 .5-.2.5-.5 0-.3-.2-.5-.5-.5" opacity=".2" fill="#8b9da5"/></g><path d="m12.9 0c0 .2.1.4.1.5.1.4.1.7 0 1.1 0 .3-.1.5-.3.7-.7 1-1.4 2-2.1 3-.4.7-.8 1.2-1.3 1.8.8.7 1.3 1.5 1.4 2.5.1 0 .2 0 .3 0 1.4-.1 2.6.8 2.8 2.2.3 1.4-.7 2.8-2.1 3.1-1.5.3-2.8-.6-3.2-2 0-.2-.1-.4-.1-.5 0-.5 0-1.1 0-1.6.2-.8-.4-1.1-.9-1.1-.6 0-1.1.4-1.1 1 0 .6 0 1.1 0 1.7 0 1.3-.9 2.4-2.1 2.6-1.4.3-2.8-.6-3.1-2-.4-1.5.6-3 2-3.3.3-.1.7-.1 1 0 0 0 0 0 .1 0 .1-1.1.7-1.8 1.4-2.5-.2-.4-.5-.7-.7-1-.9-1.3-1.8-2.5-2.7-3.8-.3-.4-.4-.9-.3-1.4 0-.3.1-.6.1-.9 0 0 0 0 0-.1 1.8 1.8 3.6 3.6 5.3 5.3 1.9-1.7 3.7-3.5 5.5-5.3m-1.7 13.6c.7 0 1.3-.6 1.3-1.4 0-.7-.6-1.3-1.3-1.3-.7 0-1.3.6-1.3 1.3 0 .8.6 1.4 1.3 1.4m-7.4 0c.7 0 1.3-.6 1.3-1.3 0-.7-.6-1.3-1.3-1.3-.7 0-1.3.6-1.3 1.3-.1.7.5 1.3 1.3 1.3m3.7-6.6c-.3 0-.5.2-.5.5 0 .3.2.5.5.5.3 0 .5-.2.5-.5 0-.3-.2-.5-.5-.5" fill="#fff"/></svg>