<svg xmlns="http://www.w3.org/2000/svg" xmlns:xlink="http://www.w3.org/1999/xlink" viewBox="0 0 48 48" enable-background="new 0 0 48 48"><defs><path id="1" d="m0 0h48v48h-48z"/><clipPath id="0"><use xlink:href="#1"/></clipPath></defs><g clip-path="url(#0)"><ellipse cx="24" cy="25" rx="20" ry="6" fill="#cee4f3"/><path d="M44,35c0,3.3-9,6-20,6S4,38.3,4,35V25c0,3.3,9,6,20,6s20-2.7,20-6V35z" fill="#9dcbe8"/><ellipse cx="24" cy="13" rx="20" ry="6" fill="#cee4f3"/><path d="M44,23c0,3.3-9,6-20,6S4,26.3,4,23V13c0,3.3,9,6,20,6s20-2.7,20-6V23z" fill="#9dcbe8"/></g></svg>