<svg xmlns="http://www.w3.org/2000/svg" viewBox="0 0 16 16" enable-background="new 0 0 16 16"><g opacity=".16"><path d="m8.5 2c-4.1 0-7.5 1.3-7.5 2.8v1 2.7.9 3.7c0 1.6 3.4 2.9 7.5 2.9s7.5-1.3 7.5-2.8v-3.7-1-2.7-1c0-1.5-3.4-2.8-7.5-2.8" fill="#8b9da5"/></g><path d="m7.5 14.4c-4.3 0-6.9-1.3-6.9-2.2v-2.9c1.5 1 4.3 1.6 6.9 1.6s5.4-.5 6.9-1.6v2.9c0 .9-2.6 2.2-6.9 2.2" fill="#c5e6e0"/><path d="m13.9 10.3v1.9c-.1.5-2.2 1.7-6.4 1.7s-6.2-1.2-6.4-1.7v-1.9c1.7.8 4.1 1.2 6.4 1.2 2.3 0 4.7-.4 6.4-1.2m1.1-2.8c0 1.5-3.4 2.8-7.5 2.8s-7.5-1.2-7.5-2.8v4.7c0 1.5 3.4 2.8 7.5 2.8s7.5-1.3 7.5-2.8v-4.7z" fill="#444546"/><path d="m7.5 10.7c-4.3 0-6.9-1.3-6.9-2.2v-2.9c1.5 1 4.3 1.6 6.9 1.6s5.4-.5 6.9-1.6v2.9c0 .9-2.6 2.2-6.9 2.2" fill="#c5e6e0"/><path d="m13.9 6.6v1.9c-.1.5-2.2 1.7-6.4 1.7s-6.2-1.3-6.4-1.7v-1.9c1.7.8 4.1 1.2 6.4 1.2 2.3-.1 4.7-.4 6.4-1.2m1.1-2.8c0 1.5-3.4 2.8-7.5 2.8s-7.5-1.3-7.5-2.8v4.7c0 1.5 3.4 2.8 7.5 2.8s7.5-1.3 7.5-2.8v-4.7z" fill="#444546"/><path d="m7.5 7c-4.3 0-7-1.3-7-2.3v-1c0-1 2.7-2.3 7-2.3s7 1.3 7 2.3v1c0 1-2.7 2.3-7 2.3" fill="#f1f9f8"/><path d="m7.5 1.9c4.3 0 6.5 1.3 6.5 1.8v1c0 .5-2.2 1.8-6.5 1.8s-6.5-1.3-6.5-1.8v-1c0-.5 2.2-1.8 6.5-1.8m0-1c-4.1 0-7.5 1.3-7.5 2.8v1c0 1.5 3.4 2.8 7.5 2.8s7.5-1.2 7.5-2.8v-1c0-1.5-3.4-2.8-7.5-2.8z" fill="#444546"/></svg>