<svg xmlns="http://www.w3.org/2000/svg" viewBox="0 0 16 16" enable-background="new 0 0 16 16"><g opacity=".2" fill="#8b9da5"><path d="m4.3 16c2.9 0 5.7 0 8.6 0 .4-3.8.9-7.5 1.3-11.3-3.7 0-7.5 0-11.2 0 .5 3.8.9 7.5 1.3 11.3m.4-7.9c.5-.5 1.1-1.1 1.6-1.6.8.7 1.5 1.5 2.2 2.3.8-.8 1.5-1.5 2.2-2.2.5.5 1.1 1.1 1.6 1.6-.7.7-1.4 1.4-2.1 2.1.7.7 1.4 1.4 2 2.1-.5.5-1.1 1.1-1.6 1.6-.7-.7-1.4-1.4-2.1-2.1-.8.7-1.5 1.4-2.2 2.1-.5-.5-1.1-1.1-1.6-1.6.7-.7 1.4-1.4 2.2-2.2-.8-.7-1.5-1.4-2.2-2.1"/><path d="m10.5 2.1c0-.4 0-.7 0-1.1-1.3 0-2.7 0-4 0 0 .4 0 .7 0 1.1-1.6 0-3.1 0-4.7 0 0 .6 0 1.2 0 1.8 4.5 0 8.9 0 13.4 0 0-.6 0-1.2 0-1.8-1.6 0-3.1 0-4.7 0"/></g><g fill="#fff"><path d="m3.3 15c2.9 0 5.7 0 8.6 0 .4-3.8.9-7.5 1.3-11.3-3.7 0-7.5 0-11.2 0 .5 3.8.9 7.5 1.3 11.3m.4-7.9c.5-.5 1.1-1.1 1.6-1.6.8.7 1.5 1.5 2.2 2.3.8-.8 1.5-1.5 2.2-2.2.5.5 1.1 1.1 1.6 1.6-.7.7-1.4 1.4-2.1 2.1.7.7 1.4 1.4 2 2.1-.5.5-1.1 1.1-1.6 1.6-.7-.7-1.4-1.4-2.1-2.1-.8.7-1.5 1.4-2.2 2.1-.5-.5-1.1-1.1-1.6-1.6.7-.7 1.4-1.4 2.2-2.2-.8-.7-1.5-1.4-2.2-2.1"/><path d="m9.5 1.1c0-.4 0-.7 0-1.1-1.3 0-2.7 0-4 0 0 .4 0 .7 0 1.1-1.6 0-3.1 0-4.7 0 0 .6 0 1.2 0 1.8 4.5 0 8.9 0 13.4 0 0-.6 0-1.2 0-1.8-1.6 0-3.1 0-4.7 0"/></g></svg>