<svg id="Layer_1" data-name="Layer 1" xmlns="http://www.w3.org/2000/svg" viewBox="0 0 200 68"><defs><style>.cls-1,.cls-3{opacity:0.6;}.cls-2,.cls-3,.cls-7{fill:#fff;}.cls-4{fill:#f38274;}.cls-5{fill:#ee3642;}.cls-6{fill:#1ca086;}.cls-7{fill-rule:evenodd;}</style></defs><title>IX</title><g class="cls-1"><path class="cls-2" d="M117.88,22.36h-.21V21.27h-.37v-.18h1v.18h-.37Z"/><path class="cls-2" d="M118.91,22.36l-.37-1.06h0c0,.16,0,.3,0,.44v.62h-.19V21.09h.29l.35,1h0l.36-1h.29v1.27h-.2v-.63q0-.09,0-.25c0-.1,0-.16,0-.18h0l-.38,1.06Z"/></g><g class="cls-1"><rect class="cls-2" x="47.88" y="35.75" width="2.39" height="14.58"/><path class="cls-2" d="M63.06,35.75v7.64q0,.81.06,2.25t.08,1.67h-.06L56,35.75H53.1V50.31h2.1V42.73q0-1.54-.14-3.39v-.65h.08l7.18,11.64h2.92V35.75Z"/><polygon class="cls-2" points="68.08 50.33 70.44 50.33 70.44 44.36 75.94 44.36 75.94 42.33 70.44 42.33 70.44 37.77 76.32 37.77 76.32 35.75 68.08 35.75 68.08 50.33"/><rect class="cls-2" x="77.92" y="35.75" width="2.39" height="14.58"/><path class="cls-2" d="M93.06,35.75v7.64q0,.81.12,2.25t.08,1.67H93.2L86,35.75h-2.9V50.31h2.1V42.73q0-1.54-.14-3.39v-.65h.08l7.18,11.64h2.92l0-14.58Z"/><rect class="cls-2" x="98.12" y="35.75" width="2.39" height="14.58"/><polygon class="cls-2" points="101.7 37.78 105.99 37.78 105.99 50.33 108.38 50.33 108.38 37.78 112.67 37.78 112.67 35.69 101.7 35.69 101.7 37.78"/><rect class="cls-2" x="113.88" y="35.75" width="2.39" height="14.58"/></g><path class="cls-3" d="M116,21.65c.17-.29,0-.56-.29-.56h-.59a.83.83,0,0,0-.75.44l-1.15,1.78.86,1.33Zm.19,7.6L114.07,26l-.88,1.36,1.31,2a.79.79,0,0,0,.71.48h.68c.32,0,.49-.25.29-.58"/><path class="cls-3" d="M48,21.63a.5.5,0,0,1,.53-.54h.49a.52.52,0,0,1,.54.54V29.3a.5.5,0,0,1-.54.53h-.49A.49.49,0,0,1,48,29.3Zm-.17-3a1,1,0,0,1,1.9,0,.95.95,0,0,1-1.9,0"/><path class="cls-3" d="M51.29,21.63a.49.49,0,0,1,.51-.54H52c.32,0,.54.14.58.46l.05.41a4.11,4.11,0,0,1,2.56-1.09,2.66,2.66,0,0,1,2.87,3V29.3a.5.5,0,0,1-.54.53h-.49a.49.49,0,0,1-.53-.53V24.11c0-1.26-.39-1.88-1.58-1.88a3.39,3.39,0,0,0-2.12,1V29.3a.5.5,0,0,1-.54.53h-.49a.49.49,0,0,1-.53-.53Z"/><path class="cls-3" d="M60.19,22.26l-.88-.07c-.37,0-.53-.17-.53-.49v-.15c0-.32.2-.46.53-.46h.88V18.83a.52.52,0,0,1,.54-.54h.49a.5.5,0,0,1,.53.54v2.26h1.56a.46.46,0,0,1,.53.49v.2c0,.32-.2.48-.53.48H61.75v5c0,1.05.54,1.44,1.27,1.44a6.61,6.61,0,0,0,.7,0c.32-.07.53,0,.59.34l.07.37A.5.5,0,0,1,64,30,5.48,5.48,0,0,1,63,30a2.48,2.48,0,0,1-2.77-2.61Z"/><path class="cls-3" d="M70.29,24.69v-.34a2,2,0,1,0-3.9,0v.34Zm-5.46-.25a3.41,3.41,0,0,1,3.49-3.56,3.48,3.48,0,0,1,3.53,3.56v1a.37.37,0,0,1-.37.37H66.39v.65a2,2,0,0,0,2.1,2.21,7.4,7.4,0,0,0,2.05-.3c.34-.09.59,0,.68.34l.08.3a.52.52,0,0,1-.39.64,8.82,8.82,0,0,1-2.41.37,3.44,3.44,0,0,1-3.68-3.56Z"/><path class="cls-3" d="M73.2,18.05a.52.52,0,0,1,.54-.54h.49a.5.5,0,0,1,.53.54v10c0,.41.12.53.22.61a.43.43,0,0,1,.19.54l-.09.37a.47.47,0,0,1-.61.37,1.52,1.52,0,0,1-1.27-1.75Z"/><path class="cls-3" d="M76.9,18.05a.52.52,0,0,1,.54-.54h.49a.5.5,0,0,1,.53.54v10c0,.41.12.53.22.61a.43.43,0,0,1,.19.54l-.09.37a.47.47,0,0,1-.61.37,1.52,1.52,0,0,1-1.27-1.75Z"/><path class="cls-3" d="M85.31,24.69v-.34a2,2,0,1,0-3.9,0v.34Zm-5.46-.26a3.41,3.41,0,0,1,3.49-3.56,3.48,3.48,0,0,1,3.53,3.56v1a.37.37,0,0,1-.37.37H81.41v.65a2,2,0,0,0,2.1,2.21,7.41,7.41,0,0,0,2.05-.3c.34-.09.59,0,.68.34l.08.3a.52.52,0,0,1-.39.64,8.82,8.82,0,0,1-2.41.37,3.44,3.44,0,0,1-3.68-3.56Z"/><path class="cls-3" d="M91.35,28.69a3.57,3.57,0,0,0,2.09-1V23.21a3.47,3.47,0,0,0-2.09-1c-1.29,0-1.83.8-1.83,2.44v1.58c0,1.65.54,2.44,1.83,2.44m-3.41-4.28c0-2.24,1.2-3.54,3.17-3.54a3.69,3.69,0,0,1,2.32,1V18.05a.5.5,0,0,1,.53-.54h.49a.52.52,0,0,1,.54.54V29.3a.46.46,0,0,1-.49.53h-.32c-.32,0-.51-.08-.54-.41L93.59,29A3.76,3.76,0,0,1,91.11,30c-2,0-3.17-1.32-3.17-3.53Z"/><path class="cls-3" d="M100,28.69c1.54,0,2.07-1,2.07-2.65V24.87c0-1.61-.53-2.65-2.07-2.65S98,23.26,98,24.87V26c0,1.65.54,2.65,2.07,2.65m-3.65-4c0-2.36,1.36-3.87,3.65-3.87s3.66,1.51,3.66,3.87v1.44c0,2.37-1.37,3.87-3.66,3.87s-3.65-1.49-3.65-3.87Z"/><path class="cls-4" d="M107.74,26.6l-1.82,2.8a.76.76,0,0,1-.7.42h-.64c-.32,0-.48-.27-.29-.58l2.53-3.92-2.32-3.65c-.17-.29,0-.59.29-.59h.63a.83.83,0,0,1,.75.44l1.6,2.49.9,1.27Z"/><path class="cls-5" d="M111.68,26.6l-1.82,2.8a.76.76,0,0,1-.7.42h-.64c-.32,0-.48-.27-.29-.58l2.53-3.92-2.32-3.65c-.17-.29,0-.59.29-.59h.63a.83.83,0,0,1,.75.44L111.7,24l.9,1.27Z"/><path class="cls-2" d="M132.65,43a7.32,7.32,0,0,1-1.9,5.47,7.66,7.66,0,0,1-5.57,1.85h-3.44V35.92h3.88a7.08,7.08,0,0,1,5.23,1.8A7.12,7.12,0,0,1,132.65,43Zm-1.09,0A6.28,6.28,0,0,0,130,38.36a6.27,6.27,0,0,0-4.61-1.56h-2.64v12.6h2.38Q131.56,49.41,131.56,43Z"/><path class="cls-2" d="M142.8,50.29h-7.85V35.92h7.85v.92H136v5.44h6.47v.92H136v6.16h6.85Z"/><path class="cls-2" d="M153,46.59a3.45,3.45,0,0,1-1.32,2.85,5.48,5.48,0,0,1-3.51,1.05,11,11,0,0,1-4-.58v-1a10.23,10.23,0,0,0,4,.66,4.44,4.44,0,0,0,2.81-.81,2.57,2.57,0,0,0,1-2.13,2.46,2.46,0,0,0-.34-1.35,3.13,3.13,0,0,0-1.12-1,13.84,13.84,0,0,0-2.28-1,7.81,7.81,0,0,1-3-1.64,3.51,3.51,0,0,1,.42-5,5,5,0,0,1,3.25-1,9.52,9.52,0,0,1,3.8.77l-.36.87a8.88,8.88,0,0,0-3.42-.75,4,4,0,0,0-2.54.74,2.41,2.41,0,0,0-.94,2,2.63,2.63,0,0,0,.29,1.31,2.66,2.66,0,0,0,.95.92,13,13,0,0,0,2.26,1,12.18,12.18,0,0,1,2.53,1.13,3.61,3.61,0,0,1,1.23,1.24A3.38,3.38,0,0,1,153,46.59Z"/><path class="cls-2" d="M155,50.29V35.92h1V50.29Z"/><path class="cls-2" d="M164.73,43H170v6.56a11.89,11.89,0,0,1-4.69.89,6.83,6.83,0,0,1-5.21-1.92,7.62,7.62,0,0,1-1.81-5.44,8.17,8.17,0,0,1,.9-3.89,6.31,6.31,0,0,1,2.58-2.62,7.84,7.84,0,0,1,3.85-.92,9.93,9.93,0,0,1,4.22.86l-.4.91a9.11,9.11,0,0,0-3.87-.87,5.92,5.92,0,0,0-4.51,1.75,6.59,6.59,0,0,0-1.67,4.73A6.77,6.77,0,0,0,161,48a6.18,6.18,0,0,0,4.65,1.64A9,9,0,0,0,169,49V44h-4.28Z"/><path class="cls-2" d="M183.08,50.29h-1l-8.51-12.76h-.08q.12,2.28.12,3.44v9.32h-1V35.92h1l8.5,12.74h.06q-.09-1.77-.09-3.36V35.92h1Z"/><circle class="cls-6" cx="19.4" cy="34" r="19"/><path class="cls-7" d="M11.27,45.13l4.14-1.83c.27-.38-.46-1.37-1.44-2s-2.19-1-2.47-.61ZM21.83,26l3.71,2.74,1.69-2.43a2.14,2.14,0,0,0-.76-2.89,2,2,0,0,0-2.91.13ZM16.14,42.27l8.91-12.82-1.54-1.13-8.6,12.3A6,6,0,0,1,16.14,42.27Zm6.75-14.41-1.56-1.15-9.09,12.9a6.26,6.26,0,0,1,2,.56Z"/></svg>