<svg xmlns="http://www.w3.org/2000/svg" xmlns:xlink="http://www.w3.org/1999/xlink" viewBox="0 0 32 32"><defs><clipPath id="clip-path"><rect id="_Rectangle_" data-name="&lt;Rectangle&gt;" width="32" height="32" fill="none"/></clipPath></defs><g style="isolation:isolate"><g id="Layer_1" data-name="Layer 1"><g id="_Clip_Group_" data-name="&lt;Clip Group&gt;"><g clip-path="url(#clip-path)"><path id="_Compound_Path_" data-name="&lt;Compound Path&gt;" d="M30,4H6A2,2,0,0,0,4,6V30a2,2,0,0,0,2,2H30a2,2,0,0,0,2-2V6A2,2,0,0,0,30,4Zm-1,8.33H19.5V7H29Zm-9.5,3H29v5.33H19.5Zm-3,5.33H7V15.33h9.5ZM16.5,7v5.33H7V7ZM7,23.67h9.5V29H7ZM19.5,29V23.67H29V29Z" fill="#2d3e50" opacity="0.6"/><path id="_Compound_Path_2" data-name="&lt;Compound Path&gt;" d="M26,0H2A2,2,0,0,0,0,2V26a2,2,0,0,0,2,2H26a2,2,0,0,0,2-2V2A2,2,0,0,0,26,0ZM25,8.33H15.5V3H25Zm-9.5,3H25v5.33H15.5Zm-3,5.33H3V11.33h9.5ZM12.5,3V8.33H3V3ZM3,19.67h9.5V25H3ZM15.5,25V19.67H25V25Z" fill="#fff"/></g></g></g></g></svg>
