<svg xmlns="http://www.w3.org/2000/svg" viewBox="0 0 16 16" enable-background="new 0 0 16 16"><defs><linearGradient id="0" gradientUnits="userSpaceOnUse" y1="2" x2="0" y2="13.44"><stop offset=".005" stop-color="#fff"/><stop offset="1" stop-color="#eef0f2"/></linearGradient></defs><path opacity=".15" fill="#8b9da5" d="m3 15l2-2 1.9 2 2.5-2.5 2.4 2.3 2.2-2.2v-5.6l-5-5h-6v13"/><path fill="#444546" d="m2 14l2-2 1.9 2 2.5-2.5 2.4 2.3 2.2-2.2v-5.6l-5-5h-6v13"/><path fill="#dbe0e4" d="m8 2.4v3.6h3.6z"/><path fill="url(#0)" d="m7 7v-5h-4v10.3l1-1 1.9 2 2.5-2.5 2.4 2.3 1.2-1.2v-4.9z"/><g fill="#b4bbc5"><path d="m7 4h-3v1h1v3h1v-3h1z"/><path d="m8 7h3v1h-3z"/><path d="m4 9h7v1h-7z"/><path d="m4 11.3l.7.7h2.5l.8-.8v-.2h-4z"/></g></svg>