<svg xmlns="http://www.w3.org/2000/svg" viewBox="0 0 16 16" enable-background="new 0 0 16 16"><defs><linearGradient id="0" gradientUnits="userSpaceOnUse" y1="1.101" x2="0" y2="13.902"><stop offset=".005" stop-color="#fff"/><stop offset="1" stop-color="#eef0f2"/></linearGradient></defs><path fill="#444546" d="m8.7 0h-6.7v15h11v-10.9l-4.3-4.1"/><g opacity=".15"><path fill="#444546" d="m14 16h-11v-15h6.7l4.3 4.1z"/></g><path fill="url(#0)" d="m8.3 1l3.7 3.5v9.5h-9v-13h5.3"/><g fill="#b4bbc5"><path d="m7 3h-3v1h1v3h1v-3h1z"/><path d="m8 6h3v1h-3z"/><path d="m4 8h7v1h-7z"/><path d="m4 10h7v1h-7z"/><path d="m4 12h4v1h-4z"/></g><path fill="#dbe0e4" d="m12.1 4.6h-3.8v-3.6z"/><path fill="#444546" d="m13 5.1v-.9h-4.3v-4.2h-.9v5.1z"/><path opacity=".15" fill="#8b9da5" d="m8.3 4.9v1.4l3.6-1.4z"/></svg>