<svg xmlns="http://www.w3.org/2000/svg" xmlns:xlink="http://www.w3.org/1999/xlink" viewBox="0 0 32 32"><defs><clipPath id="clip-path"><rect width="32" height="32" fill="none"/></clipPath></defs><g style="isolation:isolate"><g id="Layer_1" data-name="Layer 1"><g clip-path="url(#clip-path)"><rect id="_Path_" data-name="&lt;Path&gt;" x="4" y="24" width="14" height="8" rx="1" ry="1" fill="#2d3e50" opacity="0.6"/><rect id="_Path_2" data-name="&lt;Path&gt;" x="18" y="4" width="14" height="8" rx="1" ry="1" fill="#2d3e50" opacity="0.6"/><path d="M21.88,21.69l0-8.32L15.91,19.2H18A7.57,7.57,0,0,1,17,20.37,14.29,14.29,0,0,1,15.12,22l-1,.67a9.25,9.25,0,0,0,1.21-.13A9,9,0,0,0,18,21.69,7.83,7.83,0,0,0,20.23,20Z" fill="#2d3e50" opacity="0.6"/><rect id="_Path_3" data-name="&lt;Path&gt;" y="20" width="14" height="8" rx="1" ry="1" fill="#fff"/><rect id="_Path_4" data-name="&lt;Path&gt;" x="14" width="14" height="8" rx="1" ry="1" fill="#fff"/><path d="M17.88,17.69l0-8.32L11.91,15.2H14A7.57,7.57,0,0,1,13,16.37,14.29,14.29,0,0,1,11.12,18l-1,.67a9.25,9.25,0,0,0,1.21-.13A9,9,0,0,0,14,17.69,7.83,7.83,0,0,0,16.23,16Z" fill="#fff"/></g></g></g></svg>
