<svg xmlns="http://www.w3.org/2000/svg" xmlns:xlink="http://www.w3.org/1999/xlink" viewBox="0 0 16 16" enable-background="new 0 0 16 16"><defs><path id="1" d="m0 0h16v16h-16z"/><clipPath id="0"><use xlink:href="#1"/></clipPath></defs><g clip-path="url(#0)"><path d="m14.3 15.6c0-.1 0-.1 0 0 .1-.2.2-.4.2-.6l1.5-5.8c.1-.6-.4-1.2-1-1.2l-.5-1v-.4c0-.6-.5-1-1-1h-6.8c-.3 0-.5-.3-.5-.6v-2c0-.6-.5-1-1-1h-3.1c-.6 0-1.1.5-1.1 1v2.5.6 8.9c0 .6.5 1 1 1h.2 11.2c.1 0 .3 0 .4-.1.1 0 .1-.1.1-.1.1 0 .1-.1.1-.1.2 0 .2-.1.3-.1" fill="#8b9da5" opacity=".15"/><g><path d="m1 14.5c-.3 0-.5-.2-.5-.5v-12c0-.3.2-.5.5-.5h3.1c.3 0 .5.2.5.5v2c0 .6.5 1 1 1h6.7c.3 0 .5.2.5.5v8.5c0 .3-.2.5-.5.5h-11.3" fill="#dbe0e4"/><path d="m4.1 2v2c0 .8.7 1.5 1.5 1.5h6.7v8.4l-11.3.1v-8.8-.6-2.6h3.1m0-1h-3.1c-.5 0-1 .5-1 1v2.5.6 8.9c0 .6.5 1 1 1h11.4c.6 0 1-.5 1-1v-8.4c0-.6-.5-1-1-1h-6.7c-.3 0-.5-.3-.5-.6v-2c0-.5-.5-1-1.1-1z" fill="#69768b"/></g><g><g><path fill="#fff" d="m3.6 12.5v-12h4.2l4.1 3.8v8.2z"/><path d="M7.6,1l3.8,3.5V12H4.1V1H7.6 M8,0H3.1v13h9.3V4.1L8,0L8,0z" fill="#2d3e50"/></g><g><path fill="#f6f8f9" d="m11.5 4.6h-4v-3.6z"/><path fill="#2d3e50" d="m12.4 5.1h-5.4v-5.1h1v4.2h4.4z"/></g><path opacity=".15" fill="#8b9da5" d="m7.5 4.9v1.4l3.8-1.4z"/></g><g><path d="m1.3 14.5c-.2 0-.3-.1-.4-.2 0-.1-.1-.1-.1-.3l1.6-6.2c0-.2.3-.3.5-.3h11.1c.2 0 .3.1.4.2 0 .1.1.1.1.3l-1.6 6.2c0 .2-.3.3-.5.3h-11.1" fill="#dbe0e4"/><path d="m2.8 8c0 0 0 0 0 0h11.1l-1.5 6c0 0 0 0 0 0h-11.1l1.5-6m11.2-1h-11.2c-.5 0-.9.3-1 .7l-1.6 6.2c-.1.6.3 1.1 1 1.1h11.2c.5 0 .9-.3 1-.7l1.6-6.2c.1-.6-.4-1.1-1-1.1z" fill="#69768b"/></g></g></svg>