<svg id="Layer_1" data-name="Layer 1" xmlns="http://www.w3.org/2000/svg" xmlns:xlink="http://www.w3.org/1999/xlink" viewBox="0 0 48 48"><defs><style>.cls-1,.cls-10{fill:none;}.cls-2{clip-path:url(#clip-path);}.cls-3,.cls-9{opacity:0.15;}.cls-4,.cls-9{fill:#8b9da5;}.cls-5{fill:#fff;}.cls-6{fill:#9dcbe8;}.cls-7{fill:#3b97d3;}.cls-8{fill:#cfd7e0;}.cls-10{stroke:#2d3e50;stroke-miterlimit:10;stroke-width:1.6px;}.cls-11{fill:#e8f2fa;}.cls-12{fill:#444546;}</style><clipPath id="clip-path"><rect class="cls-1" width="48" height="48"/></clipPath></defs><title>FileSelect48-1</title><g class="cls-2"><g class="cls-3"><path class="cls-4" d="M45,27h-1.8V19.8A3,3,0,0,0,41.25,17V12.84L30,1.61H12.25V6H6A3.23,3.23,0,0,0,3,9V45a3,3,0,0,0,3,3h34.2a3,3,0,0,0,3-2.1L48,30.3A2.92,2.92,0,0,0,45,27Z"/></g><g id="_Group_" data-name="&lt;Group&gt;"><path class="cls-5" d="M15.6,12V6a3,3,0,0,0-3-3H3A3.23,3.23,0,0,0,0,6V42a3,3,0,0,0,3,3H37.2a3,3,0,0,0,3-3V16.8a3,3,0,0,0-3-3H17.1A1.68,1.68,0,0,1,15.6,12Z"/><path class="cls-6" d="M3,44.2A2.21,2.21,0,0,1,.8,42V6A2.45,2.45,0,0,1,3,3.8h9.3A2.49,2.49,0,0,1,14.8,6v6a2.48,2.48,0,0,0,2.3,2.6H37.2a2.21,2.21,0,0,1,2.2,2.2V42a2.21,2.21,0,0,1-2.2,2.2H3Z"/><path class="cls-7" d="M12.3,4.6A1.73,1.73,0,0,1,14,6v6a3.26,3.26,0,0,0,3.1,3.4H37.2a1.41,1.41,0,0,1,1.4,1.4V42a1.41,1.41,0,0,1-1.4,1.4H3A1.41,1.41,0,0,1,1.6,42V6A1.67,1.67,0,0,1,3,4.6h9.3m0-1.6H3A3.23,3.23,0,0,0,0,6V42a3,3,0,0,0,3,3H37.2a3,3,0,0,0,3-3V16.8a3,3,0,0,0-3-3H17.1A1.68,1.68,0,0,1,15.6,12V6a3.29,3.29,0,0,0-3.3-3h0Z"/></g><g id="_Group_2" data-name="&lt;Group&gt;"><g id="_Group_3" data-name="&lt;Group&gt;"><polygon class="cls-5" points="38.64 40.23 10.85 40.23 10.85 0.2 27.88 0.2 38.64 11.15 38.64 40.23"/></g><rect class="cls-8" x="26.25" y="14.11" width="8.02" height="12.01"/><rect class="cls-8" x="15.23" y="4.85" width="12.04" height="6.26"/><rect class="cls-8" x="15.23" y="29.12" width="19.04" height="6.26"/><rect class="cls-8" x="15.23" y="14.11" width="8.02" height="12.01"/><polygon id="_Path_" data-name="&lt;Path&gt;" class="cls-9" points="26.19 12.62 26.19 16.09 38.48 12.62 26.19 12.62"/><polygon id="_Path_2" data-name="&lt;Path&gt;" class="cls-10" points="11.38 39.61 11.38 0.81 27.66 0.81 38.25 11.39 38.25 39.61 11.38 39.61"/><polyline id="_Path_3" data-name="&lt;Path&gt;" class="cls-10" points="38.25 11.87 26.98 11.87 26.98 0.61"/></g><g id="_Group_4" data-name="&lt;Group&gt;"><path class="cls-11" d="M3.9,44.2a2.34,2.34,0,0,1-1.78-.8,1.9,1.9,0,0,1-.44-1.52L6.5,26.22V26.1c0-.73.83-1.3,1.9-1.3H42a2.34,2.34,0,0,1,1.77.8,1.91,1.91,0,0,1,.44,1.52L39.44,42.66A2.2,2.2,0,0,1,37.2,44.2H3.9Z"/><path class="cls-7" d="M42,25.6a1.53,1.53,0,0,1,1.16.52,1.11,1.11,0,0,1,.27.83L38.67,42.43v0.08a1.41,1.41,0,0,1-1.45.89H3.9a1.53,1.53,0,0,1-1.16-.52A1.11,1.11,0,0,1,2.47,42L7.23,26.57l0.07-.23V26.1a1.07,1.07,0,0,1,1.1-.5H42M42,24H8.4c-1.5,0-2.7.9-2.7,2.1L0.9,41.7a2.92,2.92,0,0,0,3,3.3H37.2a3,3,0,0,0,3-2.1L45,27.3A2.92,2.92,0,0,0,42,24h0Z"/></g><g id="_Group_5" data-name="&lt;Group&gt;"><polygon class="cls-5" points="27.51 35.3 23.29 39.04 23.29 21.35 36.4 33 30.98 33.64 34.35 40.88 30.87 42.51 27.51 35.3"/><path class="cls-12" d="M24.09,23.13l10.45,9.28-2.55.3-2.2.26,0.93,2,2.57,5.51-2,1-2.57-5.51L27.78,34l-1.61,1.42-2.09,1.85V23.13m-1.6-3.56V40.81l4.75-4.2,3.24,7,4.94-2.3-3.24-7,6.08-.72-15.77-14h0Z"/></g></g></svg>
