<svg xmlns="http://www.w3.org/2000/svg" xmlns:xlink="http://www.w3.org/1999/xlink" viewBox="0 0 16 16" enable-background="new 0 0 16 16"><defs><path id="4" d="m0 0h16v16h-16z"/><clipPath id="1"><use xlink:href="#4"/></clipPath><linearGradient id="2" gradientUnits="userSpaceOnUse" x1="0" x2="15.31"><stop offset=".005" stop-color="#97999c"/><stop offset="1" stop-color="#97999c"/></linearGradient><linearGradient id="3" gradientUnits="userSpaceOnUse" y1=".919" x2="0" y2="12.08"><stop offset=".005" stop-color="#fff"/><stop offset="1" stop-color="#eef0f2"/></linearGradient><pattern x="-28" y="84" width="15.3" height="15.3" patternUnits="userSpaceOnUse" id="0" viewBox="0 -15.3 15.3 15.3"><path fill="none" d="m0 0h15.3v-15.3h-15.3z"/><path fill="url(#2)" d="m15.3 0h-15.3v-15.3h15.3z"/></pattern></defs><g clip-path="url(#1)"><path d="m14.3 15.6c0-.1 0-.1 0 0 .1-.2.2-.4.2-.6l1.5-5.8c.1-.6-.4-1.2-1-1.2l-.5-1v-.4c0-.6-.5-1-1-1h-6.8c-.3 0-.5-.3-.5-.6v-2c0-.6-.5-1-1-1h-3.1c-.6 0-1.1.5-1.1 1v2.5.6 8.9c0 .6.5 1 1 1h.2 11.2c.1 0 .3 0 .4-.1.1 0 .1-.1.1-.1.1 0 .1-.1.1-.1.2 0 .2-.1.3-.1" fill="#8b9da5" opacity=".15"/><g><path d="m5.2 4v-2c0-.6-.5-1-1-1h-3.2c-.5 0-1 .5-1 1v2.5.6 8.9c0 .6.5 1 1 1h11.4c.6 0 1-.5 1-1v-8.4c0-.6-.5-1-1-1h-6.7c-.3 0-.5-.3-.5-.6" fill="#f3dbbe"/><path d="m4.1 2c.1 0 .1 0 0 0v2.1c0 .8.7 1.5 1.5 1.5h6.7c0 0 0 0 0 0v8.4c0 0 0 0 0 0h-11.3c0 0 0 0 0 0v-8.8-.6-2.6c0 0 0 0 0 0h3.1m0-1h-3.1c-.5 0-1 .5-1 1v2.5.6 8.9c0 .6.5 1 1 1h11.4c.6 0 1-.5 1-1v-8.4c0-.6-.5-1-1-1h-6.7c-.3 0-.5-.3-.5-.6v-2c0-.5-.5-1-1.1-1z" fill="url(#0)"/></g><g><path fill="url(#0)" d="m8 0h-4.9v13h9.3v-8.9l-4.4-4.1"/><path fill="url(#3)" d="m7.6 1l3.8 3.5v7.5h-7.3v-11h3.5"/><g><path fill="#dbe0e4" d="m11.5 4.6h-4v-3.6z"/><path fill="url(#0)" d="m12.4 5.1h-5.4v-5.1h1v4.2h4.4z"/></g><path opacity=".15" fill="#8b9da5" d="m7.5 4.9v1.4l3.8-1.4z"/></g><g><path d="m12.4 15h-11.1c-.6 0-1.1-.5-1-1.1l1.6-6.2c0-.4.4-.7.9-.7h11.2c.6 0 1.1.5 1 1.1l-1.6 6.2c-.1.4-.5.7-1 .7" fill="#f3dbbe"/><path d="m13.9 8l-1.5 6c0 0 0 0 0 0h-11.1l1.5-6c0 0 0 0 0 0h11.1m.1-1h-11.2c-.5 0-.9.3-1 .7l-1.6 6.2c-.1.6.3 1.1 1 1.1h11.2c.5 0 .9-.3 1-.7l1.6-6.2c.1-.6-.4-1.1-1-1.1z" fill="url(#0)"/></g></g><g clip-path="url(#1)"><path fill="#fff" d="m10.5 11.6l-2 1.8-.1-8.5 6.4 5.6-2.7.4 1.7 3.7-1.6.7z"/><path d="m8.9 6l4.8 4.1-.9.1-1.4.2.6 1.2 1.2 2.6-.7.3-1.2-2.5-.6-1.2-1 .9-.7.6-.1-6.3m-1-2.2l.1 10.7 2.3-2.1 1.7 3.6 2.5-1.2-1.6-3.5 3.1-.4-8.1-7.1z" fill="#444546"/></g></svg>