<svg xmlns="http://www.w3.org/2000/svg" xmlns:xlink="http://www.w3.org/1999/xlink" viewBox="0 0 32 32"><defs><clipPath id="clip-path"><rect id="_Rectangle_" data-name="&lt;Rectangle&gt;" width="32" height="32" fill="none"/></clipPath></defs><g style="isolation:isolate"><g id="Layer_1" data-name="Layer 1"><g id="_Clip_Group_" data-name="&lt;Clip Group&gt;"><g clip-path="url(#clip-path)"><g id="_Group_" data-name="&lt;Group&gt;"><g id="_Group_2" data-name="&lt;Group&gt;" opacity="0.6"><path id="_Path_" data-name="&lt;Path&gt;" d="M15.91,32v-.24q0-6.57,0-13.13a.6.6,0,0,0-.09-.31L8,6.27,6.58,4l-.09-.15H28.41L28.33,4l-5.46,8.51-3.72,5.8a.52.52,0,0,0-.07.27q0,5.35,0,10.71a.43.43,0,0,1-.19.39c-1,.72-1.9,1.46-2.84,2.19Z" fill="#2d3e50"/></g><g id="_Group_3" data-name="&lt;Group&gt;"><path id="_Path_2" data-name="&lt;Path&gt;" d="M13,28.12v-.24q0-6.57,0-13.13a.6.6,0,0,0-.09-.31L5.12,2.39,3.67.15,3.59,0H25.51l-.09.16L20,8.67l-3.72,5.8a.52.52,0,0,0-.07.27q0,5.35,0,10.71a.43.43,0,0,1-.19.39c-1,.72-1.9,1.46-2.84,2.19Z" fill="#fff"/></g></g></g></g></g></g></svg>
