<svg xmlns="http://www.w3.org/2000/svg" viewBox="0 0 16 16" enable-background="new 0 0 16 16"><defs><linearGradient id="0" gradientUnits="userSpaceOnUse" y1="1" x2="0" y2="12.13"><stop offset=".005" stop-color="#fff"/><stop offset="1" stop-color="#eef0f2"/></linearGradient></defs><path opacity=".15" fill="#8b9da5" d="m1 14l2-2 1.9 2 2.5-2.5 2.4 2.3 2.2-2.2v-5.6l-5-5h-6v13"/><path fill="#444546" d="m0 13l2-2 1.9 2 2.5-2.5 2.4 2.3 2.2-2.2v-5.6l-5-5h-6v13"/><path fill="#dbe0e4" d="m6 1.4v3.6h3.6z"/><path fill="url(#0)" d="m5 6v-5h-4v10.3l1-1 1.9 2 2.5-2.5 2.4 2.3 1.2-1.2v-4.9z"/><g fill="#b4bbc5"><path d="m5 3h-3v1h1v3h1v-3h1z"/><path d="m6 6h3v1h-3z"/><path d="m2 8h7v1h-7z"/><path d="m2 10.3l.7.7h2.5l.8-.8v-.2h-4z"/></g><g opacity=".15" fill="#8b9da5"><path d="m11 16l5-4.4-5-4.5z"/><path d="m8 9.6h3.2v4h-3.2z"/></g><path fill="#444546" d="m10 6.1v2.5h-3v4h3v2.4l5-4.4-5-4.5"/><path fill="#8bd0c0" d="m11.1 8.6l2.2 2-2.2 1.9v-1h-1.1-1.9v-1.8h1.9 1.1v-1.1"/></svg>