<svg xmlns="http://www.w3.org/2000/svg" viewBox="0 0 16 16" enable-background="new 0 0 16 16"><defs><linearGradient id="0" gradientUnits="userSpaceOnUse" y1=".917" x2="0" y2="12.178"><stop offset=".005" stop-color="#fff"/><stop offset="1" stop-color="#eef0f2"/></linearGradient></defs><path opacity=".15" fill="#8b9da5" d="m1 14l2-2 1.9 2 2.5-2.5 2.4 2.3 2.2-2.2v-5.6l-5-5h-6v13"/><path fill="#444546" d="m0 13l2-2 1.9 2 2.5-2.5 2.4 2.3 2.2-2.2v-5.6l-5-5h-6v13"/><path fill="#dbe0e4" d="m6 1.4v3.6h3.6z"/><path fill="url(#0)" d="m5 6v-5h-4v10.3l1-1 1.9 2 2.5-2.5 2.4 2.3 1.2-1.2v-4.9z"/><g fill="#b4bbc5"><path d="m5 3h-3v1h1v3h1v-3h1z"/><path d="m6 6h3v1h-3z"/><path d="m2 8h7v1h-7z"/><path d="m2 10.3l.7.7h2.5l.8-.8v-.2h-4z"/></g><g opacity=".15" fill="#8b9da5"><path d="m7.1 10.6l4.5 5 4.4-5z"/><path d="m7.5 7.6h4v3.2h-4z"/></g><path fill="#444546" d="m12.5 6.6h-4v3h-2.4l4.5 5 4.4-5h-2.5v-3"/><path fill="#f4a69e" d="m11.4 7.7v1.9 1.1h1.1l-1.9 2.1-2-2.1h1v-1.1-1.9h1.8"/></svg>