<svg xmlns="http://www.w3.org/2000/svg" viewBox="0 0 32 32"><g style="isolation:isolate"><g id="Layer_1" data-name="Layer 1"><g id="_Group_" data-name="&lt;Group&gt;"><rect id="_Rectangle_" data-name="&lt;Rectangle&gt;" width="32" height="32" fill="none" opacity="0.1" style="mix-blend-mode:screen"/><path id="_Compound_Path_" data-name="&lt;Compound Path&gt;" d="M20.21,3H5.5V31.44l4.36-4.36,4.25,4.24,5.44-5.42L24.65,31l4.85-4.86V12ZM20,6.5l6,5.8H20Zm4.66,22-5.09-5.09-5.45,5.42L9.86,24.57,8.17,26.27V5.67h9.16V15h9.51V26.3Z" fill="#2d3e50" opacity="0.6"/><path id="_Compound_Path_2" data-name="&lt;Compound Path&gt;" d="M17.21,0H2.5V28.44l4.36-4.36,4.25,4.24,5.44-5.42L21.65,28l4.85-4.86V9ZM17,3.5l6,5.8H17Zm4.66,22-5.09-5.09-5.45,5.42L6.86,21.57,5.17,23.27V2.67h9.16V12h9.51V23.3Z" fill="#fff"/></g></g></g></svg>
