<svg xmlns="http://www.w3.org/2000/svg" xmlns:xlink="http://www.w3.org/1999/xlink" viewBox="0 0 16 16" enable-background="new 0 0 16 16"><defs><linearGradient id="3" gradientUnits="userSpaceOnUse" y1="1" x2="0" y2="12.13"><stop offset=".005" stop-color="#fff"/><stop offset="1" stop-color="#eef0f2"/></linearGradient><linearGradient id="1" gradientUnits="userSpaceOnUse" x1="0" x2="15.31"><stop offset=".005" stop-color="#97999c"/><stop offset="1" stop-color="#97999c"/></linearGradient><pattern id="2" xlink:href="#0" patternTransform="matrix(1 0 0 1 10.0693 0)"/><pattern x="-252" y="84" width="15.3" height="15.3" patternUnits="userSpaceOnUse" id="0" viewBox="0 -15.3 15.3 15.3"><path fill="none" d="m0 0h15.3v-15.3h-15.3z"/><path fill="url(#1)" d="m15.3 0h-15.3v-15.3h15.3z"/></pattern><pattern id="4" xlink:href="#0" patternTransform="matrix(1 0 0 1 10.0693 0)"/></defs><path opacity=".15" fill="#8b9da5" d="m1 14l2-2 1.9 2 2.5-2.5 2.4 2.3 2.2-2.2v-5.6l-5-5h-6v13"/><path fill="url(#2)" d="m0 13l2-2 1.9 2 2.5-2.5 2.4 2.3 2.2-2.2v-5.6l-5-5h-6v13"/><path fill="#eef0f2" d="m6 1.4v3.6h3.6z"/><path fill="url(#3)" d="m5 6v-5h-4v10.3l1-1 1.9 2 2.5-2.5 2.4 2.3 1.2-1.2v-4.9z"/><g fill="#b4bbc5"><path d="m5 3h-3v1h1v3h1v-3h1z"/><path d="m6 6h3v1h-3z"/><path d="m2 8h7v1h-7z"/><path d="m2 10.3l.7.7h2.5l.8-.8v-.2h-4z"/></g><g opacity=".15" fill="#8b9da5"><path d="m11 16l5-4.4-5-4.5z"/><path d="m8 9.6h3.2v4h-3.2z"/></g><path fill="url(#4)" d="m10 6.1v2.5h-3v4h3v2.4l5-4.4-5-4.5"/><path fill="#eef0f2" d="m11.1 8.6l2.2 2-2.2 1.9v-1h-1.1-1.9v-1.8h1.9 1.1v-1.1"/></svg>