<svg xmlns="http://www.w3.org/2000/svg" viewBox="0 0 16 16" enable-background="new 0 0 16 16"><g fill="#bfc3c8"><path d="m8 10.8c-3.9 0-7.1 1.2-7.1 2.6 0 1.4 3.2 2.6 7.1 2.6s7.1-1.2 7.1-2.6c0-1.4-3.2-2.6-7.1-2.6m0 4.3c-2.9 0-5.3-.9-5.3-2s2.4-2 5.3-2 5.3.9 5.3 2-2.4 2-5.3 2"/><path d="m8 11.5c-2.1 0-3.8.6-3.8 1.4 0 .8 1.7 1.4 3.8 1.4 2.1 0 3.8-.6 3.8-1.4 0-.7-1.7-1.4-3.8-1.4m0 1.9c-1.1 0-2.1-.3-2.1-.8 0-.4.9-.8 2.1-.8s2.1.3 2.1.8c0 .5-1 .8-2.1.8"/></g><path d="m8 0c-2.5 0-4.5 2-4.5 4.4s3.8 8.3 4.5 8.3 4.5-5.8 4.5-8.3-2-4.4-4.5-4.4m0 6.5c-1.1 0-2.1-.9-2.1-2.1s1-2 2.1-2 2.1.9 2.1 2.1-1 2-2.1 2" fill="#3b97d3"/></svg>