<svg xmlns="http://www.w3.org/2000/svg" viewBox="0 0 48 48" enable-background="new 0 0 48 48"><g fill="#cee4f3"><path d="m24 31.3c-10.2 0-18.5 3-18.5 6.8 0 3.7 8.3 6.8 18.5 6.8s18.5-3 18.5-6.8c0-3.8-8.3-6.8-18.5-6.8m0 11.3c-7.7 0-13.9-2.3-13.9-5.1 0-2.8 6.2-5.1 13.9-5.1s13.9 2.3 13.9 5.1c0 2.8-6.2 5.1-13.9 5.1"/><path d="m24 33.2c-5.4 0-9.8 1.6-9.8 3.6 0 2 4.4 3.6 9.8 3.6 5.4 0 9.8-1.6 9.8-3.6 0-2-4.4-3.6-9.8-3.6m0 5c-3 0-5.4-.9-5.4-2s2.4-2 5.4-2 5.4.9 5.4 2-2.4 2-5.4 2"/></g><path d="m24 3.1c-6.5 0-11.8 5.2-11.8 11.6s10 21.6 11.8 21.6c1.8 0 11.8-15.2 11.8-21.6s-5.3-11.6-11.8-11.6m0 15.2c-2 0-3.6-1.6-3.6-3.6s1.6-3.6 3.6-3.6 3.6 1.6 3.6 3.6-1.6 3.6-3.6 3.6" fill="#3b97d3"/></svg>