<svg id="Layer_1" data-name="Layer 1" xmlns="http://www.w3.org/2000/svg" xmlns:xlink="http://www.w3.org/1999/xlink" viewBox="0 0 16 16"><defs><style>.cls-1{fill:none;}.cls-2{fill:url(#linear-gradient);}.cls-3{fill:#26b298;}.cls-4{fill:#3b97d3;}.cls-5{fill:#e84d3d;}.cls-6{fill:#444546;}.cls-7{clip-path:url(#clip-path);}.cls-8{opacity:0.15;}.cls-9{fill:#8b9da5;}.cls-10{fill:url(#New_Pattern_Swatch_1);}</style><linearGradient id="linear-gradient" x1="8227" y1="-7987.62" x2="8242.31" y2="-7987.62" gradientTransform="matrix(1, 0, 0, -1, -8227, -7979.97)" gradientUnits="userSpaceOnUse"><stop offset="0.01" stop-color="#97999c"/><stop offset="1" stop-color="#97999c"/></linearGradient><clipPath id="clip-path"><rect class="cls-1" width="16" height="16"/></clipPath><pattern id="New_Pattern_Swatch_1" data-name="New Pattern Swatch 1" width="15.31" height="15.31" patternTransform="translate(2.52 -5.29)" patternUnits="userSpaceOnUse" viewBox="0 0 15.31 15.31"><rect class="cls-1" width="15.31" height="15.31"/><rect class="cls-2" width="15.31" height="15.31"/></pattern></defs><title>icon</title><circle id="_Path_" data-name="&lt;Path&gt;" class="cls-3" cx="13" cy="7.5" r="2"/><rect id="_Path_2" data-name="&lt;Path&gt;" class="cls-4" x="11" y="11" width="4" height="4"/><polygon id="_Path_3" data-name="&lt;Path&gt;" class="cls-5" points="13 0 11 4 15 4 13 0"/><g id="_Group_" data-name="&lt;Group&gt;"><path id="_Compound_Path_" data-name="&lt;Compound Path&gt;" class="cls-6" d="M1.17,8.63V8.28a1.6,1.6,0,0,1,.18-0.77A2.43,2.43,0,0,1,2,6.81a2.79,2.79,0,0,0,.6-0.57,0.86,0.86,0,0,0,.15-0.49A0.54,0.54,0,0,0,2.54,5.3,0.94,0.94,0,0,0,2,5.14a3.18,3.18,0,0,0-1.48.45L0,4.58A3.93,3.93,0,0,1,2.05,4a2.09,2.09,0,0,1,1.42.46A1.54,1.54,0,0,1,4,5.68a1.72,1.72,0,0,1-.22.88A3.2,3.2,0,0,1,3,7.4a2.61,2.61,0,0,0-.53.5,0.82,0.82,0,0,0-.11.45V8.63H1.17ZM1,10.21a0.81,0.81,0,0,1,.2-0.59,0.76,0.76,0,0,1,.57-0.2,0.74,0.74,0,0,1,.56.2,0.95,0.95,0,0,1,0,1.16A0.73,0.73,0,0,1,1.8,11a0.75,0.75,0,0,1-.56-0.21A0.8,0.8,0,0,1,1,10.21Z"/></g><g class="cls-7"><g class="cls-8"><circle class="cls-9" cx="14" cy="8.5" r="2"/><rect class="cls-9" x="12" y="12" width="4" height="4"/><polygon class="cls-9" points="14 1 12 5 16 5 14 1"/><polygon class="cls-9" points="11 3.02 7 3.02 7 8.02 6 8.02 6 9.02 7 9.02 7 14.02 11 14.02 9 12 9 13 8 13.02 8 9.02 9 9.02 9 9.63 11 8.52 9 7.39 9 8 8 8 8 4.02 9 4.02 9 5.02 11 3.02"/><path class="cls-9" d="M3.05,5A3.93,3.93,0,0,0,1,5.58l0.47,1A3.18,3.18,0,0,1,3,6.14a0.94,0.94,0,0,1,.58.16,0.54,0.54,0,0,1,.21.46,0.86,0.86,0,0,1-.15.49,2.79,2.79,0,0,1-.6.57,2.43,2.43,0,0,0-.65.7,1.6,1.6,0,0,0-.18.77V9.63H3.32V9.35A0.82,0.82,0,0,1,3.43,8.9,2.61,2.61,0,0,1,4,8.4a3.2,3.2,0,0,0,.82-0.83A1.72,1.72,0,0,0,5,6.68a1.54,1.54,0,0,0-.53-1.22A2.09,2.09,0,0,0,3.05,5Z"/><path class="cls-9" d="M2.8,10.42a0.76,0.76,0,0,0-.57.2,1,1,0,0,0,0,1.17A0.75,0.75,0,0,0,2.8,12a0.73,0.73,0,0,0,.56-0.21,0.95,0.95,0,0,0,0-1.16A0.74,0.74,0,0,0,2.8,10.42Z"/></g><polygon id="_Path_4" data-name="&lt;Path&gt;" class="cls-10" points="10 2.02 6 2.02 6 7.02 5 7.02 5 8.02 6 8.02 6 13.02 10 13.02 8 11 8 12 7 12.02 7 8.02 8 8.02 8 8.63 10 7.52 8 6.39 8 7 7 7 7 3.02 8 3.02 8 4.02 10 2.02"/></g></svg>
