<svg xmlns="http://www.w3.org/2000/svg" viewBox="0 0 16 16" enable-background="new 0 0 16 16"><path d="m8 0c-4.4 0-8 3.6-8 8 0 4.4 3.6 8 8 8 4.4 0 8-3.6 8-8 0-4.4-3.6-8-8-8m.5 12.7c-.2.2-.4.3-.8.3-.4 0-.7-.1-.9-.3-.2-.2-.3-.5-.3-.8 0-.4.1-.7.3-.8.2-.2.5-.3.9-.3.4 0 .7.1.9.3.2.2.3.5.3.8-.1.3-.2.6-.4.8m2.2-6c-.2.3-.6.7-1.2 1.2-.5.3-.7.5-.8.7-.2.1-.2.3-.2.6v.4h-1.8v-.5c0-.4.1-.8.3-1.1.2-.3.5-.6 1-1 .5-.3.8-.6.9-.8.2-.2.2-.4.2-.7 0-.3-.1-.5-.3-.6-.2-.2-.5-.3-.9-.3-.7 0-1.4.2-2.3.6l-.7-1.4c1-.5 2.1-.8 3.2-.8.9 0 1.6.2 2.1.7.5.4.8 1 .8 1.7.1.5-.1.9-.3 1.3" fill="#b4bbc5"/></svg>