<svg xmlns="http://www.w3.org/2000/svg" xmlns:xlink="http://www.w3.org/1999/xlink" viewBox="0 0 16 16" enable-background="new 0 0 16 16"><defs><path id="2" d="m0 0h16v16h-16z"/><path id="3" d="m1 12.7l1.6-1 2.8 1.9 3.5-2.4 3.3 2.3 1.8-1.2v-9.3h-13z"/><clipPath id="0"><use xlink:href="#2"/></clipPath><clipPath id="1"><use xlink:href="#3"/></clipPath></defs><path d="m1 15.4l2.7-2 2.7 1.9 3.4-2.5 3.2 2.3 3-2.2v-9c0-.6-.4-1-1-1h-13c-.6.1-1 .5-1 1.1v11.4" opacity=".15" fill="#8b9da5" clip-path="url(#0)"/><path d="m0 14.4l2.7-2 2.7 1.9 3.4-2.5 3.2 2.3 3-2.2v-9c0-.6-.4-1-1-1h-13c-.6.1-1 .5-1 1.1v11.4" fill="#444546" clip-path="url(#0)"/><path fill="#fff" clip-path="url(#0)" d="m1 12.7l1.6-1 2.8 1.9 3.5-2.4 3.3 2.3 1.8-1.2v-9.3h-13z"/><g clip-path="url(#0)"><g clip-path="url(#1)"><path fill="#7bd3f7" d="m2 4h11v11h-11z"/><g fill="#2db34a"><path d="M13,8.5c-2.6,0-2.5,3-5.5,3S5,9.6,2,9.6L2,15h11L13,8.5z"/><path d="m2 14.5c2.9 0 2.1-1 5.5-1 3 0 2.5-.8 5.5-.8v2.4h-11v-.6"/></g><path d="m9.2 5.5c-.2 0-.4 0-.6.1-.2-.9-1.1-1.6-2.1-1.6-.8 0-1.5.4-2 1-.2-.1-.6-.2-.9-.2-1 0-1.9.8-1.9 1.9 0 .1 0 .2 0 .4h9c0-.9-.6-1.6-1.5-1.6" fill="#fff"/></g></g></svg>