<svg xmlns="http://www.w3.org/2000/svg" xmlns:xlink="http://www.w3.org/1999/xlink" viewBox="0 0 16 16" enable-background="new 0 0 16 16"><defs><path id="1" d="m0 0h16v16h-16z"/><clipPath id="0"><use xlink:href="#1"/></clipPath></defs><g opacity=".15" clip-path="url(#0)"><path d="m15 16h-13c-.6 0-1-.4-1-1v-13c0-.6.4-1 1-1h13c.6 0 1 .4 1 1v13c0 .6-.4 1-1 1" fill="#8b9da5"/></g><g clip-path="url(#0)"><path d="m1 14.5c-.3 0-.5-.2-.5-.5v-13c0-.3.2-.5.5-.5h13c.3 0 .5.2.5.5v13c0 .3-.2.5-.5.5h-13" fill="#fff"/><path d="m14 1v13h-13v-13h13m0-1h-13c-.6 0-1 .4-1 1v13c0 .6.4 1 1 1h13c.6 0 1-.4 1-1v-13c0-.6-.4-1-1-1z" fill="#444546"/></g><g clip-path="url(#0)"><path fill="#7bd3f7" d="m2 2h11v11h-11z"/></g><g fill="#2db34a"><path d="m13 6.5c-2.6 0-2.5 3-5.5 3s-2.5-1.9-5.5-1.9v5.4h11v-6.5" clip-path="url(#0)"/><path d="m2 12.5c2.9 0 2.1-1 5.5-1 3 0 2.5-.8 5.5-.8v2.4h-11v-.6" clip-path="url(#0)"/></g><path d="m9.2 3.5c-.2 0-.4 0-.6.1-.2-.9-1.1-1.6-2.1-1.6-.8 0-1.5.4-2 1-.2-.1-.6-.2-.9-.2-1 0-1.9.8-1.9 1.9 0 .1 0 .2 0 .4h9c0-.9-.6-1.6-1.5-1.6" fill="#fff" clip-path="url(#0)"/></svg>