<svg xmlns="http://www.w3.org/2000/svg" viewBox="0 0 16 16" enable-background="new 0 0 16 16"><path d="m12.8 7.6c0 0-4.3-3.4-4.5-3.5-.5-.4-.9-.4-1.4-.2-1.3.6-2.6 1.2-3.9 1.7-.2.1-.3.2-.4.3-.2.2-.3.4-.4.7-.3.9-.7 1.8-1 2.7 0 .1-.1.3 0 .5 0 .5.5 1 1 1 .6 0 1-.3 1.2-.8.3-.7.5-1.5.8-2.2 0-.1 0-.1.1-.1.5-.2 1-.4 1.4-.6.8-.4 2.8 1.3 3 1.4.1.1.3.2.4.3.2.2.3.4.2.7-.1.3-.3.5-.6.5-.7 0-1.3 0-1.9-.1-.4 0-.8 0-1.3 0-.2 0-.4 0-.6 0-.7.1-1.1.8-1.1 1.4 0 .7.6 1.2 1.3 1.3.5 0 6.1.2 7.1.3.2 0 .6-.3.6-.3s0-3.2 0-4.9c.1-.1 0-.1 0-.1" fill="#fff"/><path d="m12.2 13.4c0 0 0 0 0 0-.9 0-6.6-.3-7.1-.3-.9 0-1.7-.8-1.8-1.7 0-.1 0-.3 0-.4-.3.3-.7.5-1.2.4-.8 0-1.5-.7-1.5-1.5 0-.3 0-.5.1-.8l1-2.7c.2-.3.3-.6.6-.9.1-.1.3-.2.5-.3 1.1-.5 2.2-1 3.3-1.5l.7-.3c.6-.2 1.2-.2 1.7.2.2.2 4.5 3.5 4.5 3.5l.1.1c.1.1.2.2.2.5v5.1l-.2.2c-.2.2-.6.4-.9.4m-6.9-3c-.1 0-.2 0-.2 0-.4.1-.7.5-.7.9 0 .4.4.8.8.8.5 0 6.1.2 7.1.3 0 0 .1 0 .1-.1v-4.4c-.7-.5-4.2-3.3-4.4-3.4-.3-.3-.6-.3-.9-.2l-.6.3c-1.1.5-2.2 1-3.3 1.5-.1 0-.2.1-.3.2-.1.1-.1.2-.2.4l-1 2.7c0 .1-.1.2-.1.3 0 .3.3.6.6.6.3 0 .6-.1.7-.5l.8-2.2c.1-.2.2-.3.4-.4.5-.2 1-.4 1.4-.6.7-.3 1.8.2 3.4 1.4l.5.3c.4.4.6.9.4 1.4-.2.5-.7.8-1.2.8-.4 0-.8 0-1.3 0h-.9c-.3 0-.6 0-.9 0h-.1c0-.1-.1-.1-.1-.1m-.7-2.3l-.6 1.8c.2-.2.5-.4.9-.4.2 0 .4 0 .6 0 .4 0 .7 0 1 0h.9c.4 0 .8 0 1.3 0 .1 0 .2-.1.2-.1 0 0 0-.1-.1-.2l-.5-.4c-1.9-1.4-2.4-1.2-2.4-1.2-.4.2-.9.4-1.3.5" fill="#69768b"/><g fill="#2d3e50"><path d="m1.8 11c.3.1.7.2 1.1 0 .4-.2.7-.5.9-.9 0-.3.2-.7.3-1 0 0 .1-.1.1-.1 1-.9 2.1-1.8 3.1-2.6 1.1-.9 2.2-1.9 3.3-2.8.8-.7 1.6-1.3 2.3-2 .2-.2.5-.2.7-.1.4 0 .5.3.5.5 0 .2 0 .4-.2.5-.3.2-.5.5-.8.7-.9.8-1.9 1.6-2.8 2.4-.8.7-1.6 1.4-2.4 2.1-.7.6-1.3 1.1-2 1.7-.1 0-.2.1-.3 0-.7-.1-1.4.3-1.7.9-.1.2-.2.5-.2.7 0 .1 0 .1-.1.1-.3.4-.6.6-.9.9-.3.2-2.7 1.4-2.7 1.4s1.5-2.2 1.8-2.4"/><path d="m13.3 7c.9 0 1.8 0 2.7 0 0 2.1 0 4.1 0 6.2-.9 0-1.8 0-2.7 0 0-2.1 0-4.1 0-6.2"/></g><path d="m13.1 7.2c0 0-1.2-1-2.4-1.9-.1.1-.3.2-.4.4-.2.1-.3.2-.4.3 1 .8 2.1 1.6 2.5 1.9v4.4c-.1 0-.1.1-.1.1-.9 0-6.6-.3-7.1-.3-.4 0-.8-.4-.8-.8 0-.4.3-.8.7-.9.1 0 .1 0 .2 0 .1 0 .1 0 .2 0h.1c.3 0 .6 0 .9 0h.9c.4 0 .8 0 1.3 0 .5 0 1-.3 1.2-.8.2-.5 0-1-.4-1.3l-.6-.3c-.3-.2-.5-.4-.8-.5-.1 0-.1.1-.2.2-.2.1-.4.3-.6.4.3.2.6.4 1 .7l.5.4c.1.1.1.2.1.2 0 .1-.1.2-.2.1-.4 0-.8 0-1.3 0h-.9c-.3 0-.6 0-1 0-.2 0-.4 0-.6 0-.4 0-.7.1-.9.4l.6-1.7c.4-.2.8-.4 1.1-.6.4-.3.7-.6 1.1-.9-.5-.2-1-.2-1.3-.1-.5.3-.9.5-1.4.7-.2.1-.3.2-.4.4l-.8 2.2c-.1.3-.3.5-.7.5-.3 0-.6-.3-.6-.6 0-.1 0-.2.1-.3l1-2.7c.1-.2.1-.3.2-.4.1-.2.2-.3.3-.3 1.1-.5 2.2-1 3.3-1.5l.7-.3c.3-.1.5-.1.8.1.1 0 .4.3.8.6.2-.1.5-.4.8-.6-.6-.4-1-.7-1.1-.8-.5-.4-1.1-.4-1.8-.2l-.6.3c-1.1.5-2.2 1-3.3 1.5-.2.1-.4.2-.5.3-.3.3-.4.6-.6.9l-1 2.7c0 .2-.1.5 0 .7.1.8.7 1.5 1.5 1.5.5 0 .9-.1 1.2-.4 0 .1 0 .3 0 .4.1.9.8 1.7 1.8 1.7.5 0 6.1.2 7.1.3.3 0 .7-.2.9-.4l.2-.1v-5.1c0-.2-.2-.4-.3-.5" fill="#69768b"/><g fill="#2d3e50"><path d="m13.7 1.4c-.3-.1-.5-.1-.7.1-.8.7-1.6 1.3-2.3 2-1.2 1-2.3 1.9-3.4 2.8-.7.6-2.6 2.2-2.9 2.5l-.4 1.1c.2-.2.5-.4.9-.4.2 0 .4 0 .6 0 .1 0 .2 0 .3 0 .2-.2 1.6-1.3 2-1.7.8-.7 1.6-1.3 2.4-2 1-.8 1.9-1.6 2.8-2.4.3-.2.5-.5.8-.7.1-.1.2-.3.2-.5.1-.4 0-.7-.3-.8"/><path d="m2.2 11.3c-.2 0-.4-.1-.6-.1-.5.6-1.6 2.2-1.6 2.2s2.4-1.1 2.7-1.4c.2-.2.4-.4.7-.6 0 0 0-.1 0-.1 0-.1 0-.3 0-.4-.3.3-.7.5-1.2.4"/><path d="m0 14.4v-1l15.3 1z"/></g></svg>