<svg xmlns="http://www.w3.org/2000/svg" xmlns:xlink="http://www.w3.org/1999/xlink" viewBox="0 0 16 16" enable-background="new 0 0 16 16"><defs><path id="4" d="m0 0h16v16h-16z"/><clipPath id="1"><use xlink:href="#4"/></clipPath><linearGradient id="2" gradientUnits="userSpaceOnUse" x1="0" x2="15.31"><stop offset=".005" stop-color="#97999c"/><stop offset="1" stop-color="#97999c"/></linearGradient><pattern x="28" y="28" width="15.3" height="15.3" patternUnits="userSpaceOnUse" id="0" viewBox="0 -15.3 15.3 15.3"><path fill="none" d="m0 0h15.3v-15.3h-15.3z"/><path fill="url(#2)" d="m15.3 0h-15.3v-15.3h15.3z"/></pattern><pattern id="3" xlink:href="#0" patternTransform="matrix(1 0 0 1 10.0693 0)"/></defs><g clip-path="url(#1)"><g opacity=".15" fill="#8b9da5"><path transform="matrix(.7071-.7071.7071.7071 1.198 10.456)" d="m12.6.4h1.2v6.7h-1.2z"/><path d="m10.1 2.7c-.2 0-.4 0-.5.1-.4.2-.8.4-1.2.7l-.3.1-.5.3-2.4 1.4c-.4.2-.6.6-.6 1 0 .2 0 .3 0 .5-.1 1.2-.5 2.3-1 3.4-.3.5-1.5 1.9-2.2 2.7-.4.4-.4 1.1 0 1.5l.5.5c0 0 0 .1.1.1 0 .1.1.1.1.2l.5.5c.3.2.5.3.8.3.3 0 .5-.1.7-.3.8-.7 2.2-2 2.7-2.2 1.1-.6 2.2-.9 3.4-1 .2 0 .3 0 .5 0 .4 0 .8-.2 1-.6l1.3-2.4.3-.5.2-.4c.2-.4.4-.7.6-1.1.2-.4.2-1-.2-1.3l-3.1-3.2c-.2-.3-.6-.3-.7-.3"/></g><path fill="#444546" d="m2.4 15v-1l7.4.5 6.2.5z"/><g><path fill="url(#3)" d="m15 4.7l-.8.9-4.8-4.8.9-.8 2.5 2.5z"/><g><path d="m9.9 10.4c.5-1 1.1-1.9 1.6-2.9.3-.5.5-1 .8-1.5 0-.1 0-.1 0-.1l-3.2-3.2c0 0-.1-.1-.1 0-.5.3-1 .5-1.5.8-.9.5-1.9 1.1-2.9 1.6-.1 0-.1.1-.1.1 0 .2 0 .4 0 .6-.1 1.4-.5 2.6-1.1 3.8-.4.7-1.8 2.3-2.4 2.9 0 0 0 .1 0 .1l.5.5c2.9-2.9 4.3-4.3 5.8-5.8-.2-.3-.1-.8.2-1.1.4-.4 1-.4 1.3 0 .4.4.4 1 0 1.3-.3.3-.8.4-1.1.1-1.5 1.5-3 3-5.8 5.8l.5.6c0 0 .1 0 .1 0 .6-.5 2.2-2 2.9-2.4 1.2-.6 2.4-1 3.8-1.1.2 0 .4 0 .6 0 0-.1.1-.1.1-.1" fill="#fff"/><path d="m9.1 1.7c-.2 0-.4 0-.5.1-.4.2-.8.4-1.2.7l-.3.1-.5.3-2.4 1.4c-.4.2-.6.6-.6 1 0 .2 0 .3 0 .5-.1 1.2-.5 2.3-1 3.4-.4.4-1.6 1.9-2.3 2.7-.4.4-.4 1.1 0 1.5l.5.5c.1 0 .1.1.2.1 0 .1.1.1.1.2l.5.5c.3.2.5.3.8.3.3 0 .5-.1.7-.3.8-.7 2.2-2 2.7-2.2 1.1-.6 2.2-.9 3.4-1 .2 0 .3 0 .5 0 .4 0 .8-.2 1-.6l1.3-2.4.3-.5.2-.4c.2-.4.4-.7.6-1.1.2-.4.2-1-.2-1.3l-3.1-3.2c-.2-.3-.6-.3-.7-.3" fill="#444546"/><path d="m9.1 2.7c0 0 0 0 0 0l3.2 3.2c0 0 .1.1 0 .1-.3.5-.5 1-.8 1.5-.5 1-1.1 1.9-1.6 2.9 0 .1-.1.1-.1.1-.2 0-.4 0-.6 0-1.3.1-2.6.5-3.8 1.1-.7.4-2.3 1.8-2.9 2.4 0 0 0 0-.1 0 0 0 0 0-.1 0l-.5-.5c2.9-2.9 4.3-4.3 5.8-5.8.2 0 .4.1.6.1.2 0 .5-.1.6-.3.4-.4.4-1 0-1.3-.2-.2-.4-.3-.7-.3-.2 0-.4.1-.6.3-.3.3-.4.8-.1 1.1-1.5 1.5-3 3-5.8 5.8l-.6-.5c0 0 0-.1 0-.1.5-.6 2-2.2 2.4-2.9.6-1.2 1-2.4 1.1-3.8 0-.2 0-.4 0-.6 0-.1 0-.1.1-.1 1-.5 1.9-1.1 2.9-1.6.5-.3 1-.5 1.6-.8" fill="#ffd180"/></g></g></g></svg>