<svg xmlns="http://www.w3.org/2000/svg" viewBox="0 0 16 16" enable-background="new 0 0 16 16"><g fill="#b4bbc5"><path d="m12.8 13.2c-.2 0-.4 0-.6 0-.9 0-1.8-.1-2.8-.1-1 0-2-.1-2.9-.1-.5 0-.7 0-1.1-.1-.7 0-1.2-.6-1.3-1.3 0-.6.4-1.3 1.1-1.4.2 0 .4 0 .6 0 .4 0 .6 0 1 0 .6 0 1.2.1 1.8.1.3 0 .6-.2.7-.5.1-.3 0-.6-.3-.8-.1 0-.2-.1-.3-.2-.2-.1-.5-.3-.5-.3l-.1-.1 2.5-2.1 2.2 1.6c0 0 .1.1.1.1-.1 1.7-.1 3.4-.1 5.2"/><path d="m8.9 4.8c-.4.3-.7.6-1 .8-.7.6-1.3 1.1-2 1.7 0 .1-.1.1-.2.1-.5.3-.9.5-1.4.7-.1 0-.1.1-.1.1-.3.7-.5 1.5-.8 2.2-.2.5-.6.8-1.2.8-.5 0-1-.5-1-1 0-.2 0-.4.1-.6.3-.9.6-1.8 1-2.7.1-.2.2-.5.4-.7 0-.1.1-.2.3-.2 1.3-.6 2.6-1.2 4-1.8.4-.2.8-.1 1.2.2.2.1.5.3.7.4"/></g><g fill="#2d3e50"><path d="m1.8 11.3c.3.1.7.2 1.1 0 .4-.2.7-.5.9-.9 0-.3.2-.6.3-1 0 0 .1-.1.1-.1 1-.9 2.1-1.8 3.1-2.6 1.1-.9 2.2-1.9 3.3-2.8.8-.7 1.6-1.3 2.3-2 .2-.2.5-.2.7-.1.3.1.4.3.4.6 0 .2 0 .4-.2.5-.3.2-.5.5-.8.7-.9.8-1.9 1.6-2.8 2.4-.7.7-1.5 1.3-2.3 2-.7.6-1.3 1.1-2 1.7-.1.1-.2.1-.3.1-.7-.1-1.4.3-1.7.9-.1.2-.2.5-.2.7 0 .1 0 .1-.1.1-.3.3-.6.5-.9.8-.3.3-2.7 1.4-2.7 1.4s1.5-2.1 1.8-2.4"/><path d="m13.3 7c.9 0 1.8 0 2.7 0 0 2.1 0 4.1 0 6.2-.9 0-1.8 0-2.7 0 0-2.1 0-4.1 0-6.2"/><path d="m0 14.7v-1l15.3 1z"/></g></svg>