<svg xmlns="http://www.w3.org/2000/svg" xmlns:xlink="http://www.w3.org/1999/xlink" viewBox="0 0 48 48" enable-background="new 0 0 48 48"><defs><path id="1" d="m0 0h48v48h-48z"/><clipPath id="0"><use xlink:href="#1"/></clipPath></defs><g clip-path="url(#0)"><path fill="#2d3e50" d="m6.1 45v-3l23.3 1.6 18.6 1.4z"/><g><g><path transform="matrix(-.7068.7075-.7075-.7068 68.21-11.06)" fill="#fff" d="m36.1-.3h.7v17.9h-.7z"/><path fill="#69768b" d="m30.3 0l-2.5 2.5 14.7 14.7 2.5-2.5-6.9-7-7.8-7.7"/></g><g><path d="m29.2 32.1c1.7-3 3.3-6 5-9 .8-1.5 1.7-3 2.5-4.5.1-.2.1-.3-.1-.4l-9.7-9.7c-.1-.1-.3-.2-.4-.1-1.5.8-3 1.7-4.5 2.5-3 1.7-6 3.3-9 5-.2.1-.2.2-.2.4 0 .6 0 1.2-.1 1.8-.4 4.1-1.5 8-3.5 11.7-1.2 2.2-5.7 7.3-7.4 9.1-.1.1-.1.2 0 .3l1.6 1.6c8.9-8.9 13.4-13.4 18-18-.7-1.1-.6-2.6.4-3.6 1.1-1.1 3-1.1 4.1 0 1.1 1.1 1.1 3 0 4.1-1 1-2.4 1.1-3.6.4-4.6 4.6-9.2 9.1-18 18l1.6 1.6c.1.1.2.1.3 0 1.8-1.7 6.9-6.2 9.1-7.4 3.7-2 7.6-3.2 11.7-3.5.6-.1 1.2-.1 1.8-.1.2 0 .3-.1.4-.2" fill="#fff"/><path d="m26.7 8.3c.1 0 .1 0 .2.1l9.7 9.7c.1.1.2.3.1.4-.8 1.5-1.7 3-2.5 4.5-1.7 3-3.3 6-5 9-.1.2-.2.2-.4.2-.6 0-1.2 0-1.8.1-4.1.4-8 1.5-11.7 3.5-2.2 1.2-7.3 5.7-9.1 7.4-.1.1-.1.1-.2.1-.1 0-.1 0-.2-.1l-1.6-1.6c8.9-8.9 13.4-13.4 18-18 .5.3 1 .4 1.6.4.7 0 1.4-.3 2-.8 1.1-1.1 1.1-3 0-4.1-.6-.6-1.3-.9-2.1-.9s-1.5.3-2.1.9c-1 1-1.1 2.4-.4 3.6-4.6 4.6-9.1 9.2-18 18l-1.6-1.6c-.1-.1-.1-.2 0-.3 1.7-1.8 6.2-6.9 7.4-9.1 2-3.7 3.2-7.6 3.5-11.7.1-.6.1-1.2.1-1.8 0-.2.1-.3.2-.4 3-1.7 6-3.3 9-5 1.5-.8 3-1.7 4.5-2.5.2 0 .3 0 .4 0m0-1.7c-.3 0-.7.1-1 .3-1.2.6-2.3 1.3-3.5 1.9l-1.1.6-1.5.8c-2.5 1.4-5 2.8-7.5 4.2-.7.4-1.1 1-1.1 1.8 0 .6 0 1.2-.1 1.7-.3 3.9-1.5 7.6-3.3 11.1-1 1.9-5.1 6.6-7.1 8.7-.7.8-.7 1.9 0 2.6l1.5 1.4 1.2 1.2 1.6 1.6c.3.3.8.5 1.3.5.5 0 .9-.2 1.3-.5 2.1-2 6.9-6.1 8.7-7.1 3.4-1.9 7.2-3 11.1-3.3.5 0 1-.1 1.7-.1.8 0 1.4-.4 1.8-1.1 1.4-2.4 2.7-4.9 4.1-7.3l.9-1.6.6-1.1c.6-1.2 1.3-2.3 1.9-3.5.5-.8.3-1.7-.3-2.4l-9.7-9.7c-.6-.6-1.2-.7-1.5-.7zm-3.8 15.5l-.1-.2c-.3-.4-.3-1.1.1-1.5.2-.2.6-.4.9-.4.3 0 .7.1.9.4.2.2.4.6.4.9s-.1.7-.4.9c-.3.3-.6.3-.8.3-.2 0-.5-.1-.7-.2l-.3-.2" fill="#3b97d3"/></g></g></g></svg>