<svg xmlns="http://www.w3.org/2000/svg" xmlns:xlink="http://www.w3.org/1999/xlink" viewBox="0 0 32 32"><defs><style>.cls-1{fill:none;}.cls-2{isolation:isolate;}.cls-3{clip-path:url(#clip-path);}.cls-4{opacity:0.2;mix-blend-mode:multiply;}.cls-5{fill:#231f20;}.cls-6{fill:#fff;}</style><clipPath id="clip-path"><rect id="_Rectangle_" data-name="&lt;Rectangle&gt;" class="cls-1" width="32" height="32"/></clipPath></defs><title>IX</title><g class="cls-2"><g id="Layer_1" data-name="Layer 1"><g class="cls-3"><g class="cls-4"><g id="_Group_" data-name="&lt;Group&gt;"><path class="cls-5" d="M16.5,4A12.5,12.5,0,1,1,4,16.5,12.51,12.51,0,0,1,16.5,4m0-3A15.5,15.5,0,1,0,32,16.5,15.5,15.5,0,0,0,16.5,1Z"/></g><path class="cls-5" d="M16.75,7.85a11.87,11.87,0,0,0-6,1.63l1.59,3.12a8.92,8.92,0,0,1,4-1.23,2.07,2.07,0,0,1,1.14.28.87.87,0,0,1,.44.76,1.6,1.6,0,0,1-.41,1.08,6.11,6.11,0,0,1-1.34,1.05,4.8,4.8,0,0,0-1.63,1.51,3.66,3.66,0,0,0-.46,1.9v1h3.52v-.58a1.29,1.29,0,0,1,.3-.85,8,8,0,0,1,1.51-1.14,6.6,6.6,0,0,0,2.07-1.92,4.37,4.37,0,0,0,.65-2.4A3.66,3.66,0,0,0,20.76,9a6.42,6.42,0,0,0-4-1.12Zm-.65,12.9a2.55,2.55,0,0,0-1.81.57A2.12,2.12,0,0,0,13.67,23a2.05,2.05,0,0,0,.64,1.62,2.59,2.59,0,0,0,1.78.57,2.5,2.5,0,0,0,1.74-.57A2.06,2.06,0,0,0,18.47,23a2.12,2.12,0,0,0-.61-1.62,2.47,2.47,0,0,0-1.76-.58Z"/></g><g id="_Group_2" data-name="&lt;Group&gt;"><path class="cls-6" d="M15.5,3A12.5,12.5,0,1,1,3,15.5,12.51,12.51,0,0,1,15.5,3m0-3A15.5,15.5,0,1,0,31,15.5,15.5,15.5,0,0,0,15.5,0Z"/></g><path class="cls-6" d="M15.75,6.85a11.87,11.87,0,0,0-6,1.63l1.59,3.12a8.92,8.92,0,0,1,4-1.23,2.07,2.07,0,0,1,1.14.28.87.87,0,0,1,.44.76,1.6,1.6,0,0,1-.41,1.08,6.11,6.11,0,0,1-1.34,1.05,4.8,4.8,0,0,0-1.63,1.51,3.66,3.66,0,0,0-.46,1.9v1h3.52v-.58a1.29,1.29,0,0,1,.3-.85,8,8,0,0,1,1.51-1.14,6.6,6.6,0,0,0,2.07-1.92,4.37,4.37,0,0,0,.65-2.4A3.66,3.66,0,0,0,19.76,8a6.42,6.42,0,0,0-4-1.12Zm-.65,12.9a2.55,2.55,0,0,0-1.81.57A2.12,2.12,0,0,0,12.67,22a2.05,2.05,0,0,0,.64,1.62,2.59,2.59,0,0,0,1.78.57,2.5,2.5,0,0,0,1.74-.57A2.06,2.06,0,0,0,17.47,22a2.12,2.12,0,0,0-.61-1.62,2.47,2.47,0,0,0-1.76-.58Z"/></g></g></g></svg>