<svg id="artwork" xmlns="http://www.w3.org/2000/svg" viewBox="0 0 16 16"><defs><style>.cls-1{opacity:0.15;}.cls-2{fill:#8b9da5;}.cls-3{fill:#bd1a8d;}.cls-4{fill:#444546;}</style></defs><title>Desi9n Icons Colour 16</title><g class="cls-1"><path class="cls-2" d="M4.17,10.71q0-1.13-1.61-1.13V8.43a2.15,2.15,0,0,0,1.22-.28,1,1,0,0,0,.4-.84V5.43A1.56,1.56,0,0,1,4.83,4a3.53,3.53,0,0,1,2-.45V4.7A1.72,1.72,0,0,0,5.8,5a.91.91,0,0,0-.31.75v1.8Q5.49,8.73,4.1,9V9q1.39.22,1.39,1.44v1.81A.91.91,0,0,0,5.8,13a1.62,1.62,0,0,0,1,.27v1.11a3.46,3.46,0,0,1-2-.48,1.76,1.76,0,0,1-.61-1.5Z"/><path class="cls-2" d="M8.19,6.52a.8.8,0,0,1,.9-.91.88.88,0,0,1,.68.24,1,1,0,0,1,.22.67,1,1,0,0,1-.23.68.87.87,0,0,1-.67.25.86.86,0,0,1-.67-.25A1,1,0,0,1,8.19,6.52Zm0,5.17A.93.93,0,0,1,8.43,11a.88.88,0,0,1,.67-.24.88.88,0,0,1,.67.25.94.94,0,0,1,.23.67,1,1,0,0,1-.23.68.87.87,0,0,1-.67.25.86.86,0,0,1-.67-.25A1,1,0,0,1,8.19,11.69Z"/><path class="cls-2" d="M13.91,12.57a1.6,1.6,0,0,1-.6,1.39,3.36,3.36,0,0,1-1.93.45V13.3a1.55,1.55,0,0,0,.9-.23.89.89,0,0,0,.32-.78V10.7a1.77,1.77,0,0,1,.32-1.13A1.67,1.67,0,0,1,14,9V9Q12.6,8.73,12.6,7.52V5.73A1,1,0,0,0,12.32,5a1.5,1.5,0,0,0-.94-.28V3.59a3.18,3.18,0,0,1,1.94.46,1.81,1.81,0,0,1,.59,1.52V7.31a1,1,0,0,0,.38.86,2.09,2.09,0,0,0,1.14.25V9.58a2.07,2.07,0,0,0-1.14.26,1,1,0,0,0-.39.87Z"/></g><path class="cls-3" d="M3.17,9.71q0-1.13-1.61-1.13V7.42a2.15,2.15,0,0,0,1.22-.28,1,1,0,0,0,.4-.84V4.43A1.56,1.56,0,0,1,3.83,3a3.53,3.53,0,0,1,2-.45v1.1A1.72,1.72,0,0,0,4.8,4a.91.91,0,0,0-.31.75v1.8Q4.49,7.73,3.1,8V8q1.39.22,1.39,1.44v1.81A.91.91,0,0,0,4.8,12a1.62,1.62,0,0,0,1,.27v1.11a3.46,3.46,0,0,1-2-.48,1.76,1.76,0,0,1-.61-1.5Z"/><path class="cls-4" d="M7.19,5.52a.8.8,0,0,1,.9-.91.88.88,0,0,1,.68.24A1,1,0,0,1,9,5.52a1,1,0,0,1-.23.68.87.87,0,0,1-.67.25.86.86,0,0,1-.67-.25A1,1,0,0,1,7.19,5.52Zm0,5.17A.93.93,0,0,1,7.43,10a.88.88,0,0,1,.67-.24.88.88,0,0,1,.67.25.94.94,0,0,1,.23.67,1,1,0,0,1-.23.68.87.87,0,0,1-.67.25.86.86,0,0,1-.67-.25A1,1,0,0,1,7.19,10.69Z"/><path class="cls-3" d="M12.91,11.57a1.6,1.6,0,0,1-.6,1.39,3.36,3.36,0,0,1-1.93.45V12.3a1.55,1.55,0,0,0,.9-.23.89.89,0,0,0,.32-.78V9.7a1.77,1.77,0,0,1,.32-1.13A1.67,1.67,0,0,1,13,8V8Q11.6,7.73,11.6,6.52V4.72A1,1,0,0,0,11.32,4a1.5,1.5,0,0,0-.94-.28V2.59a3.18,3.18,0,0,1,1.94.46,1.81,1.81,0,0,1,.59,1.52V6.31a1,1,0,0,0,.38.86,2.09,2.09,0,0,0,1.14.25V8.58a2.07,2.07,0,0,0-1.14.26,1,1,0,0,0-.39.87Z"/></svg>