<svg xmlns="http://www.w3.org/2000/svg" viewBox="0 0 48 48" enable-background="new 0 0 48 48"><g opacity=".15"><path d="m20.7 3.7l26.6 26.6c.9.9.9 2.4 0 3.3l-13.8 13.7c-.9.9-2.4.9-3.3 0l-26.6-26.6c-.4-.4-.7-1-.7-1.6l.1-13.8c0-1.3 1-2.3 2.3-2.3h13.8c.6 0 1.2.2 1.6.7m-10 10c.7 2.7 4.3 2.7 5 0 .1-.3.1-.6 0-.9-.7-2.7-4.3-2.7-5 0 0 .3 0 .6 0 .9" fill="#8b9da5"/></g><path d="m28.9 44.2c-.4 0-.8-.2-1.1-.4l-26.6-26.6c-.3-.3-.4-.7-.4-1.1v-13.8c0-.8.7-1.5 1.5-1.5h13.8c.4 0 .8.2 1.1.4l26.6 26.6c.6.6.6 1.6 0 2.2l-13.9 13.7c-.3.3-.6.5-1 .5m-18.6-37.3c-1.6 0-2.9 1.1-3.3 2.7-.1.4-.1.9 0 1.3.4 1.6 1.7 2.7 3.3 2.7s2.9-1 3.3-2.7c.1-.4.1-.9 0-1.3-.5-1.6-1.8-2.7-3.3-2.7" fill="#e8f2fa"/><path d="m2.3 1.6h13.8c.2 0 .4.1.5.2l26.6 26.6c.2.2.2.4.2.5s0 .3-.2.5l-13.8 13.8c-.2.2-.4.2-.5.2s-.3 0-.5-.2l-26.6-26.6c-.1-.1-.2-.3-.2-.5v-13.8c0-.4.3-.7.7-.7m8 12.8c1.9 0 3.6-1.3 4.1-3.3.2-.6.2-1.2 0-1.7-.5-1.9-2.1-3.3-4.1-3.3-1.9 0-3.6 1.3-4.1 3.3-.2.6-.2 1.2 0 1.7.5 2 2.1 3.3 4.1 3.3m-8-14.4c-1.3 0-2.3 1-2.3 2.3v13.8c0 .6.2 1.2.7 1.6l26.6 26.6c.5.5 1 .7 1.6.7s1.2-.2 1.6-.7l13.8-13.8c.9-.9.9-2.4 0-3.3l-26.6-26.5c-.4-.4-1-.7-1.6-.7h-13.8c0 0 0 0 0 0zm8 12.8c-1.1 0-2.2-.7-2.5-2.1-.1-.3-.1-.6 0-.9.4-1.4 1.4-2.1 2.5-2.1 1.1 0 2.2.7 2.5 2.1.1.3.1.6 0 .9-.4 1.4-1.5 2.1-2.5 2.1" fill="#3b97d3"/></svg>