<svg xmlns="http://www.w3.org/2000/svg" viewBox="0 0 16 16" enable-background="new 0 0 16 16"><g opacity=".15"><path d="m6.9 1.3l8.4 8.4c.4.4.4 1 0 1.4l-4.2 4.2c-.4.4-1 .4-1.4 0l-8.4-8.4c-.2-.2-.3-.5-.3-.7v-4.2c0-.6.4-1 1-1h4.2c.2 0 .5.1.7.3m-3.1 3.6c.3.3.8.3 1.2 0 .3-.3.3-.8 0-1.2-.3-.3-.8-.3-1.2 0s-.3.9 0 1.2" fill="#8b9da5"/></g><path d="m9.4 14c-.1 0-.2 0-.3-.1l-8.4-8.4c-.1-.1-.1-.2-.1-.3v-4.2c0-.2.2-.4.4-.4h4.2c.1 0 .2 0 .3.1l8.4 8.4c.2.2.2.4 0 .6l-4.2 4.2c-.1.1-.2.1-.3.1" fill="#f3dbbe"/><g fill="#444546"><path d="m1.1 1.1h4l8.3 8.3-4 4-8.3-8.3v-4m-.1-1.1c-.6 0-1 .4-1 1v4.2c0 .3.1.5.3.7l8.4 8.4c.2.2.5.3.7.3.3 0 .5-.1.7-.3l4.2-4.2c.4-.4.4-1 0-1.4l-8.4-8.4c-.2-.2-.5-.3-.7-.3h-4.2c0 0 0 0 0 0z"/><circle cx="3.1" cy="3.1" r="1"/></g></svg>