<svg xmlns="http://www.w3.org/2000/svg" xmlns:xlink="http://www.w3.org/1999/xlink" viewBox="0 0 16 16" enable-background="new 0 0 16 16"><defs><path id="1" d="m0 0h16v16h-16z"/><clipPath id="0"><use xlink:href="#1"/></clipPath></defs><g clip-path="url(#0)"><g opacity=".15" fill="#8b9da5"><path d="m4.5 10.7c0-.7-.5-1.1-1.6-1.1v-1.2c.5 0 .9-.1 1.2-.3.3-.1.4-.4.4-.8v-1.9c0-.6.2-1.1.7-1.4.4-.3 1.1-.4 2-.4v1.1c-.5 0-.8.1-1 .3-.3.1-.4.4-.4.7v1.8c0 .8-.5 1.3-1.4 1.4v.1c.9.1 1.4.6 1.4 1.4v1.8c0 .3.1.6.3.8.2.2.5.3 1 .3v1.1c-.9 0-1.6-.2-2-.5-.4-.3-.6-.8-.6-1.5v-1.7"/><path d="m13.6 12.6c0 .6-.2 1.1-.6 1.4-.4.3-1 .4-1.9.5v-1.1c.4 0 .7-.1.9-.2.2-.2.3-.4.3-.8v-1.6c0-.5.1-.9.3-1.1.2-.3.6-.4 1.1-.5v-.2c-.9-.2-1.4-.6-1.4-1.4v-1.9c0-.3-.1-.6-.3-.7s-.5-.3-1-.3v-1.1c.9 0 1.5.2 1.9.5.4.3.6.8.6 1.5v1.7c0 .4.1.7.4.9.3.2.6.3 1.1.3v1.2c-.5 0-.9.1-1.1.3-.3.2-.4.5-.4.9v1.7z"/></g><g fill="#444546"><path d="m3.5 9.7c0-.7-.5-1.1-1.6-1.1v-1.2c.5 0 .9-.1 1.2-.3.3-.1.4-.4.4-.8v-1.9c0-.6.2-1.1.7-1.4.4-.3 1.1-.4 2-.4v1.1c-.5 0-.8.1-1 .3-.3.1-.4.4-.4.7v1.8c0 .8-.5 1.3-1.4 1.4v.1c.9.1 1.4.6 1.4 1.4v1.8c0 .3.1.6.3.8.2.2.5.3 1 .3v1.1c-.9 0-1.6-.2-2-.5-.4-.3-.6-.8-.6-1.5v-1.7"/><path d="m12.6 11.6c0 .6-.2 1.1-.6 1.4-.4.3-1 .4-1.9.5v-1.1c.4 0 .7-.1.9-.2.2-.2.3-.4.3-.8v-1.7c0-.5.1-.9.3-1.1.2-.3.6-.4 1.1-.5v-.1c-.9-.2-1.4-.6-1.4-1.4v-1.9c0-.3-.1-.6-.3-.7-.2-.2-.5-.3-.9-.3v-1.1c.9 0 1.5.2 1.9.5.4.3.6.8.6 1.5v1.7c0 .4.1.7.4.9.3.2.6.3 1.1.3v1.2c-.5 0-.9.1-1.1.3-.3.2-.4.5-.4.9v1.7"/></g></g></svg>