<svg xmlns="http://www.w3.org/2000/svg" xmlns:xlink="http://www.w3.org/1999/xlink" viewBox="0 0 16 16" enable-background="new 0 0 16 16"><defs><path id="1" d="m0 0h16v16h-16z"/><clipPath id="0"><use xlink:href="#1"/></clipPath></defs><g clip-path="url(#0)"><g opacity=".15" fill="#8b9da5"><path d="m4.5 5.4v1.9c0 .4-.1.7-.4.8-.3.2-.7.3-1.2.3v1.2c1.1 0 1.6.4 1.6 1.1v1.7c0 .7.2 1.2.6 1.5.4.3 1.1.5 2 .5v-1.1c-.5 0-.8-.1-1-.3-.2-.2-.3-.4-.3-.8v-1.8c0-.8-.5-1.3-1.4-1.4.9-.2 1.4-.6 1.4-1.4v-1.9c0-.3.1-.6.3-.7.2-.2.5-.3 1-.3v-1.1c-.9 0-1.5.1-2 .4-.4.3-.6.8-.6 1.4"/><path d="m14 8.2c-.3-.2-.4-.5-.4-.9v-1.7c0-.7-.2-1.2-.6-1.5-.4-.3-1-.5-1.9-.5v1.1c.4 0 .8.1.9.3s.3.4.3.7v1.8c0 .8.5 1.3 1.4 1.4v.1c-.5.1-.9.3-1.1.5-.2.3-.3.6-.3 1.1v1.6c0 .4-.1.6-.3.8-.2.2-.5.2-.9.2v1.1c.9 0 1.5-.2 1.9-.5.4-.3.6-.8.6-1.4v-1.9c0-.4.1-.7.4-.9.3-.2.6-.3 1.1-.3v-.9c-.5 0-.9-.1-1.1-.2"/></g><g fill="#0072bc"><path d="m3.5 4.4v1.9c0 .4-.1.7-.4.8-.3.2-.7.3-1.2.3v1.2c1.1 0 1.6.4 1.6 1.1v1.7c0 .7.2 1.2.6 1.5.4.3 1.1.5 2 .5v-1.1c-.5 0-.8-.1-1-.3-.2-.2-.3-.4-.3-.8v-1.7c0-.8-.5-1.3-1.4-1.4v-.1c.9-.2 1.4-.6 1.4-1.4v-1.9c0-.3.1-.6.3-.7.2-.2.5-.3 1-.3v-1.1c-.9 0-1.5.1-2 .4-.4.3-.6.8-.6 1.4"/><path d="m13 7.2c-.3-.2-.4-.5-.4-.9v-1.7c0-.7-.2-1.2-.6-1.5-.4-.3-1-.5-1.9-.5v1.1c.4 0 .8.1.9.3s.3.4.3.7v1.8c0 .8.5 1.3 1.4 1.4v.1c-.5.1-.9.3-1.1.5-.2.3-.3.6-.3 1.1v1.6c0 .4-.1.6-.3.8-.2.2-.5.2-.9.2v1.1c.9 0 1.5-.2 1.9-.5.4-.3.6-.8.6-1.4v-1.7c0-.4.1-.7.4-.9.3-.2.6-.3 1.1-.3v-1.1c-.5 0-.9-.1-1.1-.2"/></g></g></svg>