<svg xmlns="http://www.w3.org/2000/svg" viewBox="0 0 48 48" enable-background="new 0 0 48 48"><g opacity=".15"><circle cx="6.4" cy="9.6" r="4" fill="#8b9da5"/></g><g opacity=".15"><circle cx="6.4" cy="20" r="4" fill="#8b9da5"/></g><g opacity=".15"><circle cx="6.4" cy="30.4" r="4" fill="#8b9da5"/></g><g opacity=".15"><circle cx="6.4" cy="40.8" r="4" fill="#8b9da5"/></g><g opacity=".15"><path d="m46 12h-29.6c-1.1 0-2-.9-2-2v-.8c0-1.1.9-2 2-2h29.6c1.1 0 2 .9 2 2v.8c0 1.1-.9 2-2 2" fill="#8b9da5"/></g><g opacity=".15"><path d="m46 22.4h-29.6c-1.1 0-2-.9-2-2v-.8c0-1.1.9-2 2-2h29.6c1.1 0 2 .9 2 2v.8c0 1.1-.9 2-2 2" fill="#8b9da5"/></g><g opacity=".15"><path d="m46 32.8h-29.6c-1.1 0-2-.9-2-2v-.8c0-1.1.9-2 2-2h29.6c1.1 0 2 .9 2 2v.8c0 1.1-.9 2-2 2" fill="#8b9da5"/></g><g opacity=".15"><path d="m46 43.2h-29.6c-1.1 0-2-.9-2-2v-.8c0-1.1.9-2 2-2h29.6c1.1 0 2 .9 2 2v.8c0 1.1-.9 2-2 2" fill="#8b9da5"/></g><path d="m43.6 9.6h-29.6c-1.1 0-2-.9-2-2v-.8c0-1.1.9-2 2-2h29.6c1.1 0 2 .9 2 2v.8c0 1.1-.9 2-2 2" fill="#444546"/><path d="m43.6 20h-29.6c-1.1 0-2-.9-2-2v-.8c0-1.1.9-2 2-2h29.6c1.1 0 2 .9 2 2v.8c0 1.1-.9 2-2 2" fill="#bfc3c8"/><path d="m43.6 30.4h-29.6c-1.1 0-2-.9-2-2v-.8c0-1.1.9-2 2-2h29.6c1.1 0 2 .9 2 2v.8c0 1.1-.9 2-2 2" fill="#444546"/><path d="m43.6 40.8h-29.6c-1.1 0-2-.9-2-2v-.8c0-1.1.9-2 2-2h29.6c1.1 0 2 .9 2 2v.8c0 1.1-.9 2-2 2" fill="#bfc3c8"/><circle cx="4" cy="7.2" r="4" fill="#3b97d3"/><circle cx="4" cy="17.6" r="4" fill="#fff"/><circle cx="4" cy="28" r="4" fill="#3b97d3"/><circle cx="4" cy="38.4" r="4" fill="#fff"/></svg>