<svg xmlns="http://www.w3.org/2000/svg" viewBox="0 0 16 16" enable-background="new 0 0 16 16" xmlns:xlink="http://www.w3.org/1999/xlink"><defs><linearGradient id="0" gradientUnits="userSpaceOnUse" y1="1" x2="0" y2="9.833"><stop offset=".005" stop-color="#fff"/><stop offset="1" stop-color="#eef0f2"/></linearGradient><linearGradient id="1" gradientUnits="userSpaceOnUse" y1="3.146" x2="0" y2="12.1" xlink:href="#0"/></defs><path opacity=".15" fill="#8b9da5" d="m15.6 11.6l-2.5-2.3v-1.7l-2-2v-4.6h-4.6-5.5v11l1.8-1.8.2.1v3.7l1.8-1.8 1.8 1.7 1-.9v.6h3v2.4z"/><path fill="#444546" d="m0 11l1.8-1.8 1.8 1.7 2.3-2.2 2.1 2.1 2.1-2v-8.8h-4.6-5.5v11"/><path fill="url(#0)" d="m8.9 1h-4.4-3.5v8.2l.9-.9 1.7 1.7 2.2-2.2 2 2.1 1.1-1.1z"/><path fill="#444546" d="m2 13l1.8-1.8 1.8 1.7 2.3-2.2 2.1 2.1 2.1-2v-4.2l-4.6-4.6h-5.5v11"/><path fill="#dbe0e4" d="m7.5 3.4v3h3z"/><path fill="url(#1)" d="m6.5 7.4v-4.4h-3.5v8.2l.9-.9 1.7 1.7 2.2-2.2 2 2.1 1.1-1.1v-3.4z"/><path fill="#444546" d="m9.6 6.1v2.5h-3v4h3v2.4l5-4.4-5-4.5"/><path fill="#8bd0c0" d="m10.7 8.6l2.1 2-2.1 1.9v-1h-1.1-1.9v-1.8h1.9 1.1v-1.1"/></svg>