<svg xmlns="http://www.w3.org/2000/svg" viewBox="0 0 16 16" enable-background="new 0 0 16 16" xmlns:xlink="http://www.w3.org/1999/xlink"><defs><linearGradient id="0" gradientUnits="userSpaceOnUse" y1="1" x2="0" y2="9.986"><stop offset=".005" stop-color="#fff"/><stop offset="1" stop-color="#eef0f2"/></linearGradient><linearGradient id="1" gradientUnits="userSpaceOnUse" y1="3.03" x2="0" y2="12.04" xlink:href="#0"/></defs><g fill="#8b9da5"><path opacity=".15" d="m1 12l1.8-1.8 1.8 1.7 2.3-2.2 2.1 2.1 2.1-2v-8.8h-4.6-5.5v11"/><path opacity=".15" d="m16 11h-2.5v-3h-.4v-.4l-4.6-4.6h-5.5v11l1.8-1.8 1.8 1.7 1.7-1.6 3.3 3.7z"/></g><path fill="#444546" d="m0 11l1.8-1.8 1.8 1.7 2.3-2.2 2.1 2.1 2.1-2v-8.8h-4.6-5.5v11"/><path fill="url(#0)" d="m8.9 1h-4.4-3.5v8.2l.9-.9 1.7 1.7 2.2-2.2 2 2.1 1.1-1.1z"/><path fill="#444546" d="m2 13l1.8-1.8 1.8 1.7 2.3-2.2 2.1 2.1 2.1-2v-4.2l-4.6-4.6h-5.5v11"/><path fill="#dbe0e4" d="m7.5 3.4v3h3z"/><path fill="url(#1)" d="m6.5 7.4v-4.4h-3.5v8.2l.9-.9 1.7 1.7 2.2-2.2 2 2.1 1.1-1.1v-3.4z"/><path fill="#444546" d="m12.5 7h-4v3h-2.4l4.5 5 4.4-5h-2.5v-3"/><path fill="#f4a69e" d="m11.4 8.1v1.9 1.1h1.1l-1.9 2.2-2-2.2h1v-1.1-1.9h1.8"/></svg>