<svg xmlns="http://www.w3.org/2000/svg" xmlns:xlink="http://www.w3.org/1999/xlink" viewBox="0 0 16 16" enable-background="new 0 0 16 16"><defs><path id="1" d="m0 0h16v16h-16z"/><clipPath id="0"><use xlink:href="#1"/></clipPath></defs><path d="m8.5 1c-4.1 0-7.5 3.4-7.5 7.5s3.4 7.5 7.5 7.5c4.1 0 7.5-3.4 7.5-7.5s-3.4-7.5-7.5-7.5m0 2c1.2 0 2.2.4 3.1 1l-7.6 7.6c-.6-.9-1-2-1-3.1 0-3 2.5-5.5 5.5-5.5m0 11c-1.2 0-2.2-.4-3.1-1l7.6-7.6c.6.9 1 2 1 3.1 0 3-2.5 5.5-5.5 5.5" opacity=".15" fill="#8b9da5" clip-path="url(#0)"/><path d="m7.5 0c-4.1 0-7.5 3.4-7.5 7.5s3.4 7.5 7.5 7.5c4.1 0 7.5-3.4 7.5-7.5s-3.4-7.5-7.5-7.5m0 2c1.2 0 2.2.4 3.1 1l-7.6 7.6c-.6-.9-1-2-1-3.1 0-3 2.5-5.5 5.5-5.5m0 11c-1.2 0-2.2-.4-3.1-1l7.6-7.6c.6.9 1 2 1 3.1 0 3-2.5 5.5-5.5 5.5" fill="#e84d3d" clip-path="url(#0)"/></svg>