<svg xmlns="http://www.w3.org/2000/svg" viewBox="0 0 16 16" enable-background="new 0 0 16 16"><g opacity=".15"><path fill="#8b9da5" d="m.8 6.3h15.2v5.3h-15.2z"/></g><path fill="#3b97d3" d="m15.2 5.5h-15.2v5.3h15.2v-5.3"/><path fill="#fff" d="m14.2 6.5v3.3h-13.2v-3.3h13.2"/><g opacity=".15"><path d="m8.6 7.5l-.4 1.8h1.8v1.1h-2l-.5 2.7h-1.2l.5-2.7h-1.6l-.5 2.7h-1.2l.5-2.6h-1.6v-1.2h1.9l.4-1.9h-1.8v-1h1.9l.5-2.8h1.2l-.5 2.8h1.7l.5-2.8h1.1l-.5 2.8h1.7v1.1h-1.9m-3.2 1.8h1.6l.4-1.9h-1.6l-.4 1.9" fill="#8b9da5"/></g><path d="m7.8 6.7l-.4 1.8h1.8v1.1h-2l-.5 2.7h-1.2l.5-2.6h-1.6l-.5 2.7h-1.2l.5-2.7h-1.6v-1.2h1.9l.4-1.9h-1.8v-1h1.9l.5-2.8h1.2l-.5 2.8h1.7l.5-2.8h1.1l-.5 2.8h1.7v1.1h-1.9m-3.2 1.8h1.6l.4-1.9h-1.6l-.4 1.9" fill="#444546"/></svg>