<svg xmlns="http://www.w3.org/2000/svg" viewBox="0 0 48 48" enable-background="new 0 0 48 48"><g opacity=".15"><path d="m46 34.8h-41.6c-1.1 0-2-.9-2-2v-12c0-1.1.9-2 2-2h41.6c1.1 0 2 .9 2 2v12c0 1.1-.9 2-2 2" fill="#8b9da5"/></g><path d="m2 31.6c-.7 0-1.2-.5-1.2-1.2v-12c0-.7.5-1.2 1.2-1.2h41.6c.7 0 1.2.5 1.2 1.2v12c0 .7-.5 1.2-1.2 1.2h-41.6" fill="#fff"/><path d="m43.6 18c.2 0 .4.2.4.4v12c0 .2-.2.4-.4.4h-41.6c-.2 0-.4-.2-.4-.4v-12c0-.2.2-.4.4-.4h41.6m0-1.6h-41.6c-1.1 0-2 .9-2 2v12c0 1.1.9 2 2 2h41.6c1.1 0 2-.9 2-2v-12c0-1.1-.9-2-2-2z" fill="#3b97d3"/><g opacity=".15"><path d="M25.8,22.4L24.7,28H30v3.3h-6l-1.6,8.2H19l1.6-8.2h-4.9l-1.6,8.2h-3.4l1.5-8.2H7.2V28h5.6
				l1.1-5.6H8.7v-3.3h5.8l1.6-8.3h3.6L18,19.1h5l1.6-8.3H28l-1.6,8.3h5v3.3H25.8z M16.3,28h4.9l1.1-5.6h-4.9L16.3,28z" fill="#8b9da5"/></g><path d="m23.4 20l-1.1 5.6h5.3v3.4h-6l-1.6 8.2h-3.5l1.6-8.2h-4.9l-1.6 8.2h-3.4l1.5-8.2h-4.9v-3.3h5.6l1.1-5.6h-5.2v-3.3h5.8l1.6-8.3h3.6l-1.6 8.3h5l1.6-8.3h3.4l-1.7 8.2h5v3.3h-5.6m-9.5 5.6h4.9l1.1-5.6h-4.9l-1.1 5.6" fill="#444546"/></svg>