<svg xmlns="http://www.w3.org/2000/svg" xmlns:xlink="http://www.w3.org/1999/xlink" viewBox="0 0 16 16" enable-background="new 0 0 16 16"><defs><path id="1" d="m0 0h16v16h-16z"/><clipPath id="0"><use xlink:href="#1"/></clipPath></defs><path d="m16 8.9l-5-4.4v2.5h-1.6c0-.1-.1-.1-.1-.2l.7-.8c-.3-.4-.6-.8-1.1-1.1l-.7.8c-.2-.1-.3-.2-.4-.3l.3-1c-.5-.2-1-.4-1.6-.4l-.2 1c-.2 0-.4 0-.6 0l-.2-1c-.3 0-.5 0-.8.1-.2.1-.5.2-.7.3l.3 1c-.2.1-.3.2-.5.2l-.7-.7c-.4.3-.8.7-1.1 1.1l.8.8c-.2.1-.3.2-.3.4l-1-.3c-.3.5-.4 1-.5 1.5l1 .3c0 .2 0 .4 0 .5l-1 .3c0 .3.1.5.1.8s.2.5.3.7l1-.3c.1.2.2.3.3.4l-.7.8c.3.4.6.8 1 1.1l.8-.8c.1.1.3.2.5.3l-.3 1c.5.2 1 .3 1.5.4l.3-1c.2 0 .3 0 .5 0l.3 1c.3 0 .5-.1.8-.1.3-.1.5-.2.7-.3l-.3-1c.2-.1.3-.2.5-.3l.7.8c.4-.3.8-.7 1.1-1.1l-.8-.8c0-.1.1-.1.1-.2h1.6v2.4l5-4.4m-10 2c-1.1 0-2-.9-2-2s.9-2 2-2c1.1 0 2 .9 2 2s-.9 2-2 2" opacity=".15" fill="#8b9da5" clip-path="url(#0)"/><path d="m8.5 6.2c0-.2-.1-.3-.2-.5l.7-.7c-.3-.4-.6-.8-1.1-1.1l-.7.8c-.2-.1-.3-.2-.4-.3l.3-1c-.5-.2-1-.4-1.6-.4l-.2 1c-.2 0-.4 0-.6 0l-.2-1c-.3 0-.5 0-.8.1-.2.1-.5.2-.7.3l.3 1c-.2.1-.3.2-.5.2l-.7-.7c-.4.3-.8.7-1.1 1.1l.8.8c-.2.1-.3.2-.3.4l-1-.3c-.3.5-.4 1-.5 1.5l1 .3c0 .2 0 .4 0 .5l-1 .3c0 .3.1.5.1.8s.2.4.3.7l1-.3c.1.2.2.3.3.4l-.7.8c.3.4.6.8 1 1.1l.8-.8c.1.1.3.2.5.3l-.3 1c.5.2 1 .3 1.5.4l.3-1c.2 0 .3 0 .5 0l.3 1c.3 0 .5-.1.8-.1.3-.1.5-.2.7-.3l-.3-1c.2-.1.3-.2.5-.3l.7.8c.4-.3.8-.7 1.1-1.1l-.8-.8c.1-.1.2-.3.3-.4l.4-1.5c0-.2 0-.3 0-.5l-.5-1.5m-3.5 3.7c-1.1 0-2-.9-2-2s.9-2 2-2c1.1 0 2 .9 2 2s-.9 2-2 2" fill="#69768b" clip-path="url(#0)"/><g clip-path="url(#0)"><path fill="#444546" d="m10 3.4v2.5h-3.1v4h3.1v2.4l5-4.4-5-4.5"/><path fill="#8bd0c0" d="m11.1 6l2.2 1.9-2.2 1.9v-1h-1.1-1.9v-1.7h1.9 1.1v-1.1"/></g></svg>