<svg xmlns="http://www.w3.org/2000/svg" xmlns:xlink="http://www.w3.org/1999/xlink" viewBox="0 0 48 48" enable-background="new 0 0 48 48"><defs><path id="1" d="m0 0h48v48h-48z"/><clipPath id="0"><use xlink:href="#1"/></clipPath></defs><g clip-path="url(#0)"><path fill="#8b9da5" d="m37.8 13.2v-10.7h-29.3v42h4.2v3.5h29.3v-30.5z" opacity=".15"/><g fill="#fff"><path d="m6 0h28.3v41h-28.3z"/><path d="m39.2 44.5h-29v-41h17.8l11.2 11.2z"/></g><g fill="none" stroke="#3b97d3" stroke-width="2" stroke-miterlimit="10"><path d="m12.4 43.5h-1.2v-1.1"/><path stroke-dasharray="2.4437 2.4437" d="m11.2 39.9v-33"/><path d="m11.2 5.7v-1.2h1.2"/><path stroke-dasharray="2.2353 2.2353" d="m14.7 4.5h12.9l9 9"/><path d="m37.4 14.3l.8.9v1.1"/><path stroke-dasharray="2.3654 2.3654" d="m38.2 18.7v22.5"/><path d="m38.2 42.4v1.1h-1.1"/><path stroke-dasharray="2.2414 2.2414" d="m34.8 43.5h-21.3"/></g><path fill="#cee4f3" d="m39.5 15h-11.3v-11.5"/><path opacity=".15" fill="#8b9da5" d="m29.8 15l-.1 4.5 10-4.5z"/></g></svg>