<svg xmlns="http://www.w3.org/2000/svg" xmlns:xlink="http://www.w3.org/1999/xlink" viewBox="0 0 16 16" enable-background="new 0 0 16 16"><defs><path id="1" d="m0 0h16v16h-16z"/><clipPath id="0"><use xlink:href="#1"/></clipPath></defs><g clip-path="url(#0)"><g><path fill="#8b9da5" d="m.7 6.1h15.2v5.3h-15.2z" opacity=".15"/><g><path fill="#3b97d3" d="m15.2 5.5h-15.2v5.3h15.2v-5.3"/><path fill="#fff" d="m14.2 6.5v3.3h-13.2v-3.3h13.2"/></g></g><g><path d="m5.3 7.1c-.7 0-1.3.2-1.8.5v-1.9c0-1 .8-1.9 1.9-1.9 1 0 1.9.8 1.9 1.9v1.3h1v-1.3c0-1.6-1.3-2.9-2.9-2.9s-2.9 1.4-2.9 2.9v3c-.3.5-.5 1.1-.5 1.7 0 1.8 1.5 3.3 3.3 3.3s3.3-1.5 3.3-3.3c.1-1.8-1.4-3.3-3.3-3.3" opacity=".15" fill="#8b9da5"/><g><g fill="#444546"><circle cx="4.7" cy="9.7" r="3.3"/><path d="m4.7 2.2c-1.6 0-2.9 1.3-2.9 2.9v3.2h1v-3.2c0-1 .8-1.9 1.9-1.9 1 0 1.9.8 1.9 1.9v1.2h1v-1.2c-.1-1.6-1.4-2.9-2.9-2.9"/></g><g stroke="#fff" stroke-miterlimit="10"><circle cx="4.7" cy="9.7" r="2.4" fill="#bfc3c8" stroke-width=".333"/><circle cx="4.7" cy="9.7" r="1.1" fill="#444546" stroke-width=".667"/></g></g></g></g></svg>