<svg xmlns="http://www.w3.org/2000/svg" xmlns:xlink="http://www.w3.org/1999/xlink" viewBox="0 0 48 48" enable-background="new 0 0 48 48"><defs><path id="1" d="m0 0h48v48h-48z"/><clipPath id="0"><use xlink:href="#1"/></clipPath></defs><g clip-path="url(#0)"><g><path d="m46 34.4h-41.6c-1.1 0-2-.9-2-2v-12c0-1.1.9-2 2-2h41.6c1.1 0 2 .9 2 2v12c0 1.1-.9 2-2 2" fill="#8b9da5" opacity=".15"/><g><path d="m2 31.6c-.7 0-1.2-.5-1.2-1.2v-12c0-.7.5-1.2 1.2-1.2h41.6c.7 0 1.2.5 1.2 1.2v12c0 .7-.5 1.2-1.2 1.2h-41.6" fill="#fff"/><path d="m43.6 18c.2 0 .4.2.4.4v12c0 .2-.2.4-.4.4h-41.6c-.2 0-.4-.2-.4-.4v-12c0-.2.2-.4.4-.4h41.6m0-1.6h-41.6c-1.1 0-2 .9-2 2v12c0 1.1.9 2 2 2h41.6c1.1 0 2-.9 2-2v-12c0-1.1-.9-2-2-2z" fill="#3b97d3"/></g></g><g><path d="m24.6 26.1v-8.9c0-4.7-3.9-8.6-8.6-8.6s-8.6 3.9-8.6 8.6v8.9c-.9 1.5-1.4 3.3-1.4 5.1 0 5.5 4.5 10 10 10 5.5 0 10-4.5 10-10 0-1.8-.5-3.6-1.4-5.1m-8.6-14.5c3.1 0 5.6 2.5 5.6 5.6v5.7c-1.6-1.1-3.5-1.7-5.6-1.7-2.1 0-4 .6-5.6 1.7v-5.7c0-3.1 2.5-5.6 5.6-5.6" opacity=".15" fill="#8b9da5"/><g><g fill="#444546"><circle cx="14" cy="29.2" r="10"/><path d="m14 6.6c-4.7 0-8.6 3.9-8.6 8.6v9.7h3v-9.7c0-3.1 2.5-5.6 5.6-5.6 3.1 0 5.6 2.5 5.6 5.6v3.7h3v-3.7c0-4.7-3.9-8.6-8.6-8.6"/></g><g stroke="#fff" stroke-miterlimit="10"><circle cx="14" cy="29.2" r="7.1" fill="#bfc3c8"/><circle cx="14" cy="29.2" r="3.4" fill="#444546" stroke-width="2"/></g></g></g></g></svg>