<svg xmlns="http://www.w3.org/2000/svg" viewBox="0 0 16 16" enable-background="new 0 0 16 16"><g opacity=".15"><path fill="#8b9da5" d="m.8 6.1h15.2v5.3h-15.2z"/></g><path fill="#fff" d="m.5 6h14.2v4.3h-14.2z"/><path d="m14.2 6.5v3.3h-13.2v-3.3h13.2m1-1h-15.2v5.3h15.2v-5.3z" fill="#69768b"/><path d="m7 4.7c.2 0 .4-.2.4-.4v-.3c0-.2-.2-.4-.4-.4h-1.3c-.2 0-.4.2-.4.4 0-.2-.2-.4-.4-.4h-1.4c-.2 0-.4.2-.4.4v.3c0 .2.2.4.4.4h1.2v7.5h-1.2c-.2 0-.4.2-.4.4v.3c0 .2.2.4.4.4h1.3c.2 0 .4-.2.4-.4 0 .2.2.4.4.4h1.4c.2 0 .4-.2.4-.4v-.3c0-.2-.2-.4-.4-.4h-1.2v-7.5h1.2" opacity=".15" fill="#8b9da5"/><path d="m6.2 3.9c.2 0 .4-.2.4-.4v-.3c0-.2-.2-.4-.4-.4h-1.3c-.2 0-.4.2-.4.4 0-.2-.2-.4-.4-.4h-1.4c-.2 0-.4.2-.4.4v.3c0 .2.2.4.4.4h1.2v7.5h-1.2c-.2 0-.4.2-.4.4v.2c0 .2.2.4.4.4h1.3c.2 0 .4-.2.4-.4 0 .2.2.4.4.4h1.3c.2 0 .4-.2.4-.4v-.3c0-.2-.2-.4-.4-.4h-1.1v-7.5h1.2z" fill="#2d3e50"/></svg>