<svg xmlns="http://www.w3.org/2000/svg" viewBox="0 0 16 16" enable-background="new 0 0 16 16"><g opacity=".15"><path fill="#8b9da5" d="m1 4.5h15v8h-15z"/></g><path d="m1.1 11c-.3 0-.6-.3-.6-.6v-5.8c0-.3.3-.6.6-.6h12.9c.3 0 .6.3.6.6v5.9c0 .3-.3.6-.6.6h-12.9z" fill="#fff"/><path d="m13.9 4.5c.1 0 .1 0 0 0l.1 5.9c0 0 0 .1-.1.1h-12.8c0 0-.1 0-.1-.1v-5.8c0 0 0-.1.1-.1h12.8m0-1h-12.8c-.6 0-1.1.5-1.1 1.1v5.9c0 .6.5 1.1 1.1 1.1h12.9c.6 0 1.1-.5 1.1-1.1v-5.9c-.1-.6-.6-1.1-1.2-1.1z" fill="#acbc37"/><path d="m4.5 8.5h-.5v-2h.5c.3 0 .5-.2.5-.5s-.2-.5-.5-.5h-2c-.3 0-.5.2-.5.5s.2.5.5.5h.5v2h-.5c-.3 0-.5.2-.5.5s.2.5.5.5h2c.3 0 .5-.2.5-.5s-.2-.5-.5-.5" fill="#444546"/></svg>