<svg xmlns="http://www.w3.org/2000/svg" viewBox="0 0 16 16" enable-background="new 0 0 16 16"><g opacity=".3"><path d="m16 7l-6-6c-.1 1 0 1.9.4 2.9l-4.7 3.2c-1.1-.3-2.2-.3-3.3 0l7.5 7.5c.3-1.1.3-2.2 0-3.3l3.2-4.7c1 .4 2 .6 2.9.4" fill="#8b9da5"/></g><g opacity=".3"><path d="m2.3 14c-.9.9-1.4 1.7-1.2 2 .2.2 1.1-.3 2-1.2l2.5-2.5-.7-.7-2.6 2.4" fill="#8b9da5"/></g><g fill="#fff"><path d="m15 6l-6-6c-.1 1 0 1.9.4 2.9l-4.7 3.2c-1.1-.3-2.2-.3-3.3 0l7.5 7.5c.3-1.1.3-2.2 0-3.3l3.2-4.7c1 .4 2 .6 2.9.4"/><path d="m1.3 13c-.9.9-1.4 1.7-1.2 2 .2.2 1.1-.3 2-1.2l2.5-2.5-.7-.7-2.6 2.4"/></g></svg>