<svg xmlns="http://www.w3.org/2000/svg" viewBox="0 0 16 16" enable-background="new 0 0 16 16"><g opacity=".3" fill="#8b9da5"><path d="M8.5,1C4.4,1,1,4.4,1,8.5S4.4,16,8.5,16S16,12.6,16,8.5S12.7,1,8.5,1z M8.5,13C6,13,4,11,4,8.5S6,4,8.5,4
						S13,6,13,8.5S11,13,8.5,13z"/><circle cx="8.5" cy="8.5" r="3"/></g><g fill="#fff"><path d="M7.5,0C3.4,0,0,3.4,0,7.5S3.4,15,7.5,15S15,11.6,15,7.5S11.7,0,7.5,0z M7.5,12C5,12,3,10,3,7.5S5,3,7.5,3
						S12,5,12,7.5S10,12,7.5,12z"/><circle cx="7.5" cy="7.5" r="3"/></g></svg>