<svg xmlns="http://www.w3.org/2000/svg" xmlns:xlink="http://www.w3.org/1999/xlink" viewBox="0 0 32 32"><defs><clipPath id="clip-path"><rect id="_Rectangle_" data-name="&lt;Rectangle&gt;" width="32" height="32" fill="none"/></clipPath></defs><g style="isolation:isolate"><g id="Layer_1" data-name="Layer 1"><g clip-path="url(#clip-path)"><g opacity="0.6"><path d="M30.81,21.48c-1.22-.21-1.22-.66-1.22-1.06V17.28a3.14,3.14,0,0,0-1-2.42A3.83,3.83,0,0,0,26.12,14L26,17a4.08,4.08,0,0,1,.73.1.86.86,0,0,1,0,.22v3.14a3.85,3.85,0,0,0,.9,2.6l0,0A4.58,4.58,0,0,0,26.75,26v2.77a1.19,1.19,0,0,1,0,.19A1.82,1.82,0,0,1,26,29l0,3a4,4,0,0,0,2.35-.67,3,3,0,0,0,1.17-2.59V26a1.78,1.78,0,0,1,.23-1,1.59,1.59,0,0,1,1-.41l1.19-.2V21.69Z" fill="#2d3e50"/><polygon points="3.02 21 9.02 21 9.02 17.97 6.01 17.97 6.01 6.03 9.02 6.03 9.02 3 3.02 3 3.02 21" fill="#2d3e50"/><path d="M22.25,17.28a.86.86,0,0,1,0-.22A4.08,4.08,0,0,1,23,17l-.09-2.06-3.84,9.95.11.09a1.78,1.78,0,0,1,.23,1v2.77a3,3,0,0,0,1.17,2.59,4,4,0,0,0,2.35.67l0-3a1.82,1.82,0,0,1-.69-.11,1.2,1.2,0,0,1,0-.19V26A4.58,4.58,0,0,0,21.36,23l0,0a3.85,3.85,0,0,0,.9-2.6Z" fill="#2d3e50"/><polygon points="15.06 17.15 18.05 9.38 18.05 3 12.05 3 12.05 6.03 15.06 6.03 15.06 17.15" fill="#2d3e50"/><polygon points="14.74 17.97 12.05 17.97 12.05 21 13.57 21 14.74 17.97" fill="#2d3e50"/><polygon points="11.48 32 14.16 32 25.36 3 22.64 3 11.48 32" fill="#2d3e50"/></g><path d="M27.81,18.48c-1.22-.21-1.22-.66-1.22-1.06V14.28a3.14,3.14,0,0,0-1-2.42A3.83,3.83,0,0,0,23.12,11L23,14a4.08,4.08,0,0,1,.73.1.86.86,0,0,1,0,.22v3.14a3.85,3.85,0,0,0,.9,2.6l0,0A4.58,4.58,0,0,0,23.75,23v2.77a1.19,1.19,0,0,1,0,.19A1.82,1.82,0,0,1,23,26l0,3a4,4,0,0,0,2.35-.67,3,3,0,0,0,1.17-2.59V23a1.78,1.78,0,0,1,.23-1,1.59,1.59,0,0,1,1-.41l1.19-.2V18.68Z" fill="#fff"/><polygon points="0.02 18 6.02 18 6.02 14.97 3.01 14.97 3.01 3.03 6.02 3.03 6.02 0 0.02 0 0.02 18" fill="#fff"/><path d="M19.25,14.28a.86.86,0,0,1,0-.22A4.08,4.08,0,0,1,20,14l-.09-2.06-3.84,9.95.11.09a1.78,1.78,0,0,1,.23,1v2.77a3,3,0,0,0,1.17,2.59,4,4,0,0,0,2.35.67l0-3a1.82,1.82,0,0,1-.69-.11,1.2,1.2,0,0,1,0-.19V23A4.58,4.58,0,0,0,18.36,20l0,0a3.85,3.85,0,0,0,.9-2.6Z" fill="#fff"/><polygon points="12.06 14.15 15.04 6.38 15.04 0 9.04 0 9.04 3.03 12.06 3.03 12.06 14.15" fill="#fff"/><polygon points="11.74 14.97 9.04 14.97 9.04 18 10.57 18 11.74 14.97" fill="#fff"/><polygon points="8.48 29 11.16 29 22.36 0 19.64 0 8.48 29" fill="#fff"/></g></g></g></svg>
