<svg xmlns="http://www.w3.org/2000/svg" xmlns:xlink="http://www.w3.org/1999/xlink" viewBox="0 0 32 32"><defs><style>.cls-1,.cls-6,.cls-8{fill:none;}.cls-2{isolation:isolate;}.cls-3{clip-path:url(#clip-path);}.cls-4{opacity:0.2;mix-blend-mode:multiply;}.cls-5{fill:#231f20;}.cls-6{stroke:#231f20;}.cls-6,.cls-8{stroke-miterlimit:10;stroke-width:1.78px;}.cls-7{fill:#fff;}.cls-8{stroke:#fff;}</style><clipPath id="clip-path"><rect id="_Rectangle_" data-name="&lt;Rectangle&gt;" class="cls-1" width="32" height="32"/></clipPath></defs><g class="cls-2"><g id="Layer_1" data-name="Layer 1"><g class="cls-3"><g class="cls-4"><g id="_Group_" data-name="&lt;Group&gt;"><path class="cls-5" d="M16.5,4A12.5,12.5,0,1,1,4,16.5,12.51,12.51,0,0,1,16.5,4m0-3A15.5,15.5,0,1,0,32,16.5,15.5,15.5,0,0,0,16.5,1h0Z"/></g><g id="_Group_2" data-name="&lt;Group&gt;"><path class="cls-5" d="M16.75,9.28l4.71,4.6v9.85H11.53V9.28h5.22M17.47,7.5H9.75v18H23.23V13.13L17.47,7.5h0Z"/></g><polyline id="_Path_" data-name="&lt;Path&gt;" class="cls-6" points="23.25 13.97 16.57 13.97 16.57 7.5"/><circle id="_Path_2" data-name="&lt;Path&gt;" class="cls-5" cx="16.58" cy="21.95" r="0.89"/><circle id="_Path_3" data-name="&lt;Path&gt;" class="cls-5" cx="16.58" cy="16.63" r="0.89"/><circle id="_Path_4" data-name="&lt;Path&gt;" class="cls-5" cx="16.58" cy="19.29" r="0.89"/></g><g id="_Group_3" data-name="&lt;Group&gt;"><path class="cls-7" d="M15.5,3A12.5,12.5,0,1,1,3,15.5,12.51,12.51,0,0,1,15.5,3m0-3A15.5,15.5,0,1,0,31,15.5,15.5,15.5,0,0,0,15.5,0h0Z"/></g><g id="_Group_4" data-name="&lt;Group&gt;"><path class="cls-7" d="M15.75,8.28l4.71,4.6v9.85H10.53V8.28h5.22M16.47,6.5H8.75v18H22.23V12.13L16.47,6.5h0Z"/></g><polyline id="_Path_5" data-name="&lt;Path&gt;" class="cls-8" points="22.25 12.97 15.57 12.97 15.57 6.5"/><circle id="_Path_6" data-name="&lt;Path&gt;" class="cls-7" cx="15.58" cy="20.95" r="0.89"/><circle id="_Path_7" data-name="&lt;Path&gt;" class="cls-7" cx="15.58" cy="15.63" r="0.89"/><circle id="_Path_8" data-name="&lt;Path&gt;" class="cls-7" cx="15.58" cy="18.29" r="0.89"/></g></g></g></svg>
