<svg xmlns="http://www.w3.org/2000/svg" viewBox="0 0 32 32"><g style="isolation:isolate"><g id="Layer_1" data-name="Layer 1"><g id="_Group_" data-name="&lt;Group&gt;"><rect id="_Rectangle_" data-name="&lt;Rectangle&gt;" width="32" height="32" fill="none"/><g id="_Group_2" data-name="&lt;Group&gt;"><g id="_Group_3" data-name="&lt;Group&gt;"><path id="_Compound_Path_" data-name="&lt;Compound Path&gt;" d="M30,9.67H5a2,2,0,0,0-2,2V26.33a2,2,0,0,0,2,2H30a2,2,0,0,0,2-2V11.67A2,2,0,0,0,30,9.67ZM29,25.33H6V12.67H29Z" fill="#2d3e50" opacity="0.6"/><g id="_Group_4" data-name="&lt;Group&gt;"><circle id="_Path_" data-name="&lt;Path&gt;" cx="11.54" cy="20.82" r="1.67" fill="#8b9da5"/><circle id="_Path_2" data-name="&lt;Path&gt;" cx="17.5" cy="20.82" r="1.67" fill="#8b9da5"/><circle id="_Path_3" data-name="&lt;Path&gt;" cx="23.46" cy="20.82" r="1.67" fill="#8b9da5"/></g></g><g id="_Group_5" data-name="&lt;Group&gt;"><path id="_Compound_Path_2" data-name="&lt;Compound Path&gt;" d="M27,6.67H2a2,2,0,0,0-2,2V23.33a2,2,0,0,0,2,2H27a2,2,0,0,0,2-2V8.67A2,2,0,0,0,27,6.67ZM26,22.33H3V9.67H26Z" fill="#fff"/><g id="_Group_6" data-name="&lt;Group&gt;"><circle id="_Path_4" data-name="&lt;Path&gt;" cx="8.54" cy="17.82" r="1.67" fill="#fff"/><circle id="_Path_5" data-name="&lt;Path&gt;" cx="14.5" cy="17.82" r="1.67" fill="#fff"/><circle id="_Path_6" data-name="&lt;Path&gt;" cx="20.46" cy="17.82" r="1.67" fill="#fff"/></g></g></g></g></g></g></svg>
