<svg xmlns="http://www.w3.org/2000/svg" viewBox="0 0 32 32"><g style="isolation:isolate"><g id="Layer_1" data-name="Layer 1"><g id="_Group_" data-name="&lt;Group&gt;"><rect id="_Rectangle_" data-name="&lt;Rectangle&gt;" width="32" height="32" fill="none"/><g id="_Group_2" data-name="&lt;Group&gt;"><g id="_Group_3" data-name="&lt;Group&gt;" opacity="0.6"><path id="_Compound_Path_" data-name="&lt;Compound Path&gt;" d="M30,9.67H5a2,2,0,0,0-2,2V26.33a2,2,0,0,0,2,2H30a2,2,0,0,0,2-2V11.67A2,2,0,0,0,30,9.67ZM29,25.33H6V12.67H29Z" fill="#2d3e50"/><path d="M32,25a7,7,0,0,1-14,0V17h7C28.87,17,32,21.13,32,25Z" fill="#2d3e50"/></g><path d="M22,15a7,7,0,1,0,7,7A7,7,0,0,0,22,15Zm1,11.66A1.45,1.45,0,0,1,22,27a1.5,1.5,0,0,1-1-.34,1.21,1.21,0,0,1-.38-.94,1.24,1.24,0,0,1,.36-1A1.49,1.49,0,0,1,22,24.42a1.44,1.44,0,0,1,1,.34,1.26,1.26,0,0,1,.35,1A1.22,1.22,0,0,1,23,26.66Zm.09-3.3H20.89L20.55,17h2.91Z" fill="#fff"/><path d="M27,6.67H2a2,2,0,0,0-2,2V23.33a2,2,0,0,0,2,2H17.5v-3H3V9.67H26V22.33h-.33v3H27a2,2,0,0,0,2-2V8.67A2,2,0,0,0,27,6.67Z" fill="#fff"/></g></g></g></g></svg>
