<svg xmlns="http://www.w3.org/2000/svg" xmlns:xlink="http://www.w3.org/1999/xlink" viewBox="0 0 16 16"><defs><style>.cls-1{fill:none;}.cls-2{isolation:isolate;}.cls-3{clip-path:url(#clip-path);}.cls-4{fill:#8b9da5;opacity:0.15;mix-blend-mode:multiply;}.cls-5{fill:#2d3e50;}</style><clipPath id="clip-path"><rect class="cls-1" width="16" height="16"/></clipPath></defs><title>icon</title><g class="cls-2"><g id="Layer_1" data-name="Layer 1"><g class="cls-3"><path class="cls-4" d="M14,12.12L11.59,9.7l-0.11,0a30.75,30.75,0,0,0-4.15,1.51c-1.26.68-1.72,1.42-1.33,2.83C2.57,12.38,4.89,7.76,7.14,5.26L4.88,3H14v9.12Z"/><path class="cls-5" d="M13,11.12L10.59,8.7l-0.11,0a30.75,30.75,0,0,0-4.15,1.51c-1.26.68-1.72,1.42-1.33,2.83C1.57,11.38,3.89,6.76,6.14,4.26L3.88,2H13v9.12Z"/></g></g></g></svg>