<svg xmlns="http://www.w3.org/2000/svg" xmlns:xlink="http://www.w3.org/1999/xlink" viewBox="0 0 32 32" enable-background="new 0 0 32 32"><defs><path id="1" d="m0 0h32v32h-32z"/><clipPath id="0"><use xlink:href="#1"/></clipPath></defs><g clip-path="url(#0)"><g opacity=".2"><path d="M16.5,4C23.4,4,29,9.6,29,16.5S23.4,29,16.5,29S4,23.4,4,16.5S9.6,4,16.5,4 M16.5,1C7.9,1,1,7.9,1,16.5S7.9,32,16.5,32
					C25.1,32,32,25.1,32,16.5S25.1,1,16.5,1L16.5,1z"/><g><g><path d="m23 13.9c1 2.5.5 5.5-1.6 7.5-2.1 2.1-5.3 2.6-7.8 1.4" fill="none" stroke="#000" stroke-width="3" stroke-miterlimit="10"/><path d="m25.9 12.6l-5.5 3.5 1-4.5z"/></g><g><path d="m10 19.1c-1-2.5-.5-5.5 1.6-7.5 2-2 5-2.6 7.6-1.5" fill="none" stroke="#000" stroke-width="3" stroke-miterlimit="10"/><path d="m7.1 20.4l5.5-3.5-1 4.5z"/></g></g></g><g><path d="M15.5,3C22.4,3,28,8.6,28,15.5S22.4,28,15.5,28S3,22.4,3,15.5S8.6,3,15.5,3 M15.5,0C6.9,0,0,6.9,0,15.5
					S6.9,31,15.5,31C24.1,31,31,24.1,31,15.5S24.1,0,15.5,0L15.5,0z" fill="#fff"/><g><g><path d="m22 12.9c1 2.5.5 5.5-1.6 7.5-2.1 2.1-5.3 2.6-7.8 1.4" fill="none" stroke="#fff" stroke-width="3" stroke-miterlimit="10"/><path fill="#fff" d="m24.9 11.6l-5.5 3.5 1-4.5z"/></g><g><path d="m9 18.1c-1-2.5-.5-5.5 1.6-7.5 2-2 5-2.6 7.6-1.5" fill="none" stroke="#fff" stroke-width="3" stroke-miterlimit="10"/><path fill="#fff" d="m6.1 19.4l5.5-3.5-1 4.5z"/></g></g></g></g></svg>