<svg id="Layer_1" data-name="Layer 1" xmlns="http://www.w3.org/2000/svg" xmlns:xlink="http://www.w3.org/1999/xlink" viewBox="0 0 16 16"><defs><style>.cls-1{fill:none;}.cls-2{clip-path:url(#clip-path);}.cls-3{opacity:0.15;}.cls-4{fill:#8b9da5;}.cls-5{fill:#eeeff1;}.cls-6{fill:#b5bac5;}.cls-7{fill:#dbe0e4;}.cls-8{fill:#69768b;}.cls-9{fill:#fff;}.cls-10{fill:#2d3e50;}</style><clipPath id="clip-path"><rect id="_Rectangle_" data-name="&lt;Rectangle&gt;" class="cls-1" width="16" height="16"/></clipPath></defs><title>Icons</title><g class="cls-2"><g class="cls-3"><polygon class="cls-4" points="13.97 10 13.97 5.5 12 5.5 12 1 1 1 1 7.47 2.97 7.47 2.97 11.97 5 11.97 5 16 16 16 16 10 13.97 10"/></g><g id="_Group_" data-name="&lt;Group&gt;"><g id="_Group_2" data-name="&lt;Group&gt;"><rect class="cls-5" x="0.5" y="0.5" width="10" height="5.47"/><path class="cls-6" d="M10,1V5.47H1V1h9m1-1H0V6.47H11V0h0Z"/></g></g><g id="_Group_3" data-name="&lt;Group&gt;"><g id="_Group_4" data-name="&lt;Group&gt;"><rect class="cls-7" x="2.47" y="5" width="10" height="5.47"/><path class="cls-8" d="M12,5.5V10H3V5.5h9m1-1H2V11H13V4.5h0Z"/></g></g><g id="_Group_5" data-name="&lt;Group&gt;"><rect class="cls-9" x="4.5" y="9.5" width="10" height="5"/><path class="cls-10" d="M14,10v4H5V10h9m1-1H4v6H15V9h0Z"/></g></g></svg>
