<svg xmlns="http://www.w3.org/2000/svg" viewBox="0 0 16 16"><defs><clipPath id="0"><path fill="none" d="m0 0h16v16h-16z"/></clipPath></defs><g isolation="isolate"><g clip-path="url(#0)" data-name="Layer 1"><g opacity=".15" mix-blend-mode="multiply"><g fill="#8b9da5"><path d="m15 15h-2.96v1h3.96v-4h-1v3"/><path d="m12.04 2v1h2.96v3h1v-4h-3.96"/><path d="m2 6h1v-3h3.04v-1h-4.04v4"/><path d="m3 12h-1v4h4.04v-1h-3.04v-3"/></g><g fill="#2d3e50"><path d="m8.21 5.25h1.64v1.32h-1.64z"/><path d="M10.07,12.2a.52.52,0,0,1-.09-.13.7.7,0,0,1-.05-.16,1.88,1.88,0,0,1,0-.25q0-.16,0-.47V7.36H9.15L7.5,7.4v.37a1.82,1.82,0,0,1,.33.09A.47.47,0,0,1,8,8a.57.57,0,0,1,.1.26,2.69,2.69,0,0,1,0,.43V11.2a4.22,4.22,0,0,1,0,.71.59.59,0,0,1-.15.31.85.85,0,0,1-.4.18v.36H10.5v-.36a1.31,1.31,0,0,1-.27-.09A.5.5,0,0,1,10.07,12.2Z"/></g></g><g fill="#69768b"><path d="m14 14h-2.96v1h3.96v-4h-1v3"/><path d="m11.04 1v1h2.96v3h1v-4h-3.96"/><path d="m1 5h1v-3h3.04v-1h-4.04v4"/><path d="m2 11h-1v4h4.04v-1h-3.04v-3"/></g><g fill="#3b97d3"><path d="m7.21 4.25h1.64v1.32h-1.64z"/><path d="M9.07,11.2A.52.52,0,0,1,9,11.07a.7.7,0,0,1-.05-.16,1.88,1.88,0,0,1,0-.25q0-.16,0-.47V6.36H8.15L6.5,6.4v.37a1.82,1.82,0,0,1,.33.09A.47.47,0,0,1,7,7a.57.57,0,0,1,.1.26,2.69,2.69,0,0,1,0,.43V10.2a4.22,4.22,0,0,1,0,.71.59.59,0,0,1-.15.31.85.85,0,0,1-.4.18v.36H9.5v-.36a1.31,1.31,0,0,1-.27-.09A.5.5,0,0,1,9.07,11.2Z"/></g></g></g></svg>