<svg xmlns="http://www.w3.org/2000/svg" viewBox="0 0 16 16"><defs><clipPath id="0"><path fill="none" d="m0 0h16v16h-16z"/></clipPath></defs><g isolation="isolate"><g clip-path="url(#0)" data-name="Layer 1"><g opacity=".15" mix-blend-mode="multiply" fill="#8b9da5"><path d="m7.94 4h2.19v1.76h-2.19z"/><path d="M10.43,13.27a.69.69,0,0,1-.12-.17.93.93,0,0,1-.07-.21,2.51,2.51,0,0,1,0-.34q0-.22,0-.62V6.81h-1L7,6.87v.49a2.42,2.42,0,0,1,.44.12.63.63,0,0,1,.27.2A.76.76,0,0,1,7.85,8a3.58,3.58,0,0,1,0,.57v3.34a5.62,5.62,0,0,1-.05.94.79.79,0,0,1-.2.41,1.14,1.14,0,0,1-.54.24V14H11v-.47a1.75,1.75,0,0,1-.36-.12A.66.66,0,0,1,10.43,13.27Z"/><path d="m15 15h-2.96v1h3.96v-4h-1v3"/><path d="m12.04 2v1h2.96v3h1v-4h-3.96"/><path d="m2 6h1v-3h3.04v-1h-4.04v4"/><path d="m3 12h-1v4h4.04v-1h-3.04v-3"/></g><g fill="#9dcbe8"><path d="m6.94 3h2.19v1.76h-2.19z"/><path d="M9.43,12.27a.69.69,0,0,1-.12-.17.93.93,0,0,1-.07-.21,2.51,2.51,0,0,1,0-.34q0-.22,0-.62V5.81h-1L6,5.87v.49a2.42,2.42,0,0,1,.44.12.63.63,0,0,1,.27.2A.76.76,0,0,1,6.85,7a3.58,3.58,0,0,1,0,.57v3.34a5.62,5.62,0,0,1-.05.94.79.79,0,0,1-.2.41,1.14,1.14,0,0,1-.54.24V13H10v-.47a1.75,1.75,0,0,1-.36-.12A.66.66,0,0,1,9.43,12.27Z"/></g><g fill="#b4bbc5"><path d="m14 14h-2.96v1h3.96v-4h-1v3"/><path d="m11.04 1v1h2.96v3h1v-4h-3.96"/><path d="m1 5h1v-3h3.04v-1h-4.04v4"/><path d="m2 11h-1v4h4.04v-1h-3.04v-3"/></g></g></g></svg>