<svg xmlns="http://www.w3.org/2000/svg" viewBox="0 0 16 16"><defs><clipPath id="0"><path data-name="&lt;Rectangle&gt;" fill="none" d="m0 0h16v16h-16z"/></clipPath></defs><g isolation="isolate"><g clip-path="url(#0)" data-name="Layer 1"><g opacity=".15" mix-blend-mode="multiply" fill="#8b9da5"><path d="m7.94 4h2.19v1.76h-2.19z"/><path d="M10.43,13.27a.69.69,0,0,1-.12-.17.93.93,0,0,1-.07-.21,2.51,2.51,0,0,1,0-.34q0-.22,0-.62V6.81h-1L7,6.87v.49a2.42,2.42,0,0,1,.44.12.63.63,0,0,1,.27.2A.76.76,0,0,1,7.85,8a3.58,3.58,0,0,1,0,.57v3.34a5.62,5.62,0,0,1-.05.94.79.79,0,0,1-.2.41,1.14,1.14,0,0,1-.54.24V14H11v-.47a1.75,1.75,0,0,1-.36-.12A.66.66,0,0,1,10.43,13.27Z"/><path d="m15 15h-2.96v1h3.96v-4h-1v3"/><path d="m12.04 3v1h2.96v3h1v-4h-3.96"/><path d="m3 7h1v-3h3.04v-1h-4.04v4"/><path d="m4 12h-1v4h4.04v-1h-3.04v-3"/></g><g fill="#3b97d3"><path d="m7.72 4.77h1.64v1.32h-1.64z"/><path d="M9.58,11.72a.52.52,0,0,1-.09-.13.7.7,0,0,1-.05-.16,1.88,1.88,0,0,1,0-.25q0-.16,0-.47V6.88H8.66L7,6.92v.37a1.82,1.82,0,0,1,.33.09.47.47,0,0,1,.2.15.57.57,0,0,1,.1.26,2.69,2.69,0,0,1,0,.43v2.51a4.22,4.22,0,0,1,0,.71.59.59,0,0,1-.15.31.85.85,0,0,1-.4.18v.36H10v-.36a1.31,1.31,0,0,1-.27-.09A.5.5,0,0,1,9.58,11.72Z"/></g><g fill="#69768b"><path d="m14 14h-2.96v1h3.96v-4h-1v3"/><path d="m11.04 2v1h2.96v3h1v-4h-3.96"/><path d="m2 6h1v-3h3.04v-1h-4.04v4"/><path d="m3 11h-1v4h4.04v-1h-3.04v-3"/><path d="m9.04 0v1h2.96v2h1v-3h-3.96"/><path d="m0 4h1v-3h3.04v-1h-4.04v4"/><path d="m1 9h-1v4h3.04v-1h-2.04v-3"/></g></g></g></svg>