<svg xmlns="http://www.w3.org/2000/svg" xmlns:xlink="http://www.w3.org/1999/xlink" viewBox="0 0 16 16" enable-background="new 0 0 16 16"><defs><linearGradient id="3" gradientUnits="userSpaceOnUse" x1="5.151" y1="1.694" x2="9.445" y2="12.308"><stop offset=".005" stop-color="#fff"/><stop offset="1" stop-color="#eef0f2"/></linearGradient><linearGradient id="1" gradientUnits="userSpaceOnUse" x1="0" x2="15.31"><stop offset=".005" stop-color="#97999c"/><stop offset="1" stop-color="#97999c"/></linearGradient><pattern id="2" xlink:href="#0" patternTransform="matrix(1 0 0 1 10.0692 0)"/><pattern x="-196" y="-84" width="15.3" height="15.3" patternUnits="userSpaceOnUse" id="0" viewBox="0 -15.3 15.3 15.3"><path fill="none" d="m0 0h15.3v-15.3h-15.3z"/><path fill="url(#1)" d="m15.3 0h-15.3v-15.3h15.3z"/></pattern></defs><g opacity=".15"><path fill="#8b9da5" d="m1 2h15v13h-15z"/></g><path d="m14 1h-13c-.6 0-1 .4-1 1v11c0 .6.4 1 1 1h13c.6 0 1-.4 1-1v-11c0-.6-.4-1-1-1" fill="url(#2)"/><path fill="url(#3)" d="m13.9 2.1v10.8h-12.8v-10.8h12.8"/><path d="M4.6,8h-1V4H2V3h4.2v1H4.6V8z" fill="#3b97d3"/><g fill="#444546"><path d="m8 7h5v1h-5z"/><path d="m8 5h5v1h-5z"/><path d="m8 3h5v1h-5z"/><path d="m2 9h11v1h-11z"/><path d="m2 11h8v1h-8z"/></g><g opacity=".15" fill="#8b9da5"><path d="M5.6,9h-1V5H3V4h4.2v1H5.6V9z"/><path d="m9 8h5v1h-5z"/><path d="m9 6h5v1h-5z"/><path d="m9 4h5v1h-5z"/><path d="m3 10h11v1h-11z"/><path d="m3 12h8v1h-8z"/></g></svg>