<svg xmlns="http://www.w3.org/2000/svg" viewBox="0 0 48 48" enable-background="new 0 0 48 48"><g opacity=".15"><path fill="#8b9da5" d="m2.4 7.6h45.6v35.2h-45.6z"/></g><path d="m43.6 40.4h-41.6c-1.1 0-2-.9-2-2v-31.2c0-1.1.9-2 2-2h41.6c1.1 0 2 .9 2 2v31.2c0 1.1-.9 2-2 2" fill="#fff"/><g opacity=".15"><path d="M14.1,28.9h-2.8V14.4h-5V12h12.7v2.4h-5V28.9z" fill="#8b9da5"/></g><path d="M11.7,26.5H9V12H4V9.6h12.7V12h-5V26.5z" fill="#3b97d3"/><g fill="#9a9fa4"><path d="m20.7 9.6h20.9v2.4h-20.9z"/><path d="m20.7 14.4h20.9v2.4h-20.9z"/><path d="m20.7 19.2h20.9v2.4h-20.9z"/><path d="m20.7 24h20.9v2.4h-20.9z"/><path d="m4 28.8h37.6v2.4h-37.6z"/><path d="m4 33.6h24.9v2.4h-24.9z"/></g></svg>