<svg xmlns="http://www.w3.org/2000/svg" viewBox="0 0 32 32"><g style="isolation:isolate"><g id="Layer_1" data-name="Layer 1"><g opacity="0.6"><path d="M17,3,3,17,17,31,31,17Zm2.09,4.61-.61,11.67H15.57L15,7.61Zm-.55,17.24a2.08,2.08,0,0,1-1.53.54,2.14,2.14,0,0,1-1.55-.53,2,2,0,0,1-.55-1.5,2,2,0,0,1,.54-1.52A2.18,2.18,0,0,1,17,21.33a2.12,2.12,0,0,1,1.53.53,2,2,0,0,1,.54,1.5A2,2,0,0,1,18.54,24.85Z" fill="#2d3e50"/></g><path d="M14,0,0,14,14,28,28,14Zm2,5.42-.59,11.26H12.62L12,5.42Zm-.53,16.64a2,2,0,0,1-1.48.52,2.07,2.07,0,0,1-1.5-.51A1.92,1.92,0,0,1,12,20.62a1.93,1.93,0,0,1,.52-1.46,2.1,2.1,0,0,1,1.51-.5,2,2,0,0,1,1.48.51A1.93,1.93,0,0,1,16,20.62,1.93,1.93,0,0,1,15.49,22.06Z" fill="#fff"/></g></g></svg>
