<svg id="Layer_1" data-name="Layer 1" xmlns="http://www.w3.org/2000/svg" xmlns:xlink="http://www.w3.org/1999/xlink" width="48" height="48" viewBox="0 0 48 48"><defs><style>.cls-1{fill:none;}.cls-2{clip-path:url(#clip-path);}.cls-3{opacity:0.15;}.cls-4{fill:#8b9da5;}.cls-5{fill:#3b97d3;}.cls-6{fill:#fff;}</style><clipPath id="clip-path"><rect class="cls-1" width="48" height="48"/></clipPath></defs><title>RunAction48</title><g class="cls-2"><g class="cls-3"><polygon class="cls-4" points="6 6 6 48 48 27 6 6"/></g><path class="cls-5" d="M3,3V45L45,24Z"/><path class="cls-6" d="M25.62,25.62a10.16,10.16,0,0,0,0-3.24H23.4c-.08-.36-.18-.71-.29-1.06L25,20.21a10.48,10.48,0,0,0-1.63-2.81l-1.93,1.11a8.61,8.61,0,0,0-.74-.74l1.11-1.93A10.48,10.48,0,0,0,19,14.21l-1.11,1.93c-.35-.11-.7-.21-1.06-.29V13.63a10.16,10.16,0,0,0-3.24,0v2.22a8,8,0,0,0-1,.27l-1.12-1.94A10.8,10.8,0,0,0,8.7,15.79l1.12,1.93a9.2,9.2,0,0,0-.77.76L7.11,17.36a11,11,0,0,0-1.64,2.81l1.94,1.11a8.14,8.14,0,0,0-.31,1.1H4.88a10.16,10.16,0,0,0,0,3.24H7.1a8.67,8.67,0,0,0,.28,1L5.45,27.76a10.25,10.25,0,0,0,1.62,2.82L9,29.46a9.81,9.81,0,0,0,.79.79L8.67,32.18a10.25,10.25,0,0,0,2.82,1.62l1.11-1.93a8.67,8.67,0,0,0,1,.28v2.22a10.16,10.16,0,0,0,3.24,0V32.15a8.14,8.14,0,0,0,1.1-.31l1.11,1.94a11,11,0,0,0,2.81-1.64L20.77,30.2a9.2,9.2,0,0,0,.76-.77l1.93,1.12a10.8,10.8,0,0,0,1.61-2.82l-1.94-1.12a8,8,0,0,0,.27-1ZM15.25,28a4,4,0,1,1,4-4A4,4,0,0,1,15.25,28Z"/></g></svg>