<svg xmlns="http://www.w3.org/2000/svg" viewBox="0 0 32 32" enable-background="new 0 0 32 32"><g opacity=".2"><g><path d="m12 29h-8v-25h8.5l7.8 7.9v12.9h3v-14.1l-9.5-9.7h-12.8v31h11z"/><path fill="none" stroke="#000" stroke-width="3" stroke-miterlimit="10" d="m23.3 12.1h-11v-11.1"/></g><g fill="none" stroke="#000" stroke-width="3" stroke-miterlimit="10"><path d="m12.1 16.4v9"/><path d="m17.1 20.4l-5 5-5-5"/></g></g><circle cx="29.5" cy="29.5" r="2.5" opacity=".2"/><circle cx="16.5" cy="29.5" r="2.5" opacity=".2"/><circle cx="23" cy="29.5" r="2.5" opacity=".2"/><g fill="#fff"><path d="m9.6 15.4v5.3l-2.4-2.4-2.1 2.1 6 6.1 6.1-6.1-2.1-2.1-2.5 2.4v-5.3z"/><path d="m22.3 23.8v-14.1l-9.5-9.7h-12.8v31h11v-3h-8v-25h6.8v9.6h9.5v11.2h3m-9.5-14.2v-5.3l5.2 5.3h-5.2"/><circle cx="28.5" cy="28.5" r="2.5"/><circle cx="15.5" cy="28.5" r="2.5"/><circle cx="22" cy="28.5" r="2.5"/></g></svg>