<svg xmlns="http://www.w3.org/2000/svg" viewBox="0 0 16 16"><defs><style>.cls-1{isolation:isolate;}.cls-2{fill:none;}.cls-3{opacity:0.15;}.cls-4{fill:#8b9da5;}.cls-5{fill:#dbe0e4;}.cls-6{fill:#69768b;}.cls-7{fill:#fff;}.cls-8{fill:#2d3e50;}.cls-9{fill:#9a9fa4;opacity:0.3;mix-blend-mode:multiply;}</style></defs><title>icons</title><g class="cls-1"><g id="Layer_1" data-name="Layer 1"><g id="_Group_" data-name="&lt;Group&gt;"><rect id="_Rectangle_" data-name="&lt;Rectangle&gt;" class="cls-2" width="16" height="16" transform="translate(16 0) rotate(90)"/><g id="_Group_2" data-name="&lt;Group&gt;" class="cls-3"><polygon class="cls-4" points="15 16 15 13 16 13 16 4 15 4 15 1 2.53 1 2.53 4 1 4 1 13 2.53 13 2.53 16 15 16"/></g><g id="_Group_3" data-name="&lt;Group&gt;"><g id="_Group_4" data-name="&lt;Group&gt;"><rect class="cls-5" x="1.5" y="0.5" width="12" height="14"/><path class="cls-6" d="M13,1V14H2V1H13m1-1H1V15H14V0h0Z"/></g></g><g id="_Group_5" data-name="&lt;Group&gt;"><rect class="cls-7" x="0.5" y="3.5" width="14" height="8"/><path class="cls-8" d="M14,4v7H1V4H14m1-1H0v9H15V3h0Z"/></g><rect id="_Path_" data-name="&lt;Path&gt;" class="cls-9" x="1" y="12" width="13" height="1"/></g></g></g></svg>
