<svg xmlns="http://www.w3.org/2000/svg" xmlns:xlink="http://www.w3.org/1999/xlink" viewBox="0 0 32 32"><defs><style>.cls-1{fill:none;}.cls-2{isolation:isolate;}.cls-3{clip-path:url(#clip-path);}.cls-4{fill:#2d3e50;opacity:0.6;mix-blend-mode:multiply;}.cls-5{fill:#fff;}</style><clipPath id="clip-path"><rect class="cls-1" width="32" height="32"/></clipPath></defs><title>Series32</title><g class="cls-2"><g id="Layer_1" data-name="Layer 1"><g class="cls-3"><path class="cls-4" d="M28,3a4,4,0,0,0-4,4,4,4,0,0,0,.44,1.79l-5.13,5.14a4,4,0,0,0-1.79-.44,4,4,0,0,0-4,4A4,4,0,0,0,14,19.29L8.83,24.44A4,4,0,0,0,7,24a4,4,0,1,0,4,4,4,4,0,0,0-.44-1.79l5.13-5.14a4,4,0,0,0,1.79.44,4,4,0,0,0,4-4,4,4,0,0,0-.44-1.79l5.13-5.14A4,4,0,0,0,28,11,4,4,0,0,0,28,3Z"/><path class="cls-5" d="M25,0a4,4,0,0,0-4,4,4,4,0,0,0,.44,1.79l-5.13,5.14a4,4,0,0,0-1.79-.44,4,4,0,0,0-4,4,4,4,0,0,0,.44,1.79L5.79,21.44A4,4,0,0,0,4,21a4,4,0,1,0,4,4,4,4,0,0,0-.44-1.79l5.13-5.14a4,4,0,0,0,1.79.44,4,4,0,0,0,4-4A4,4,0,0,0,18,12.71l5.13-5.14A4,4,0,0,0,25,8,4,4,0,0,0,25,0Z"/></g></g></g></svg>
