<svg xmlns="http://www.w3.org/2000/svg" xmlns:xlink="http://www.w3.org/1999/xlink" viewBox="0 0 16 16"><defs><style>.cls-1{fill:none;}.cls-2{fill:url(#linear-gradient);}.cls-3{isolation:isolate;}.cls-4{clip-path:url(#clip-path);}.cls-5{fill:#8b9da5;opacity:0.15;mix-blend-mode:multiply;}.cls-6{fill:#26b298;}.cls-7{fill:#3b97d3;}.cls-8{fill:#e84d3d;}.cls-9{fill:url(#New_Pattern_Swatch_1);}</style><linearGradient id="linear-gradient" x1="8227" y1="-7987.62" x2="8242.31" y2="-7987.62" gradientTransform="matrix(1, 0, 0, -1, -8227, -7979.97)" gradientUnits="userSpaceOnUse"><stop offset="0.01" stop-color="#97999c"/><stop offset="1" stop-color="#97999c"/></linearGradient><clipPath id="clip-path"><rect class="cls-1" width="16" height="16"/></clipPath><pattern id="New_Pattern_Swatch_1" data-name="New Pattern Swatch 1" width="15.31" height="15.31" patternTransform="translate(9.45 -9.31)" patternUnits="userSpaceOnUse" viewBox="0 0 15.31 15.31"><rect class="cls-1" width="15.31" height="15.31"/><rect class="cls-2" width="15.31" height="15.31"/></pattern></defs><title>Icon</title><g class="cls-3"><g id="Layer_1" data-name="Layer 1"><g class="cls-4"><polygon id="_Path_" data-name="&lt;Path&gt;" class="cls-5" points="5 8 5 11 3 9 4 9 4 7 8 7 8 6 9 6 9 7 13 7 13 9 14 9 12 11 12 8 5 8"/><circle id="_Path_2" data-name="&lt;Path&gt;" class="cls-5" cx="8.5" cy="3" r="2"/><rect id="_Path_3" data-name="&lt;Path&gt;" class="cls-5" x="2" y="12" width="4" height="4"/><polygon id="_Path_4" data-name="&lt;Path&gt;" class="cls-5" points="13 12 11 16 15 16 13 12"/><circle id="_Path_5" data-name="&lt;Path&gt;" class="cls-6" cx="7.5" cy="2" r="2"/><rect id="_Path_6" data-name="&lt;Path&gt;" class="cls-7" x="1" y="11" width="4" height="4"/><polygon id="_Path_7" data-name="&lt;Path&gt;" class="cls-8" points="12 11 10 15 14 15 12 11"/><polygon id="_Path_8" data-name="&lt;Path&gt;" class="cls-9" points="4 7 4 10 2 8 3 8 3 6 7 6 7 5 8 5 8 6 12 6 12 8 13 8 11 10 11 7 4 7"/></g></g></g></svg>
