<svg xmlns="http://www.w3.org/2000/svg" viewBox="0 0 16 16" enable-background="new 0 0 16 16"><defs><linearGradient id="0" gradientUnits="userSpaceOnUse" y1="2.877" x2="0" y2="12.963"><stop offset=".005" stop-color="#fff"/><stop offset="1" stop-color="#eef0f2"/></linearGradient></defs><g opacity=".15"><path d="m14.6 15h-12.2c-.8 0-1.4-.6-1.4-1.4v-9.2c0-.8.6-1.4 1.4-1.4h12.1c.9 0 1.5.6 1.5 1.4v9.1c0 .9-.6 1.5-1.4 1.5" fill="#8b9da5"/></g><path d="m14 2h-13c-.5 0-1 .5-1 1v10c0 .6.5 1 1 1h13c.6 0 1-.5 1-1v-10c0-.5-.5-1-1-1" fill="#444546"/><path fill="url(#0)" d="m14 3v10h-13v-10h13"/><path fill="#b4bbc5" d="m13 4h-11v8h11v-8"/><path fill="#dae5ed" d="m12 5v6h-9v-6h9"/></svg>