<svg xmlns="http://www.w3.org/2000/svg" viewBox="0 0 16 16" enable-background="new 0 0 16 16"><g opacity=".15"><path d="m15 15h-13c-.6 0-1-.4-1-1v-10c0-.6.4-1 1-1h13c.6 0 1 .4 1 1v10c0 .6-.4 1-1 1" fill="#8b9da5"/></g><path d="m1 13.5c-.3 0-.5-.2-.5-.5v-10c0-.3.2-.5.5-.5h13c.3 0 .5.2.5.5v10c0 .3-.2.5-.5.5h-13" fill="#fff"/><path d="m14 3v10h-13v-10h13m0-1h-13c-.6 0-1 .4-1 1v10c0 .6.4 1 1 1h13c.6 0 1-.4 1-1v-10c0-.6-.4-1-1-1z" fill="#0072bc"/><path fill="#b4bbc5" d="m13 4h-11v8h11v-8"/><path fill="#dae5ed" d="m12 5v6h-9v-6h9"/></svg>