<svg xmlns="http://www.w3.org/2000/svg" xmlns:xlink="http://www.w3.org/1999/xlink" viewBox="0 0 32 32"><defs><clipPath id="clip-path"><rect id="_Rectangle_" data-name="&lt;Rectangle&gt;" width="32" height="32" fill="none"/></clipPath></defs><g style="isolation:isolate"><g id="Layer_1" data-name="Layer 1"><g id="_Clip_Group_" data-name="&lt;Clip Group&gt;"><g clip-path="url(#clip-path)"><g id="_Group_" data-name="&lt;Group&gt;"><rect id="_Path_" data-name="&lt;Path&gt;" x="4" y="4" width="8" height="8" rx="1" ry="1" fill="#2d3e50" opacity="0.6"/><rect id="_Path_2" data-name="&lt;Path&gt;" x="14" y="4" width="8" height="8" rx="1" ry="1" fill="#2d3e50" opacity="0.6"/><rect id="_Path_3" data-name="&lt;Path&gt;" x="24" y="4" width="8" height="8" rx="1" ry="1" fill="#2d3e50" opacity="0.6"/><rect id="_Path_4" data-name="&lt;Path&gt;" x="4" y="14" width="8" height="8" rx="1" ry="1" fill="#2d3e50" opacity="0.6"/><rect id="_Path_5" data-name="&lt;Path&gt;" x="4" y="24" width="8" height="8" rx="1" ry="1" fill="#2d3e50" opacity="0.6"/><rect id="_Path_6" data-name="&lt;Path&gt;" x="14" y="14" width="8" height="8" rx="1" ry="1" fill="#2d3e50" opacity="0.6"/></g><g id="_Group_2" data-name="&lt;Group&gt;"><rect id="_Path_7" data-name="&lt;Path&gt;" width="8" height="8" rx="1" ry="1" fill="#fff"/><rect id="_Path_8" data-name="&lt;Path&gt;" x="10" width="8" height="8" rx="1" ry="1" fill="#fff"/><rect id="_Path_9" data-name="&lt;Path&gt;" x="20" width="8" height="8" rx="1" ry="1" fill="#fff"/><rect id="_Path_10" data-name="&lt;Path&gt;" y="10" width="8" height="8" rx="1" ry="1" fill="#fff"/><rect id="_Path_11" data-name="&lt;Path&gt;" y="20" width="8" height="8" rx="1" ry="1" fill="#fff"/><rect id="_Path_12" data-name="&lt;Path&gt;" x="10" y="10" width="8" height="8" rx="1" ry="1" fill="#fff"/></g></g></g></g></g></svg>
