<svg xmlns="http://www.w3.org/2000/svg" xmlns:xlink="http://www.w3.org/1999/xlink" width="32" height="32" viewBox="0 0 32 32"><defs><style>.cls-1{fill:none;}.cls-2{isolation:isolate;}.cls-3{clip-path:url(#clip-path);}.cls-4{opacity:0.6;mix-blend-mode:multiply;}.cls-5{fill:#2d3e50;}.cls-6{fill:#fff;}</style><clipPath id="clip-path"><rect class="cls-1" width="32" height="32"/></clipPath></defs><title>FormSummaryOptions32</title><g class="cls-2"><g id="Layer_1" data-name="Layer 1"><g class="cls-3"><rect id="_Rectangle_" data-name="&lt;Rectangle&gt;" class="cls-1" width="32" height="32"/><g class="cls-4"><path class="cls-5" d="M30,4H6A2,2,0,0,0,4,6V30a2,2,0,0,0,2,2H30a2,2,0,0,0,2-2V6A2,2,0,0,0,30,4ZM29,29H7V7H29Z"/><rect class="cls-5" x="10" y="10.5" width="16" height="3"/><rect class="cls-5" x="10" y="16.5" width="16" height="3"/><rect class="cls-5" x="10" y="22.5" width="16" height="3"/></g><path class="cls-6" d="M26,0H2A2,2,0,0,0,0,2V26a2,2,0,0,0,2,2H26a2,2,0,0,0,2-2V2A2,2,0,0,0,26,0ZM25,25H3V3H25Z"/><rect class="cls-6" x="6" y="6.5" width="16" height="3"/><rect class="cls-6" x="6" y="12.5" width="16" height="3"/><rect class="cls-6" x="6" y="18.5" width="16" height="3"/></g></g></g></svg>