<svg id="Layer_1" data-name="Layer 1" xmlns="http://www.w3.org/2000/svg" xmlns:xlink="http://www.w3.org/1999/xlink" viewBox="0 0 16 16"><defs><clipPath id="clip-path"><rect id="_Rectangle_" data-name="&lt;Rectangle&gt;" width="16" height="16" fill="none"/></clipPath><linearGradient id="linear-gradient" x1="7.5" y1="1.1" x2="7.5" y2="13.9" gradientUnits="userSpaceOnUse"><stop offset="0.01" stop-color="#fff"/><stop offset="1" stop-color="#eef0f2"/></linearGradient></defs><title>a_</title><g clip-path="url(#clip-path)"><g id="_Group_" data-name="&lt;Group&gt;" opacity="0.15"><polyline points="14 16 3 16 3 1 9.74 1 14 5.11" fill="#444546"/></g><polygon points="8.74 0 2 0 2 15 13 15 13 4.11 8.74 0 8.74 0" fill="#3b97d3"/><polyline points="8.34 1 12 4.53 12 14 3 14 3 1 8.34 1" fill="url(#linear-gradient)"/><rect x="4" y="2.54" width="4.44" height="1.47" fill="#cee4f3"/><rect id="_Rectangle_2" data-name="&lt;Rectangle&gt;" x="5.77" y="4.8" width="5.23" height="0.88" fill="#9dcbe8"/><rect id="_Rectangle_3" data-name="&lt;Rectangle&gt;" x="5.77" y="6.57" width="5.23" height="0.88" fill="#9dcbe8"/><rect id="_Rectangle_4" data-name="&lt;Rectangle&gt;" x="5.77" y="8.33" width="5.23" height="0.88" fill="#9dcbe8"/><rect id="_Rectangle_5" data-name="&lt;Rectangle&gt;" x="5.77" y="10.1" width="5.23" height="0.88" fill="#9dcbe8"/><rect id="_Rectangle_6" data-name="&lt;Rectangle&gt;" x="4" y="4.8" width="0.88" height="0.88" fill="#26b298"/><rect id="_Rectangle_7" data-name="&lt;Rectangle&gt;" x="4" y="6.57" width="0.88" height="0.88" fill="#26b298"/><rect id="_Rectangle_8" data-name="&lt;Rectangle&gt;" x="4" y="8.33" width="0.88" height="0.88" fill="#eb802d"/><rect id="_Rectangle_9" data-name="&lt;Rectangle&gt;" x="4" y="10.1" width="0.88" height="0.88" fill="#eb802d"/><rect id="_Rectangle_10" data-name="&lt;Rectangle&gt;" x="5.77" y="11.87" width="5.23" height="0.88" fill="#9dcbe8"/><rect id="_Rectangle_11" data-name="&lt;Rectangle&gt;" x="4" y="11.87" width="0.88" height="0.88" fill="#e84d3d"/><polygon id="_Path_" data-name="&lt;Path&gt;" points="8.27 4.94 8.27 6.27 11.9 4.94 8.27 4.94" fill="#8b9da5" opacity="0.15"/><g id="_Group_2" data-name="&lt;Group&gt;"><polygon id="_Path_2" data-name="&lt;Path&gt;" points="12.09 4.61 8.27 4.61 8.27 1 12.09 4.61" fill="#dbe0e4"/><polygon points="13 5.07 13 4.16 8.73 4.16 8.73 0 7.81 0 7.81 5.07 13 5.07" fill="#3b97d3"/></g></g></svg>