<svg id="Layer_1" data-name="Layer 1" xmlns="http://www.w3.org/2000/svg" xmlns:xlink="http://www.w3.org/1999/xlink" viewBox="0 0 48 48"><defs><clipPath id="clip-path"><rect width="48" height="48" fill="none"/></clipPath></defs><title>Desi9n Icons 48</title><g clip-path="url(#clip-path)"><g id="_Group_" data-name="&lt;Group&gt;" opacity="0.15"><polygon points="41.25 46.52 12.25 46.52 12.25 5.52 30.02 5.52 41.25 16.74 41.25 46.52" fill="#8b9da5"/></g><g id="_Group_2" data-name="&lt;Group&gt;"><polygon points="39.25 44.52 10.25 44.52 10.25 3.52 28.02 3.52 39.25 14.74 39.25 44.52" fill="#fff"/></g><rect x="15.23" y="8.61" width="12.04" height="4" fill="#cee4f3"/><rect id="_Rectangle_" data-name="&lt;Rectangle&gt;" x="20.03" y="14.75" width="14.2" height="2.4" fill="#9dcbe8"/><rect id="_Rectangle_2" data-name="&lt;Rectangle&gt;" x="20.03" y="19.55" width="14.2" height="2.4" fill="#9dcbe8"/><rect id="_Rectangle_3" data-name="&lt;Rectangle&gt;" x="20.03" y="24.35" width="14.2" height="2.4" fill="#9dcbe8"/><rect id="_Rectangle_4" data-name="&lt;Rectangle&gt;" x="20.03" y="29.15" width="14.2" height="2.4" fill="#9dcbe8"/><rect id="_Rectangle_5" data-name="&lt;Rectangle&gt;" x="15.23" y="14.75" width="2.4" height="2.4" fill="#26b298"/><rect id="_Rectangle_6" data-name="&lt;Rectangle&gt;" x="15.23" y="19.55" width="2.4" height="2.4" fill="#26b298"/><rect id="_Rectangle_7" data-name="&lt;Rectangle&gt;" x="15.23" y="24.35" width="2.4" height="2.4" fill="#eb802d"/><rect id="_Rectangle_8" data-name="&lt;Rectangle&gt;" x="15.23" y="29.15" width="2.4" height="2.4" fill="#eb802d"/><rect id="_Rectangle_9" data-name="&lt;Rectangle&gt;" x="20.03" y="33.95" width="14.2" height="2.4" fill="#9dcbe8"/><rect id="_Rectangle_10" data-name="&lt;Rectangle&gt;" x="15.23" y="33.95" width="2.4" height="2.4" fill="#e84d3d"/><polygon id="_Path_" data-name="&lt;Path&gt;" points="25.96 16.77 25.96 20.24 38.25 16.77 25.96 16.77" fill="#8b9da5" opacity="0.15"/><polygon id="_Path_2" data-name="&lt;Path&gt;" points="11.25 43.52 11.25 4.52 27.61 4.52 38.25 15.16 38.25 43.52 11.25 43.52" fill="none" stroke="#3b97d3" stroke-miterlimit="10" stroke-width="2"/><polyline id="_Path_3" data-name="&lt;Path&gt;" points="38.25 15.77 26.98 15.77 26.98 4.52" fill="none" stroke="#3b97d3" stroke-miterlimit="10" stroke-width="2"/></g></svg>