<svg xmlns="http://www.w3.org/2000/svg" xmlns:xlink="http://www.w3.org/1999/xlink" viewBox="0 0 16 16" enable-background="new 0 0 16 16"><defs><linearGradient id="2" gradientUnits="userSpaceOnUse" y1="1.061" x2="0" y2="13.959"><stop offset=".005" stop-color="#fff"/><stop offset="1" stop-color="#eef0f2"/></linearGradient><linearGradient id="1" gradientUnits="userSpaceOnUse" x1="0" x2="15.31"><stop offset=".005" stop-color="#97999c"/><stop offset="1" stop-color="#97999c"/></linearGradient><pattern id="3" xlink:href="#0" patternTransform="matrix(1 0 0 1 10.0692 0)"/><pattern x="196" y="-84" width="15.3" height="15.3" patternUnits="userSpaceOnUse" id="0" viewBox="0 -15.3 15.3 15.3"><path fill="none" d="m0 0h15.3v-15.3h-15.3z"/><path fill="url(#1)" d="m15.3 0h-15.3v-15.3h15.3z"/></pattern><pattern id="4" xlink:href="#0" patternTransform="matrix(1 0 0 1 10.0692 0)"/></defs><g opacity=".15"><path d="m15.4 4.5c0 0 0 0 0 0v-2.2c0-.3-.2-.5-.5-.5h-2.7c-.3 0-.5.2-.5.5v2.1h-.8v-2.1c0-.3-.2-.5-.5-.5h-2.8c-.2 0-.5.2-.5.5v2.1h-.4c-.3 0-.5-.2-.5-.5v-1.9c0-.5-.4-1-1-1h-3.2c-.6 0-1 .4-1 1v13c0 .5.4 1 1 1h13c.5 0 1-.4 1-1v-9.6c0-.4-.2-.7-.6-.9" fill="#8b9da5"/></g><path d="m9.4.8h-2.8c-.2 0-.5.2-.5.5v2.2c0 .3.3.5.5.5h2.7c.3 0 .5-.2.5-.5v-2.2c.1-.3-.2-.5-.4-.5" fill="url(#3)"/><path opacity=".3" fill="#9a9fa4" d="m6.1 2.5h3.7v1h-3.7z"/><path d="m13.9.8h-2.7c-.3 0-.5.2-.5.5v2.2c0 .3.2.5.5.5h2.7c.3 0 .5-.2.5-.5v-2.2c0-.3-.2-.5-.5-.5" fill="url(#4)"/><path opacity=".3" fill="#9a9fa4" d="m10.7 2.5h3.7v1h-3.7z"/><path d="m4.3 0h-3.3c-.6 0-1 .4-1 1v13c0 .5.4 1 1 1h13c.5 0 1-.4 1-1v-9.6c0-.5-.4-1-1-1h-8.3c-.3 0-.5-.2-.5-.5v-1.9c.1-.6-.4-1-.9-1" fill="#444546"/><path d="m4.3 1v2c0 .8.7 1.5 1.5 1.5h8.3v9.6l-13.1-.1v-13h3.3" fill="url(#2)"/><path fill="#e0e0e0" d="m2.1 5.8h11v7h-11z"/></svg>