<svg xmlns="http://www.w3.org/2000/svg" viewBox="0 0 48 48" enable-background="new 0 0 48 48"><path d="m45.7 12.6v-6c0-.6-.4-1-1-1h-25.3c-.6 0-1-.4-1-1v-.4c0-.6-.4-1-1-1h-14c-.6 0-1 .4-1 1v9.4 33.4c0 .6.4 1 1 1h43.6c.6 0 1-.4 1-1v-32.4c0-.6-.4-1-1-1h-.3c-.6 0-1-.4-1-1" opacity=".15" fill="#8b9da5"/><path d="m27.6 2.4h-7.2c-1.1 0-2 .9-2 2v5.6c0 1.1.9 2 2 2h7.2c1.1 0 2-.9 2-2v-5.6c0-1.1-.9-2-2-2" fill="#9dcbe8"/><g fill="#9a9fa4"><path opacity=".25" d="m18.4 9.6h11.2v.8h-11.2z"/><path opacity=".1" d="m18.4 8.8h11.2v.8h-11.2z"/></g><path d="m41.2 2.4h-7.2c-1.1 0-2 .9-2 2v5.6c0 1.1.9 2 2 2h7.2c1.1 0 2-.9 2-2v-5.6c0-1.1-.8-2-2-2" fill="#9dcbe8"/><g fill="#9a9fa4"><path opacity=".25" d="m32 9.6h11.2v.8h-11.2z"/><path opacity=".1" d="m32 8.8h11.2v.8h-11.2z"/></g><path d="m16 9.9v-7.9c0-1.1-.9-2-2-2h-12c-1.1 0-2 .9-2 2v41.6c0 1.1.9 2 2 2h41.6c1.1 0 2-.9 2-2v-31.2c0-1.1-.9-2-2-2h-27.1c-.3 0-.5-.2-.5-.5" fill="#fff"/><path d="m40.6 15.2h-35.6c-.6 0-1 .4-1 1v24.4c0 .6.4 1 1 1h35.6c.6 0 1-.4 1-1v-24.4c0-.6-.4-1-1-1" fill="#e8f2fa"/></svg>