<svg xmlns="http://www.w3.org/2000/svg" viewBox="0 0 48 48" enable-background="new 0 0 48 48"><path d="m44 11.6v-7.2c0-1.1-.9-2-2-2h-15.2c-1.1 0-2 .9-2 2v8c0 .7-.5 1.2-1.2 1.2-.7 0-1.2-.5-1.2-1.2v-5.6c0-1.1-.9-2-2-2h-16c-1.1 0-2 .9-2 2v39.2c0 1.1.9 2 2 2h41.6c1.1 0 2-.9 2-2v-30.4c0-1.1-.9-2-2-2-1.1 0-2-.9-2-2" opacity=".15" fill="#8b9da5"/><path d="m18 2.4h-14.4c-1.1 0-2 .9-2 2v5.6c0 1.1.9 2 2 2h14.4c1.1 0 2-.9 2-2v-5.6c0-1.1-.8-2-2-2" fill="#9dcbe8"/><g fill="#9a9fa4"><path opacity=".25" d="m1.6 9.6h18.4v.8h-18.4z"/><path opacity=".1" d="m1.6 8.8h18.4v.8h-18.4z"/></g><path d="m41.6 9.9v-7.9c0-1.1-.9-2-2-2h-15.2c-1.1 0-2 .9-2 2v7.9c0 .3-.2.5-.5.5h-19.9c-1.1 0-2 .9-2 2v31.2c0 1.1.9 2 2 2h41.6c1.1 0 2-.9 2-2v-31.2c0-1.1-.9-2-2-2h-1.5c-.3 0-.5-.2-.5-.5" fill="#fff"/><path d="m.8 43.8v-31.6c0-.6.4-1 1-1h20.4c.6 0 1-.4 1-1v-8.4c0-.6.4-1 1-1h15.6c.6 0 1 .4 1 1v8.4c0 .6.4 1 1 1h2c.6 0 1 .4 1 1v31.6c0 .6-.4 1-1 1h-42c-.6 0-1-.4-1-1z" stroke-dasharray="2.3975 2.3975" fill="none" stroke="#3b97d3" stroke-width="1.6" stroke-miterlimit="10"/><path d="m40.6 15.2h-35.6c-.6 0-1 .4-1 1v24.4c0 .6.4 1 1 1h35.6c.6 0 1-.4 1-1v-24.4c0-.6-.4-1-1-1" fill="#e8f2fa"/></svg>