<svg xmlns="http://www.w3.org/2000/svg" viewBox="0 0 16 16" enable-background="new 0 0 16 16"><defs><linearGradient id="0" gradientUnits="userSpaceOnUse" y1=".917" x2="0" y2="14.01"><stop offset=".005" stop-color="#fff"/><stop offset="1" stop-color="#eef0f2"/></linearGradient></defs><g opacity=".15"><path d="m12 3.9v-1.9c0-.5-.4-1-1-1h-5c-.6 0-1 .4-1 1v1.9c0 .3-.2.5-.5.5h-2.5c-.5 0-1 .4-1 1v9.6c0 .5.4 1 1 1h13c.5 0 1-.4 1-1v-9.6c0-.5-.4-1-1-1h-2.5c-.3 0-.5-.2-.5-.5" fill="#8b9da5"/></g><path d="m10 0h-5c-.5 0-1 .4-1 1v1.9c0 .3-.2.5-.5.5h-2.5c-.6 0-1 .4-1 1v9.6c0 .6.4 1 1 1h13c.6 0 1-.4 1-1v-9.6c0-.6-.4-1-1-1h-2.5c-.3 0-.5-.2-.5-.5v-1.9c0-.6-.4-1-1-1" fill="#444546"/><path d="M10,1v1.9c0,0.8,0.7,1.5,1.5,1.5H14V14H1V4.4h2.5C4.3,4.4,5,3.7,5,2.9L5,1H10" fill="url(#0)"/><path fill="#e0e0e0" d="m2.1 5.8h11v7h-11z"/></svg>