<svg id="Layer_1" data-name="Layer 1" xmlns="http://www.w3.org/2000/svg" xmlns:xlink="http://www.w3.org/1999/xlink" viewBox="0 0 48 48"><defs><style>.cls-1,.cls-8{fill:none;}.cls-2{clip-path:url(#clip-path);}.cls-3,.cls-7{opacity:0.15;}.cls-4,.cls-7{fill:#8b9da5;}.cls-5{fill:#fff;}.cls-6{fill:#cee4f3;}.cls-8{stroke:#3b97d3;stroke-miterlimit:10;stroke-width:2px;}.cls-9{fill:#277247;}</style><clipPath id="clip-path"><rect class="cls-1" width="48" height="48"/></clipPath></defs><title>IX</title><g class="cls-2"><g id="_Group_" data-name="&lt;Group&gt;"><g id="_Group_2" data-name="&lt;Group&gt;" class="cls-3"><polygon class="cls-4" points="41.25 46.52 12.25 46.52 12.25 5.52 30.02 5.52 41.25 16.74 41.25 46.52"/></g><g id="_Group_3" data-name="&lt;Group&gt;"><polygon class="cls-5" points="39.25 44.52 10.25 44.52 10.25 3.52 28.02 3.52 39.25 14.74 39.25 44.52"/></g><rect class="cls-6" x="26.25" y="18.02" width="8.02" height="12.01"/><rect class="cls-6" x="15.23" y="8.75" width="12.04" height="6.26"/><rect class="cls-6" x="15.23" y="33.03" width="19.04" height="6.26"/><rect class="cls-6" x="15.23" y="18.02" width="8.02" height="12.01"/><polygon id="_Path_" data-name="&lt;Path&gt;" class="cls-7" points="25.96 16.77 25.96 20.24 38.25 16.77 25.96 16.77"/><polygon id="_Path_2" data-name="&lt;Path&gt;" class="cls-8" points="11.25 43.52 11.25 4.52 27.61 4.52 38.25 15.16 38.25 43.52 11.25 43.52"/><polyline id="_Path_3" data-name="&lt;Path&gt;" class="cls-8" points="38.25 15.77 26.98 15.77 26.98 4.52"/></g></g><rect class="cls-9" x="22" y="18.9" width="22" height="22"/><path class="cls-5" d="M41.33,23.51H34.68v.94h2.45v1.72H34.68v.54h2.45V28.4H34.68v.54h2.45v1.69H34.68v.54h2.45v1.69H34.68v.54h2.45V35.1H34.68v1.11h6.65c.19,0,.29-.1.29-.24V23.75C41.63,23.61,41.52,23.51,41.33,23.51ZM40.54,35.1H37.7V33.41h2.84Zm0-2.24H37.7V31.18h2.84Zm0-2.23H37.7V28.95h2.84Zm0-2.23H37.7V26.72h2.84Zm0-2.23H37.7V24.46h2.84Z"/><path class="cls-5" d="M24.37,36.45l9.91,1.74V21.62l-9.91,1.7ZM27.48,27l1.16-.09.64,1.7a3.57,3.57,0,0,1,.14.49h0q0-.17.14-.51l.75-1.8,1.24-.1-1.47,3.07,1.51,3.12-1.32-.1-.8-2a2.07,2.07,0,0,1-.09-.39h0a3.54,3.54,0,0,1-.1.4l-.77,1.82-1.13-.09,1.35-2.77Z"/></svg>