<svg id="Layer_1" data-name="Layer 1" xmlns="http://www.w3.org/2000/svg" xmlns:xlink="http://www.w3.org/1999/xlink" viewBox="0 0 48 48"><defs><style>.cls-1,.cls-8{fill:none;}.cls-2{clip-path:url(#clip-path);}.cls-3,.cls-7{opacity:0.15;}.cls-4,.cls-7{fill:#8b9da5;}.cls-5{fill:#fff;}.cls-6{fill:#cee4f3;}.cls-8{stroke:#3b97d3;stroke-miterlimit:10;stroke-width:2px;}.cls-10,.cls-9{fill:#3b97d3;}.cls-10{font-size:5.82px;font-family:SegoeUIBlack, Segoe UI;letter-spacing:-0.1em;}</style><clipPath id="clip-path"><rect class="cls-1" width="48" height="48"/></clipPath></defs><title>IX</title><g class="cls-2"><g id="_Group_" data-name="&lt;Group&gt;"><g id="_Group_2" data-name="&lt;Group&gt;" class="cls-3"><polygon class="cls-4" points="41.25 46.52 12.25 46.52 12.25 5.52 30.02 5.52 41.25 16.74 41.25 46.52"/></g><g id="_Group_3" data-name="&lt;Group&gt;"><polygon class="cls-5" points="39.25 44.52 10.25 44.52 10.25 3.52 28.02 3.52 39.25 14.74 39.25 44.52"/></g><rect class="cls-6" x="26.25" y="18.02" width="8.02" height="12.01"/><rect class="cls-6" x="15.23" y="8.75" width="12.04" height="6.26"/><rect class="cls-6" x="15.23" y="33.03" width="19.04" height="6.26"/><rect class="cls-6" x="15.23" y="18.02" width="8.02" height="12.01"/><polygon id="_Path_" data-name="&lt;Path&gt;" class="cls-7" points="25.96 16.77 25.96 20.24 38.25 16.77 25.96 16.77"/><polygon id="_Path_2" data-name="&lt;Path&gt;" class="cls-8" points="11.25 43.52 11.25 4.52 27.61 4.52 38.25 15.16 38.25 43.52 11.25 43.52"/><polyline id="_Path_3" data-name="&lt;Path&gt;" class="cls-8" points="38.25 15.77 26.98 15.77 26.98 4.52"/></g></g><rect class="cls-5" x="23" y="19.9" width="20" height="20"/><path class="cls-9" d="M42,20.9v18H24v-18H42m2-2H22v22H44v-22Z"/><text class="cls-10" transform="translate(25.23 37.38)">HTML</text><path class="cls-9" d="M29.13,30.66l-3.67-3.09,3.67-3.09.85.86-2.7,2.22L30,29.8Z"/><path class="cls-9" d="M31.61,31.71H30.31l3.8-8.87h1.3Z"/><path class="cls-9" d="M36.84,24.48l3.67,3.09-3.67,3.09L36,29.8l2.7-2.22L36,25.34Z"/></svg>