<svg id="Layer_1" data-name="Layer 1" xmlns="http://www.w3.org/2000/svg" xmlns:xlink="http://www.w3.org/1999/xlink" viewBox="0 0 48 48"><defs><style>.cls-1,.cls-8{fill:none;}.cls-2{clip-path:url(#clip-path);}.cls-3,.cls-7{opacity:0.15;}.cls-4,.cls-7{fill:#8b9da5;}.cls-5{fill:#fff;}.cls-6{fill:#cee4f3;}.cls-8{stroke:#3b97d3;stroke-miterlimit:10;stroke-width:2px;}.cls-9{fill:#c94b31;}</style><clipPath id="clip-path"><rect class="cls-1" width="48" height="48"/></clipPath></defs><title>IX</title><g class="cls-2"><g id="_Group_" data-name="&lt;Group&gt;"><g id="_Group_2" data-name="&lt;Group&gt;" class="cls-3"><polygon class="cls-4" points="41.25 46.52 12.25 46.52 12.25 5.52 30.02 5.52 41.25 16.74 41.25 46.52"/></g><g id="_Group_3" data-name="&lt;Group&gt;"><polygon class="cls-5" points="39.25 44.52 10.25 44.52 10.25 3.52 28.02 3.52 39.25 14.74 39.25 44.52"/></g><rect class="cls-6" x="26.25" y="18.02" width="8.02" height="12.01"/><rect class="cls-6" x="15.23" y="8.75" width="12.04" height="6.26"/><rect class="cls-6" x="15.23" y="33.03" width="19.04" height="6.26"/><rect class="cls-6" x="15.23" y="18.02" width="8.02" height="12.01"/><polygon id="_Path_" data-name="&lt;Path&gt;" class="cls-7" points="25.96 16.77 25.96 20.24 38.25 16.77 25.96 16.77"/><polygon id="_Path_2" data-name="&lt;Path&gt;" class="cls-8" points="11.25 43.52 11.25 4.52 27.61 4.52 38.25 15.16 38.25 43.52 11.25 43.52"/><polyline id="_Path_3" data-name="&lt;Path&gt;" class="cls-8" points="38.25 15.77 26.98 15.77 26.98 4.52"/></g></g><rect class="cls-9" x="22" y="18.9" width="22" height="22"/><path class="cls-5" d="M41.33,24.75H34.69v.77h6.26V33.8h.39a.27.27,0,0,0,.3-.26V25A.27.27,0,0,0,41.33,24.75Z"/><path class="cls-5" d="M40.05,26H34.6v1a2.2,2.2,0,0,1,.9-.19V29h2.21a2.2,2.2,0,0,1-3.11,2v.78h4v.8h-4v.67h4V34h-4v1h5.45a.27.27,0,0,0,.3-.26V26.23A.27.27,0,0,0,40.05,26Zm-4.27,2.75V26.51A2.21,2.21,0,0,1,38,28.71Z"/><path class="cls-5" d="M30.06,28.94c0-.6-.27-.89-.81-.86l-.38,0v1.77h.38C29.79,29.87,30.06,29.56,30.06,28.94Z"/><path class="cls-5" d="M24.37,36.43l9.91,1.74V21.6l-9.91,1.7Zm3.55-9.25,1.5-.11c1.15-.09,1.75.51,1.75,1.79a2.07,2.07,0,0,1-.52,1.47,1.67,1.67,0,0,1-1.32.52h-.47v2l-.94-.07Z"/></svg>