<svg id="Layer_1" data-name="Layer 1" xmlns="http://www.w3.org/2000/svg" xmlns:xlink="http://www.w3.org/1999/xlink" viewBox="0 0 48 48"><defs><style>.cls-1,.cls-8{fill:none;}.cls-2{clip-path:url(#clip-path);}.cls-3,.cls-7{opacity:0.15;}.cls-4,.cls-7{fill:#8b9da5;}.cls-5{fill:#fff;}.cls-6{fill:#cee4f3;}.cls-8{stroke:#3b97d3;stroke-width:2px;}.cls-10,.cls-8{stroke-miterlimit:10;}.cls-10,.cls-9{fill:#ea1f25;}.cls-10{stroke:#ea1f25;stroke-width:0.75px;}</style><clipPath id="clip-path"><rect class="cls-1" width="48" height="48"/></clipPath></defs><title>IX</title><g class="cls-2"><g id="_Group_" data-name="&lt;Group&gt;"><g id="_Group_2" data-name="&lt;Group&gt;" class="cls-3"><polygon class="cls-4" points="41.25 46.52 12.25 46.52 12.25 5.52 30.02 5.52 41.25 16.74 41.25 46.52"/></g><g id="_Group_3" data-name="&lt;Group&gt;"><polygon class="cls-5" points="39.25 44.52 10.25 44.52 10.25 3.52 28.02 3.52 39.25 14.74 39.25 44.52"/></g><rect class="cls-6" x="26.25" y="18.02" width="8.02" height="12.01"/><rect class="cls-6" x="15.23" y="8.75" width="12.04" height="6.26"/><rect class="cls-6" x="15.23" y="33.03" width="19.04" height="6.26"/><rect class="cls-6" x="15.23" y="18.02" width="8.02" height="12.01"/><polygon id="_Path_" data-name="&lt;Path&gt;" class="cls-7" points="25.96 16.77 25.96 20.24 38.25 16.77 25.96 16.77"/><polygon id="_Path_2" data-name="&lt;Path&gt;" class="cls-8" points="11.25 43.52 11.25 4.52 27.61 4.52 38.25 15.16 38.25 43.52 11.25 43.52"/><polyline id="_Path_3" data-name="&lt;Path&gt;" class="cls-8" points="38.25 15.77 26.98 15.77 26.98 4.52"/></g></g><rect class="cls-5" x="23" y="19.9" width="20" height="20"/><path class="cls-9" d="M42,20.9v18H24v-18H42m2-2H22v22H44v-22Z"/><path class="cls-10" d="M33.61,24.54a10.91,10.91,0,0,1-.44,2.63c-.1.36-.21.73-.32,1.09a.21.21,0,0,0,0,.18,14.72,14.72,0,0,0,1.56,2.25c.25.3.53.58.8.85a.19.19,0,0,0,.19.06,13.26,13.26,0,0,1,2.77-.21,4.61,4.61,0,0,1,1.72.34,1.18,1.18,0,0,1,.79.86.89.89,0,0,1-.48,1,2.13,2.13,0,0,1-1.12.17,6.08,6.08,0,0,1-3.31-1.35c-.17-.13-.33-.26-.48-.4a.24.24,0,0,0-.22-.06,29.26,29.26,0,0,0-3.65.92,1.89,1.89,0,0,0-.6.22,1.84,1.84,0,0,0-.33.52,14.35,14.35,0,0,1-1.86,2.56,4.33,4.33,0,0,1-1.46,1.09,1.64,1.64,0,0,1-1.26,0,1,1,0,0,1-.62-.66A.89.89,0,0,1,25.4,36a2.72,2.72,0,0,1,.61-.76,6.84,6.84,0,0,1,.81-.62,13,13,0,0,1,1.81-1c.31-.14.62-.28.94-.4.12,0,.14-.17.2-.26.23-.43.46-.86.67-1.3a39.17,39.17,0,0,0,1.57-4,.22.22,0,0,0,0-.17,9.76,9.76,0,0,1-.76-2.5,4.12,4.12,0,0,1,0-1.82,1,1,0,0,1,.87-.79,1.17,1.17,0,0,1,1.06.5A2.35,2.35,0,0,1,33.58,24,3.57,3.57,0,0,1,33.61,24.54Zm-.91,4.2a26.58,26.58,0,0,1-1.67,4,29.9,29.9,0,0,1,3.91-1A17.26,17.26,0,0,1,32.7,28.74Zm-3.34,4.89-.07,0a15.48,15.48,0,0,0-2,1,5.77,5.77,0,0,0-1.31,1,1.5,1.5,0,0,0-.34.55.59.59,0,0,0,.6.8,1.21,1.21,0,0,0,.6-.23,4.11,4.11,0,0,0,.81-.7,14,14,0,0,0,1.72-2.4S29.38,33.66,29.36,33.63Zm6.24-1.76a6.59,6.59,0,0,0,2.51,1.42,1.67,1.67,0,0,0,1.11,0,.75.75,0,0,0,.52-.73.73.73,0,0,0-.48-.71,2.11,2.11,0,0,0-.7-.16,11.19,11.19,0,0,0-3,.16Zm-3.44-4.68a14.18,14.18,0,0,0,.68-3.2,1.91,1.91,0,0,0-.12-.92.57.57,0,0,0-.39-.35.6.6,0,0,0-.7.35,2,2,0,0,0-.19.85,5.83,5.83,0,0,0,.15,1.55A9.66,9.66,0,0,0,32.16,27.18Z"/></svg>