<svg id="Layer_1" data-name="Layer 1" xmlns="http://www.w3.org/2000/svg" xmlns:xlink="http://www.w3.org/1999/xlink" viewBox="0 0 48 48"><defs><style>.cls-1,.cls-8{fill:none;}.cls-2{clip-path:url(#clip-path);}.cls-3,.cls-7{opacity:0.15;}.cls-4,.cls-7{fill:#8b9da5;}.cls-5{fill:#fff;}.cls-6{fill:#cee4f3;}.cls-8{stroke:#3b97d3;stroke-miterlimit:10;stroke-width:2px;}.cls-12,.cls-9{fill:#444546;}.cls-10{fill:url(#linear-gradient);}.cls-11{fill:url(#linear-gradient-2);}.cls-12{font-size:5.73px;font-family:SegoeUIBlack, Segoe UI;}</style><clipPath id="clip-path"><rect class="cls-1" width="48" height="48"/></clipPath><linearGradient id="linear-gradient" x1="31.26" y1="25.39" x2="36.61" y2="30.75" gradientUnits="userSpaceOnUse"><stop offset="0" stop-color="#fff"/><stop offset="1" stop-color="#444546"/></linearGradient><linearGradient id="linear-gradient-2" x1="34.77" y1="29.81" x2="29.31" y2="24.35" xlink:href="#linear-gradient"/></defs><title>IX</title><g class="cls-2"><g id="_Group_" data-name="&lt;Group&gt;"><g id="_Group_2" data-name="&lt;Group&gt;" class="cls-3"><polygon class="cls-4" points="41.25 46.52 12.25 46.52 12.25 5.52 30.02 5.52 41.25 16.74 41.25 46.52"/></g><g id="_Group_3" data-name="&lt;Group&gt;"><polygon class="cls-5" points="39.25 44.52 10.25 44.52 10.25 3.52 28.02 3.52 39.25 14.74 39.25 44.52"/></g><rect class="cls-6" x="26.25" y="18.02" width="8.02" height="12.01"/><rect class="cls-6" x="15.23" y="8.75" width="12.04" height="6.26"/><rect class="cls-6" x="15.23" y="33.03" width="19.04" height="6.26"/><rect class="cls-6" x="15.23" y="18.02" width="8.02" height="12.01"/><polygon id="_Path_" data-name="&lt;Path&gt;" class="cls-7" points="25.96 16.77 25.96 20.24 38.25 16.77 25.96 16.77"/><polygon id="_Path_2" data-name="&lt;Path&gt;" class="cls-8" points="11.25 43.52 11.25 4.52 27.61 4.52 38.25 15.16 38.25 43.52 11.25 43.52"/><polyline id="_Path_3" data-name="&lt;Path&gt;" class="cls-8" points="38.25 15.77 26.98 15.77 26.98 4.52"/></g></g><rect class="cls-5" x="23" y="19.9" width="20" height="20"/><path class="cls-9" d="M42,20.9v18H24v-18H42m2-2H22v22H44v-22Z"/><path class="cls-10" d="M33,22.68h0a1.74,1.74,0,0,1,.39.06,3.36,3.36,0,0,1,1.52.82,4.52,4.52,0,0,1,1.24,3.08q0,.12,0,.24a3.92,3.92,0,0,1-.53,2,2.63,2.63,0,0,1-2.11,1.24h0a1.63,1.63,0,0,1-.62-.16h0a2.38,2.38,0,0,1-1.4-2.28,2.49,2.49,0,0,1,1.5-2.45,1.63,1.63,0,0,0-.62-.16,2.2,2.2,0,0,0-.59.08,2.38,2.38,0,0,0-1.45,1,3.42,3.42,0,0,0-.62,2.05q0,.16,0,.32A4.23,4.23,0,0,0,31,31.62a3,3,0,0,0,1.59.84l.34,0H33a4.91,4.91,0,0,0,0-9.82Z"/><path class="cls-11" d="M33,32.5h0a1.74,1.74,0,0,1-.39-.06A3.36,3.36,0,0,1,31,31.62a4.52,4.52,0,0,1-1.24-3.08q0-.12,0-.24a3.92,3.92,0,0,1,.53-2,2.63,2.63,0,0,1,2.11-1.24h0a1.63,1.63,0,0,1,.62.16h0a2.38,2.38,0,0,1,1.4,2.28A2.49,2.49,0,0,1,32.95,30a1.63,1.63,0,0,0,.62.16,2.2,2.2,0,0,0,.59-.08,2.38,2.38,0,0,0,1.45-1A3.42,3.42,0,0,0,36.23,27q0-.16,0-.32A4.23,4.23,0,0,0,35,23.56a3,3,0,0,0-1.59-.84l-.34,0H33a4.91,4.91,0,0,0,0,9.82Z"/><text class="cls-12" transform="translate(25.38 37.24)">JSON</text></svg>