<svg id="Layer_1" data-name="Layer 1" xmlns="http://www.w3.org/2000/svg" xmlns:xlink="http://www.w3.org/1999/xlink" viewBox="0 0 48 48"><defs><style>.cls-1,.cls-8{fill:none;}.cls-2{clip-path:url(#clip-path);}.cls-3,.cls-7{opacity:0.15;}.cls-4,.cls-7{fill:#8b9da5;}.cls-5{fill:#fff;}.cls-6{fill:#cee4f3;}.cls-8{stroke:#3b97d3;stroke-miterlimit:10;stroke-width:2px;}.cls-10,.cls-9{fill:#f26522;}.cls-10{font-size:6.19px;font-family:SegoeUIBlack, Segoe UI;}</style><clipPath id="clip-path"><rect class="cls-1" y="-0.12" width="48" height="48"/></clipPath></defs><title>IX</title><g class="cls-2"><g id="_Group_" data-name="&lt;Group&gt;"><g id="_Group_2" data-name="&lt;Group&gt;" class="cls-3"><polygon class="cls-4" points="41.25 46.41 12.25 46.41 12.25 5.41 30.02 5.41 41.25 16.63 41.25 46.41"/></g><g id="_Group_3" data-name="&lt;Group&gt;"><polygon class="cls-5" points="39.25 44.41 10.25 44.41 10.25 3.41 28.02 3.41 39.25 14.63 39.25 44.41"/></g><rect class="cls-6" x="26.25" y="17.9" width="8.02" height="12.01"/><rect class="cls-6" x="15.23" y="8.64" width="12.04" height="6.26"/><rect class="cls-6" x="15.23" y="32.91" width="19.04" height="6.26"/><rect class="cls-6" x="15.23" y="17.9" width="8.02" height="12.01"/><polygon id="_Path_" data-name="&lt;Path&gt;" class="cls-7" points="25.96 16.66 25.96 20.13 38.25 16.66 25.96 16.66"/><polygon id="_Path_2" data-name="&lt;Path&gt;" class="cls-8" points="11.25 43.41 11.25 4.41 27.61 4.41 38.25 15.04 38.25 43.41 11.25 43.41"/><polyline id="_Path_3" data-name="&lt;Path&gt;" class="cls-8" points="38.25 15.66 26.98 15.66 26.98 4.41"/></g></g><rect class="cls-5" x="23" y="19.78" width="20" height="20"/><path class="cls-9" d="M42,20.78v18H24v-18H42m2-2H22v22H44v-22Z"/><text class="cls-10" transform="translate(26.1 37.67)">XML</text><path class="cls-9" d="M28.9,30.53,25,27.24,28.9,24l.9.92-2.87,2.35,2.87,2.39Z"/><path class="cls-9" d="M31.53,31.64H30.16l4-9.42h1.38Z"/><path class="cls-9" d="M37.1,24,41,27.24l-3.9,3.29-.9-.91,2.87-2.36L36.2,24.88Z"/></svg>