<svg id="Layer_1" data-name="Layer 1" xmlns="http://www.w3.org/2000/svg" xmlns:xlink="http://www.w3.org/1999/xlink" viewBox="0 0 48 48"><defs><style>.cls-1,.cls-8{fill:none;}.cls-2{clip-path:url(#clip-path);}.cls-3,.cls-7{opacity:0.15;}.cls-4,.cls-7{fill:#8b9da5;}.cls-5{fill:#fff;}.cls-6{fill:#cee4f3;}.cls-8{stroke:#3b97d3;stroke-miterlimit:10;stroke-width:2px;}.cls-9{fill:#444546;}.cls-10{fill:#26b298;}.cls-11{fill:#e84d3d;}</style><clipPath id="clip-path"><rect class="cls-1" width="48" height="48"/></clipPath></defs><title>IX</title><g class="cls-2"><g id="_Group_" data-name="&lt;Group&gt;"><g id="_Group_2" data-name="&lt;Group&gt;" class="cls-3"><polygon class="cls-4" points="41.25 46.52 12.25 46.52 12.25 5.52 30.02 5.52 41.25 16.74 41.25 46.52"/></g><g id="_Group_3" data-name="&lt;Group&gt;"><polygon class="cls-5" points="39.25 44.52 10.25 44.52 10.25 3.52 28.02 3.52 39.25 14.74 39.25 44.52"/></g><rect class="cls-6" x="26.25" y="18.02" width="8.02" height="12.01"/><rect class="cls-6" x="15.23" y="8.75" width="12.04" height="6.26"/><rect class="cls-6" x="15.23" y="33.03" width="19.04" height="6.26"/><rect class="cls-6" x="15.23" y="18.02" width="8.02" height="12.01"/><polygon id="_Path_" data-name="&lt;Path&gt;" class="cls-7" points="25.96 16.77 25.96 20.24 38.25 16.77 25.96 16.77"/><polygon id="_Path_2" data-name="&lt;Path&gt;" class="cls-8" points="11.25 43.52 11.25 4.52 27.61 4.52 38.25 15.16 38.25 43.52 11.25 43.52"/><polyline id="_Path_3" data-name="&lt;Path&gt;" class="cls-8" points="38.25 15.77 26.98 15.77 26.98 4.52"/></g></g><rect class="cls-5" x="23" y="19.9" width="20" height="20"/><path class="cls-9" d="M42,20.9v18H24v-18H42m2-2H22v22H44v-22Z"/><g id="_Group_4" data-name="&lt;Group&gt;"><polygon class="cls-10" points="30.23 30.9 26 26.75 27.37 25.4 30.23 28.21 35.63 22.9 37 24.24 30.23 30.9"/></g><polygon id="_Path_4" data-name="&lt;Path&gt;" class="cls-11" points="41 31.2 39.63 29.9 36.81 32.6 33.98 29.9 32.61 31.2 35.44 33.9 32.61 36.6 33.98 37.9 36.81 35.2 39.63 37.9 41 36.6 38.17 33.9 41 31.2"/></svg>