<svg xmlns="http://www.w3.org/2000/svg" viewBox="0 0 16 16" enable-background="new 0 0 16 16"><defs><linearGradient id="0" gradientUnits="userSpaceOnUse" y1="2.02" x2="0" y2="13.13"><stop offset=".005" stop-color="#fff"/><stop offset="1" stop-color="#eef0f2"/></linearGradient></defs><path opacity=".15" fill="#8b9da5" d="m3 15l2-2 1.9 2 2.5-2.5 2.4 2.3 2.2-2.2v-5.6l-5-5h-6v13"/><path fill="#444546" d="m2 14l2-2 1.9 2 2.5-2.5 2.4 2.3 2.2-2.2v-5.6l-5-5h-6v13"/><path fill="#dbe0e4" d="m8 2.4v3.6h3.6z"/><path fill="url(#0)" d="m7 7v-5h-4v10.3l1-1 1.9 2 2.5-2.5 2.4 2.3 1.2-1.2v-4.9z"/><g fill="#b4bbc5"><path d="m6.9 10.3l-.4-1.3h-1.9l-.5 1.4h-.9l1.8-4.9h1l1.8 4.9h-.9zm-.7-2l-.4-1.4c0-.1-.1-.2-.1-.4-.1-.2-.2-.3-.2-.4 0 .3-.1.6-.2.9l-.5 1.3h1.4"/><path d="m8.7 7.4c.2-.1.3-.1.5-.2.2-.1.4-.1.5-.1.2 0 .4.1.5.2.1.1.2.3.2.5v.2h-.6c-.6 0-1 .1-1.3.3-.3.3-.4.6-.4 1 0 .4.1.6.3.8s.5.3.9.3c.3 0 .5 0 .7-.1s.4-.2.5-.5l.2.5h.6v-2.5c0-.4-.1-.7-.3-.9h-2.5l.2.5m1.8 1.5c0 .3-.1.5-.3.7-.2.1-.4.2-.7.2-.2 0-.3 0-.4-.1-.1-.1-.2-.3-.2-.4 0-.2.1-.4.3-.5.1-.1.4-.2.8-.2h.5v.3"/></g></svg>