<svg xmlns="http://www.w3.org/2000/svg" viewBox="0 0 48 48" enable-background="new 0 0 48 48"><g opacity=".15"><path d="m46 34.4h-41.6c-1.1 0-2-.9-2-2v-12c0-1.1.9-2 2-2h41.6c1.1 0 2 .9 2 2v12c0 1.1-.9 2-2 2" fill="#8b9da5"/></g><path d="m2 31.6c-.7 0-1.2-.5-1.2-1.2v-12c0-.7.5-1.2 1.2-1.2h41.6c.7 0 1.2.5 1.2 1.2v12c0 .7-.5 1.2-1.2 1.2h-41.6" fill="#fff"/><path d="m43.6 18c.2 0 .4.2.4.4v12c0 .2-.2.4-.4.4h-41.6c-.2 0-.4-.2-.4-.4v-12c0-.2.2-.4.4-.4h41.6m0-1.6h-41.6c-1.1 0-2 .9-2 2v12c0 1.1.9 2 2 2h41.6c1.1 0 2-.9 2-2v-12c0-1.1-.9-2-2-2z" fill="#3b97d3"/><path d="m21 14c.7 0 1.2-.5 1.2-1.2v-.8c0-.7-.5-1.2-1.2-1.2h-4c-.7 0-1.2.5-1.2 1.2 0-.7-.5-1.2-1.2-1.2h-4c-.7 0-1.2.5-1.2 1.2v.8c0 .7.5 1.2 1.2 1.2h3.6v22.4h-3.6c-.7 0-1.2.5-1.2 1.2v.8c0 .7.5 1.2 1.2 1.2h4c.7 0 1.2-.5 1.2-1.2 0 .7.5 1.2 1.2 1.2h4c.7 0 1.2-.5 1.2-1.2v-.8c0-.7-.5-1.2-1.2-1.2h-3.6v-22.4h3.6" opacity=".15" fill="#8b9da5"/><path d="m18.6 11.6c.7 0 1.2-.5 1.2-1.2v-.8c0-.7-.5-1.2-1.2-1.2h-4c-.7 0-1.2.5-1.2 1.2 0-.7-.5-1.2-1.2-1.2h-4c-.6 0-1.2.5-1.2 1.2v.8c0 .7.5 1.2 1.2 1.2h3.6v22.4h-3.6c-.6 0-1.2.5-1.2 1.2v.8c0 .7.5 1.2 1.2 1.2h4c.7 0 1.2-.5 1.2-1.2 0 .7.5 1.2 1.2 1.2h4c.7 0 1.2-.5 1.2-1.2v-.8c0-.7-.5-1.2-1.2-1.2h-3.6v-22.4h3.6" fill="#444546"/></svg>