<?xml version="1.0" encoding="utf-8"?>
<!-- Generator: Adobe Illustrator 19.1.0, SVG Export Plug-In . SVG Version: 6.00 Build 0)  -->
<!DOCTYPE svg PUBLIC "-//W3C//DTD SVG 1.1//EN" "http://www.w3.org/Graphics/SVG/1.1/DTD/svg11.dtd">
<svg version="1.1" id="Layer_1" xmlns="http://www.w3.org/2000/svg" xmlns:xlink="http://www.w3.org/1999/xlink" x="0px" y="0px"
	 viewBox="0 0 16 16" style="enable-background:new 0 0 16 16;" xml:space="preserve">
<style type="text/css">
	.st0{opacity:0.15;}
	.st1{fill:#8B9DA5;}
	.st2{fill:#26B298;}
	.st3{fill:#3B97D3;}
	.st4{fill:#E84D3D;}
	.st5{fill:url(#);}
	.st6{fill:none;}
	.st7{fill:#444546;}
	.st8{fill:#8BD0C0;}
	.st9{opacity:0.15;fill:#8B9DA5;}
	.st10{fill:#DBE0E4;}
	.st11{fill:url(#XMLID_68_);}
	.st12{fill:#B4BBC5;}
	.st13{fill:#2D3E50;}
	.st14{fill:url(#XMLID_70_);}
	.st15{fill:url(#XMLID_87_);}
	.st16{opacity:0.3;fill:#9A9FA4;}
	.st17{fill:url(#SVGID_1_);}
	.st18{fill:#E0E0E0;}
	.st19{fill:url(#SVGID_2_);}
	.st20{fill:#F3DBBE;}
	.st21{opacity:0.6;}
	.st22{opacity:0.6;fill:#444546;}
	.st23{fill:url(#XMLID_88_);}
	.st24{opacity:0.15;clip-path:url(#XMLID_93_);}
	.st25{clip-path:url(#XMLID_93_);}
	.st26{fill:#FFFFFF;}
	.st27{fill:#7BD3F7;}
	.st28{clip-path:url(#XMLID_93_);fill:#2DB34A;}
	.st29{clip-path:url(#XMLID_93_);fill:#FFFFFF;}
	.st30{fill:url(#SVGID_3_);}
	.st31{fill:url(#XMLID_94_);}
	.st32{fill:#F4A69E;}
	.st33{opacity:0.15;clip-path:url(#XMLID_104_);}
	.st34{clip-path:url(#XMLID_104_);}
	.st35{fill:url(#XMLID_106_);}
	.st36{fill:url(#XMLID_108_);}
	.st37{fill:url(#XMLID_110_);}
	.st38{fill:url(#XMLID_118_);}
	.st39{fill:url(#XMLID_119_);}
	.st40{fill:url(#XMLID_120_);}
	.st41{opacity:0.16;}
	.st42{fill:#C5E6E0;}
	.st43{fill:#F1F9F8;}
	.st44{opacity:0.1;fill:none;}
	.st45{fill:#69768B;}
	.st46{clip-path:url(#XMLID_121_);}
	.st47{fill:#BFC3C8;}
	.st48{fill:url(#SVGID_4_);}
	.st49{fill:#DAE5ED;}
	.st50{opacity:0.15;clip-path:url(#XMLID_122_);fill:#8B9DA5;}
	.st51{clip-path:url(#XMLID_122_);fill:#E84D3D;}
	.st52{fill:url(#XMLID_127_);}
	.st53{fill:url(#XMLID_128_);}
	.st54{clip-path:url(#XMLID_129_);}
	.st55{fill:#BFC3C8;stroke:#FFFFFF;stroke-width:0.4599;stroke-miterlimit:10;}
	.st56{fill:#444546;stroke:#FFFFFF;stroke-width:0.9199;stroke-miterlimit:10;}
	.st57{fill:url(#SVGID_5_);}
	.st58{fill:none;stroke:#9A9FA4;stroke-width:0.297;stroke-miterlimit:10;}
	.st59{fill:url(#XMLID_130_);}
	.st60{fill:url(#XMLID_131_);}
	.st61{fill:url(#XMLID_132_);}
	.st62{fill:url(#XMLID_139_);}
	.st63{clip-path:url(#XMLID_143_);}
	.st64{fill:#FFD180;}
	.st65{opacity:0.15;clip-path:url(#XMLID_144_);fill:#8B9DA5;}
	.st66{clip-path:url(#XMLID_144_);fill:#69768B;}
	.st67{clip-path:url(#XMLID_144_);}
	.st68{clip-path:url(#XMLID_145_);}
	.st69{fill:url(#XMLID_146_);}
	.st70{opacity:0.15;clip-path:url(#XMLID_147_);}
	.st71{clip-path:url(#XMLID_147_);}
	.st72{clip-path:url(#XMLID_148_);}
	.st73{clip-path:url(#XMLID_149_);}
	.st74{fill:#BFC3C8;stroke:#FFFFFF;stroke-width:0.3333;stroke-miterlimit:10;}
	.st75{fill:#444546;stroke:#FFFFFF;stroke-width:0.6667;stroke-miterlimit:10;}
	.st76{fill:#EFBB8A;}
	.st77{fill:url(#XMLID_150_);}
	.st78{opacity:0.15;clip-path:url(#XMLID_151_);fill:#8B9DA5;}
	.st79{clip-path:url(#XMLID_151_);fill:#444546;}
	.st80{clip-path:url(#XMLID_151_);fill:#FFFFFF;}
	.st81{clip-path:url(#XMLID_151_);}
	.st82{clip-path:url(#XMLID_159_);}
	.st83{fill:#2DB34A;}
	.st84{opacity:0.15;clip-path:url(#XMLID_161_);}
	.st85{clip-path:url(#XMLID_161_);}
	.st86{clip-path:url(#XMLID_163_);}
	.st87{fill:#F6F8F9;}
	.st88{clip-path:url(#XMLID_168_);}
	.st89{clip-path:url(#XMLID_168_);fill:#FFFFFF;}
	.st90{fill:#EFC519;}
	.st91{fill:#EEF0F2;}
	.st92{fill:url(#XMLID_169_);}
	.st93{clip-path:url(#XMLID_170_);}
	.st94{fill:url(#SVGID_6_);}
	.st95{clip-path:url(#XMLID_171_);}
	.st96{fill:url(#SVGID_7_);}
</style>
<g id="XMLID_2463_">
	<defs>
		<rect id="XMLID_2464_" x="0" y="0" width="16" height="16"/>
	</defs>
	<clipPath id="XMLID_68_">
		<use xlink:href="#XMLID_2464_"  style="overflow:visible;"/>
	</clipPath>
	<path id="XMLID_2436_" style="opacity:0.15;clip-path:url(#XMLID_68_);fill:#8B9DA5;" d="M8.5,1C4.4,1,1,4.4,1,8.5S4.4,16,8.5,16
		c4.1,0,7.5-3.4,7.5-7.5S12.6,1,8.5,1z M8.5,3c1.2,0,2.2,0.4,3.1,1L4,11.6c-0.6-0.9-1-2-1-3.1C3,5.5,5.5,3,8.5,3z M8.5,14
		c-1.2,0-2.2-0.4-3.1-1L13,5.4c0.6,0.9,1,2,1,3.1C14,11.5,11.5,14,8.5,14z"/>
	<path id="XMLID_2484_" style="clip-path:url(#XMLID_68_);fill:#E84D3D;" d="M7.5,0C3.4,0,0,3.4,0,7.5S3.4,15,7.5,15
		c4.1,0,7.5-3.4,7.5-7.5S11.6,0,7.5,0z M7.5,2c1.2,0,2.2,0.4,3.1,1L3,10.6c-0.6-0.9-1-2-1-3.1C2,4.5,4.5,2,7.5,2z M7.5,13
		c-1.2,0-2.2-0.4-3.1-1L12,4.4c0.6,0.9,1,2,1,3.1C13,10.5,10.5,13,7.5,13z"/>
</g>
</svg>
