<svg xmlns="http://www.w3.org/2000/svg" viewBox="0 0 48 48" enable-background="new 0 0 48 48"><g opacity=".15" fill="#8b9da5"><path d="m2.3 25.3c0-3.6.5-7 1.6-10.2 1-3.1 2.6-5.9 4.6-8.2h4.2c-1.9 2.6-3.4 5.4-4.4 8.6-1 3.2-1.5 6.4-1.5 9.8s.5 6.6 1.5 9.7c1 3.1 2.4 6 4.3 8.5h-4.1c-2-2.3-3.5-5-4.6-8.1-1.1-3.2-1.6-6.5-1.6-10.1"/><path d="m22.8 14.5c1 .7 1.8 1.5 2.3 2.2.4.5 1 1.8 1.9 4l2.8-2.8c.7-.7 1.6-1.3 2.7-1.9 1-.6 2-1 2.8-1.2.5-.2 1.1-.2 1.7-.2.9 0 1.6.2 2.1.5.5.3.8.7.8 1.2 0 .5-.2.9-.5 1.1-.6.3-1.2.5-2 .5-.4 0-.9-.1-1.4-.2-1-.2-1.6-.3-2-.3-.5 0-1.1.2-1.8.6-1.3.7-2.9 2.1-4.6 4.2l2.6 7.2c.4 1.1.7 1.8 1 2 .3.2.5.3.8.3.4 0 1-.2 1.6-.5 1.1-.6 2.1-1.5 3-2.5l1.1.4c-1.3 1.6-3 3-5 4.1-1.1.6-2.1.9-2.9.9-1.2 0-2.1-.4-2.8-1.3-.4-.6-1.4-2.9-2.7-7.1-3.3 3.8-5.9 6.2-7.9 7.3-1.3.7-2.5 1-3.7 1-.8 0-1.6-.2-2.3-.6-.5-.3-.7-.7-.7-1.3 0-.5.2-.8.7-1.1.5-.3 1-.5 1.7-.5.7 0 1.4.2 2.1.7.5.3 1 .5 1.3.5.3 0 .6-.1 1-.3 1-.5 2.3-1.7 4-3.5 1.7-1.8 2.8-3 3.3-3.8-1.3-3.4-2-5.2-2.1-5.4-.5-.9-1.1-1.5-1.9-1.9-.8-.4-1.9-.6-3.4-.6-.5 0-1.1 0-1.7 0v-.8l8.1-.9"/><path d="m48 25.3c0 3.6-.5 6.9-1.6 10-1.1 3.1-2.6 5.8-4.6 8.1h-4.2c1.9-2.6 3.3-5.4 4.3-8.5 1-3.1 1.5-6.3 1.5-9.7 0-3.3-.5-6.6-1.5-9.8-1-3.2-2.5-6-4.4-8.6h4.2c2 2.4 3.5 5.2 4.6 8.3 1.2 3.2 1.7 6.6 1.7 10.2"/></g><path d="M0,23c0-3.6,0.5-7,1.6-10.2C2.7,9.7,4.2,7,6.2,4.6h4.2C8.5,7.1,7,10,6,13.2
				c-1,3.2-1.5,6.4-1.5,9.8S5,29.5,6,32.7c1,3.1,2.4,6,4.3,8.5H6.2c-2-2.3-3.5-5-4.6-8.1C0.5,29.9,0,26.6,0,23z" fill="#3b97d3"/><path d="m20.5 12.2c1 .7 1.8 1.5 2.3 2.2.4.5 1 1.8 1.9 4l2.8-2.8c.7-.7 1.6-1.3 2.7-1.9 1-.6 2-1 2.8-1.2.5-.2 1.1-.2 1.7-.2.9 0 1.6.2 2.1.5.5.3.8.7.8 1.2 0 .5-.2.9-.5 1.1-.6.3-1.2.5-2 .5-.4 0-.9-.1-1.4-.2-1-.2-1.6-.3-2-.3-.5 0-1.1.2-1.8.6-1.3.7-2.9 2.1-4.6 4.2l2.6 7.2c.4 1.1.7 1.8 1 2 .3.2.5.3.8.3.4 0 1-.2 1.6-.5 1.1-.6 2.1-1.5 3-2.5l1.1.4c-1.3 1.6-3 3-5 4.1-1.1.6-2.1.9-2.9.9-1.2 0-2.1-.4-2.8-1.3-.4-.6-1.4-2.9-2.7-7.1-3.3 3.8-5.9 6.2-7.9 7.3-1.3.7-2.5 1-3.7 1-.8 0-1.6-.2-2.3-.6-.8-.3-1.1-.7-1.1-1.2 0-.5.2-.8.7-1.1.5-.3 1-.5 1.7-.5.7 0 1.4.2 2.1.7.5.3 1 .5 1.3.5.3 0 .6-.1 1-.3 1-.5 2.3-1.7 4-3.5 1.7-1.8 2.8-3 3.3-3.8-1.3-3.4-2-5.2-2.1-5.4-.5-.9-1.1-1.5-1.9-1.9-.8-.4-1.9-.6-3.4-.6-.5 0-1.1 0-1.7 0v-.8l8.5-1" fill="#444546"/><path d="m45.7 23c0 3.6-.5 6.9-1.6 10-1.1 3.1-2.6 5.8-4.6 8.1h-4.2c1.9-2.6 3.3-5.4 4.3-8.5 1-3.1 1.5-6.3 1.5-9.7 0-3.3-.5-6.6-1.5-9.8s-2.5-6-4.4-8.6h4.2c2 2.4 3.5 5.2 4.6 8.3 1.2 3.3 1.7 6.6 1.7 10.2" fill="#3b97d3"/></svg>