<svg xmlns="http://www.w3.org/2000/svg" viewBox="0 0 16 16" enable-background="new 0 0 16 16"><g opacity=".15" fill="#8b9da5"><path d="m.8 8.4c0-1.2.2-2.3.5-3.4.4-1.1.9-2 1.5-2.8h1.4c-.6.9-1.1 1.9-1.4 3-.4 1-.5 2.1-.5 3.2s.2 2.2.5 3.2c.3 1 .8 2 1.4 2.8h-1.4c-.7-.8-1.2-1.7-1.5-2.7-.4-1-.5-2.1-.5-3.3"/><path d="m7.6 4.8c.3.2.6.5.8.7.1.2.3.7.6 1.4l.9-.9c.2-.2.5-.4.9-.6.3-.2.7-.3.9-.4.2-.1.4-.1.6-.1.3 0 .5.1.7.2.2.1.3.2.3.4 0 .2-.1.3-.2.4-.2.1-.4.2-.7.2-.1 0-.3 0-.5-.1-.3-.1-.5-.1-.7-.1-.2 0-.4.1-.6.2-.4.2-1 .7-1.5 1.4l.9 2.3c.1.4.2.6.3.7.1.1.2.1.3.1.1 0 .3-.1.5-.2.4-.2.7-.5 1-.8l.4.1c-.4.5-1 1-1.7 1.4-.4.2-.7.3-1 .3-.4 0-.7-.1-.9-.4-.1-.2-.5-1-.9-2.4-1.1 1.2-2 2-2.6 2.4-.4.2-.8.3-1.2.3-.3 0-.5-.1-.8-.2-.2-.1-.2-.2-.2-.4 0-.2.1-.3.2-.4.2-.1.3-.2.6-.2s.5.1.7.2c.2.1.3.2.4.2.1 0 .2 0 .3-.1.3-.2.8-.6 1.3-1.2.6-.6.9-1 1.1-1.3-.4-1-.6-1.6-.7-1.7-.1-.3-.4-.5-.6-.6-.3-.1-.7-.2-1.2-.2-.2 0-.4 0-.6 0v-.2l2.9-.4"/><path d="m16 8.4c0 1.2-.2 2.3-.5 3.3-.4 1-.9 1.9-1.5 2.7h-1.4c.6-.9 1.1-1.8 1.4-2.8.3-1 .5-2.1.5-3.2 0-1.1-.2-2.2-.5-3.3-.3-1.1-.8-2-1.5-2.9h1.4c.7.8 1.2 1.7 1.5 2.8.4 1.1.6 2.2.6 3.4"/></g><path d="m0 7.7c0-1.2.2-2.3.5-3.4.4-1.1.9-2 1.5-2.8h1.4c-.6.9-1.1 1.8-1.4 2.9-.3 1.1-.5 2.2-.5 3.3s.2 2.1.5 3.2c.3 1 .8 2 1.4 2.8h-1.3c-.7-.8-1.2-1.7-1.6-2.7-.3-1-.5-2.1-.5-3.3" fill="#444546"/><path d="m6.8 4.1c.3.2.6.5.8.7.1.2.3.6.6 1.3l.9-.9c.3-.2.6-.4.9-.6.3-.2.7-.3.9-.4.2-.1.4-.1.6-.1.3 0 .5.1.7.2.2.1.3.2.3.4 0 .2-.1.3-.2.4-.2.1-.4.2-.7.2-.1 0-.3 0-.5-.1-.2-.2-.5-.2-.6-.2-.2 0-.4.1-.6.2-.4.2-.9.7-1.5 1.4l.8 2.4c.1.4.2.6.3.7.1.1.2.1.3.1.1 0 .3-.1.5-.2.4-.2.7-.5 1-.8l.4.1c-.4.5-1 1-1.7 1.4-.4.2-.7.3-1 .3-.4 0-.7-.1-.9-.4-.1-.2-.4-1-.9-2.4-1.1 1.3-2 2.1-2.6 2.4-.4.2-.8.3-1.2.3-.3 0-.5-.1-.8-.2-.2-.1-.2-.2-.2-.4 0-.2.1-.3.2-.4.2-.1.3-.2.6-.2s.5.1.7.2c.1.3.3.3.4.3.1 0 .2 0 .3-.1.3-.2.8-.6 1.3-1.2.6-.5 1-1 1.1-1.2-.4-1.2-.6-1.8-.6-1.8-.2-.3-.4-.5-.7-.7-.2-.1-.6-.1-1.1-.1-.2 0-.4 0-.6 0v-.3l2.8-.3" fill="#3b97d3"/><path d="m15.2 7.7c0 1.2-.2 2.3-.5 3.3-.4 1-.9 1.9-1.5 2.7h-1.4c.6-.9 1.1-1.8 1.4-2.8.3-1 .5-2.1.5-3.2 0-1.1-.2-2.2-.5-3.3s-.8-2-1.5-2.9h1.4c.7.8 1.2 1.7 1.5 2.8.5 1.1.6 2.2.6 3.4" fill="#444546"/></svg>