<svg xmlns="http://www.w3.org/2000/svg" xmlns:xlink="http://www.w3.org/1999/xlink" viewBox="0 0 16 16" enable-background="new 0 0 16 16"><defs><path id="1" d="m0 0h16v16h-16z"/><clipPath id="0"><use xlink:href="#1"/></clipPath></defs><g opacity=".15" clip-path="url(#0)" fill="#8b9da5"><path d="M6,12.2L1,9.5V8.7l5-3v1.5L2.5,9L6,10.7V12.2z"/><path d="m10.6 4.6l-2.7 8.9h-1.4l2.7-8.9h1.4"/><path d="M11,10.7L14.5,9L11,7.1V5.7l5,3v0.9l-5,2.7V10.7z"/></g><g clip-path="url(#0)"><path d="M5,11.2L0,8.5V7.7l5-3v1.5L1.5,8L5,9.7V11.2z" fill="#00aeef"/><path d="m9.6 3.6l-2.7 8.9h-1.4l2.7-8.9h1.4" fill="#444546"/><path d="M10,9.7L13.5,8L10,6.1V4.7l5,3v0.9l-5,2.7V9.7z" fill="#00aeef"/></g></svg>