<svg xmlns="http://www.w3.org/2000/svg" xmlns:xlink="http://www.w3.org/1999/xlink" viewBox="0 0 16 16" enable-background="new 0 0 16 16"><defs><path id="3" d="m0 0h16v16h-16z"/><clipPath id="1"><use xlink:href="#3"/></clipPath><linearGradient id="2" gradientUnits="userSpaceOnUse" x1="0" x2="15.31"><stop offset=".005" stop-color="#97999c"/><stop offset="1" stop-color="#97999c"/></linearGradient><pattern x="140" y="-140" width="15.3" height="15.3" patternUnits="userSpaceOnUse" id="0" viewBox="0 -15.3 15.3 15.3"><path fill="none" d="m0 0h15.3v-15.3h-15.3z"/><path fill="url(#2)" d="m15.3 0h-15.3v-15.3h15.3z"/></pattern></defs><g clip-path="url(#1)"><g opacity=".15" fill="#8b9da5"><path d="M6,8.6L1,6V5.1l5-3v1.5L2.5,5.5L6,7.2V8.6z"/><path d="M10.6,1L7.8,9.9H6.5L9.2,1H10.6z"/><path d="M11,7.2l3.4-1.7L11,3.6V2.1l5,3V6l-5,2.7V7.2z"/></g><g fill="#444546"><path d="M5,7.6L0,5V4.1l5-3v1.5L1.5,4.5L5,6.2V7.6z"/><path d="M9.6,0L6.8,8.9H5.5L8.2,0H9.6z"/><path d="M10,6.2l3.4-1.7L10,2.6V1.1l5,3V5l-5,2.7V6.2z"/></g></g><g clip-path="url(#1)"><g opacity=".15" fill="#8b9da5"><path d="m9.9 15.3l-3-1.6v-.5l3-1.8v.9l-2.1 1.2 2.1 1v.8"/><path d="m12.7 10.6l-1.7 5.4h-.8l1.7-5.4h.8"/><path d="m13 14.4l2.1-1-2.1-1.2v-.9l3 1.8v.5l-3 1.6v-.8"/></g><g><path d="m9.3 14.6l-3-1.6v-.5l3-1.8v.9l-2.1 1.2 2.1 1v.8" fill="url(#0)"/><path d="m12.1 10l-1.7 5.4h-.8l1.7-5.4h.8" fill="#444546"/><path d="m12.4 13.8l2.1-1-2.1-1.2v-.9l3 1.8v.5l-3 1.6v-.8" fill="url(#0)"/></g></g></svg>