<svg xmlns="http://www.w3.org/2000/svg" xmlns:xlink="http://www.w3.org/1999/xlink" viewBox="0 0 16 16" enable-background="new 0 0 16 16"><defs><path id="1" d="m0 0h16v16h-16z"/><clipPath id="0"><use xlink:href="#1"/></clipPath></defs><g clip-path="url(#0)"><g opacity=".15" fill="#8b9da5"><path d="M6,8.6L1,6V5.1l5-3v1.5L2.5,5.5L6,7.2V8.6z"/><path d="M10.6,1L7.8,9.9H6.5L9.2,1H10.6z"/><path d="M11,7.2l3.4-1.7L11,3.6V2.1l5,3V6l-5,2.7V7.2z"/></g><g><path d="M4.9,7.6L0,4.9V4.1l5-3v1.5L1.5,4.4l3.4,1.7V7.6z" fill="#acbc37"/><path d="m9.6 0l-2.8 8.9h-1.4l2.7-8.9h1.5" fill="#444546"/><path d="m10 6.1l3.4-1.7-3.4-1.8v-1.5l5 3v.9l-5 2.7v-1.6" fill="#acbc37"/></g></g><g opacity=".5" clip-path="url(#0)"><g opacity=".15" fill="#8b9da5"><path d="m9.9 15.3l-3-1.6v-.5l3-1.8v.9l-2.1 1.2 2.1 1v.8"/><path d="m12.7 10.6l-1.7 5.4h-.8l1.7-5.4h.8"/><path d="m13 14.4l2.1-1-2.1-1.2v-.9l3 1.8v.5l-3 1.6v-.8"/></g><g><path d="m9.3 14.6l-3-1.6v-.5l3-1.8v.9l-2.1 1.2 2.1 1.1v.7" fill="#acbc37"/><path d="m12 10l-1.7 5.4h-.8l1.7-5.4h.8" fill="#444546"/><path d="m12.4 13.8l2.1-1-2.1-1.2v-.9l3 1.8v.6l-3 1.6v-.9" fill="#acbc37"/></g></g></svg>