<svg xmlns="http://www.w3.org/2000/svg" xmlns:xlink="http://www.w3.org/1999/xlink" width="16" height="16" viewBox="0 0 16 16"><defs><style>.cls-1,.cls-7{fill:none;}.cls-2{isolation:isolate;}.cls-3{clip-path:url(#clip-path);}.cls-4{opacity:0.15;mix-blend-mode:multiply;}.cls-5{fill:#8b9da5;}.cls-6{fill:#fff;stroke:#b4bbc5;}.cls-6,.cls-7{stroke-miterlimit:10;}.cls-7{stroke:#2d3e50;stroke-linecap:round;}</style><clipPath id="clip-path"><rect class="cls-1" width="16" height="16" transform="translate(16 16) rotate(180)"/></clipPath></defs><title>Commented16</title><g class="cls-2"><g id="Layer_1" data-name="Layer 1"><g class="cls-3"><g class="cls-4"><path class="cls-5" d="M13.89,3H3.11A2.15,2.15,0,0,0,1,5.18V9.79A2.15,2.15,0,0,0,3.11,12h1v4L7.6,12h6.29A2.15,2.15,0,0,0,16,9.79V5.18A2.15,2.15,0,0,0,13.89,3Z"/></g><path class="cls-6" d="M12.89,2H2.11A2.15,2.15,0,0,0,0,4.18V8.79A2.15,2.15,0,0,0,2.11,11h1v4L6.6,11h6.29A2.15,2.15,0,0,0,15,8.79V4.18A2.15,2.15,0,0,0,12.89,2Z"/><line class="cls-7" x1="10.89" y1="5.49" x2="4.11" y2="5.49"/><line class="cls-7" x1="10.89" y1="7.49" x2="4.11" y2="7.49"/></g></g></g></svg>