<svg xmlns="http://www.w3.org/2000/svg" xmlns:xlink="http://www.w3.org/1999/xlink" viewBox="0 0 16 16" preserveAspectRatio="xMinYMid"><defs><clipPath id="clip-path"><rect width="16" height="16" fill="none"/></clipPath></defs><title>IX</title><g style="isolation:isolate"><g id="Layer_1" data-name="Layer 1"><g clip-path="url(#clip-path)"><rect x="1" y="1" width="15" height="15" fill="#69768b" opacity="0.4" style="mix-blend-mode:multiply"/><path d="M.5,14.5V.5h14v11a3,3,0,0,1-3,3Z" fill="#f3f9fe"/><path d="M14,1V11.5A2.5,2.5,0,0,1,11.5,14H1V1H14m1-1H0V15H11.5A3.5,3.5,0,0,0,15,11.5V0Z" fill="#444546"/><rect x="0.5" y="0.5" width="14" height="3.61" fill="#e84d3d"/><path d="M14,1V3.61H1V1H14m1-1H0V4.61H15V0Z" fill="#444546"/><text transform="translate(3.95 9.91)" font-size="6.06" fill="#69768b" font-family="OpenSans-Extrabold, Open Sans" font-weight="700">12</text><text transform="translate(3.93 13.13)" font-size="3" fill="#69768b" font-family="OpenSans-Extrabold, Open Sans" font-weight="700">MAR</text><path d="M12.18,14.42a5.83,5.83,0,0,0,.05-2.23,6.12,6.12,0,0,0,1,.07,7,7,0,0,0,1.24-.11A3,3,0,0,1,12.18,14.42Z" fill="#f3f9fe"/><path d="M13.67,12.75a2.52,2.52,0,0,1-.88.89,6.3,6.3,0,0,0,0-.89h.39l.48,0M15,11.5a6.22,6.22,0,0,1-1.81.26,5.24,5.24,0,0,1-1.69-.26,5.26,5.26,0,0,1,0,3.5A3.5,3.5,0,0,0,15,11.5Z" fill="#444546"/></g></g></g></svg>