<svg xmlns="http://www.w3.org/2000/svg" viewBox="0 0 16 16" preserveAspectRatio="xMinYMid"><title>IX</title><g style="isolation:isolate"><g id="Layer_1" data-name="Layer 1"><path d="M8.63,1a7.5,7.5,0,1,0,7.5,7.5A7.5,7.5,0,0,0,8.63,1Zm0,14a6.5,6.5,0,1,1,6.5-6.5A6.5,6.5,0,0,1,8.63,15Z" fill="#69768b" opacity="0.4" style="mix-blend-mode:multiply"/><g opacity="0.4" style="mix-blend-mode:multiply"><rect x="4.63" y="7.5" width="8" height="2" rx="1" ry="1" transform="translate(20.74 8.41) rotate(135)" fill="#69768b"/></g><g opacity="0.4" style="mix-blend-mode:multiply"><rect x="4.63" y="7.5" width="8" height="2" rx="1" ry="1" transform="translate(8.54 -3.61) rotate(45)" fill="#69768b"/></g><path d="M7.63,0a7.5,7.5,0,1,0,7.5,7.5A7.5,7.5,0,0,0,7.63,0Zm0,14a6.5,6.5,0,1,1,6.5-6.5A6.5,6.5,0,0,1,7.63,14Z" fill="#e84d3d"/><rect x="3.63" y="6.5" width="8" height="2" rx="1" ry="1" transform="translate(18.32 7.41) rotate(135)" fill="#e84d3d"/><rect x="3.63" y="6.5" width="8" height="2" rx="1" ry="1" transform="translate(7.54 -3.2) rotate(45)" fill="#e84d3d"/></g></g></svg>