<svg id="Layer_1" data-name="Layer 1" xmlns="http://www.w3.org/2000/svg" viewBox="0 0 24 24" preserveAspectRatio="xMinYMid"><defs><style>.cls-1{opacity:0.5;}.cls-2,.cls-3{fill:#fff;}.cls-2{fill-rule:evenodd;}</style></defs><title>IX</title><g class="cls-1"><path class="cls-2" d="M12,24A12,12,0,1,1,24,12,12,12,0,0,1,12,24ZM12,2A10,10,0,1,0,22,12,10,10,0,0,0,12,2Z"/><rect class="cls-3" x="11" y="5.33" width="2" height="11" rx="1" ry="1" transform="translate(24 21.66) rotate(180)"/><path class="cls-3" d="M12.76,12h1a1,1,0,0,1,1,1v5a1,1,0,0,1-1,1h0a1,1,0,0,1-1-1V12A0,0,0,0,1,12.76,12Z" transform="translate(12.54 36.17) rotate(-135)"/><path class="cls-3" d="M10.24,12h0a1,1,0,0,1,1,1v5a1,1,0,0,1-1,1h-1a0,0,0,0,1,0,0V13A1,1,0,0,1,10.24,12Z" transform="translate(-7.95 11.78) rotate(-45)"/></g></svg>