<svg id="Layer_1" data-name="Layer 1" xmlns="http://www.w3.org/2000/svg" viewBox="0 0 24 24" preserveAspectRatio="xMinYMid"><defs><style>.cls-1,.cls-2{fill:#fff;}.cls-1{fill-rule:evenodd;}</style></defs><title>IX</title><path class="cls-1" d="M0,12A12,12,0,1,0,12,0,12,12,0,0,0,0,12Zm22,0A10,10,0,1,1,12,2,10,10,0,0,1,22,12Z"/><rect class="cls-2" x="12.17" y="6.5" width="2" height="11" rx="1" ry="1" transform="translate(25.17 -1.17) rotate(90)"/><path class="cls-2" d="M8.51,6.74h0a1,1,0,0,1,1,1v5a1,1,0,0,1-1,1h-1a0,0,0,0,1,0,0v-6A1,1,0,0,1,8.51,6.74Z" transform="translate(9.73 -3.02) rotate(45)"/><path class="cls-2" d="M7.51,10.26h1a1,1,0,0,1,1,1v5a1,1,0,0,1-1,1h0a1,1,0,0,1-1-1v-6a0,0,0,0,1,0,0Z" transform="translate(-7.24 10.05) rotate(-45)"/></svg>