<?xml version="1.0" encoding="utf-8"?>
<!-- Generator: Adobe Illustrator 21.1.0, SVG Export Plug-In . SVG Version: 6.00 Build 0)  -->
<svg version="1.1" id="Layer_1" xmlns="http://www.w3.org/2000/svg" xmlns:xlink="http://www.w3.org/1999/xlink" x="0px" y="0px"
	 viewBox="0 0 16 16" style="enable-background:new 0 0 16 16;" xml:space="preserve" preserveAspectRatio="xMinYMid">
<style type="text/css">
	.st0{fill:#2B313F;}
</style>
<title>IX</title>
<g>
	<g id="Layer_1_1_">
		<path class="st0" d="M7.5,0C3.4,0,0,3.4,0,7.5S3.4,15,7.5,15S15,11.6,15,7.5S11.6,0,7.5,0z M7.5,14C3.9,14,1,11.1,1,7.5
			S3.9,1,7.5,1S14,3.9,14,7.5S11.1,14,7.5,14z"/>
		<path class="st0" d="M12.4,7.5l-3.4,3.4c-0.4,0.4-1,0.4-1.4,0l0,0c-0.4-0.4-0.4-1,0-1.4L11,6.1L12.4,7.5z"/>
		<path class="st0" d="M12.4,7.5L9.1,4.1c-0.4-0.4-1-0.4-1.4,0l0,0c-0.4,0.4-0.4,1,0,1.4L11,8.9L12.4,7.5z"/>
		<path class="st0" d="M11.1,8.5H4.5c-0.6,0-1-0.4-1-1l0,0c0-0.6,0.4-1,1-1h6.6l0,0V8.5L11.1,8.5z"/>
	</g>
</g>
</svg>
