<svg xmlns="http://www.w3.org/2000/svg" xmlns:xlink="http://www.w3.org/1999/xlink" viewBox="0 0 16 16" preserveAspectRatio="xMinYMid"><defs><clipPath id="clip-path"><rect id="SVGID" width="16" height="16" fill="none"/></clipPath></defs><title>IX</title><g style="isolation:isolate"><g id="Layer_1" data-name="Layer 1"><g clip-path="url(#clip-path)"><g id="_Group_" data-name="&lt;Group&gt;"><polygon points="13.57 5.03 9.44 0.89 2.89 0.89 2.89 16 13.57 16 13.57 5.03" fill="#69768b" opacity="0.4" style="mix-blend-mode:multiply"/><g id="_Group_2" data-name="&lt;Group&gt;"><polygon points="2.5 14.61 2.5 0.5 8.34 0.5 12.18 4.34 12.18 14.61 2.5 14.61" fill="#fff"/><path d="M8.13,1l3.55,3.55v9.56H3V1H8.13m.41-1H2V15.11H12.68v-11L8.55,0Z" fill="#e84d3d"/></g><polygon points="3 10.03 3 14.11 11.68 14.11 11.68 7.2 3 10.03" fill="#f4f5f6"/><g id="_Group_3" data-name="&lt;Group&gt;"><path d="M9,1.76l1.9,1.9H9V1.76M8.67,0H8V4.67h4.67V4l-4-4Z" fill="#e84d3d"/></g><polygon id="_Path_" data-name="&lt;Path&gt;" points="8.67 4.67 8.67 5.98 12.68 4.67 8.67 4.67" fill="#69768b" opacity="0.4" style="mix-blend-mode:multiply"/></g></g></g></g></svg>