<svg id="Layer_1" data-name="Layer 1" xmlns="http://www.w3.org/2000/svg" viewBox="0 0 24 24"><defs><style>.cls-1,.cls-2{fill:#fff;}.cls-1{fill-rule:evenodd;}</style></defs><title>IX</title><path class="cls-1" d="M24,12A12,12,0,1,1,12,0,12,12,0,0,1,24,12ZM2,12A10,10,0,1,0,12,2,10,10,0,0,0,2,12Z"/><rect class="cls-2" x="9.83" y="6.5" width="2" height="11" rx="1" ry="1" transform="translate(22.83 1.17) rotate(90)"/><path class="cls-2" d="M14.49,6.74h1a1,1,0,0,1,1,1v5a1,1,0,0,1-1,1h0a1,1,0,0,1-1-1v-6a0,0,0,0,1,0,0Z" transform="translate(33.68 6.52) rotate(135)"/><path class="cls-2" d="M15.49,10.26h0a1,1,0,0,1,1,1v5a1,1,0,0,1-1,1h-1a0,0,0,0,1,0,0v-6a1,1,0,0,1,1-1Z" transform="translate(16.71 34.45) rotate(-135)"/></svg>