<svg xmlns="http://www.w3.org/2000/svg" viewBox="0 0 24 24" preserveAspectRatio="xMinYMid"><title>IX</title><g style="isolation:isolate"><g id="Layer_1" data-name="Layer 1"><g opacity="0.4" style="mix-blend-mode:multiply"><path d="M10,1a9,9,0,0,0,0,18,8.89,8.89,0,0,0,4.79-1.38l.09.09-.45.45.71.71,4.34,4.34a2.63,2.63,0,1,0,3.73-3.73l-4.34-4.34-.71-.71-.45.45-.09-.09A8.89,8.89,0,0,0,19,10a9,9,0,0,0-9-9Zm0,15a6,6,0,1,1,6-6,6,6,0,0,1-6,6Z" fill="#69768b"/></g><path d="M13.85,16A8.39,8.39,0,0,1,9,17.5,8.5,8.5,0,1,1,17.5,9,8.39,8.39,0,0,1,16,13.85l2.81,2.81-2.12,2.12ZM9,2.5A6.5,6.5,0,1,0,15.5,9,6.51,6.51,0,0,0,9,2.5Z" fill="#fff"/><path d="M9,1a8,8,0,0,1,6.31,12.9l2.76,2.76-1.41,1.41L13.9,15.31A8,8,0,1,1,9,1M9,16A7,7,0,1,0,2,9a7,7,0,0,0,7,7M9,0A9,9,0,0,0,9,18a8.89,8.89,0,0,0,4.79-1.38l2.16,2.16.71.71.71-.71,1.41-1.41.71-.71-.71-.71-2.16-2.16A8.89,8.89,0,0,0,18,9,9,9,0,0,0,9,0ZM9,15a6,6,0,1,1,6-6,6,6,0,0,1-6,6Z" fill="#fff"/><path d="M20.34,22.48a2.12,2.12,0,0,1-1.51-.62l-3.7-3.7,3-3,3.7,3.7a2.13,2.13,0,0,1-1.51,3.64Z" fill="#fff"/><path d="M18.16,15.84l3.34,3.34a1.63,1.63,0,1,1-2.31,2.31l-3.34-3.34,2.31-2.31m0-1.41-.71.71-2.31,2.31-.71.71.71.71,3.34,3.34a2.63,2.63,0,0,0,3.73-3.73l-3.34-3.34-.71-.71Z" fill="#fff"/></g></g></svg>