<svg xmlns="http://www.w3.org/2000/svg" viewBox="0 0 16 16"><title>IX</title><g style="isolation:isolate"><g id="Layer_1" data-name="Layer 1"><path d="M8.63,1a7.5,7.5,0,1,0,7.5,7.5A7.5,7.5,0,0,0,8.63,1Zm0,14a6.5,6.5,0,1,1,6.5-6.5A6.5,6.5,0,0,1,8.63,15Z" fill="#69768b" opacity="0.4" style="mix-blend-mode:multiply"/><g opacity="0.4" style="mix-blend-mode:multiply"><path d="M5,8.56H9a0,0,0,0,1,0,0v2a0,0,0,0,1,0,0H5a1,1,0,0,1-1-1v0a1,1,0,0,1,1-1Z" transform="translate(8.67 -1.8) rotate(45)" fill="#69768b"/><path d="M6.69,7.5h7a0,0,0,0,1,0,0v2a0,0,0,0,1,0,0h-7a1,1,0,0,1-1-1v0a1,1,0,0,1,1-1Z" transform="translate(22.55 7.66) rotate(135)" fill="#69768b"/></g><path d="M7.63,0a7.5,7.5,0,1,0,7.5,7.5A7.5,7.5,0,0,0,7.63,0Zm0,14a6.5,6.5,0,1,1,6.5-6.5A6.5,6.5,0,0,1,7.63,14Z" fill="#26b298"/><path d="M4,7.56H8a0,0,0,0,1,0,0v2a0,0,0,0,1,0,0H4a1,1,0,0,1-1-1v0A1,1,0,0,1,4,7.56Z" transform="translate(7.67 -1.39) rotate(45)" fill="#26b298"/><path d="M5.69,6.5h7a0,0,0,0,1,0,0v2a0,0,0,0,1,0,0h-7a1,1,0,0,1-1-1v0a1,1,0,0,1,1-1Z" transform="translate(20.13 6.66) rotate(135)" fill="#26b298"/></g></g></svg>