<svg id="Layer_1" data-name="Layer 1" xmlns="http://www.w3.org/2000/svg" viewBox="0 0 24 24"><defs><style>.cls-1,.cls-2{fill:#fff;}.cls-1{fill-rule:evenodd;}</style></defs><title>IX</title><path class="cls-1" d="M12,0A12,12,0,1,0,24,12,12,12,0,0,0,12,0Zm0,22A10,10,0,1,1,22,12,10,10,0,0,1,12,22Z"/><rect class="cls-2" x="11" y="7.67" width="2" height="11" rx="1" ry="1" transform="translate(24 26.34) rotate(180)"/><path class="cls-2" d="M13.76,5h0a1,1,0,0,1,1,1v5a1,1,0,0,1-1,1h-1a0,0,0,0,1,0,0V6A1,1,0,0,1,13.76,5Z" transform="translate(29.51 4.8) rotate(135)"/><path class="cls-2" d="M9.24,5h1a1,1,0,0,1,1,1v5a1,1,0,0,1-1,1h0a1,1,0,0,1-1-1V5a0,0,0,0,1,0,0Z" transform="translate(9.02 -4.75) rotate(45)"/></svg>