<svg id="Layer_1" data-name="Layer 1" xmlns="http://www.w3.org/2000/svg" viewBox="0 0 24 24" preserveAspectRatio="xMinYMid"><defs><style>.cls-1{fill:#b4bbc5;}</style></defs><title>Intelledox Infiniti Produce Interface Concept</title><path class="cls-1" d="M5,18V2H9V8h6v2.45c.33,0,.66,0,1,0s.67,0,1,0v-5L11.5,0H3V20H6.71A5.29,5.29,0,0,1,6,18ZM11,2l4,4H11Z"/><path class="cls-1" d="M16,12c-4.42,0-8,2.41-8,5.39,0,2.18,1.92,4.06,4.69,4.9,0,0-1,1.51-1.74,1.64a4.71,4.71,0,0,0,3.82-1.23s.64.07,1.22.07c4.42,0,8-2.41,8-5.39S20.42,12,16,12Zm.74,9.14a1,1,0,0,1-.73.24,1.07,1.07,0,0,1-.74-.24,1,1,0,0,1,0-1.36,1.09,1.09,0,0,1,.75-.23,1.05,1.05,0,0,1,.73.24,1,1,0,0,1,0,1.35Zm0-2.51H15.31L15,13.38h2Z"/></svg>