<svg id="Layer_1" data-name="Layer 1" xmlns="http://www.w3.org/2000/svg" viewBox="0 0 24 24" preserveAspectRatio="xMinYMid"><defs><style>.cls-1{fill:#b4bbc5;}</style></defs><title>Intelledox Infiniti Produce Interface Concept</title><path class="cls-1" d="M5.16,15.6l.15,0A8.84,8.84,0,0,0,8.39,14.5c-1-.31-1.67-.74-1.15-1.73.12-.22.22-.43.31-.64a10.53,10.53,0,0,1-1-5.47,3.11,3.11,0,0,0-1.06-.18c-2.34,0-3.9,2.28-1.72,6.3.74,1.36-.79,1.68-2.34,2C.09,15.12,0,15.8,0,17v.57H2.39A3.59,3.59,0,0,1,5.16,15.6Z"/><path class="cls-1" d="M22.59,14.81c-1.58-.36-3.06-.69-2.34-2,2.17-4.1.58-6.3-1.72-6.3a3.09,3.09,0,0,0-1.13.21,10.72,10.72,0,0,1-.94,5.39c.1.23.22.46.35.7.54,1-.15,1.44-1.17,1.74a9.3,9.3,0,0,0,3.12,1.06l.09,0a3.59,3.59,0,0,1,2.77,1.93H24V17C24.05,15.8,24,15.12,22.59,14.81Z"/><path class="cls-1" d="M18.62,16.57c-2.58-.59-5-1.12-3.82-3.32C18.34,6.58,15.74,3,12,3S5.65,6.71,9.2,13.26c1.2,2.21-1.29,2.73-3.82,3.32C3.15,17.09,3,18.18,3,20.07V21H21v-.93C21,18.18,20.86,17.09,18.62,16.57Z"/></svg>