<svg id="Layer_1" data-name="Layer 1" xmlns="http://www.w3.org/2000/svg" viewBox="0 0 24 24"><defs><style>.cls-1{fill:#eef2f6;}</style></defs><title>IX</title><path class="cls-1" d="M22.73,7.49H4.41A2,2,0,0,0,2.58,9L0,20.94a1.54,1.54,0,0,0,1.54,1.54H19.85a1.54,1.54,0,0,0,1.54-1.54L24,9A1.24,1.24,0,0,0,22.73,7.49Z"/><path class="cls-1" d="M4.41,6.42h17v-1a1.54,1.54,0,0,0-1.54-1.54H10.26a1.54,1.54,0,0,1-1.09-.45L7.7,2a1.54,1.54,0,0,0-1.09-.45H1.54A1.54,1.54,0,0,0,0,3.06V15.9L1.54,8.82A3,3,0,0,1,4.41,6.42Z"/></svg>