<svg id="Layer_1" data-name="Layer 1" xmlns="http://www.w3.org/2000/svg" viewBox="0 0 24 24" preserveAspectRatio="xMinYMid"><defs><style>.cls-1{fill:#b4bbc5;}</style></defs><title>IX</title><path class="cls-1" d="M4.5,10h4a1.5,1.5,0,0,0,0-3h-4a1.5,1.5,0,0,0,0,3Z"/><path class="cls-1" d="M16.5,10a1.5,1.5,0,0,0,0-3h-4a1.5,1.5,0,0,0,0,3Z"/><path class="cls-1" d="M4.5,15h4a1.5,1.5,0,0,0,0-3h-4a1.5,1.5,0,0,0,0,3Z"/><path class="cls-1" d="M4.5,20h5.94A7.47,7.47,0,0,1,10,17.5c0-.17,0-.33,0-.5H4.5a1.5,1.5,0,0,0,0,3Z"/><path class="cls-1" d="M1,22V5H20v5.44a7.46,7.46,0,0,1,1,.43V0H0V23H12.41a7.53,7.53,0,0,1-.9-1Z"/><path class="cls-1" d="M17.5,11A6.5,6.5,0,1,0,24,17.5,6.5,6.5,0,0,0,17.5,11Zm0,12A5.5,5.5,0,1,1,23,17.5,5.5,5.5,0,0,1,17.5,23Z"/><path class="cls-1" d="M11,13.5a1.47,1.47,0,0,0,0,.23A7.52,7.52,0,0,1,12.4,12,1.5,1.5,0,0,0,11,13.5Z"/><path class="cls-1" d="M17.5,13a.5.5,0,0,0-.5.5v3.13l-1.85-1.07a.5.5,0,0,0-.5.87l2.6,1.5h0l.09,0,.1,0h.09l.1,0,.09,0,.08-.05.07-.08,0,0v0a.8.8,0,0,0,.05-.19s0,0,0,0v-4A.5.5,0,0,0,17.5,13Z"/></svg>