<svg id="Layer_1" data-name="Layer 1" xmlns="http://www.w3.org/2000/svg" width="24" height="24" viewBox="0 0 24 24"><defs><style>.cls-1{fill:#ea7a32;}.cls-1,.cls-2{fill-rule:evenodd;}.cls-2{fill:#fff;}</style></defs><title>IXManage24_1</title><path class="cls-1" d="M12,0A12,12,0,1,0,24,12,12,12,0,0,0,12,0Z"/><path class="cls-2" d="M19.51,10.89a.39.39,0,0,0-.34-.34L17,10.19a5.35,5.35,0,0,0-.39-.85,5.81,5.81,0,0,0-.54-.76l.78-2.07a.39.39,0,0,0-.12-.46,7.44,7.44,0,0,0-1.93-1.11.4.4,0,0,0-.46.12l-1.4,1.71a5.28,5.28,0,0,0-1.86,0L9.67,5.06a.4.4,0,0,0-.46-.12,7.14,7.14,0,0,0-1,.48,7.46,7.46,0,0,0-.92.63.39.39,0,0,0-.12.46l.78,2.07A5.14,5.14,0,0,0,7,10.2l-2.18.35a.39.39,0,0,0-.34.34,7.51,7.51,0,0,0,0,2.22.39.39,0,0,0,.34.34L7,13.81a5.35,5.35,0,0,0,.39.85,5.81,5.81,0,0,0,.54.76l-.78,2.07a.39.39,0,0,0,.12.46,7.44,7.44,0,0,0,1.93,1.11.4.4,0,0,0,.46-.12l1.4-1.71a5.28,5.28,0,0,0,1.86,0l1.4,1.71a.4.4,0,0,0,.46.12,7.14,7.14,0,0,0,1-.48,7.46,7.46,0,0,0,.92-.63.39.39,0,0,0,.12-.46l-.78-2.07A5.14,5.14,0,0,0,17,13.8l2.18-.35a.39.39,0,0,0,.34-.34A7.51,7.51,0,0,0,19.51,10.89ZM12,14.34A2.34,2.34,0,1,1,14.34,12,2.34,2.34,0,0,1,12,14.34Z"/></svg>