<svg id="Layer_1" data-name="Layer 1" xmlns="http://www.w3.org/2000/svg" width="24" height="24" viewBox="0 0 24 24"><defs><style>.cls-1{fill:#b4bbc5;}</style></defs><title>IxRecentFiles24</title><path class="cls-1" d="M17.5,11A6.5,6.5,0,1,0,24,17.5,6.5,6.5,0,0,0,17.5,11Zm0,12A5.5,5.5,0,1,1,23,17.5,5.5,5.5,0,0,1,17.5,23Z"/><path class="cls-1" d="M17.5,13a.5.5,0,0,0-.5.5v3.13l-1.85-1.06a.5.5,0,1,0-.5.86l2.6,1.5h0a.16.16,0,0,0,.09,0l.1,0h.09l.1,0,.09,0,.07-.06a.46.46,0,0,0,.07-.07l0-.05a0,0,0,0,0,0,0,.16.16,0,0,0,0-.09.44.44,0,0,0,0-.1s0,0,0,0v-4A.5.5,0,0,0,17.5,13Z"/><path class="cls-1" d="M13.77,24a7.6,7.6,0,0,1-2.26-2H6V6h4v6h2.42a7.45,7.45,0,0,1,5.08-2,4.19,4.19,0,0,1,.5,0V9.5l-4-4V0H0V20H4v4ZM16,10H12V6ZM2,18V2H12V4H4V18Z"/></svg>