<svg id="Layer_1" data-name="Layer 1" xmlns="http://www.w3.org/2000/svg" xmlns:xlink="http://www.w3.org/1999/xlink" viewBox="0 0 24 24"><defs><style>.cls-1{fill:none;}.cls-2{clip-path:url(#clip-path);}.cls-3{fill:#69768b;}</style><clipPath id="clip-path" transform="translate(0 -202.5)"><rect class="cls-1" y="202.5" width="24" height="24"/></clipPath></defs><title>Search24</title><g class="cls-2"><path class="cls-3" d="M12,202.5a12,12,0,1,0,12,12A12,12,0,0,0,12,202.5Zm0,22a10,10,0,1,1,10-10A10,10,0,0,1,12,224.5Z" transform="translate(0 -202.5)"/><path class="cls-3" d="M15.53,216.61A5.51,5.51,0,1,0,14.12,218l2.68,2.68a1,1,0,0,0,1.41-1.41ZM11,217a3.5,3.5,0,1,1,3.5-3.5A3.5,3.5,0,0,1,11,217Z" transform="translate(0 -202.5)"/></g></svg>