<svg xmlns="http://www.w3.org/2000/svg" xmlns:xlink="http://www.w3.org/1999/xlink" viewBox="0 0 24 23"><defs><style>.cls-1{fill:none;}.cls-2{isolation:isolate;}.cls-3{clip-path:url(#clip-path);}.cls-4{fill:#69768b;opacity:0.4;}.cls-4,.cls-7{mix-blend-mode:multiply;}.cls-5{fill:#3b97d3;}.cls-6{fill:#444546;}.cls-7{opacity:0.5;}.cls-8{fill:#efbb8a;}.cls-9{fill:#f4a69e;}</style><clipPath id="clip-path"><rect id="SVGID" class="cls-1" width="24" height="24"/></clipPath></defs><title>IX_Categories</title><g class="cls-2"><g id="Layer_2" data-name="Layer 2"><g id="Layer_1-2" data-name="Layer 1"><g class="cls-3"><rect class="cls-4" x="1" y="1" width="23" height="6"/><rect class="cls-4" x="6" y="9" width="18" height="6"/><rect class="cls-4" x="11" y="17" width="13" height="6"/><rect class="cls-5" x="0.5" y="0.5" width="22" height="5"/><path class="cls-6" d="M22,1V5H1V1H22m1-1H0V6H23V0Z"/><g class="cls-7"><rect class="cls-5" x="1" y="3" width="21.01" height="2"/></g><rect class="cls-8" x="5.5" y="8.5" width="17" height="5"/><path class="cls-6" d="M22,9v4H6V9H22m1-1H5v6H23V8Z"/><g class="cls-7"><rect class="cls-8" x="6.01" y="11" width="15.99" height="2"/></g><rect class="cls-9" x="10.5" y="16.5" width="12" height="5"/><path class="cls-6" d="M22,17v4H11V17H22m1-1H10v6H23V16Z"/><g class="cls-7"><rect class="cls-9" x="11" y="19" width="11" height="2"/></g><polygon class="cls-6" points="2.14 6 2.14 10.5 6 10.5 6 11.5 1 11.5 1 6 2.14 6"/><polygon class="cls-6" points="7.14 13 7.14 18.5 10.5 18.5 10.5 19.5 6 19.5 6 13 7.14 13"/></g></g></g></g></svg>