<svg xmlns="http://www.w3.org/2000/svg" xmlns:xlink="http://www.w3.org/1999/xlink" viewBox="0 0 24 24"><defs><style>.cls-1{fill:none;}.cls-13,.cls-2{isolation:isolate;}.cls-3{clip-path:url(#clip-path);}.cls-4{fill:#69768b;opacity:0.4;}.cls-17,.cls-4,.cls-7{mix-blend-mode:multiply;}.cls-5{fill:#efbb8a;}.cls-6{fill:#444546;}.cls-7{fill:#ce996e;}.cls-8{fill:#fff;}.cls-9{opacity:0.15;}.cls-10,.cls-13{fill:#8a9ca4;}.cls-11{fill:#3996d2;}.cls-12{fill:#999ea4;}.cls-13{opacity:0.15;}.cls-14{clip-path:url(#clip-path-2);}.cls-15{fill:#7dd2f6;}.cls-16{fill:#31b24a;}.cls-17{opacity:0.3;}</style><clipPath id="clip-path"><rect id="SVGID" class="cls-1" width="24" height="24"/></clipPath><clipPath id="clip-path-2"><rect id="SVGID-2" data-name="SVGID" class="cls-1" x="11.52" y="5.52" width="9.06" height="9.06"/></clipPath></defs><title>IX_ProjectLibrary</title><g class="cls-2"><g id="Layer_2" data-name="Layer 2"><g id="Layer_1-2" data-name="Layer 1"><g class="cls-3"><path class="cls-4" d="M22.5,4.8H13.59L10.05,1.5H2.7V5A1.61,1.61,0,0,0,1.2,6.5v16A1.5,1.5,0,0,0,2.7,24H19.8A1.49,1.49,0,0,0,21.3,23l1.44-4.67A1.4,1.4,0,0,0,24,16.8V6.3A1.5,1.5,0,0,0,22.5,4.8Z"/><g id="_Group_" data-name="&lt;Group&gt;"><path class="cls-5" d="M1.5,22a1,1,0,0,1-1-1V6a1.11,1.11,0,0,1,1-1H6.15A1.16,1.16,0,0,1,7.3,6V9a1.33,1.33,0,0,0,1.25,1.4H18.6a1,1,0,0,1,1,1V21a1,1,0,0,1-1,1Z"/><path class="cls-6" d="M6.15,5.5A.66.66,0,0,1,6.8,6V9a1.83,1.83,0,0,0,1.75,1.9H18.6a.5.5,0,0,1,.5.5V21a.5.5,0,0,1-.5.5H1.5A.5.5,0,0,1,1,21V6a.64.64,0,0,1,.5-.5H6.15m0-1H1.5A1.61,1.61,0,0,0,0,6V21a1.5,1.5,0,0,0,1.5,1.5H18.6A1.5,1.5,0,0,0,20.1,21V11.4a1.5,1.5,0,0,0-1.5-1.5h-10A.84.84,0,0,1,7.8,9V6A1.64,1.64,0,0,0,6.15,4.5Z"/><path class="cls-7" d="M6.15,4.5H1.5A1.61,1.61,0,0,0,0,6V21a1.5,1.5,0,0,0,1.5,1.5H18.6A1.5,1.5,0,0,0,20.1,21V11.4a1.5,1.5,0,0,0-1.5-1.5h-10A.84.84,0,0,1,7.8,9V6A1.64,1.64,0,0,0,6.15,4.5Z"/></g><g id="_Group_2" data-name="&lt;Group&gt;"><g id="_Group_3" data-name="&lt;Group&gt;"><polygon class="cls-8" points="2.25 18.75 2.25 0.75 8.55 0.75 14.7 6.45 14.7 18.75 2.25 18.75"/><path class="cls-6" d="M8.46,1l6,5.59V18.5H2.5V1h6m.39-1H1.5V19.5h14V6.15L8.85,0Z"/><g id="_Group_4" data-name="&lt;Group&gt;"><g id="_Group_5" data-name="&lt;Group&gt;"><g id="_Group_6" data-name="&lt;Group&gt;"><g id="_Group_7" data-name="&lt;Group&gt;" class="cls-9"><path id="_Compound_Path_" data-name="&lt;Compound Path&gt;" class="cls-10" d="M6.37,9h-.7V5.32H4.41V4.71H7.63v.61H6.37Z"/></g><g id="_Group_8" data-name="&lt;Group&gt;"><path id="_Compound_Path_2" data-name="&lt;Compound Path&gt;" class="cls-11" d="M5.76,8.39h-.7V4.7H3.8V4.1H7v.6H5.76Z"/></g><rect id="_Rectangle_" data-name="&lt;Rectangle&gt;" class="cls-12" x="8.03" y="4.1" width="5.33" height="0.61"/><rect id="_Rectangle_2" data-name="&lt;Rectangle&gt;" class="cls-12" x="8.03" y="5.32" width="5.33" height="0.61"/><rect id="_Rectangle_3" data-name="&lt;Rectangle&gt;" class="cls-12" x="8.03" y="6.55" width="5.33" height="0.61"/><rect id="_Rectangle_4" data-name="&lt;Rectangle&gt;" class="cls-12" x="8.03" y="7.77" width="5.33" height="0.61"/><rect id="_Rectangle_5" data-name="&lt;Rectangle&gt;" class="cls-12" x="3.8" y="8.99" width="9.56" height="0.61"/><rect id="_Rectangle_6" data-name="&lt;Rectangle&gt;" class="cls-12" x="3.8" y="10.21" width="6.33" height="0.61"/></g></g></g></g><polygon id="_Path_" data-name="&lt;Path&gt;" class="cls-13" points="8.57 7.26 8.57 9.36 13.8 7.26 8.57 7.26"/><path class="cls-6" d="M9.57,2l4.54,4.22H9.57V2M8.85,0H8.57V7.26h6.88V6.15L8.85,0Z"/><polyline class="cls-8" points="9.57 2.04 14.11 6.26 9.57 6.26 9.57 2.04"/></g><rect id="SVGID-3" data-name="SVGID" class="cls-1" x="9" y="3" width="15" height="15"/><rect id="SVGID-4" data-name="SVGID" class="cls-1" x="9" y="3" width="15" height="15"/><g id="_Group_9" data-name="&lt;Group&gt;"><path class="cls-8" d="M10.8,16.3a.92.92,0,0,1-1-1V4.8a.92.92,0,0,1,1-1H21.3a1,1,0,0,1,1,1V15.3a.92.92,0,0,1-1,1Z"/><path class="cls-6" d="M21.3,4.3a.5.5,0,0,1,.5.5V15.3c0,.35-.15.5-.5.5H10.8c-.35,0-.5-.15-.5-.5V4.8c0-.35.15-.5.5-.5H21.3m0-1H10.8A1.42,1.42,0,0,0,9.3,4.8V15.3a1.42,1.42,0,0,0,1.5,1.5H21.3a1.42,1.42,0,0,0,1.5-1.5V4.8a1.5,1.5,0,0,0-1.5-1.5Z"/></g><g class="cls-14"><g id="_Group_10" data-name="&lt;Group&gt;"><g id="_Group_11" data-name="&lt;Group&gt;"><rect class="cls-15" x="11.52" y="5.52" width="9.06" height="9.06"/></g><path id="_Path_2" data-name="&lt;Path&gt;" class="cls-16" d="M20.58,9.14c-2.17,0-2,2.36-4.53,2.36s-2.17-1.45-4.53-1.45V14.4h9.06Z"/><path id="_Path_3" data-name="&lt;Path&gt;" class="cls-16" d="M11.52,14c2.36,0,1.81-.91,4.53-.91,2.54,0,2.17-.72,4.53-.72v2.17H11.52Z"/></g><path id="_Path_4" data-name="&lt;Path&gt;" class="cls-8" d="M17.68,6.42a.64.64,0,0,0-.54.19A2.47,2.47,0,0,0,15,4.79a2.09,2.09,0,0,0-2,1.09,2.6,2.6,0,0,0-1.09-.36c-1.09,0-1.81.9-1.81,2.17v.37h9.06A1.6,1.6,0,0,0,17.68,6.42Z"/></g><g id="_Group_12" data-name="&lt;Group&gt;"><path class="cls-5" d="M2,22a1.07,1.07,0,0,1-.81-.37.84.84,0,0,1-.2-.7l2.41-7.8v-.08c0-.3.38-.55.85-.55H21a1.07,1.07,0,0,1,.81.37.84.84,0,0,1,.2.7L19.62,21.3a1,1,0,0,1-1,.7Z"/><path class="cls-6" d="M21,13a.56.56,0,0,1,.43.19.38.38,0,0,1,.09.25l-2.38,7.72v.05a.52.52,0,0,1-.53.29H2a.56.56,0,0,1-.43-.19.38.38,0,0,1-.09-.25l2.38-7.72,0-.14v-.1A.53.53,0,0,1,4.2,13H21m0-1H4.2a1.21,1.21,0,0,0-1.35,1.05l-2.4,7.8A1.46,1.46,0,0,0,2,22.5H18.6a1.49,1.49,0,0,0,1.5-1.05l2.4-7.8A1.46,1.46,0,0,0,21,12Z"/><g id="_Group_13" data-name="&lt;Group&gt;" class="cls-17"><path class="cls-5" d="M18.6,22.5H2a1.46,1.46,0,0,1-1.5-1.65l22.05-7.2-2.4,7.8A1.49,1.49,0,0,1,18.6,22.5Z"/></g></g></g></g></g></g></svg>