<svg xmlns="http://www.w3.org/2000/svg" xmlns:xlink="http://www.w3.org/1999/xlink" viewBox="0 0 24 18.12"><defs><style>.cls-1{fill:none;}.cls-2{isolation:isolate;}.cls-3{clip-path:url(#clip-path);}.cls-4{fill:#69768b;mix-blend-mode:multiply;}.cls-4,.cls-8{opacity:0.4;}.cls-5,.cls-8{fill:#fff;}.cls-6{fill:#3b97d3;}.cls-7{fill:#eb802d;}.cls-10,.cls-11,.cls-7,.cls-9{stroke:#444546;}.cls-10,.cls-7,.cls-9{stroke-miterlimit:10;}.cls-8{mix-blend-mode:screen;}.cls-9{fill:#bfc3c8;}.cls-10{fill:#f4a69e;}.cls-11{fill:#fffcf2;stroke-linejoin:bevel;}</style><clipPath id="clip-path" transform="translate(0 -2.01)"><rect id="SVGID" class="cls-1" width="24" height="24"/></clipPath></defs><title>IX_CustomField</title><g class="cls-2"><g id="Layer_2" data-name="Layer 2"><g id="Layer_1-2" data-name="Layer 1"><g class="cls-3"><g id="_Group_" data-name="&lt;Group&gt;"><rect id="_Rectangle_" data-name="&lt;Rectangle&gt;" class="cls-4" x="1.2" y="7" width="22.8" height="8"/><g id="_Rectangle_2" data-name="&lt;Rectangle&gt;"><rect class="cls-5" x="0.5" y="6.49" width="21.8" height="7"/><path class="cls-6" d="M21.8,9v6H1V9H21.8m1-1H0v8H22.8V8Z" transform="translate(0 -2.01)"/></g></g><path class="cls-4" d="M23.23,3.79a2.63,2.63,0,0,0-3.71,0L6.89,16.43v3.7h3.7L23.23,7.5A2.63,2.63,0,0,0,23.23,3.79Z" transform="translate(0 -2.01)"/><polygon class="cls-7" points="6.54 16.61 6.54 13.61 16.53 3.62 19.53 6.62 9.54 16.61 6.54 16.61"/><rect class="cls-8" x="5.74" y="10.4" width="14.13" height="1.62" transform="translate(-4.17 10.33) rotate(-45)"/><rect class="cls-9" x="17.63" y="4.01" width="2.81" height="4.24" transform="translate(1.24 13.24) rotate(-45)"/><path class="cls-10" d="M21.54,6.62,22,6.13a2.12,2.12,0,0,0,0-3h0a2.14,2.14,0,0,0-3,0l-.49.49Z" transform="translate(0 -2.01)"/><polygon class="cls-11" points="6.54 13.61 6.54 16.61 9.54 16.61 6.54 13.61"/></g></g></g></g></svg>