<svg xmlns="http://www.w3.org/2000/svg" xmlns:xlink="http://www.w3.org/1999/xlink" viewBox="0 0 24 24"><defs><style>.cls-1{fill:none;}.cls-2{isolation:isolate;}.cls-3{clip-path:url(#clip-path);}.cls-4{fill:#9ccae8;}.cls-5{fill:#444546;}.cls-6{fill:#69768b;opacity:0.4;mix-blend-mode:multiply;}.cls-7{fill:#cce4f3;}.cls-8{fill:#f3f9fe;}.cls-9{fill:#26b298;}.cls-10{fill:#bfc3c8;}</style><clipPath id="clip-path" transform="translate(0 0)"><rect id="SVGID" class="cls-1" width="24" height="24"/></clipPath></defs><title>IX_DataSource</title><g class="cls-2"><g id="Layer_2" data-name="Layer 2"><g id="Layer_1-2" data-name="Layer 1"><g class="cls-3"><g id="_Group_" data-name="&lt;Group&gt;"><path class="cls-4" d="M10,15.5C4.11,15.5.5,14,.5,13V8C.5,7,4.11,5.5,10,5.5S19.5,7,19.5,8v5C19.5,14,15.89,15.5,10,15.5Z" transform="translate(0 0)"/><path class="cls-5" d="M10,6c5.85,0,8.85,1.46,9,2v5c-.15.55-3.15,2-9,2s-8.85-1.46-9-2V8c.15-.56,3.15-2,9-2m0-1C4.48,5,0,6.34,0,8v5c0,1.66,4.48,3,10,3s10-1.34,10-3V8c0-1.66-4.48-3-10-3Z" transform="translate(0 0)"/><path class="cls-4" d="M10,10.5C4.11,10.5.5,9,.5,8V3C.5,2,4.11.5,10,.5S19.5,2,19.5,3V8C19.5,9,15.89,10.5,10,10.5Z" transform="translate(0 0)"/><path class="cls-5" d="M10,1c5.85,0,8.85,1.46,9,2V8c-.15.55-3.15,2-9,2S1.15,8.54,1,8V3c.15-.56,3.15-2,9-2m0-1C4.48,0,0,1.34,0,3V8c0,1.66,4.48,3,10,3S20,9.66,20,8V3c0-1.66-4.48-3-10-3Z" transform="translate(0 0)"/><path class="cls-6" d="M11,1C5.48,1,1,2.34,1,4V14c0,1.66,4.48,3,10,3s10-1.34,10-3V4C21,2.34,16.52,1,11,1Z" transform="translate(0 0)"/><path class="cls-4" d="M10,15.5C4.11,15.5.5,14,.5,13V8C.5,7,4.11,5.5,10,5.5S19.5,7,19.5,8v5C19.5,14,15.89,15.5,10,15.5Z" transform="translate(0 0)"/><path class="cls-5" d="M10,6c5.85,0,8.85,1.46,9,2v5c-.15.55-3.15,2-9,2s-8.85-1.46-9-2V8c.15-.56,3.15-2,9-2m0-1C4.48,5,0,6.34,0,8v5c0,1.66,4.48,3,10,3s10-1.34,10-3V8c0-1.66-4.48-3-10-3Z" transform="translate(0 0)"/><path class="cls-4" d="M10,10.5C4.11,10.5.5,9,.5,8V3C.5,2,4.11.5,10,.5S19.5,2,19.5,3V8C19.5,9,15.89,10.5,10,10.5Z" transform="translate(0 0)"/><path class="cls-5" d="M10,1c5.85,0,8.85,1.46,9,2V8c-.15.55-3.15,2-9,2S1.15,8.54,1,8V3c.15-.56,3.15-2,9-2m0-1C4.48,0,0,1.34,0,3V8c0,1.66,4.48,3,10,3S20,9.66,20,8V3c0-1.66-4.48-3-10-3Z" transform="translate(0 0)"/><g id="_Group_2" data-name="&lt;Group&gt;"><ellipse class="cls-7" cx="10" cy="3" rx="9.5" ry="2.5"/><path class="cls-5" d="M10,1c5.85,0,8.85,1.46,9,2-.15.56-3.15,2-9,2S1.15,3.54,1,3c.15-.56,3.15-2,9-2m0-1C4.48,0,0,1.34,0,3S4.48,6,10,6,20,4.66,20,3,15.52,0,10,0Z" transform="translate(0 0)"/></g></g><rect class="cls-6" x="7" y="11.39" width="17" height="12.61"/><rect class="cls-8" x="6.5" y="10.89" width="16" height="11.61"/><path class="cls-5" d="M22,11.39V22H7V11.39H22m1-1H6V23H23V10.39Z" transform="translate(0 0)"/><rect class="cls-9" x="6.5" y="10.89" width="16" height="2.61"/><path class="cls-5" d="M22,11.39V13H7V11.39H22m1-1H6V14H23V10.39Z" transform="translate(0 0)"/><rect class="cls-10" x="7" y="16" width="15" height="1"/><rect class="cls-10" x="7" y="19" width="15" height="1"/><rect class="cls-10" x="10" y="14" width="1" height="8"/><rect class="cls-10" x="14" y="14" width="1" height="8"/><rect class="cls-10" x="18" y="14" width="1" height="8"/></g></g></g></g></svg>