<svg id="Layer_1" data-name="Layer 1" xmlns="http://www.w3.org/2000/svg" viewBox="0 0 88.31 88.31"><defs><style>.cls-1{fill:#1ca086;}.cls-2{fill:#fff;fill-rule:evenodd;}</style></defs><title>IX</title><circle class="cls-1" cx="44.16" cy="44.16" r="44"/><path class="cls-2" d="M25.34,69.94l9.59-4.23c.62-.89-1.06-3.16-3.33-4.72s-5.08-2.32-5.71-1.42ZM49.77,25.65,58.36,32l3.9-5.62c1.47-2.11.56-4.94-1.77-6.7s-5.25-1.81-6.74.31ZM36.6,63.31,57.24,33.61,53.68,31,33.77,59.47A13.9,13.9,0,0,1,36.6,63.31ZM52.24,29.93l-3.61-2.66-21,29.88a14.49,14.49,0,0,1,4.68,1.29Z"/></svg>