<svg xmlns="http://www.w3.org/2000/svg" xmlns:xlink="http://www.w3.org/1999/xlink" viewBox="0 0 24 24"><defs><style>.cls-1{fill:none;}.cls-2{isolation:isolate;}.cls-3{clip-path:url(#clip-path);}.cls-10,.cls-14,.cls-4{fill:#69768b;}.cls-10,.cls-4{opacity:0.4;}.cls-10,.cls-14,.cls-4,.cls-7,.cls-9{mix-blend-mode:multiply;}.cls-5{fill:#efbb8a;}.cls-6{fill:#444546;}.cls-7{opacity:0.6;}.cls-8{fill:#ce996e;}.cls-14,.cls-9{opacity:0.3;}.cls-10,.cls-14,.cls-15{fill-rule:evenodd;}.cls-11{fill:#eef0f2;}.cls-12{fill:#ee3642;}.cls-13{fill:#f38274;}.cls-15{fill:#fff;opacity:0.5;}</style><clipPath id="clip-path"><rect id="SVGID" class="cls-1" width="24" height="24"/></clipPath></defs><title>IX_PublishFolders</title><g class="cls-2"><g id="Layer_2" data-name="Layer 2"><g id="Layer_1-2" data-name="Layer 1"><g class="cls-3"><path class="cls-4" d="M22,8.5h-.9V5.9a1.5,1.5,0,0,0-1.5-1.5h-10a.84.84,0,0,1-.75-.9v-1A1.64,1.64,0,0,0,7.15,1H2.5A1.61,1.61,0,0,0,1,2.5v15A1.5,1.5,0,0,0,2.5,19H19.6a1.76,1.76,0,0,0,.41-.06,1.42,1.42,0,0,0,1.09-1l2.4-7.8A1.46,1.46,0,0,0,22,8.5Z"/><g id="_Group_" data-name="&lt;Group&gt;"><path class="cls-5" d="M1.5,17.5a1,1,0,0,1-1-1V1.5a1.11,1.11,0,0,1,1-1H6.15a1.16,1.16,0,0,1,1.15,1v1A1.33,1.33,0,0,0,8.55,3.9H18.2a1,1,0,0,1,1,1V16.5a1,1,0,0,1-1,1Z"/><path class="cls-6" d="M6.15,1a.66.66,0,0,1,.65.5v1A1.83,1.83,0,0,0,8.55,4.4H18.2a.5.5,0,0,1,.5.5V16.5a.5.5,0,0,1-.5.5H1.5a.5.5,0,0,1-.5-.5V1.5A.64.64,0,0,1,1.5,1H6.15m0-1H1.5A1.61,1.61,0,0,0,0,1.5v15A1.5,1.5,0,0,0,1.5,18H18.2a1.5,1.5,0,0,0,1.5-1.5V4.9a1.5,1.5,0,0,0-1.5-1.5H8.55a.84.84,0,0,1-.75-.9v-1A1.64,1.64,0,0,0,6.15,0Z"/></g><g id="_Group_2" data-name="&lt;Group&gt;" class="cls-7"><path class="cls-8" d="M6.15,0H1.5A1.61,1.61,0,0,0,0,1.5v15A1.5,1.5,0,0,0,1.5,18H18.2a1.5,1.5,0,0,0,1.5-1.5V4.9a1.5,1.5,0,0,0-1.5-1.5H8.55a.84.84,0,0,1-.75-.9v-1A1.64,1.64,0,0,0,6.15,0Z"/></g><g id="_Group_3" data-name="&lt;Group&gt;"><path class="cls-5" d="M1.52,17.5a1.07,1.07,0,0,1-.81-.37.84.84,0,0,1-.2-.7L2.9,8.7A.84.84,0,0,1,3.77,8h16.8a1.15,1.15,0,0,1,.9.43.62.62,0,0,1,.12.58l-2.4,7.79a1,1,0,0,1-1,.7Z"/><path class="cls-6" d="M20.57,8.5a.66.66,0,0,1,.5.23c.06.07.05.11,0,.13l-2.4,7.8v.05a.52.52,0,0,1-.53.29H1.52a.56.56,0,0,1-.43-.19A.38.38,0,0,1,1,16.56l2.37-7.7c.12-.36.26-.36.4-.36h16.8m0-1H3.77A1.37,1.37,0,0,0,2.42,8.55L0,16.35A1.46,1.46,0,0,0,1.52,18H18.17A1.49,1.49,0,0,0,19.67,17l2.4-7.8c.26-.89-.6-1.65-1.5-1.65Z"/></g><g id="_Group_4" data-name="&lt;Group&gt;" class="cls-9"><path class="cls-5" d="M18.17,18H1.52A1.46,1.46,0,0,1,0,16.35l22.05-7.2L19.67,17A1.49,1.49,0,0,1,18.17,18Z"/></g><path class="cls-10" d="M17,9.84a7.08,7.08,0,1,1-7,7.08A7,7,0,0,1,17,9.84Z"/><circle class="cls-11" cx="16" cy="16" r="6"/><path class="cls-12" d="M15.77,16.64l-1,1.57a.43.43,0,0,1-.39.24H14c-.18,0-.26-.16-.16-.33l1.42-2.19-1.3-2a.21.21,0,0,1,.16-.34h.35a.48.48,0,0,1,.42.25l.89,1.4.5.71Z"/><path class="cls-13" d="M18,16.64l-1,1.57a.44.44,0,0,1-.39.24h-.36a.2.2,0,0,1-.17-.33l1.42-2.19-1.3-2a.21.21,0,0,1,.16-.34h.35a.48.48,0,0,1,.42.25L18,15.2l.51.71Z"/><path class="cls-6" d="M16,9.92a6,6,0,1,1-6,6,6,6,0,0,1,6-6m0-1a7,7,0,1,0,7,7,7,7,0,0,0-7-7Z"/><path class="cls-14" d="M20,11.45A6,6,0,0,1,11.58,20,6,6,0,1,0,20,11.45Z"/><path class="cls-15" d="M10.43,16.34a6,6,0,0,1,10-4.47A6,6,0,1,0,12,20.39,6,6,0,0,1,10.43,16.34Z"/><rect id="SVGID-2" data-name="SVGID" class="cls-1" width="24" height="24"/></g></g></g></g></svg>