<svg xmlns="http://www.w3.org/2000/svg" xmlns:xlink="http://www.w3.org/1999/xlink" viewBox="0 0 24.03 22.28"><defs><style>.cls-1{fill:none;}.cls-2{isolation:isolate;}.cls-3{clip-path:url(#clip-path);}.cls-4,.cls-5{fill:#69768b;}.cls-14,.cls-19,.cls-4{opacity:0.4;}.cls-12,.cls-14,.cls-23,.cls-4,.cls-7,.cls-9{mix-blend-mode:multiply;}.cls-6{fill:#efbb8a;}.cls-7,.cls-8{fill:#ce996e;}.cls-12,.cls-15,.cls-7{opacity:0.6;}.cls-9{fill:#9dcbe8;}.cls-10{fill:#b4bbc5;}.cls-11{fill:#dae5ed;}.cls-12,.cls-14,.cls-16{fill:#444546;}.cls-13{fill:#736357;}.cls-15{fill:#d8c4ad;}.cls-17{fill:#e84d3d;}.cls-18{fill:#fbb03b;}.cls-19{fill:#fff;mix-blend-mode:screen;}.cls-20{fill:#f4a69e;}.cls-21{fill:#fde9e7;}.cls-22,.cls-23{fill:#efc519;}.cls-24{fill:#fcf1c5;}.cls-25{fill:#f3f9fe;}.cls-26{fill:#999;}</style><clipPath id="clip-path" transform="translate(0 -0.86)"><rect id="SVGID" class="cls-1" x="0.02" width="24" height="24"/></clipPath></defs><title>IX_Groups</title><g class="cls-2"><g id="Layer_2" data-name="Layer 2"><g id="Layer_1-2" data-name="Layer 1"><g class="cls-3"><polygon class="cls-4" points="9.31 0.9 9.1 0.91 7.88 1.01 7.66 1.02 7.59 1.08 7.53 1.02 7.3 1.01 6.08 0.91 5.88 0.9 5.7 0.99 4.43 1.64 4.27 1.72 4.17 1.85 3.44 2.84 3.33 2.99 3.3 3.17 3.1 4.56 2.75 6.11 2.71 6.27 2.75 6.44 3.04 7.71 2.78 8.6 2.66 9.03 2.99 9.34 3.45 9.77 3.14 9.9 2.91 10 2.8 10.22 1.49 12.6 0.9 13.68 2.13 13.68 3.9 13.68 11.25 13.68 13.02 13.68 14.25 13.68 13.66 12.6 12.35 10.22 12.24 10.01 12.01 9.9 11.73 9.78 12.2 9.34 12.53 9.03 12.4 8.6 12.15 7.71 12.44 6.44 12.48 6.27 12.44 6.11 12.09 4.56 11.88 3.17 11.86 2.99 11.75 2.84 11.02 1.85 10.91 1.72 10.76 1.64 9.49 0.99 9.31 0.9 9.31 0.9"/><polygon class="cls-5" points="10.81 9.67 8.36 8.57 6.7 10.24 5.03 8.57 2.54 9.67 1.24 12.05 12.12 12.05 10.81 9.67"/><polygon class="cls-6" points="5.03 6.54 5.03 8.57 6.7 10.24 8.36 8.57 8.36 6.54 5.03 6.54"/><polygon class="cls-7" points="5.03 6.54 5.03 8.57 6.7 10.24 8.36 8.57 8.36 6.54 5.03 6.54"/><polygon class="cls-8" points="8.54 5.84 9.18 5.84 9.57 5.44 9.72 4.04 9.29 3.62 8.54 5.84"/><polygon class="cls-8" points="4.85 5.84 4.26 5.84 3.87 5.44 3.67 4.04 4.1 3.62 4.85 5.84"/><polygon class="cls-6" points="6.7 9.09 5.36 8.41 4.28 7.14 4.01 5.73 4.01 3.05 4.68 2.06 6.7 1.39 8.71 2.06 9.38 3.05 9.38 5.73 9.11 7.14 8.04 8.41 6.7 9.09"/><polygon class="cls-9" points="6.7 10.24 5.56 11.38 4.62 9.56 4.62 8.75 6.7 10.24"/><polygon class="cls-9" points="6.7 10.24 7.83 11.38 8.78 9.56 8.78 8.76 6.7 10.24"/><polygon class="cls-10" points="5.03 8.57 5.03 7.86 4.62 8.11 4.62 9.56 5.05 11.22 6.7 10.24 5.03 8.57"/><polygon class="cls-10" points="8.36 8.57 8.36 7.86 8.78 8.11 8.78 9.56 8.34 11.22 6.7 10.24 8.36 8.57"/><circle class="cls-11" cx="6.7" cy="11.21" r="0.24"/><polygon class="cls-10" points="2.54 9.67 1.24 12.05 3 12.05 2.54 9.67"/><polygon class="cls-10" points="10.81 9.67 12.12 12.05 10.35 12.05 10.81 9.67"/><polygon class="cls-12" points="6.7 9.72 5.03 8.57 6.7 10.24 8.36 8.57 6.7 9.72"/><polygon class="cls-13" points="6.7 1.12 6.35 0.84 5.13 0.75 3.86 1.39 3.13 2.38 2.92 3.8 2.56 5.37 2.9 6.83 2.59 7.9 3.86 9.09 4.62 8.75 4.62 8.11 4.94 7.92 4.28 7.14 4.01 5.59 3.87 5.44 3.67 4.04 4.01 3.7 4.01 5.59 4.62 3.93 5.91 3.42 6.7 2.67 6.7 1.12"/><polygon class="cls-13" points="6.7 1.12 7.04 0.84 8.26 0.75 9.53 1.39 10.26 2.38 10.47 3.8 10.83 5.37 10.49 6.83 10.8 7.9 9.53 9.1 8.78 8.76 8.78 8.11 8.45 7.92 9.11 7.14 9.38 5.59 9.52 5.44 9.72 4.04 9.38 3.7 9.38 5.59 8.78 3.93 7.48 3.42 6.7 2.67 6.7 1.12"/><polygon class="cls-14" points="6.7 1.12 6.7 2.67 5.91 3.42 4.62 3.93 5.49 3.15 6.07 2.64 5.28 2.38 5.97 2.17 5.18 1.59 6.13 1.54 5.26 0.98 6.2 1.06 6.35 0.84 6.7 1.12"/><polygon class="cls-15" points="6.7 1.12 6.7 2.67 7.48 3.42 8.78 3.93 7.9 3.15 7.32 2.64 8.11 2.38 7.42 2.17 8.21 1.59 7.26 1.54 8.13 0.98 7.2 1.06 7.04 0.84 6.7 1.12"/><polygon class="cls-15" points="3.45 4.28 3.87 5.44 3.67 4.04 4.01 3.7 4.01 5.59 4.62 3.93 4.83 3.17 4.16 3.19 4.69 2.49 3.77 2.77 4.43 1.96 3.71 2.36 3.86 1.39 3.13 2.38 2.92 3.8 2.56 5.37 2.9 6.83 2.59 7.9 3.38 8.33 3.48 7.75 3.76 7.01 3.3 5.8 3.15 4.54 3.45 4.28"/><polygon class="cls-14" points="9.38 5.59 9.52 5.44 9.72 4.04 9.38 3.7 9.38 5.59 8.78 3.93 8.56 3.17 9.24 3.19 8.71 2.49 9.62 2.77 8.96 1.96 9.69 2.36 9.53 1.39 10.26 2.38 10.47 3.8 10.62 5.41 10.06 6.76 10.19 7.74 9.25 8.96 8.78 8.76 8.78 8.11 8.45 7.92 9.11 7.14 9.38 5.59"/><path class="cls-16" d="M8.26,1.61l1.27.64.73,1,.21,1.42.36,1.58-.34,1.45.31,1.07L9.53,10l1.28.58,1.31,2.37H1.24l1.3-2.37L3.86,10,2.59,8.76,2.9,7.69,2.56,6.24l.36-1.58.21-1.42.73-1,1.27-.64,1.22.09L6.7,2,7,1.7l1.22-.09M8.41.86,8.2.88,7,1,6.76,1,6.7,1,6.63,1,6.4,1,5.19.88,5,.86,4.8,1,3.53,1.6l-.15.08-.11.14-.73,1L2.43,3l0,.18L2.2,4.52,1.85,6.07l0,.17,0,.16.29,1.27-.26.89L1.76,9l.33.31.46.43-.31.14L2,10l-.12.21L.59,12.56,0,13.64H13.35l-.59-1.08-1.3-2.38L11.34,10l-.23-.1-.28-.13.47-.44L11.63,9l-.12-.43-.26-.89.29-1.27,0-.16,0-.17-.35-1.55L11,3.13,11,3l-.11-.15-.73-1L10,1.68,9.86,1.6,8.59,1,8.41.86Z" transform="translate(0 -0.86)"/><polygon class="cls-4" points="17.25 0.9 17.16 0.91 15.27 1.15 15.09 1.18 14.94 1.29 14.29 1.77 14.05 1.95 14.01 2.24 13.73 4.06 13.71 4.17 13.73 4.28 13.8 4.71 13.68 4.83 13.73 5.19 13.92 6.5 13.95 6.73 14.04 6.82 14.04 6.83 14.12 6.98 14.8 8.34 14.6 8.46 14.6 8.87 14.6 8.92 12.56 9.64 12.27 9.75 12.14 10.02 10.94 12.66 10.47 13.68 11.59 13.68 13.23 13.68 21.27 13.68 22.91 13.68 24.03 13.68 23.57 12.66 22.35 10.02 22.23 9.75 21.94 9.64 19.9 8.92 19.9 8.87 19.9 8.46 19.7 8.34 20.38 6.98 20.42 6.91 20.43 6.9 20.61 6.72 20.64 6.47 20.78 5.16 20.81 4.82 20.7 4.71 20.77 4.28 20.79 4.17 20.77 4.06 20.49 2.24 20.45 1.95 20.21 1.77 19.56 1.29 19.41 1.18 19.23 1.15 17.34 0.91 17.25 0.9 17.25 0.9"/><polygon class="cls-17" points="20.8 9.43 17.9 8.4 16.35 9.95 14.8 8.4 11.9 9.43 10.69 12.06 22.01 12.06 20.8 9.43"/><polygon class="cls-6" points="14.8 6.51 14.8 8.4 16.35 9.95 17.9 8.4 17.9 6.51 14.8 6.51"/><polygon class="cls-7" points="14.8 6.51 14.8 8.4 16.35 9.95 17.9 8.4 17.9 6.51 14.8 6.51"/><polygon class="cls-8" points="18.07 5.86 18.66 5.86 19.02 5.49 19.16 4.19 18.77 3.8 18.07 5.86"/><polygon class="cls-8" points="14.64 5.86 14.09 5.86 13.73 5.49 13.54 4.19 13.94 3.8 14.64 5.86"/><polygon class="cls-6" points="16.35 8.88 15.11 8.25 13.86 5.76 13.86 3.27 14.48 2.03 16.35 1.4 18.22 2.03 18.84 3.27 18.84 5.76 17.6 8.25 16.35 8.88"/><polygon class="cls-18" points="18.89 1.45 18.24 0.97 16.35 0.72 14.47 0.97 13.82 1.45 13.54 3.27 13.86 5.21 14.26 3.37 15.19 3 16.35 3.67 17.52 3 18.44 3.37 18.84 5.21 19.16 3.27 18.89 1.45"/><polygon class="cls-14" points="16.35 3.67 16.35 2.7 16.65 2.13 17.61 1.9 18.52 2.13 18.89 1.45 19.16 3.27 18.84 5.21 18.44 3.37 17.52 3 16.35 3.67"/><polygon class="cls-8" points="16.35 3.67 17.47 3.4 18.33 3.54 18.6 4.07 18.44 3.37 17.52 3 16.35 3.67"/><polygon class="cls-19" points="16.35 3.67 16.35 2.7 16.06 2.13 15.09 1.9 14.19 2.13 13.82 1.45 13.54 3.27 13.86 5.21 14.26 3.37 15.19 3 16.35 3.67"/><polygon class="cls-9" points="16.35 9.95 15.3 11.44 14.42 9.32 14.38 8.55 16.35 9.95"/><polygon class="cls-9" points="16.35 9.95 17.41 11.44 18.29 9.32 18.33 8.55 16.35 9.95"/><polygon class="cls-20" points="14.8 8.4 14.8 7.74 14.42 7.97 14.42 9.32 14.82 11.29 16.35 9.95 14.8 8.4"/><polygon class="cls-20" points="17.9 8.4 17.9 7.74 18.29 7.97 18.29 9.32 17.88 11.29 16.35 9.95 17.9 8.4"/><circle class="cls-21" cx="16.35" cy="10.88" r="0.23"/><circle class="cls-20" cx="16.35" cy="11.84" r="0.23"/><polygon class="cls-20" points="11.9 9.43 10.69 12.06 12.33 12.06 11.9 9.43"/><polygon class="cls-20" points="20.8 9.43 22.01 12.06 20.37 12.06 20.8 9.43"/><polygon class="cls-12" points="16.35 9.46 14.8 8.4 16.35 9.95 17.9 8.4 16.35 9.46"/><path class="cls-16" d="M16.35,1.59l1.89.24.65.48.27,1.82L19,4.92l.13.13L19,6.36l-.18.18v.08L17.9,8.51V8.6l.38.23V9.4h0l2.47.88L22,12.93H10.69l1.21-2.64,2.48-.88h0V8.83l.38-.23V8.51l-.94-1.89V6.49l-.13-.13-.19-1.31.13-.13-.13-.79.28-1.82.65-.48,1.88-.24m0-.73h-.09l-1.89.25-.18,0L14,1.25l-.65.49-.24.17,0,.29L12.83,4l0,.12,0,.11.07.42-.12.12.05.36L13,6.46l0,.23.09.09h0l.08.16.68,1.36-.2.12v.46l-2,.72-.29.1-.12.28L10,12.63l-.47,1H23.13l-.46-1L21.46,10l-.13-.28L21,9.61l-2-.72V8.43l-.2-.12L19.49,7l0-.08h0l.17-.18,0-.25.14-1.3,0-.35-.12-.11.07-.42,0-.11,0-.12L19.6,2.2l-.05-.29-.24-.17-.64-.49-.15-.11-.19,0L16.44.87Z" transform="translate(0 -0.86)"/><polygon class="cls-4" points="12.38 4.89 12.14 4.98 10.04 5.73 9.79 5.44 9.25 6.11 8.43 7.12 8.39 7.17 8.36 7.23 7.54 8.74 7.42 8.95 7.46 9.2 7.6 10.03 7.41 10.22 7.46 10.57 7.74 12.53 7.77 12.76 7.93 12.92 7.93 13 8.01 13.15 9.18 15.49 9.11 15.54 8.77 15.74 8.77 16.14 8.77 16.48 5.46 17.65 5.12 17.77 5.02 18.13 4.11 21.38 3.85 22.28 4.79 22.28 19.95 22.28 20.89 22.28 20.64 21.38 19.73 18.13 19.63 17.77 19.28 17.65 15.98 16.48 15.98 16.14 15.98 15.74 15.64 15.54 15.57 15.49 16.74 13.15 16.82 13 16.82 12.99 16.88 12.92 17.06 12.75 17.08 12.5 17.29 10.55 17.33 10.21 17.15 10.03 17.29 9.21 17.32 9 17.24 8.81 16.29 6.64 16.17 6.37 15.9 6.26 12.63 4.99 12.38 4.89 12.38 4.89"/><polygon class="cls-22" points="18.34 17.61 13.99 16.07 11.66 18.4 9.34 16.07 4.99 17.61 3.18 21.57 20.15 21.57 18.34 17.61"/><polygon class="cls-6" points="9.34 13.25 9.34 16.07 11.66 18.4 13.99 16.07 13.99 13.25 9.34 13.25"/><polygon class="cls-7" points="9.34 13.25 9.34 16.07 11.66 18.4 13.99 16.07 13.99 13.25 9.34 13.25"/><polygon class="cls-8" points="14.24 12.27 15.13 12.27 15.67 11.72 15.88 9.76 15.28 9.17 14.24 12.27"/><polygon class="cls-8" points="9.09 12.27 8.27 12.27 7.73 11.72 7.45 9.76 8.05 9.17 9.09 12.27"/><polygon class="cls-6" points="11.66 16.79 9.8 15.86 7.93 12.12 7.93 8.39 8.86 6.52 11.66 5.59 14.47 6.52 15.4 8.39 15.4 12.12 13.53 15.86 11.66 16.79"/><polygon class="cls-8" points="9.64 7.88 10.61 9.47 12.35 9.56 14.04 9.76 14.86 10.7 14.73 8.44 11.36 7.4 9.64 7.88"/><polygon class="cls-16" points="9.64 7.88 10.59 8.88 12.18 8.88 14.03 9.17 14.81 11.22 15.4 11.19 15.88 8.38 14.93 6.21 11.66 4.94 9.43 5.74 9.64 7.88"/><polygon class="cls-16" points="9.64 7.88 9.48 6.31 9.09 5.85 8.27 6.86 7.45 8.37 7.93 11.19 8.54 11.19 8.54 9.3 9.64 7.88"/><polygon class="cls-23" points="11.66 18.4 10.08 20.63 8.77 17.45 8.7 16.3 11.66 18.4"/><polygon class="cls-23" points="11.66 18.4 13.25 20.63 14.56 17.45 14.63 16.3 11.66 18.4"/><polygon class="cls-24" points="9.34 16.07 9.34 15.09 8.77 15.43 8.77 17.45 9.38 20.41 11.66 18.4 9.34 16.07"/><polygon class="cls-24" points="13.99 16.07 13.99 15.09 14.56 15.43 14.56 17.45 13.96 20.41 11.66 18.4 13.99 16.07"/><circle class="cls-25" cx="11.67" cy="19.79" r="0.34"/><circle class="cls-20" cx="11.67" cy="21.23" r="0.34"/><polygon class="cls-24" points="4.99 17.61 3.18 21.57 5.64 21.57 4.99 17.61"/><polygon class="cls-24" points="18.34 17.61 20.15 21.57 17.69 21.57 18.34 17.61"/><polygon class="cls-12" points="11.66 17.67 9.34 16.07 11.66 18.4 13.99 16.07 11.66 17.67"/><polygon class="cls-26" points="9.66 5.85 9.85 7.57 10.67 8.61 12.13 8.61 14.24 8.98 13.24 8.43 13.9 8.14 11.5 8 12.82 7.66 10.88 7.52 12.25 7.18 10.49 7.06 11.95 6.65 10.46 6.58 12.11 6.12 10.1 6.12 11.43 5.69 10.51 5.85 11.36 5.21 9.66 5.85"/><path class="cls-16" d="M11.67,5.8l3.26,1.27,1,2.17-.2,1.18.2.2-.21,2-.27.28V13L14,15.8V16l.57.35v.84l.07,0,3.71,1.31.91,3.25H4.08L5,18.47,8.7,17.16l.07,0V16.3L9.34,16V15.8L7.93,13v-.2l-.2-.2-.28-2,.2-.2-.2-1.19.82-1.51.82-1,.39.46L9.43,6.6l2.24-.8m0-.75-.25.09-2.1.74-.24-.29-.55.67-.82,1,0,0,0,0L6.83,8.89l-.12.22,0,.24.14.83-.19.19,0,.36L7,12.68l0,.23.16.16v.08l.08.15,1.17,2.35-.07,0-.34.2v.75l-3.3,1.17-.35.12-.1.35L3.4,21.53l-.26.9h17l-.25-.9L19,18.28l-.1-.35-.34-.12-3.31-1.17v-.75l-.34-.2-.07,0L16,13.3l.08-.15h0l.07-.06.17-.18,0-.24.22-2,0-.34-.18-.18.14-.82,0-.2L16.53,9l-1-2.17-.12-.27-.27-.11L11.92,5.14l-.24-.09Z" transform="translate(0 -0.86)"/></g></g></g></g></svg>