<svg xmlns="http://www.w3.org/2000/svg" xmlns:xlink="http://www.w3.org/1999/xlink" viewBox="0 0" preserveAspectRatio="xMinYMid"><defs><style>.cls-1{fill:none;}.cls-2{isolation:isolate;}.cls-3{clip-path:url(#clip-path);}.cls-4{fill:#69768b;opacity:0.4;}.cls-4,.cls-7,.cls-9{mix-blend-mode:multiply;}.cls-5{fill:#efbb8a;}.cls-6{fill:#444546;}.cls-7{opacity:0.6;}.cls-8{fill:#ce996e;}.cls-9{opacity:0.3;}</style><clipPath id="clip-path" transform="translate(0 -1.54)"><rect id="SVGID" class="cls-1" width="16" height="16"/></clipPath></defs><title>IX_FolderIcon</title><g class="cls-2"><g id="Layer_2" data-name="Layer 2"><g id="Layer_1-2" data-name="Layer 1"><g class="cls-3"><path class="cls-4" d="M15,7.32h-.61V5.55a1,1,0,0,0-1-1H6.5A.57.57,0,0,1,6,3.92V3.24a1.12,1.12,0,0,0-1.12-1H1.7a1.1,1.1,0,0,0-1,1v10.2a1,1,0,0,0,1,1H13.34a.77.77,0,0,0,.27,0,1,1,0,0,0,.75-.67L16,8.44A1,1,0,0,0,15,7.32Z" transform="translate(0 -1.54)"/><g id="_Group_" data-name="&lt;Group&gt;"><path class="cls-5" d="M1,13.28a.52.52,0,0,1-.52-.52V2.56A.6.6,0,0,1,1,2H4.18a.63.63,0,0,1,.63.52v.68a1.06,1.06,0,0,0,1,1.11h6.56a.52.52,0,0,1,.52.52v7.89a.52.52,0,0,1-.52.52Z" transform="translate(0 -1.54)"/><path class="cls-6" d="M4.18,2.54a.16.16,0,0,1,.13.06v.64A1.56,1.56,0,0,0,5.82,4.85l6.58,0,0,7.91L1,12.76V2.61S1,2.54,1,2.54H4.18m0-1H1a1.1,1.1,0,0,0-1,1v10.2a1,1,0,0,0,1,1H12.38a1,1,0,0,0,1-1V4.87a1,1,0,0,0-1-1H5.82a.57.57,0,0,1-.51-.61V2.56a1.12,1.12,0,0,0-1.13-1Z" transform="translate(0 -1.54)"/></g><g id="_Group_2" data-name="&lt;Group&gt;" class="cls-7"><path class="cls-8" d="M4.18,1.54H1a1.1,1.1,0,0,0-1,1v10.2a1,1,0,0,0,1,1H12.38a1,1,0,0,0,1-1V4.87a1,1,0,0,0-1-1H5.82a.57.57,0,0,1-.51-.61V2.56a1.12,1.12,0,0,0-1.13-1Z" transform="translate(0 -1.54)"/></g><g id="_Group_3" data-name="&lt;Group&gt;"><path class="cls-5" d="M1,13.28a.59.59,0,0,1-.43-.19.41.41,0,0,1-.09-.35L2.12,7.5c.11-.32.28-.36.44-.36H14a.62.62,0,0,1,.48.23.27.27,0,0,1,.06.25l-1.63,5.3a.54.54,0,0,1-.55.36Z" transform="translate(0 -1.54)"/><path class="cls-6" d="M14,7.64h0l-1.58,5.13H1L2.6,7.67v0H14m0-1H2.56a.92.92,0,0,0-.91.71L0,12.66a1,1,0,0,0,1,1.12H12.36a1,1,0,0,0,1-.71L15,7.76c.17-.6-.41-1.12-1-1.12Z" transform="translate(0 -1.54)"/></g><g id="_Group_4" data-name="&lt;Group&gt;" class="cls-9"><path class="cls-5" d="M12.36,13.78H1a1,1,0,0,1-1-1.12l15-4.9-1.64,5.31A1,1,0,0,1,12.36,13.78Z" transform="translate(0 -1.54)"/></g></g></g></g></g></svg>