<svg xmlns="http://www.w3.org/2000/svg" xmlns:xlink="http://www.w3.org/1999/xlink" viewBox="0 0 14.01 16"><defs><style>.cls-1{fill:none;}.cls-2{isolation:isolate;}.cls-3{clip-path:url(#clip-path);}.cls-4,.cls-6{fill:#69768b;}.cls-4{opacity:0.4;mix-blend-mode:multiply;}.cls-10,.cls-5,.cls-9{fill:#fff;}.cls-7{fill:#f4f5f6;}.cls-8{fill:#444546;}.cls-9{stroke:#e84d3d;}.cls-10,.cls-9{stroke-linecap:round;stroke-linejoin:round;}.cls-10{stroke:#444546;}</style><clipPath id="clip-path" transform="translate(-2)"><rect id="SVGID" class="cls-1" width="16" height="16"/></clipPath></defs><title>IX_History</title><g class="cls-2"><g id="Layer_2" data-name="Layer 2"><g id="Layer_1-2" data-name="Layer 1"><g class="cls-3"><g id="_Group_" data-name="&lt;Group&gt;"><path class="cls-4" d="M16,11a5,5,0,0,0-2.44-4.27V5L9.44.89H2.89V16H13.57v-.73A5,5,0,0,0,16,11Z" transform="translate(-2)"/><g id="_Group_2" data-name="&lt;Group&gt;"><polygon class="cls-5" points="0.5 14.61 0.5 0.5 6.34 0.5 10.18 4.34 10.18 14.61 0.5 14.61"/><path class="cls-6" d="M8.13,1l3.55,3.55v9.56H3V1H8.13m.42-1H2V15.11H12.68v-11L8.55,0Z" transform="translate(-2)"/></g><polygon class="cls-7" points="1 10.03 1 14.11 9.68 14.11 9.68 7.2 1 10.03"/><g id="_Group_3" data-name="&lt;Group&gt;"><path class="cls-6" d="M9,1.76l1.9,1.91H9V1.76M8.67,0H8V4.67h4.66V4l-4-4Z" transform="translate(-2)"/></g><polygon id="_Path_" data-name="&lt;Path&gt;" class="cls-4" points="6.67 4.67 6.67 5.98 10.68 4.67 6.67 4.67"/></g><circle class="cls-5" cx="8.01" cy="10" r="4.5"/><path class="cls-8" d="M10,6a4,4,0,1,1-4,4,4,4,0,0,1,4-4m0-1a5,5,0,1,0,5,5,5,5,0,0,0-5-5Z" transform="translate(-2)"/><line class="cls-9" x1="8.01" y1="10" x2="5.89" y2="12.12"/><polyline class="cls-10" points="8.01 7 8.01 10 5.89 7.88"/></g></g></g></g></svg>