<svg xmlns="http://www.w3.org/2000/svg" xmlns:xlink="http://www.w3.org/1999/xlink" viewBox="0 0 24 23.11"><defs><style>.cls-1{fill:none;}.cls-2{isolation:isolate;}.cls-3{clip-path:url(#clip-path);}.cls-11,.cls-4{fill:#69768b;}.cls-10,.cls-13,.cls-4{opacity:0.4;}.cls-10,.cls-4{mix-blend-mode:multiply;}.cls-5{fill:#efbb8a;}.cls-6{fill:#444546;}.cls-7,.cls-9{opacity:0.5;}.cls-13,.cls-14,.cls-8,.cls-9{fill:#fff;}.cls-14,.cls-9{mix-blend-mode:overlay;}.cls-12{fill:#ce996e;}.cls-14{opacity:0.3;}</style><clipPath id="clip-path" transform="translate(0)"><rect id="SVGID" class="cls-1" y="0.04" width="24" height="24"/></clipPath></defs><title>IX_Licensing</title><g class="cls-2"><g id="Layer_2" data-name="Layer 2"><g id="Layer_1-2" data-name="Layer 1"><g class="cls-3"><path class="cls-4" d="M21.75,3.22A7.65,7.65,0,0,0,8.91,10.5L1.29,18.1,1,18.4v4.71H5.86l.29-.29.75-.75H8.44l.3-.29L9.51,21l.29-.3V18.6H11l.3-.29.47-.47.7-.71-.7-.7-.18-.18h2l.3-.29.06-.06A7.65,7.65,0,0,0,21.75,3.22Zm-3.26,4a.49.49,0,0,1-.34.14.48.48,0,0,1-.34-.14.51.51,0,0,1-.14-.34.48.48,0,0,1,.48-.48.49.49,0,0,1,.34.14.48.48,0,0,1,.14.34A.51.51,0,0,1,18.49,7.19Z" transform="translate(0)"/><path class="cls-5" d="M20.05,3A6.66,6.66,0,0,0,9,9.82l-8,8v3.3H4.45l1-1H7l.77-.77v-2.7H9.54l.47-.47-1-1,.86-.86h2.31l.52-.52A6.66,6.66,0,0,0,20.05,3ZM18.2,6.89a1.48,1.48,0,1,1,0-2.09A1.48,1.48,0,0,1,18.2,6.89Z" transform="translate(0)"/><path class="cls-6" d="M15.33,1a6.66,6.66,0,1,1-2.66,12.76l-.52.52H9.84L9,15.14l1,1-.47.47H7.8v2.7L7,20.1H5.49l-1,1H1v-3.3l8-8A6.65,6.65,0,0,1,15.33,1m1.82,6.33a1.49,1.49,0,1,0-1-.44,1.49,1.49,0,0,0,1,.44M15.33,0A7.64,7.64,0,0,0,7.91,9.53L.29,17.13,0,17.42v4.72H4.86l.29-.3.75-.74H7.44l.3-.29L8.51,20l.29-.29V17.63H10l.3-.29.47-.47.7-.71-.7-.71-.18-.17h2l.3-.3.06-.06A7.66,7.66,0,1,0,15.33,0Zm1.82,6.33a.48.48,0,0,1-.34-.14.51.51,0,0,1-.14-.34.48.48,0,0,1,.48-.48.49.49,0,0,1,.34.14.48.48,0,0,1,.14.34.51.51,0,0,1-.14.34.49.49,0,0,1-.34.14Z" transform="translate(0)"/><g class="cls-7"><path class="cls-8" d="M18.7,7.39a1.49,1.49,0,0,0,0-2.09,1.43,1.43,0,0,0-.3-.2,1.45,1.45,0,0,1-2,2,1.21,1.21,0,0,0,.2.3A1.48,1.48,0,0,0,18.7,7.39Z" transform="translate(0)"/><rect class="cls-8" x="9.74" y="15.53" height="0.74" transform="translate(-8.39 11.55) rotate(-45)"/><path class="cls-8" d="M1.5,18.34l8-8a6.66,6.66,0,0,1,10.76-7.1L20.05,3A6.66,6.66,0,0,0,9,9.82l-8,8v3.3h.5Z" transform="translate(0)"/></g><path class="cls-9" d="M20.05,12.37A6.64,6.64,0,0,0,21.73,5.8l-8.25,8.26A6.67,6.67,0,0,0,20.05,12.37Z" transform="translate(0)"/><g class="cls-10"><polygon class="cls-11" points="9.04 16.13 7.3 16.13 7.3 18.83 6.53 19.6 4.99 19.6 3.95 20.64 1 20.64 1 21.14 4.45 21.14 5.49 20.1 7.03 20.1 7.8 19.33 7.8 16.63 9.54 16.63 10.01 16.16 9.51 15.66 9.04 16.13"/><path class="cls-11" d="M15.6,4.3a1.47,1.47,0,0,0,0,2.09,1.43,1.43,0,0,0,.3.2,1.45,1.45,0,0,1,2-2,3.13,3.13,0,0,0-.2-.3A1.48,1.48,0,0,0,15.6,4.3Z" transform="translate(0)"/><path class="cls-11" d="M20.05,3l-.26-.23a6.65,6.65,0,0,1-7.62,10.54l-.52.52H9.34l-.86.86.5.5.86-.86h2.31l.52-.52A6.66,6.66,0,0,0,20.05,3Z" transform="translate(0)"/></g><polygon class="cls-12" points="1 21.14 1 19.49 8.72 11.77 10.37 11.77 1 21.14"/><polygon class="cls-13" points="10.37 11.77 10.37 13.42 2.65 21.14 1 21.14 10.37 11.77"/><path class="cls-14" d="M8.75,8.62a6.4,6.4,0,0,0,.59,1.94l8.9-8.89a6.55,6.55,0,0,0-1.95-.59Z" transform="translate(0)"/></g></g></g></g></svg>