<svg id="Layer_1" data-name="Layer 1" xmlns="http://www.w3.org/2000/svg" viewBox="0 0 24 24"><defs><style>.cls-1{fill:#fff;fill-rule:evenodd;}</style></defs><title>IX</title><path class="cls-1" d="M21.66,12h0a1,1,0,0,0-1-1h-9a1,1,0,0,0-1,1h0a1,1,0,0,0,1,1h9A1,1,0,0,0,21.66,12Z"/><path class="cls-1" d="M23.29,12.71,24,12,19.76,7.76a1,1,0,0,0-1.41,0h0a1,1,0,0,0,0,1.41l3.54,3.54A1,1,0,0,0,23.29,12.71Z"/><path class="cls-1" d="M23.29,11.29,24,12l-4.24,4.24a1,1,0,0,1-1.41,0h0a1,1,0,0,1,0-1.41l3.54-3.54A1,1,0,0,1,23.29,11.29Z"/><path class="cls-1" d="M19.07,19.11a10,10,0,1,1,0-14.21,1,1,0,0,0,1.1.2l.08,0a.94.94,0,0,0,.26-1.49A12,12,0,0,0,11.83,0,12,12,0,0,0,12,24a12,12,0,0,0,8.48-3.52,1,1,0,0,0-.26-1.57h0A1,1,0,0,0,19.07,19.11Z"/></svg>