<svg id="Layer_1" data-name="Layer 1" xmlns="http://www.w3.org/2000/svg" viewBox="0 0 200 68"><defs><style>.cls-1{fill:#3b97d3;}.cls-2,.cls-3,.cls-7{fill:#fff;}.cls-2{fill-rule:evenodd;}.cls-3,.cls-6{opacity:0.6;}.cls-4{fill:#f38274;}.cls-5{fill:#ee3642;}</style></defs><title>IX</title><circle class="cls-1" cx="19.4" cy="34" r="19"/><path class="cls-2" d="M11.21,35.6a8.32,8.32,0,0,0,.29,1.08L9,38.1a11.18,11.18,0,0,0,1.55,2.72L13,39.38a8.48,8.48,0,0,0,1,1l-1.45,2.48a11.18,11.18,0,0,0,2.72,1.55l1.43-2.5a8.35,8.35,0,0,0,1.08.29v2.88a23,23,0,0,0,3.2,0V42.2a8.31,8.31,0,0,0,1.31-.37l1.45,2.48a11.16,11.16,0,0,0,2.5-1.47l-1.43-2.51a8.36,8.36,0,0,0,.95-1l2.48,1.45a11.17,11.17,0,0,0,1.55-2.72l-2.5-1.43a8.31,8.31,0,0,0,.29-1.08h2.88a23,23,0,0,0,0-3.2H27.6a8.31,8.31,0,0,0-.37-1.31l2.48-1.45a11.15,11.15,0,0,0-1.47-2.5l-2.5,1.43a8.39,8.39,0,0,0-.9-.9l1.43-2.5a11.2,11.2,0,0,0-2.5-1.47l-1.45,2.48A8.31,8.31,0,0,0,21,25.8V22.92a23,23,0,0,0-3.2,0V25.8a8.31,8.31,0,0,0-1.08.29l-1.43-2.5a11.17,11.17,0,0,0-2.72,1.55L14,27.62a8.25,8.25,0,0,0-1,.95l-2.5-1.43a11.17,11.17,0,0,0-1.47,2.5l2.48,1.45a8.32,8.32,0,0,0-.37,1.31H8.32a23,23,0,0,0,0,3.2ZM15.69,34a3.71,3.71,0,1,1,3.71,3.71A3.71,3.71,0,0,1,15.69,34Z"/><path class="cls-3" d="M116,21.65c.17-.29,0-.56-.29-.56h-.59a.83.83,0,0,0-.75.44l-1.15,1.78.86,1.33Zm.19,7.6L114.07,26l-.88,1.36,1.31,2a.79.79,0,0,0,.71.48h.68c.32,0,.49-.25.29-.58"/><path class="cls-3" d="M48,21.63a.5.5,0,0,1,.53-.54h.49a.52.52,0,0,1,.54.54V29.3a.5.5,0,0,1-.54.53h-.49A.49.49,0,0,1,48,29.3Zm-.17-3a1,1,0,0,1,1.9,0,.95.95,0,0,1-1.9,0"/><path class="cls-3" d="M51.29,21.63a.49.49,0,0,1,.51-.54H52c.32,0,.54.14.58.46l.05.41a4.11,4.11,0,0,1,2.56-1.09,2.66,2.66,0,0,1,2.87,3V29.3a.5.5,0,0,1-.54.53h-.49a.49.49,0,0,1-.53-.53V24.11c0-1.26-.39-1.88-1.58-1.88a3.39,3.39,0,0,0-2.12,1V29.3a.5.5,0,0,1-.54.53h-.49a.49.49,0,0,1-.53-.53Z"/><path class="cls-3" d="M60.19,22.26l-.88-.07c-.37,0-.53-.17-.53-.49v-.15c0-.32.2-.46.53-.46h.88V18.83a.52.52,0,0,1,.54-.54h.49a.5.5,0,0,1,.53.54v2.26h1.56a.46.46,0,0,1,.53.49v.2c0,.32-.2.48-.53.48H61.75v5c0,1.05.54,1.44,1.27,1.44a6.63,6.63,0,0,0,.7,0c.32-.07.53,0,.59.34l.07.37A.5.5,0,0,1,64,30,5.48,5.48,0,0,1,63,30a2.48,2.48,0,0,1-2.77-2.61Z"/><path class="cls-3" d="M70.29,24.69v-.34a2,2,0,1,0-3.9,0v.34Zm-5.46-.25a3.41,3.41,0,0,1,3.49-3.56,3.48,3.48,0,0,1,3.53,3.56v1a.37.37,0,0,1-.37.37H66.39v.65a2,2,0,0,0,2.1,2.21,7.41,7.41,0,0,0,2.05-.3c.34-.09.59,0,.68.34l.08.3a.52.52,0,0,1-.39.64,8.82,8.82,0,0,1-2.41.37,3.44,3.44,0,0,1-3.68-3.56Z"/><path class="cls-3" d="M73.2,18.05a.52.52,0,0,1,.54-.54h.49a.5.5,0,0,1,.53.54v10c0,.41.12.53.22.61a.43.43,0,0,1,.19.54l-.09.37a.47.47,0,0,1-.61.37,1.52,1.52,0,0,1-1.27-1.75Z"/><path class="cls-3" d="M76.9,18.05a.52.52,0,0,1,.54-.54h.49a.5.5,0,0,1,.53.54v10c0,.41.12.53.22.61a.43.43,0,0,1,.19.54l-.09.37a.47.47,0,0,1-.61.37,1.52,1.52,0,0,1-1.27-1.75Z"/><path class="cls-3" d="M85.31,24.69v-.34a2,2,0,1,0-3.9,0v.34Zm-5.46-.25a3.41,3.41,0,0,1,3.49-3.56,3.48,3.48,0,0,1,3.53,3.56v1a.37.37,0,0,1-.37.37H81.41v.65a2,2,0,0,0,2.1,2.21,7.41,7.41,0,0,0,2.05-.3c.34-.09.59,0,.68.34l.08.3a.52.52,0,0,1-.39.64,8.82,8.82,0,0,1-2.41.37,3.44,3.44,0,0,1-3.68-3.56Z"/><path class="cls-3" d="M91.35,28.69a3.57,3.57,0,0,0,2.09-1V23.21a3.47,3.47,0,0,0-2.09-1c-1.29,0-1.83.8-1.83,2.44v1.58c0,1.65.54,2.44,1.83,2.44m-3.41-4.28c0-2.24,1.2-3.54,3.17-3.54a3.69,3.69,0,0,1,2.32,1V18.05a.5.5,0,0,1,.53-.54h.49a.52.52,0,0,1,.54.54V29.3a.46.46,0,0,1-.49.53h-.32c-.32,0-.51-.08-.54-.41L93.59,29A3.76,3.76,0,0,1,91.11,30c-2,0-3.17-1.32-3.17-3.53Z"/><path class="cls-3" d="M100,28.69c1.54,0,2.07-1,2.07-2.65V24.87c0-1.61-.53-2.65-2.07-2.65S98,23.26,98,24.87V26c0,1.65.54,2.65,2.07,2.65m-3.65-4c0-2.36,1.36-3.87,3.65-3.87s3.66,1.51,3.66,3.87v1.44c0,2.37-1.37,3.87-3.66,3.87s-3.65-1.49-3.65-3.87Z"/><path class="cls-4" d="M107.74,26.6l-1.82,2.8a.76.76,0,0,1-.7.42h-.64c-.32,0-.48-.27-.29-.58l2.53-3.92-2.32-3.65c-.17-.29,0-.59.29-.59h.63a.83.83,0,0,1,.75.44l1.6,2.49.9,1.27Z"/><path class="cls-5" d="M111.68,26.6l-1.82,2.8a.76.76,0,0,1-.7.42h-.64c-.32,0-.48-.27-.29-.58l2.53-3.92-2.32-3.65c-.17-.29,0-.59.29-.59h.63a.83.83,0,0,1,.75.44L111.7,24l.9,1.27Z"/><g class="cls-6"><rect class="cls-7" x="47.88" y="35.75" width="2.39" height="14.58"/><path class="cls-7" d="M63.06,35.75v7.64q0,.81.06,2.25t.08,1.67h-.06L56,35.75H53.1V50.31h2.1V42.73q0-1.54-.14-3.39v-.65h.08l7.18,11.64h2.92V35.75Z"/><polygon class="cls-7" points="68.08 50.33 70.44 50.33 70.44 44.36 75.94 44.36 75.94 42.33 70.44 42.33 70.44 37.77 76.32 37.77 76.32 35.75 68.08 35.75 68.08 50.33"/><rect class="cls-7" x="77.92" y="35.75" width="2.39" height="14.58"/><path class="cls-7" d="M93.06,35.75v7.64q0,.81.12,2.25t.08,1.67H93.2L86,35.75h-2.9V50.31h2.1V42.73q0-1.54-.14-3.39v-.65h.08l7.18,11.64h2.92l0-14.58Z"/><rect class="cls-7" x="98.12" y="35.75" width="2.39" height="14.58"/><polygon class="cls-7" points="101.7 37.78 105.99 37.78 105.99 50.33 108.38 50.33 108.38 37.78 112.67 37.78 112.67 35.69 101.7 35.69 101.7 37.78"/><rect class="cls-7" x="113.88" y="35.75" width="2.39" height="14.58"/></g><g class="cls-6"><path class="cls-7" d="M117.88,22.36h-.21V21.27h-.37v-.18h1v.18h-.37Z"/><path class="cls-7" d="M118.91,22.36l-.37-1.06h0c0,.16,0,.3,0,.44v.62h-.19V21.09h.29l.35,1h0l.36-1h.29v1.27h-.2v-.63q0-.09,0-.25c0-.1,0-.16,0-.18h0l-.38,1.06Z"/></g><path class="cls-7" d="M128.06,50.29,122.7,37h-.08q.08,1.22.08,2.5V50.29h-1V35.92h1.55l5.09,12.64h.06l5.09-12.64h1.51V50.29h-1V39.4q0-1.14.12-2.36h-.08L128.7,50.29Z"/><path class="cls-7" d="M145,45.22h-5.84l-2,5.07h-1.11l5.78-14.43h.64l5.66,14.43H147Zm-5.48-.9h5.14l-2-5.18q-.25-.61-.59-1.69a15.84,15.84,0,0,1-.58,1.71Z"/><path class="cls-7" d="M159.63,50.29h-1l-8.51-12.76H150q.12,2.28.12,3.44v9.32h-1V35.92h1l8.5,12.74h.06q-.09-1.77-.09-3.36V35.92h1Z"/><path class="cls-7" d="M169.62,45.22h-5.84l-2,5.07h-1.11l5.78-14.43h.64l5.66,14.43h-1.13Zm-5.48-.9h5.14l-2-5.18q-.25-.61-.59-1.69a15.84,15.84,0,0,1-.58,1.71Z"/><path class="cls-7" d="M179.42,43h5.3v6.56a11.89,11.89,0,0,1-4.69.88,6.83,6.83,0,0,1-5.21-1.92A7.62,7.62,0,0,1,173,43.13a8.17,8.17,0,0,1,.9-3.89,6.3,6.3,0,0,1,2.58-2.62,7.84,7.84,0,0,1,3.85-.92,9.94,9.94,0,0,1,4.22.86l-.4.91a9.11,9.11,0,0,0-3.87-.87,5.92,5.92,0,0,0-4.51,1.75,6.59,6.59,0,0,0-1.67,4.73A6.77,6.77,0,0,0,175.68,48a6.18,6.18,0,0,0,4.65,1.64A9,9,0,0,0,183.7,49V44h-4.28Z"/><path class="cls-7" d="M195.18,50.29h-7.86V35.92h7.86v.92h-6.85v5.44h6.47v.92h-6.47v6.16h6.85Z"/></svg>