<svg xmlns="http://www.w3.org/2000/svg" xmlns:xlink="http://www.w3.org/1999/xlink" viewBox="0 0 23.98 22.9"><defs><style>.cls-1{fill:none;}.cls-2{isolation:isolate;}.cls-3{clip-path:url(#clip-path);}.cls-14,.cls-15,.cls-4{opacity:0.4;}.cls-11,.cls-14,.cls-16,.cls-18,.cls-19,.cls-21,.cls-4{mix-blend-mode:multiply;}.cls-5{fill:#69768b;}.cls-15,.cls-6{fill:#fff;}.cls-14,.cls-18,.cls-7{fill:#444546;}.cls-19,.cls-8{fill:#2d3e50;}.cls-9{fill:#eef0f2;}.cls-10{fill:#efbb8a;}.cls-11,.cls-12{fill:#ce996e;}.cls-11,.cls-18{opacity:0.6;}.cls-13{fill:#fbb03b;}.cls-15{mix-blend-mode:screen;}.cls-16{fill:#9dcbe8;}.cls-17{fill:#f6f8f9;}.cls-20{fill:#e84d3d;}.cls-21{fill:#b52b24;}</style><clipPath id="clip-path" transform="translate(-0.02 -1.1)"><rect id="SVGID" class="cls-1" width="24" height="24"/></clipPath></defs><title>IX_Management</title><g class="cls-2"><g id="Layer_2" data-name="Layer 2"><g id="Layer_1-2" data-name="Layer 1"><g class="cls-3"><g class="cls-4"><path class="cls-5" d="M12.51,2.1l-.13,0-3.31.42-.26,0-.21.15-1.13.85-.33.24-.07.41L6.59,7.42l0,.16,0,.15.14.88-.22.22.08.5.33,2.29,0,.32.18.18v.06l.1.21L8.55,15l-.43.26v.84L4.37,17.43l-.4.14L3.79,18,1.67,22.58,1,24H24l-.65-1.42L21.23,18l-.18-.38-.4-.14L16.9,16.1v-.84L16.47,15l1.3-2.61.09-.16.05-.05.24-.25,0-.35.25-2.29,0-.48-.21-.2.15-.88,0-.15,0-.16-.49-3.19-.06-.41-.33-.24-1.14-.85-.21-.15-.26,0-3.3-.42-.13,0Z" transform="translate(-0.02 -1.1)"/></g><polygon class="cls-6" points="0.78 21.4 3.32 15.87 7.6 14.36 7.6 13.44 8.18 13.09 6.62 9.96 6.62 9.81 6.42 9.61 6.03 6.91 6.25 6.69 6.05 5.47 6.58 2 7.99 0.96 11.49 0.5 14.99 0.96 16.4 2 16.93 5.47 16.73 6.69 16.95 6.9 16.66 9.6 16.36 9.9 16.36 9.96 14.8 13.09 15.38 13.44 15.38 14.36 19.67 15.87 22.2 21.4 0.78 21.4"/><path class="cls-7" d="M11.51,2.11l3.31.43L16,3.38l.49,3.19L16.21,8l.23.23-.25,2.28-.31.33V11l-1.65,3.3v.17l.67.4v1l4.42,1.56L21.44,22H1.58L3.7,17.37l4.42-1.56v-1l.67-.4v-.17L7.14,11v-.24l-.23-.24L6.58,8.19,6.8,8,6.58,6.57l.48-3.19L8.2,2.54l3.31-.43m0-1-.13,0-3.31.42-.26,0-.21.15-1.13.85-.33.24-.07.41L5.59,6.42l0,.16,0,.15.14.88-.22.22.08.5.33,2.29,0,.32.18.18v.06l.1.21L7.55,14l-.43.26v.84L3.37,16.43l-.4.14L2.79,17,.67,21.58,0,23H23l-.65-1.42L20.23,17l-.18-.38-.4-.14L15.9,15.1v-.84L15.47,14l1.3-2.61.09-.16.05-.05.24-.25,0-.35.25-2.29,0-.48-.21-.2.15-.88,0-.15,0-.16-.49-3.19-.06-.41-.33-.24-1.14-.85-.21-.15-.26,0-3.3-.42-.13,0Z" transform="translate(-0.02 -1.1)"/><polygon class="cls-8" points="19.3 16.27 15.91 15.05 14.88 13.72 14.21 13.32 14.21 14.47 11.49 17.19 8.77 14.47 8.77 13.32 8.1 13.72 7.12 15.05 3.68 16.27 1.56 20.9 21.43 20.9 19.3 16.27"/><polygon class="cls-9" points="8.1 14.71 10.49 20.9 12.49 20.9 14.88 14.71 11.49 17.19 8.1 14.71"/><polygon class="cls-10" points="8.77 11.16 8.77 14.47 11.49 17.19 14.21 14.47 14.21 11.16 8.77 11.16"/><polygon class="cls-11" points="8.77 11.16 8.77 14.47 11.49 17.19 14.21 14.47 14.21 11.16 8.77 11.16"/><polygon class="cls-12" points="14.5 10.02 15.55 10.02 16.18 9.38 16.43 7.09 15.72 6.4 14.5 10.02"/><polygon class="cls-12" points="8.48 10.02 7.52 10.02 6.89 9.38 6.56 7.09 7.26 6.4 8.48 10.02"/><polygon class="cls-10" points="11.49 15.31 9.31 14.22 7.12 9.85 7.12 5.48 8.21 3.29 11.49 2.2 14.77 3.29 15.86 5.48 15.86 9.85 13.68 14.22 11.49 15.31"/><polygon class="cls-13" points="15.94 2.28 14.8 1.44 11.49 1.01 8.18 1.44 7.05 2.28 6.56 5.47 7.12 8.88 7.82 5.65 9.45 4.99 11.49 6.17 13.53 4.99 15.16 5.65 15.86 8.88 16.43 5.47 15.94 2.28"/><polygon class="cls-14" points="11.49 6.17 11.49 4.47 12.01 3.47 13.7 3.08 15.29 3.48 15.94 2.28 16.43 5.47 15.86 8.88 15.16 5.65 13.53 4.99 11.49 6.17"/><polygon class="cls-12" points="11.49 6.17 13.45 5.7 14.97 5.94 15.43 6.88 15.16 5.65 13.53 4.99 11.49 6.17"/><polygon class="cls-15" points="11.49 6.17 11.49 4.47 10.97 3.47 9.28 3.08 7.69 3.48 7.05 2.28 6.56 5.47 7.12 8.88 7.82 5.65 9.45 4.99 11.49 6.17"/><polygon class="cls-16" points="11.49 17.19 10.11 19.89 8.1 14.71 8.77 14.47 11.49 17.19"/><polygon class="cls-16" points="11.49 17.19 12.88 19.89 14.88 14.71 14.21 14.47 11.49 17.19"/><polygon class="cls-17" points="8.77 14.47 8.77 13.32 8.1 14.71 10.12 19.14 11.49 17.19 8.77 14.47"/><polygon class="cls-17" points="14.21 14.47 14.21 13.32 14.88 14.71 12.86 19.14 11.49 17.19 14.21 14.47"/><polygon class="cls-8" points="3.68 16.27 1.56 20.9 4.44 20.9 3.68 16.27"/><polygon class="cls-8" points="19.3 16.27 21.43 20.9 18.55 20.9 19.3 16.27"/><polygon class="cls-18" points="11.49 16.34 8.77 14.47 11.49 17.19 14.21 14.47 11.49 16.34"/><polygon class="cls-19" points="8.48 20.9 8.1 20.3 9.18 19.03 7.81 19.03 7.12 15.05 7.69 19.6 8.48 19.6 7.96 20.3 8.15 20.9 8.48 20.9"/><polygon class="cls-19" points="14.55 20.9 14.93 20.3 13.86 19.03 15.22 19.03 15.91 15.05 15.34 19.6 14.55 19.6 15.07 20.3 14.88 20.9 14.55 20.9"/><polygon class="cls-20" points="11.49 17.19 10.6 18.46 10.74 19.14 10.88 19.36 11.02 18.98 11.49 18.82 11.96 18.98 12.11 19.36 12.25 19.14 12.39 18.46 11.49 17.19"/><polygon class="cls-20" points="10.88 19.36 10.49 20.9 12.49 20.9 12.11 19.36 11.96 18.98 11.49 18.82 11.02 18.98 10.88 19.36"/><polygon class="cls-21" points="12.11 19.36 11.96 18.98 11.49 18.82 11.02 18.98 10.88 19.36 10.75 19.86 11.09 19.24 11.49 19.14 11.89 19.24 12.23 19.86 12.11 19.36"/><polygon class="cls-19" points="3.68 16.27 4.44 20.9 4.94 20.9 3.68 16.27"/><polygon class="cls-19" points="19.3 16.27 18.55 20.9 18.04 20.9 19.3 16.27"/></g></g></g></g></svg>