<svg xmlns="http://www.w3.org/2000/svg" xmlns:xlink="http://www.w3.org/1999/xlink" viewBox="0 0 17.36 24"><defs><style>.cls-1{fill:none;}.cls-2{isolation:isolate;}.cls-3{clip-path:url(#clip-path);}.cls-4{fill:#69768b;opacity:0.4;mix-blend-mode:multiply;}.cls-5{fill:#fff;}.cls-6{fill:#444546;}.cls-7{fill:#f4f5f6;}.cls-8{fill:#cee4f3;}</style><clipPath id="clip-path" transform="translate(-4 0)"><rect id="SVGID" class="cls-1" width="24" height="24"/></clipPath></defs><title>IX_Projects</title><g class="cls-2"><g id="Layer_2" data-name="Layer 2"><g id="Layer_1-2" data-name="Layer 1"><g class="cls-3"><g id="_Group_" data-name="&lt;Group&gt;"><polygon id="_Path_" data-name="&lt;Path&gt;" class="cls-4" points="17.36 24 1.34 24 1.34 1.34 11.16 1.34 17.36 7.54 17.36 24"/><g id="_Group_2" data-name="&lt;Group&gt;"><polygon class="cls-5" points="0.5 22.16 0.5 0.5 9.61 0.5 15.52 6.41 15.52 22.16 0.5 22.16"/><path class="cls-6" d="M13.41,1,19,6.62v15H5V1h8.41m.41-1H4V22.66H20V6.2L13.82,0Z" transform="translate(-4 0)"/></g><polygon class="cls-7" points="1 15.21 1 21.66 15.02 21.66 15.02 10.63 1 15.21"/><g id="_Group_3" data-name="&lt;Group&gt;"><polygon class="cls-8" points="9.52 6.5 9.52 0.5 9.79 0.5 15.53 6.23 15.53 6.5 9.52 6.5"/><path class="cls-6" d="M14,1.44,18.59,6H14V1.44M14,0H13V7h7V6L14,0Z" transform="translate(-4 0)"/></g><polygon id="_Path_2" data-name="&lt;Path&gt;" class="cls-4" points="10 7 10 8.97 16.02 7 10 7"/></g></g></g></g></g></svg>