<svg xmlns="http://www.w3.org/2000/svg" xmlns:xlink="http://www.w3.org/1999/xlink" viewBox="0 0 23.95 24"><defs><style>.cls-1,.cls-13,.cls-14{fill:none;}.cls-2{isolation:isolate;}.cls-3{clip-path:url(#clip-path);}.cls-16,.cls-4{fill:#69768b;}.cls-14,.cls-4{opacity:0.4;}.cls-14,.cls-16,.cls-4,.cls-7{mix-blend-mode:multiply;}.cls-5{fill:#26b298;}.cls-6{fill:#444546;}.cls-16,.cls-7{opacity:0.3;}.cls-8{fill:#efc519;}.cls-9{fill:#e84d3d;}.cls-10{fill:#eb802d;}.cls-11{fill:#3b97d3;}.cls-12{fill:#dbe0e4;}.cls-13{stroke:#444546;}.cls-13,.cls-14{stroke-miterlimit:10;}.cls-14{stroke:#69768b;}.cls-15{fill:#fff;opacity:0.5;}.cls-15,.cls-16{fill-rule:evenodd;}</style><clipPath id="clip-path" transform="translate(-0.03)"><rect id="SVGID" class="cls-1" width="24" height="24" transform="translate(24 0) rotate(90)"/></clipPath></defs><title>IX_Reports</title><g class="cls-2"><g id="Layer_2" data-name="Layer 2"><g id="Layer_1-2" data-name="Layer 1"><g class="cls-3"><rect class="cls-4" x="17.97" y="10" width="4" height="14"/><rect class="cls-4" x="12.97" y="15" width="4" height="9"/><rect class="cls-4" x="8" y="20" width="4" height="4" transform="translate(31.97 12) rotate(90)"/><rect class="cls-5" x="19.47" y="9.5" width="3" height="13"/><path class="cls-6" d="M22,10V22H20V10h2m1-1H19V23h4V9Z" transform="translate(-0.03)"/><g class="cls-7"><rect class="cls-5" x="20.97" y="10" width="1" height="12.01"/></g><rect class="cls-8" x="14.47" y="14.5" width="3" height="8"/><path class="cls-6" d="M17,15v7H15V15h2m1-1H14v9h4V14Z" transform="translate(-0.03)"/><g class="cls-7"><rect class="cls-8" x="15.97" y="15.01" width="1" height="6.99"/></g><rect class="cls-9" x="9.47" y="19.5" width="3" height="3"/><path class="cls-6" d="M12,20v2H10V20h2m1-1H9v4h4V19Z" transform="translate(-0.03)"/><g class="cls-7"><rect class="cls-9" x="10.97" y="20" width="1" height="2"/></g><circle class="cls-4" cx="7.02" cy="7.06" r="6"/><path class="cls-10" d="M6.06,11.56a5.5,5.5,0,0,1,0-11,.5.5,0,0,1,.5.5v10A.5.5,0,0,1,6.06,11.56Z" transform="translate(-0.03)"/><path class="cls-6" d="M6.06,1.06v10a5,5,0,0,1,0-10m0-1a6,6,0,0,0,0,12,1,1,0,0,0,1-1v-10a1,1,0,0,0-1-1Z" transform="translate(-0.03)"/><path class="cls-11" d="M6.06,11.56a.5.5,0,0,1-.5-.5v-5a.48.48,0,0,1,.25-.43l4.33-2.5a.45.45,0,0,1,.25-.07.5.5,0,0,1,.43.25,5.5,5.5,0,0,1-4.76,8.25Z" transform="translate(-0.03)"/><path class="cls-6" d="M10.39,3.56a5,5,0,0,1-4.33,7.5v-5l4.33-2.5m0-1a1,1,0,0,0-.5.13L5.56,5.19a1,1,0,0,0-.5.87v5a1,1,0,0,0,1,1,6,6,0,0,0,5.19-9,1,1,0,0,0-.86-.5Z" transform="translate(-0.03)"/><path class="cls-12" d="M6.06,6.56a.45.45,0,0,1-.25-.07.48.48,0,0,1-.25-.43v-5a.5.5,0,0,1,.5-.5,5.5,5.5,0,0,1,4.76,2.75.46.46,0,0,1,0,.38.5.5,0,0,1-.23.3L6.31,6.49A.47.47,0,0,1,6.06,6.56Z" transform="translate(-0.03)"/><path class="cls-6" d="M6.06,1.06a5,5,0,0,1,4.33,2.5L6.06,6.06v-5m0-1a1,1,0,0,0-1,1v5a1,1,0,0,0,.5.86,1,1,0,0,0,.5.14,1,1,0,0,0,.5-.14l4.33-2.5a1,1,0,0,0,.36-1.36,6,6,0,0,0-5.19-3Z" transform="translate(-0.03)"/><polygon class="cls-6" points="6.02 7.2 6.89 6.71 6 6.59 6.02 7.2"/><polyline class="cls-13" points="0.47 20.5 2.52 15.27 9.26 16 11.47 13.36 16.12 8.12 21.95 2"/><polyline class="cls-14" points="1.47 21.5 3.52 16.27 10.26 17 12.47 14.36 17.12 9.12 22.95 3"/><circle class="cls-9" cx="2.52" cy="15.27" r="1.5"/><path class="cls-6" d="M2.56,14.27a1,1,0,1,1-1,1,1,1,0,0,1,1-1m0-1a2,2,0,1,0,2,2,2,2,0,0,0-2-2Z" transform="translate(-0.03)"/><circle class="cls-8" cx="16.12" cy="8.12" r="1.5"/><path class="cls-6" d="M16.15,7.12a1,1,0,1,1-1,1,1,1,0,0,1,1-1m0-1a2,2,0,1,0,2,2,2,2,0,0,0-2-2Z" transform="translate(-0.03)"/><circle class="cls-11" cx="21.95" cy="2" r="1.5"/><path class="cls-6" d="M22,1a1,1,0,1,1-1,1,1,1,0,0,1,1-1m0-1a2,2,0,1,0,2,2,2,2,0,0,0-2-2Z" transform="translate(-0.03)"/><circle class="cls-10" cx="9.26" cy="16" r="1.5"/><path class="cls-6" d="M9.29,15a1,1,0,1,1-1,1,1,1,0,0,1,1-1m0-1a2,2,0,1,0,2,2,2,2,0,0,0-2-2Z" transform="translate(-0.03)"/><path class="cls-15" d="M5,1.63V1.16A5,5,0,0,0,2.73,9.79,5,5,0,0,1,5,1.63Z" transform="translate(-0.03)"/><path class="cls-15" d="M6.06,1.06v5l.36-4.65A5,5,0,0,1,9.74,2.69,5,5,0,0,0,6.06,1.06Z" transform="translate(-0.03)"/><path class="cls-16" d="M10.39,3.56a5.13,5.13,0,0,0-1-1.22A2.11,2.11,0,0,1,9.87,3.4L6.06,6.06Z" transform="translate(-0.03)"/><path class="cls-16" d="M5,1.16,4.76,10.6A5,5,0,0,1,2.37,9.43,5,5,0,0,0,5,11Z" transform="translate(-0.03)"/><path class="cls-16" d="M10.8,4.48l-.23.14a4.85,4.85,0,0,1,.13,1.09,5,5,0,0,1-4.28,4.92l-.36,0v.39a5,5,0,0,0,5-5A4.89,4.89,0,0,0,10.8,4.48Z" transform="translate(-0.03)"/><polygon class="cls-15" points="6.02 11.06 6.02 7.2 10.77 4.48 6.39 7.48 6.02 11.06"/></g></g></g></g></svg>