<svg xmlns="http://www.w3.org/2000/svg" xmlns:xlink="http://www.w3.org/1999/xlink" viewBox="0 0 24 24"><defs><style>.cls-1{fill:none;}.cls-2,.cls-9{isolation:isolate;}.cls-3{clip-path:url(#clip-path);}.cls-20,.cls-4{fill:#69768b;}.cls-13,.cls-4{opacity:0.4;}.cls-10,.cls-20,.cls-4{mix-blend-mode:multiply;}.cls-13,.cls-21,.cls-5{fill:#fff;}.cls-6{fill:#444546;}.cls-7{fill:#3996d2;}.cls-8{fill:#999ea4;}.cls-9{fill:#8a9ca4;opacity:0.15;}.cls-11{fill:#f6f8f9;}.cls-12{fill:#eb802d;}.cls-12,.cls-14,.cls-15,.cls-16{stroke:#444546;}.cls-12,.cls-14,.cls-15{stroke-miterlimit:10;}.cls-13{mix-blend-mode:screen;}.cls-14{fill:#bfc3c8;}.cls-15{fill:#f4a69e;}.cls-16{fill:#fffcf2;stroke-linejoin:bevel;}.cls-17{fill:#eef0f2;}.cls-18{fill:#ee3642;}.cls-19{fill:#f38274;}.cls-20,.cls-21{fill-rule:evenodd;}.cls-20{opacity:0.3;}.cls-21{opacity:0.5;}</style><clipPath id="clip-path" transform="translate(0)"><rect id="SVGID" class="cls-1" width="24" height="24"/></clipPath></defs><title>IX_Roles</title><g class="cls-2"><g id="Layer_2" data-name="Layer 2"><g id="Layer_1-2" data-name="Layer 1"><g class="cls-3"><path class="cls-4" d="M19.94,10.65l2.28-2.29a2.62,2.62,0,0,0-3.7-3.7L15,8.22V7.15L8.35,1H1V20.5H5.88V21H9.59l.5-.5h.85a7,7,0,1,0,9-9.85Z" transform="translate(0)"/><g id="_Group_" data-name="&lt;Group&gt;"><g id="_Group_2" data-name="&lt;Group&gt;"><polygon class="cls-5" points="0.75 18.75 0.75 0.75 7.05 0.75 13.2 6.45 13.2 18.75 0.75 18.75"/><polygon class="cls-5" points="0.5 19 0.5 0.5 7.15 0.5 13.45 6.37 13.45 19 0.5 19"/><path class="cls-6" d="M7,1l6,5.59V18.5H1V1H7m.39-1H0V19.5H14V6.15L7.35,0Z" transform="translate(0)"/><g id="_Group_3" data-name="&lt;Group&gt;"><g id="_Group_4" data-name="&lt;Group&gt;"><g id="_Group_5" data-name="&lt;Group&gt;"><g id="_Group_6" data-name="&lt;Group&gt;"><path id="_Compound_Path_" data-name="&lt;Compound Path&gt;" class="cls-7" d="M4.26,8.39h-.7V4.7H2.3V4.1H5.53v.6H4.26Z" transform="translate(0)"/></g><rect id="_Rectangle_" data-name="&lt;Rectangle&gt;" class="cls-8" x="6.53" y="4.1" width="5.33" height="0.61"/><rect id="_Rectangle_2" data-name="&lt;Rectangle&gt;" class="cls-8" x="6.53" y="5.32" width="5.33" height="0.61"/><rect id="_Rectangle_3" data-name="&lt;Rectangle&gt;" class="cls-8" x="6.53" y="6.55" width="5.33" height="0.61"/><rect id="_Rectangle_4" data-name="&lt;Rectangle&gt;" class="cls-8" x="6.53" y="7.77" width="5.33" height="0.61"/><rect id="_Rectangle_5" data-name="&lt;Rectangle&gt;" class="cls-8" x="2.3" y="8.99" width="9.56" height="0.61"/><rect id="_Rectangle_6" data-name="&lt;Rectangle&gt;" class="cls-8" x="2.3" y="10.21" width="6.33" height="0.61"/></g></g></g></g><polygon id="_Path_" data-name="&lt;Path&gt;" class="cls-9" points="7.07 7.26 7.07 9.36 12.3 7.26 7.07 7.26"/><path class="cls-6" d="M8.07,2l4.54,4.22H8.07V2M7.35,0H7.07V7.26H14V6.15L7.35,0Z" transform="translate(0)"/><polyline class="cls-5" points="8.07 2.04 12.61 6.26 8.07 6.26 8.07 2.04"/><g id="_Group_7" data-name="&lt;Group&gt;" class="cls-10"><polygon class="cls-11" points="13.95 19.5 0 19.5 0 13.3 13.95 8.74 13.95 19.5"/></g></g><polygon class="cls-12" points="5.53 19.49 5.53 16.49 15.52 6.5 18.52 9.5 8.53 19.49 5.53 19.49"/><rect class="cls-13" x="4.74" y="11.26" width="14.13" height="1.62" transform="translate(-5.08 11.88) rotate(-45)"/><rect class="cls-14" x="16.62" y="4.87" width="2.81" height="4.24" transform="translate(0.33 14.8) rotate(-45)"/><path class="cls-15" d="M20.53,7.49,21,7a2.12,2.12,0,0,0,0-3h0a2.12,2.12,0,0,0-3,0l-.49.49Z" transform="translate(0)"/><polygon class="cls-16" points="5.53 16.49 5.53 19.49 8.53 19.49 5.53 16.49"/><circle class="cls-17" cx="16" cy="16" r="6"/><path class="cls-18" d="M15.77,16.64l-1,1.57a.43.43,0,0,1-.39.24H14c-.18,0-.26-.16-.16-.33l1.42-2.19-1.3-2a.21.21,0,0,1,.16-.34h.35a.48.48,0,0,1,.42.25l.89,1.4.5.71Z" transform="translate(0)"/><path class="cls-19" d="M18,16.64l-1,1.57a.44.44,0,0,1-.39.24h-.36a.2.2,0,0,1-.17-.33l1.42-2.19-1.3-2a.21.21,0,0,1,.16-.34h.35a.48.48,0,0,1,.42.25L18,15.2l.51.71Z" transform="translate(0)"/><path class="cls-6" d="M16,10a6,6,0,1,1-6,6,6,6,0,0,1,6-6m0-1a7,7,0,1,0,7,7,7,7,0,0,0-7-7Z" transform="translate(0)"/><path class="cls-20" d="M20,11.53a6,6,0,0,1-8.41,8.52A6,6,0,1,0,20,11.53Z" transform="translate(0)"/><path class="cls-21" d="M10.43,16.42a6,6,0,0,1,10-4.47A6,6,0,1,0,12,20.47,6,6,0,0,1,10.43,16.42Z" transform="translate(0)"/></g></g></g></g></svg>