<svg xmlns="http://www.w3.org/2000/svg" xmlns:xlink="http://www.w3.org/1999/xlink" viewBox="0 0 24 24"><defs><style>.cls-1{fill:none;}.cls-2{isolation:isolate;}.cls-3{clip-path:url(#clip-path);}.cls-4{fill:#69768b;opacity:0.4;mix-blend-mode:multiply;}.cls-5{fill:#b4bbc5;}.cls-6{fill:#444546;}.cls-10,.cls-11,.cls-7,.cls-9{fill:#fff;}.cls-7,.cls-8,.cls-9{opacity:0.5;}.cls-11,.cls-7{mix-blend-mode:overlay;}.cls-11{opacity:0.3;}</style><clipPath id="clip-path" transform="translate(0 0)"><rect id="SVGID" class="cls-1" width="24" height="24"/></clipPath></defs><title>IX_Settings</title><g class="cls-2"><g id="Layer_2" data-name="Layer 2"><g id="Layer_1-2" data-name="Layer 1"><g class="cls-3"><path class="cls-4" d="M23.24,10.48l-3-.91-.2-.48,1.47-2.76.38-.7-.57-.56-1.4-1.4-.56-.57-.7.38L15.91,5l-.48-.2-.91-3L14.29,1H10.71l-.23.76-.91,3L9.09,5,6.33,3.48l-.7-.38-.56.57-1.4,1.4-.57.56.38.7L5,9.09l-.2.48-3,.91L1,10.71v3.58l.76.23,3,.91.2.48L3.48,18.67l-.38.7.57.56,1.4,1.4.56.57.7-.38,2.76-1.47.48.2.91,3,.23.76h3.58l.23-.76.91-3,.48-.2,2.76,1.47.7.38.56-.57,1.4-1.4.57-.56-.38-.7-1.47-2.76.2-.48,3-.91.76-.23V10.71ZM12.5,15A2.48,2.48,0,1,1,15,12.5,2.48,2.48,0,0,1,12.5,15Z" transform="translate(0 0)"/><path class="cls-5" d="M18.41,13.56l3.52-1.07v-2L18.41,9.44h0a6.6,6.6,0,0,0-.57-1.37h0l1.73-3.24L18.17,3.42,14.93,5.15h0a6.6,6.6,0,0,0-1.37-.57h0L12.49,1.07h-2L9.44,4.59h0a6.6,6.6,0,0,0-1.37.57h0L4.83,3.42,3.42,4.83,5.15,8.07h0a6.6,6.6,0,0,0-.57,1.37h0L1.07,10.51v2l3.52,1.07h0a6.6,6.6,0,0,0,.57,1.37h0L3.42,18.17l1.41,1.41,3.24-1.73h0a6.6,6.6,0,0,0,1.37.57h0l1.07,3.52h2l1.07-3.52h0a6.6,6.6,0,0,0,1.37-.57h0l3.24,1.73,1.41-1.41-1.73-3.24h0a6.6,6.6,0,0,0,.57-1.37ZM11.5,15.05a3.55,3.55,0,1,1,3.55-3.55A3.56,3.56,0,0,1,11.5,15.05Z" transform="translate(0 0)"/><path class="cls-5" d="M13.07,4.09h0l.39.14-1-3.16h-.34Z" transform="translate(0 0)"/><polygon class="cls-5" points="18.63 3.88 18.17 3.42 18.17 3.42 18.63 3.88"/><path class="cls-5" d="M8.77,13.74A3.5,3.5,0,0,1,8,11.5,3.56,3.56,0,0,1,11.5,8a3.5,3.5,0,0,1,2.24.82,3.54,3.54,0,1,0-5,5Z" transform="translate(0 0)"/><path class="cls-5" d="M19.58,4.83l-.5-.5L17.35,7.58h0a7.07,7.07,0,0,1,.56,1.36h0l.35.11a6.61,6.61,0,0,0-.43-1h0Z" transform="translate(0 0)"/><path class="cls-5" d="M4.09,13.07h0l-3-.92v.34l3.16,1C4.19,13.33,4.13,13.2,4.09,13.07Z" transform="translate(0 0)"/><path class="cls-4" d="M18.41,13.56l3.52-1.07v-2l-.5-.15V12l-3.51,1.07h0a7.34,7.34,0,0,1-.56,1.36h0l1.73,3.25-1.4,1.4-3.25-1.73h0a7.34,7.34,0,0,1-1.36.56h0L12,21.43H10.36l.15.5h2l1.07-3.52h0a6.6,6.6,0,0,0,1.37-.57h0l3.24,1.73,1.41-1.41-1.73-3.24h0a6.6,6.6,0,0,0,.57-1.37Z" transform="translate(0 0)"/><path class="cls-5" d="M8.94,17.92h0a7.07,7.07,0,0,1-1.36-.56h0L4.33,19.08l-.2-.21.7.71,3.24-1.73h0a6.61,6.61,0,0,0,1,.43Z" transform="translate(0 0)"/><path class="cls-6" d="M12.49,1.07l1.07,3.52h0a6.6,6.6,0,0,1,1.37.57h0l3.24-1.73,1.41,1.41L17.85,8.07h0a6.6,6.6,0,0,1,.57,1.37h0l3.52,1.07v2l-3.52,1.07h0a6.6,6.6,0,0,1-.57,1.37h0l1.73,3.24-1.41,1.41-3.24-1.73h0a6.6,6.6,0,0,1-1.37.57h0l-1.07,3.52h-2L9.44,18.41h0a6.6,6.6,0,0,1-1.37-.57h0L4.83,19.58,3.42,18.17l1.73-3.24h0a6.6,6.6,0,0,1-.57-1.37h0L1.07,12.49v-2L4.59,9.44h0a6.6,6.6,0,0,1,.57-1.37h0L3.42,4.83,4.83,3.42,8.07,5.15h0a6.6,6.6,0,0,1,1.37-.57h0l1.07-3.52h2m-1,14A3.55,3.55,0,1,0,8,11.5a3.56,3.56,0,0,0,3.55,3.55M13.29,0H9.71L9.48.76l-.91,3L8.09,4,5.33,2.48l-.7-.38-.56.57-1.4,1.4-.57.56.38.7L4,8.09l-.2.48-3,.91L0,9.71v3.58l.76.23,3,.91.2.48L2.48,17.67l-.38.7.57.56,1.4,1.4.56.57.7-.38,2.76-1.47.48.2.91,3,.23.76h3.58l.23-.76.91-3,.48-.2,2.76,1.47.7.38.56-.57,1.4-1.4.57-.56-.38-.7-1.47-2.76.2-.48,3-.91.76-.23V9.71l-.76-.23-3-.91-.2-.48,1.47-2.76.38-.7-.57-.56-1.4-1.4-.56-.57-.7.38L14.91,4l-.48-.2-.91-3L13.29,0ZM11.5,14A2.48,2.48,0,1,1,14,11.5,2.48,2.48,0,0,1,11.5,14Z" transform="translate(0 0)"/><path class="cls-7" d="M18.41,9.44h0a6.6,6.6,0,0,0-.57-1.37h0l1.73-3.24-.28-.28L14.39,9.46a3.52,3.52,0,0,1,.66,2,3.56,3.56,0,0,1-3.55,3.55,3.52,3.52,0,0,1-2-.66L4.55,19.3l.28.28,3.24-1.73h0a6.6,6.6,0,0,0,1.37.57h0l.83,2.75L21.16,10.27Z" transform="translate(0 0)"/><g class="cls-8"><path class="cls-9" d="M1.58,11,5.09,9.94h0a7.34,7.34,0,0,1,.56-1.36h0L3.93,5.33l1.4-1.4L8.58,5.66h0A7.34,7.34,0,0,1,9.94,5.1h0L11,1.58h1.64l-.16-.51h-2L9.44,4.59h0a6.6,6.6,0,0,0-1.37.57h0L4.83,3.42,3.42,4.83,5.15,8.07h0a6.6,6.6,0,0,0-.57,1.37h0L1.07,10.51v2l.51.16Z" transform="translate(0 0)"/><path class="cls-10" d="M14.07,5.09h0a7.34,7.34,0,0,1,1.36.56h0l3.25-1.73.9.9L18.17,3.42,14.93,5.15h0a7,7,0,0,0-1-.43Z" transform="translate(0 0)"/><path class="cls-10" d="M15.56,12a3.55,3.55,0,0,0-1.32-2.73,3.5,3.5,0,0,1,.81,2.23,3.56,3.56,0,0,1-3.55,3.55,3.5,3.5,0,0,1-2.23-.81A3.54,3.54,0,0,0,15.56,12Z" transform="translate(0 0)"/><path class="cls-10" d="M18.91,9.94h0l3,.92v-.35l-3.16-1C18.82,9.68,18.87,9.81,18.91,9.94Z" transform="translate(0 0)"/><path class="cls-10" d="M9.94,18.92h0l-.39-.14,1,3.16h.35Z" transform="translate(0 0)"/><path class="cls-10" d="M3.42,18.17l.51.51,1.73-3.25h0a7.34,7.34,0,0,1-.56-1.36h0L4.73,14a7,7,0,0,0,.43,1h0Z" transform="translate(0 0)"/><polygon class="cls-10" points="4.32 19.07 4.83 19.58 4.83 19.58 4.32 19.07"/></g><path class="cls-1" d="M12.26,8,8,12.26a3.54,3.54,0,0,0,1.42,2.13l4.93-4.93A3.54,3.54,0,0,0,12.26,8Z" transform="translate(0 0)"/><path class="cls-11" d="M8,11.5A3.56,3.56,0,0,1,11.5,8a3.22,3.22,0,0,1,.76.09l3.13-3.13-.46.24h0a6.6,6.6,0,0,0-1.37-.57h0l-.83-2.74L1.85,12.73l2.74.83h0a6.6,6.6,0,0,0,.57,1.37h0l-.24.46L8,12.26A3.22,3.22,0,0,1,8,11.5Z" transform="translate(0 0)"/></g></g></g></g></svg>