<svg xmlns="http://www.w3.org/2000/svg" xmlns:xlink="http://www.w3.org/1999/xlink" viewBox="0 0 24.07 24.54"><defs><style>.cls-1{fill:none;}.cls-2{isolation:isolate;}.cls-3{clip-path:url(#clip-path);}.cls-4{fill:#69768b;opacity:0.4;}.cls-10,.cls-14,.cls-4,.cls-7{mix-blend-mode:multiply;}.cls-10,.cls-5{fill:#efc519;}.cls-6{fill:#efbb8a;}.cls-7,.cls-8{fill:#ce996e;}.cls-14,.cls-7{opacity:0.6;}.cls-14,.cls-9{fill:#444546;}.cls-11{fill:#fcf1c5;}.cls-12{fill:#fdf7e3;}.cls-13{fill:#f4a69e;}.cls-15{fill:#999;}</style><clipPath id="clip-path"><rect id="SVGID" class="cls-1" y="0.54" width="24" height="24"/></clipPath></defs><title>IX_Users</title><g class="cls-2"><g id="Layer_2" data-name="Layer 2"><g id="Layer_1-2" data-name="Layer 1"><g class="cls-3"><polygon class="cls-4" points="12.54 0.96 12.2 1.08 9.35 2.09 9.02 1.7 8.29 2.61 7.17 3.98 7.12 4.05 7.07 4.13 5.96 6.17 5.8 6.46 5.85 6.79 6.05 7.92 5.78 8.18 5.85 8.66 6.24 11.31 6.28 11.63 6.49 11.84 6.49 11.95 6.59 12.15 8.19 15.34 8.09 15.39 7.63 15.67 7.63 16.22 7.63 16.68 3.15 18.27 2.68 18.43 2.54 18.91 1.3 23.32 0.96 24.54 2.23 24.54 22.8 24.54 24.07 24.54 23.73 23.32 22.5 18.91 22.36 18.43 21.89 18.27 17.41 16.68 17.41 16.22 17.41 15.67 16.95 15.39 16.85 15.34 18.45 12.15 18.55 11.95 18.55 11.94 18.64 11.85 18.87 11.61 18.91 11.28 19.19 8.63 19.24 8.16 19 7.92 19.19 6.82 19.23 6.53 19.12 6.27 17.83 3.32 17.67 2.96 17.3 2.81 12.87 1.09 12.54 0.96 12.54 0.96"/><polygon class="cls-5" points="20.61 18.21 14.71 16.12 11.56 19.28 8.41 16.12 2.51 18.21 0.04 23.58 23.07 23.58 20.61 18.21"/><polygon class="cls-6" points="8.41 12.29 8.41 16.12 11.56 19.28 14.71 16.12 14.71 12.29 8.41 12.29"/><polygon class="cls-7" points="8.41 12.29 8.41 16.12 11.56 19.28 14.71 16.12 14.71 12.29 8.41 12.29"/><polygon class="cls-8" points="15.05 10.96 16.26 10.96 16.99 10.22 17.28 7.56 16.47 6.76 15.05 10.96"/><polygon class="cls-8" points="8.07 10.96 6.96 10.96 6.22 10.22 5.84 7.56 6.65 6.76 8.07 10.96"/><polygon class="cls-6" points="11.56 17.1 9.03 15.83 6.49 10.76 6.49 5.7 7.76 3.16 11.56 1.9 15.36 3.16 16.63 5.7 16.63 10.76 14.09 15.83 11.56 17.1"/><polygon class="cls-7" points="8.81 5 10.13 7.16 12.49 7.29 14.79 7.56 15.89 8.84 15.71 5.77 11.15 4.36 8.81 5"/><polygon class="cls-9" points="8.81 5 10.1 6.36 12.25 6.36 14.77 6.76 15.82 9.54 16.63 9.5 17.28 5.69 15.99 2.75 11.56 1.02 8.52 2.1 8.81 5"/><polygon class="cls-9" points="8.81 5 8.6 2.88 8.07 2.25 6.96 3.63 5.84 5.67 6.49 9.5 7.33 9.5 7.33 6.94 8.81 5"/><polygon class="cls-10" points="11.56 19.28 9.41 22.31 7.63 17.99 7.54 16.43 11.56 19.28"/><polygon class="cls-10" points="11.56 19.28 13.7 22.31 15.49 17.99 15.57 16.43 11.56 19.28"/><polygon class="cls-11" points="8.41 16.12 8.41 14.79 7.63 15.26 7.63 17.99 8.45 22 11.56 19.28 8.41 16.12"/><polygon class="cls-11" points="14.71 16.12 14.71 14.79 15.49 15.26 15.49 17.99 14.66 22 11.56 19.28 14.71 16.12"/><circle class="cls-12" cx="11.56" cy="21.17" r="0.46"/><circle class="cls-13" cx="11.56" cy="23.12" r="0.46"/><polygon class="cls-11" points="2.51 18.21 0.04 23.58 3.38 23.58 2.51 18.21"/><polygon class="cls-11" points="20.61 18.21 23.07 23.58 19.74 23.58 20.61 18.21"/><polygon class="cls-14" points="11.56 18.29 8.41 16.12 11.56 19.28 14.71 16.12 11.56 18.29"/><polygon class="cls-15" points="9.11 2.21 9.36 4.57 10.48 5.99 12.48 5.99 15.38 6.5 14.02 5.75 14.92 5.36 11.63 5.16 13.43 4.7 10.78 4.5 12.65 4.04 10.24 3.87 12.24 3.31 10.19 3.21 12.46 2.58 9.71 2.58 11.53 2 10.27 2.21 11.43 1.34 9.11 2.21"/><polygon class="cls-15" points="6.86 9 7.07 6.14 8.36 5 7.14 5.46 8.68 3.81 7.74 3.99 8.21 2.71 7.33 3.82 6.34 5.71 6.86 9"/><path class="cls-9" d="M11.56,1,16,2.75l1.29,2.94L17,7.29l.28.27L17,10.22l-.36.37v.17l-1.92,3.83v.2l.78.47V16.4l.09,0,5,1.78,1.23,4.41H1.27l1.24-4.41,5-1.78.09,0V15.26l.78-.47v-.2L6.49,10.76v-.27l-.26-.27L5.84,7.56l.28-.27L5.84,5.67,7,3.63,8.07,2.25l.53.63L8.52,2.1l3-1.08m0-1-.33.12-2.85,1L8.06.74l-.73.91L6.21,3l-.06.07,0,.08L5,5.21l-.16.29,0,.33L5.09,7l-.27.26.07.48.38,2.65.05.32.21.21V11l.1.2,1.6,3.19-.1,0-.46.28v1L2.19,17.3l-.47.17L1.58,18,.34,22.36,0,23.58H23.11l-.34-1.22L21.54,18l-.14-.48-.47-.17-4.48-1.58v-1L16,14.43l-.1,0,1.6-3.19.1-.2h0l.09-.09.23-.24,0-.33.28-2.65.05-.47L18,7l.18-1.11.05-.28-.11-.26L16.87,2.36,16.71,2l-.37-.14L11.91.13,11.57,0Z"/></g></g></g></g></svg>