<svg xmlns="http://www.w3.org/2000/svg" xmlns:xlink="http://www.w3.org/1999/xlink" viewBox="0 0 24 23.08"><defs><style>.cls-1{fill:none;}.cls-2{isolation:isolate;}.cls-3{clip-path:url(#clip-path);}.cls-4{fill:#69768b;opacity:0.4;}.cls-4,.cls-8{mix-blend-mode:multiply;}.cls-5{fill:#e84d3d;}.cls-6{fill:#444546;}.cls-7{fill:#fff;opacity:0.5;}.cls-8{opacity:0.2;}.cls-9{fill:#26b298;}.cls-10{fill:#3b97d3;}</style><clipPath id="clip-path"><rect id="SVGID" class="cls-1" y="0.01" width="24" height="24"/></clipPath></defs><title>IX_Workflow</title><g class="cls-2"><g id="Layer_2" data-name="Layer 2"><g id="Layer_1-2" data-name="Layer 1"><g class="cls-3"><path class="cls-4" d="M23,15.08H20.5v-3.7H13.23V9a4,4,0,1,0-1,0v2.43h-7v4.37l-.36.63-3,5.2L1,23.08h9.46l-.86-1.5-3-5.2-.37-.63V12.38H19.5v2.7H16v8h8v-8Z"/><circle class="cls-5" cx="11.73" cy="4" r="3"/><path class="cls-6" d="M11.73,1a3,3,0,1,1-3,3,3,3,0,0,1,3-3m0-1a4,4,0,1,0,4,4,4,4,0,0,0-4-4Z"/><path class="cls-7" d="M9.24,4.5a3,3,0,0,1,4.84-2.35,3,3,0,1,0-4.19,4.2A2.93,2.93,0,0,1,9.24,4.5Z"/><g class="cls-8"><path d="M14.23,3.5A3,3,0,0,1,9.38,5.85,3,3,0,0,0,14.73,4a3,3,0,0,0-1.15-2.35A3,3,0,0,1,14.23,3.5Z"/></g><rect class="cls-6" x="11.23" y="7" width="1" height="3.88"/><polygon class="cls-6" points="19.5 16.88 18.5 16.88 18.5 11.38 5.23 11.38 5.23 16.88 4.23 16.88 4.23 10.38 19.5 10.38 19.5 16.88"/><polygon class="cls-9" points="4.73 15.88 1.73 21.08 7.73 21.08 4.73 15.88"/><path class="cls-6" d="M4.73,15.88l3,5.2h-6l3-5.2m0-2-.86,1.5-3,5.2L0,22.08H9.46l-.86-1.5-3-5.2-.87-1.5Z"/><rect class="cls-10" x="16" y="15.08" width="6" height="6"/><path class="cls-6" d="M22,15.08v6H16v-6h6m1-1H15v8h8v-8Z"/><polyline class="cls-7" points="16 21.08 16.5 15.57 22 15.08 16 15.08 16 21.09"/><polyline class="cls-8" points="22 15.09 21.5 20.59 16 21.09 22 21.09 22 15.08"/><polygon class="cls-7" points="4.73 15.88 1.73 21.08 2.24 21.08 5.02 16.38 4.73 15.88"/><g class="cls-8"><polygon points="1.73 21.08 7.73 21.08 4.73 15.88 6.71 20.47 1.73 21.08"/></g></g></g></g></g></svg>